G04 DesignSpark PCB Gerber Version 12.0 Build 5942*
%FSLAX35Y35*%
%MOMM*%
%ADD29O,1.45240X2.15240*%
%ADD24R,1.55240X1.57240*%
%ADD25C,1.55240*%
%ADD27C,1.67640*%
%ADD28C,1.95240*%
%ADD26R,3.15240X1.50240*%
%ADD75R,1.57240X1.55240*%
X0Y0D02*
D02*
D24*
X2885240Y4715240D03*
Y5480240D03*
Y6245240D03*
D02*
D25*
X1895240Y2970240D03*
Y3170240D03*
Y3370240D03*
X3085240Y4715240D03*
Y5480240D03*
Y6245240D03*
X3285240Y4715240D03*
Y5480240D03*
Y6245240D03*
X3485240Y4715240D03*
Y5480240D03*
Y6245240D03*
D02*
D26*
X2810240Y2108240D03*
Y2362240D03*
Y2616240D03*
Y2870240D03*
Y3124240D03*
Y3378240D03*
Y3632240D03*
Y3886240D03*
Y4140240D03*
X4334240Y2108240D03*
Y2362240D03*
Y2616240D03*
Y2870240D03*
Y3124240D03*
Y3378240D03*
D02*
D27*
X1335240Y3120240D03*
Y3374240D03*
Y3628240D03*
Y3882240D03*
Y4136240D03*
Y4390240D03*
Y4644240D03*
Y4898240D03*
Y5152240D03*
Y5406240D03*
Y5660240D03*
Y5914240D03*
Y6168240D03*
Y6422240D03*
Y6676240D03*
Y6930240D03*
X4220240Y4790240D03*
Y5044240D03*
X4470240Y6955240D03*
Y7209240D03*
Y7463240D03*
Y7717240D03*
Y7971240D03*
Y8225240D03*
X4510240Y5430240D03*
Y5684240D03*
Y6075240D03*
Y6329240D03*
D02*
D28*
X1550240Y2390240D03*
X1910240D03*
D02*
D29*
X1298240Y2010240D03*
X2162240D03*
D02*
D75*
X1895240Y3570240D03*
X0Y0D02*
M02*
