G04 DesignSpark PCB Gerber Version 12.0 Build 5942*
%FSLAX35Y35*%
%MOMM*%
%ADD10C,0.12700*%
X0Y0D02*
D02*
D10*
X1180240Y1740240D02*
X2280240D01*
Y2510240D01*
X1180240D01*
Y1740240D01*
X1409620Y8079930D02*
X1401680Y8071990D01*
X1385800Y8064050D01*
X1361990D01*
X1346120Y8071990D01*
X1338180Y8079930D01*
X1330240Y8095800D01*
Y8127550D01*
X1338180Y8143430D01*
X1346120Y8151370D01*
X1361990Y8159300D01*
X1385800D01*
X1401680Y8151370D01*
X1409620Y8143430D01*
X1457240Y8119620D02*
X1473120Y8127550D01*
X1496930D01*
X1512800Y8119620D01*
X1520740Y8103740D01*
Y8079930D01*
X1512800Y8071990D01*
X1496930Y8064050D01*
X1481050D01*
X1465180Y8071990D01*
X1457240Y8079930D01*
Y8087870D01*
X1465180Y8095800D01*
X1481050Y8103740D01*
X1496930D01*
X1512800Y8095800D01*
X1520740Y8087870D01*
Y8079930D02*
Y8064050D01*
X1584240D02*
Y8127550D01*
Y8103740D02*
X1592180Y8119620D01*
X1608050Y8127550D01*
X1623930D01*
X1639800Y8119620D01*
X1647740Y8103740D01*
Y8064050D01*
X1711240Y8087870D02*
X1719180Y8071990D01*
X1735050Y8064050D01*
X1766800D01*
X1782680Y8071990D01*
X1790620Y8087870D01*
X1782680Y8103740D01*
X1766800Y8111680D01*
X1735050D01*
X1719180Y8119620D01*
X1711240Y8135490D01*
X1719180Y8151370D01*
X1735050Y8159300D01*
X1766800D01*
X1782680Y8151370D01*
X1790620Y8135490D01*
X1838240Y8119620D02*
X1854120Y8127550D01*
X1877930D01*
X1893800Y8119620D01*
X1901740Y8103740D01*
Y8079930D01*
X1893800Y8071990D01*
X1877930Y8064050D01*
X1862050D01*
X1846180Y8071990D01*
X1838240Y8079930D01*
Y8087870D01*
X1846180Y8095800D01*
X1862050Y8103740D01*
X1877930D01*
X1893800Y8095800D01*
X1901740Y8087870D01*
Y8079930D02*
Y8064050D01*
X1978470Y8127550D02*
X2015510D01*
X1996990Y8143430D02*
Y8071990D01*
X2004930Y8064050D01*
X2012870D01*
X2020800Y8071990D01*
X2282740Y8064050D02*
X2219240D01*
X2274800Y8119620D01*
X2282740Y8135490D01*
X2274800Y8151370D01*
X2258930Y8159300D01*
X2235120D01*
X2219240Y8151370D01*
X2354180Y8071990D02*
X2370050Y8064050D01*
X2385930D01*
X2401800Y8071990D01*
X2409740Y8087870D01*
Y8135490D01*
X2401800Y8151370D01*
X2385930Y8159300D01*
X2370050D01*
X2354180Y8151370D01*
X2346240Y8135490D01*
Y8087870D01*
X2354180Y8071990D01*
X2401800Y8151370D01*
X2536740Y8064050D02*
X2473240D01*
X2528800Y8119620D01*
X2536740Y8135490D01*
X2528800Y8151370D01*
X2512930Y8159300D01*
X2489120D01*
X2473240Y8151370D01*
X2600240Y8071990D02*
X2616120Y8064050D01*
X2639930D01*
X2655800Y8071990D01*
X2663740Y8087870D01*
Y8095800D01*
X2655800Y8111680D01*
X2639930Y8119620D01*
X2600240D01*
Y8159300D01*
X2663740D01*
X1462240Y6961990D02*
Y2993240D01*
X1208240D01*
Y7025490D01*
X1398740D01*
X1462240Y6961990D01*
X1530800Y3103740D02*
X1554620D01*
Y3095800D01*
X1546680Y3079930D01*
X1538740Y3071990D01*
X1522870Y3064050D01*
X1506990D01*
X1491120Y3071990D01*
X1483180Y3079930D01*
X1475240Y3095800D01*
Y3127550D01*
X1483180Y3143430D01*
X1491120Y3151370D01*
X1506990Y3159300D01*
X1522870D01*
X1538740Y3151370D01*
X1546680Y3143430D01*
X1554620Y3127550D01*
X1602240Y3064050D02*
Y3159300D01*
X1681620Y3064050D01*
Y3159300D01*
X1729240Y3064050D02*
Y3159300D01*
X1776870D01*
X1792740Y3151370D01*
X1800680Y3143430D01*
X1808620Y3127550D01*
Y3095800D01*
X1800680Y3079930D01*
X1792740Y3071990D01*
X1776870Y3064050D01*
X1729240D01*
X1535800Y3368740D02*
X1559620D01*
Y3360800D01*
X1551680Y3344930D01*
X1543740Y3336990D01*
X1527870Y3329050D01*
X1511990D01*
X1496120Y3336990D01*
X1488180Y3344930D01*
X1480240Y3360800D01*
Y3392550D01*
X1488180Y3408430D01*
X1496120Y3416370D01*
X1511990Y3424300D01*
X1527870D01*
X1543740Y3416370D01*
X1551680Y3408430D01*
X1559620Y3392550D01*
X1615180Y3336990D02*
X1631050Y3329050D01*
X1646930D01*
X1662800Y3336990D01*
X1670740Y3352870D01*
Y3400490D01*
X1662800Y3416370D01*
X1646930Y3424300D01*
X1631050D01*
X1615180Y3416370D01*
X1607240Y3400490D01*
Y3352870D01*
X1615180Y3336990D01*
X1662800Y3416370D01*
X1480240Y3579050D02*
Y3674300D01*
X1559620D01*
X1543740Y3626680D02*
X1480240D01*
Y3579050D02*
X1559620D01*
X1607240D02*
Y3674300D01*
X1686620Y3579050D01*
Y3674300D01*
X1560800Y6418740D02*
X1584620D01*
Y6410800D01*
X1576680Y6394930D01*
X1568740Y6386990D01*
X1552870Y6379050D01*
X1536990D01*
X1521120Y6386990D01*
X1513180Y6394930D01*
X1505240Y6410800D01*
Y6442550D01*
X1513180Y6458430D01*
X1521120Y6466370D01*
X1536990Y6474300D01*
X1552870D01*
X1568740Y6466370D01*
X1576680Y6458430D01*
X1584620Y6442550D01*
X1632240Y6386990D02*
X1648120Y6379050D01*
X1671930D01*
X1687800Y6386990D01*
X1695740Y6402870D01*
Y6410800D01*
X1687800Y6426680D01*
X1671930Y6434620D01*
X1632240D01*
Y6474300D01*
X1695740D01*
X1759240Y6379050D02*
X1838620Y6474300D01*
X1886240Y6379050D02*
X1925930Y6474300D01*
X1965620Y6379050D01*
X1902120Y6418740D02*
X1949740D01*
X2013240Y6379050D02*
Y6474300D01*
X2060870D01*
X2076740Y6466370D01*
X2084680Y6458430D01*
X2092620Y6442550D01*
Y6410800D01*
X2084680Y6394930D01*
X2076740Y6386990D01*
X2060870Y6379050D01*
X2013240D01*
X2156120D02*
X2187870D01*
X2171990D02*
Y6474300D01*
X2156120Y6458430D01*
X2267240Y6410800D02*
X2330740D01*
X2433930Y6379050D02*
Y6474300D01*
X2394240Y6410800D01*
X2457740D01*
X1560800Y6683740D02*
X1584620D01*
Y6675800D01*
X1576680Y6659930D01*
X1568740Y6651990D01*
X1552870Y6644050D01*
X1536990D01*
X1521120Y6651990D01*
X1513180Y6659930D01*
X1505240Y6675800D01*
Y6707550D01*
X1513180Y6723430D01*
X1521120Y6731370D01*
X1536990Y6739300D01*
X1552870D01*
X1568740Y6731370D01*
X1576680Y6723430D01*
X1584620Y6707550D01*
X1640180Y6651990D02*
X1656050Y6644050D01*
X1671930D01*
X1687800Y6651990D01*
X1695740Y6667870D01*
X1687800Y6683740D01*
X1671930Y6691680D01*
X1656050D01*
X1671930D02*
X1687800Y6699620D01*
X1695740Y6715490D01*
X1687800Y6731370D01*
X1671930Y6739300D01*
X1656050D01*
X1640180Y6731370D01*
X1759240Y6644050D02*
X1838620Y6739300D01*
X1925930Y6644050D02*
Y6739300D01*
X1886240D02*
X1965620D01*
X2013240Y6644050D02*
X2076740Y6707550D01*
Y6644050D02*
X2013240Y6707550D01*
X2140240Y6644050D02*
Y6739300D01*
X2187870D01*
X2203740Y6731370D01*
X2211680Y6723430D01*
X2219620Y6707550D01*
Y6675800D01*
X2211680Y6659930D01*
X2203740Y6651990D01*
X2187870Y6644050D01*
X2140240D01*
X2283120D02*
X2314870D01*
X2298990D02*
Y6739300D01*
X2283120Y6723430D01*
X1565800Y3873740D02*
X1589620D01*
Y3865800D01*
X1581680Y3849930D01*
X1573740Y3841990D01*
X1557870Y3834050D01*
X1541990D01*
X1526120Y3841990D01*
X1518180Y3849930D01*
X1510240Y3865800D01*
Y3897550D01*
X1518180Y3913430D01*
X1526120Y3921370D01*
X1541990Y3929300D01*
X1557870D01*
X1573740Y3921370D01*
X1581680Y3913430D01*
X1589620Y3897550D01*
X1676930Y3834050D02*
Y3929300D01*
X1637240Y3865800D01*
X1700740D01*
X1803930Y3834050D02*
Y3929300D01*
X1764240Y3865800D01*
X1827740D01*
X1891240Y3834050D02*
X1970620Y3929300D01*
X2018240Y3834050D02*
Y3929300D01*
X2073800D01*
X2089680Y3921370D01*
X2097620Y3905490D01*
X2089680Y3889620D01*
X2073800Y3881680D01*
X2018240D01*
X2073800D02*
X2097620Y3834050D01*
X2145240D02*
X2208740Y3897550D01*
Y3834050D02*
X2145240Y3897550D01*
X2272240Y3834050D02*
Y3929300D01*
X2319870D01*
X2335740Y3921370D01*
X2343680Y3913430D01*
X2351620Y3897550D01*
Y3865800D01*
X2343680Y3849930D01*
X2335740Y3841990D01*
X2319870Y3834050D01*
X2272240D01*
X2462740D02*
X2399240D01*
X2454800Y3889620D01*
X2462740Y3905490D01*
X2454800Y3921370D01*
X2438930Y3929300D01*
X2415120D01*
X2399240Y3921370D01*
X1565800Y4133740D02*
X1589620D01*
Y4125800D01*
X1581680Y4109930D01*
X1573740Y4101990D01*
X1557870Y4094050D01*
X1541990D01*
X1526120Y4101990D01*
X1518180Y4109930D01*
X1510240Y4125800D01*
Y4157550D01*
X1518180Y4173430D01*
X1526120Y4181370D01*
X1541990Y4189300D01*
X1557870D01*
X1573740Y4181370D01*
X1581680Y4173430D01*
X1589620Y4157550D01*
X1676930Y4094050D02*
Y4189300D01*
X1637240Y4125800D01*
X1700740D01*
X1772180Y4101990D02*
X1788050Y4094050D01*
X1803930D01*
X1819800Y4101990D01*
X1827740Y4117870D01*
X1819800Y4133740D01*
X1803930Y4141680D01*
X1788050D01*
X1803930D02*
X1819800Y4149620D01*
X1827740Y4165490D01*
X1819800Y4181370D01*
X1803930Y4189300D01*
X1788050D01*
X1772180Y4181370D01*
X1891240Y4094050D02*
X1970620Y4189300D01*
X2057930Y4094050D02*
Y4189300D01*
X2018240D02*
X2097620D01*
X2145240Y4094050D02*
X2208740Y4157550D01*
Y4094050D02*
X2145240Y4157550D01*
X2272240Y4094050D02*
Y4189300D01*
X2319870D01*
X2335740Y4181370D01*
X2343680Y4173430D01*
X2351620Y4157550D01*
Y4125800D01*
X2343680Y4109930D01*
X2335740Y4101990D01*
X2319870Y4094050D01*
X2272240D01*
X2462740D02*
X2399240D01*
X2454800Y4149620D01*
X2462740Y4165490D01*
X2454800Y4181370D01*
X2438930Y4189300D01*
X2415120D01*
X2399240Y4181370D01*
X1565800Y6173740D02*
X1589620D01*
Y6165800D01*
X1581680Y6149930D01*
X1573740Y6141990D01*
X1557870Y6134050D01*
X1541990D01*
X1526120Y6141990D01*
X1518180Y6149930D01*
X1510240Y6165800D01*
Y6197550D01*
X1518180Y6213430D01*
X1526120Y6221370D01*
X1541990Y6229300D01*
X1557870D01*
X1573740Y6221370D01*
X1581680Y6213430D01*
X1589620Y6197550D01*
X1637240Y6134050D02*
X1700740Y6229300D01*
X1637240D01*
X1565800Y6923740D02*
X1589620D01*
Y6915800D01*
X1581680Y6899930D01*
X1573740Y6891990D01*
X1557870Y6884050D01*
X1541990D01*
X1526120Y6891990D01*
X1518180Y6899930D01*
X1510240Y6915800D01*
Y6947550D01*
X1518180Y6963430D01*
X1526120Y6971370D01*
X1541990Y6979300D01*
X1557870D01*
X1573740Y6971370D01*
X1581680Y6963430D01*
X1589620Y6947550D01*
X1653120Y6884050D02*
X1684870D01*
X1668990D02*
Y6979300D01*
X1653120Y6963430D01*
X1764240Y6884050D02*
X1843620Y6979300D01*
X1891240Y6884050D02*
Y6979300D01*
X1946800D01*
X1962680Y6971370D01*
X1970620Y6955490D01*
X1962680Y6939620D01*
X1946800Y6931680D01*
X1891240D01*
X1946800D02*
X1970620Y6884050D01*
X2018240D02*
X2081740Y6947550D01*
Y6884050D02*
X2018240Y6947550D01*
X2145240Y6884050D02*
Y6979300D01*
X2192870D01*
X2208740Y6971370D01*
X2216680Y6963430D01*
X2224620Y6947550D01*
Y6915800D01*
X2216680Y6899930D01*
X2208740Y6891990D01*
X2192870Y6884050D01*
X2145240D01*
X2288120D02*
X2319870D01*
X2303990D02*
Y6979300D01*
X2288120Y6963430D01*
X1570800Y5663740D02*
X1594620D01*
Y5655800D01*
X1586680Y5639930D01*
X1578740Y5631990D01*
X1562870Y5624050D01*
X1546990D01*
X1531120Y5631990D01*
X1523180Y5639930D01*
X1515240Y5655800D01*
Y5687550D01*
X1523180Y5703430D01*
X1531120Y5711370D01*
X1546990Y5719300D01*
X1562870D01*
X1578740Y5711370D01*
X1586680Y5703430D01*
X1594620Y5687550D01*
X1642240Y5624050D02*
Y5719300D01*
X1721620Y5624050D01*
Y5719300D01*
X1769240Y5624050D02*
Y5719300D01*
X1816870D01*
X1832740Y5711370D01*
X1840680Y5703430D01*
X1848620Y5687550D01*
Y5655800D01*
X1840680Y5639930D01*
X1832740Y5631990D01*
X1816870Y5624050D01*
X1769240D01*
X1570800Y5908740D02*
X1594620D01*
Y5900800D01*
X1586680Y5884930D01*
X1578740Y5876990D01*
X1562870Y5869050D01*
X1546990D01*
X1531120Y5876990D01*
X1523180Y5884930D01*
X1515240Y5900800D01*
Y5932550D01*
X1523180Y5948430D01*
X1531120Y5956370D01*
X1546990Y5964300D01*
X1562870D01*
X1578740Y5956370D01*
X1586680Y5948430D01*
X1594620Y5932550D01*
X1666050Y5869050D02*
X1681930Y5876990D01*
X1697800Y5892870D01*
X1705740Y5916680D01*
Y5940490D01*
X1697800Y5956370D01*
X1681930Y5964300D01*
X1666050D01*
X1650180Y5956370D01*
X1642240Y5940490D01*
X1650180Y5924620D01*
X1666050Y5916680D01*
X1681930D01*
X1697800Y5924620D01*
X1705740Y5940490D01*
X1528180Y4351990D02*
X1544050Y4344050D01*
X1559930D01*
X1575800Y4351990D01*
X1583740Y4367870D01*
X1575800Y4383740D01*
X1559930Y4391680D01*
X1544050D01*
X1559930D02*
X1575800Y4399620D01*
X1583740Y4415490D01*
X1575800Y4431370D01*
X1559930Y4439300D01*
X1544050D01*
X1528180Y4431370D01*
X1655180Y4344050D02*
X1663120Y4351990D01*
X1655180Y4359930D01*
X1647240Y4351990D01*
X1655180Y4344050D01*
X1782180Y4351990D02*
X1798050Y4344050D01*
X1813930D01*
X1829800Y4351990D01*
X1837740Y4367870D01*
X1829800Y4383740D01*
X1813930Y4391680D01*
X1798050D01*
X1813930D02*
X1829800Y4399620D01*
X1837740Y4415490D01*
X1829800Y4431370D01*
X1813930Y4439300D01*
X1798050D01*
X1782180Y4431370D01*
X1901240Y4439300D02*
X1940930Y4344050D01*
X1980620Y4439300D01*
X1580800Y4643740D02*
X1604620D01*
Y4635800D01*
X1596680Y4619930D01*
X1588740Y4611990D01*
X1572870Y4604050D01*
X1556990D01*
X1541120Y4611990D01*
X1533180Y4619930D01*
X1525240Y4635800D01*
Y4667550D01*
X1533180Y4683430D01*
X1541120Y4691370D01*
X1556990Y4699300D01*
X1572870D01*
X1588740Y4691370D01*
X1596680Y4683430D01*
X1604620Y4667550D01*
X1652240Y4604050D02*
Y4699300D01*
X1731620Y4604050D01*
Y4699300D01*
X1779240Y4604050D02*
Y4699300D01*
X1826870D01*
X1842740Y4691370D01*
X1850680Y4683430D01*
X1858620Y4667550D01*
Y4635800D01*
X1850680Y4619930D01*
X1842740Y4611990D01*
X1826870Y4604050D01*
X1779240D01*
X1580800Y4888740D02*
X1604620D01*
Y4880800D01*
X1596680Y4864930D01*
X1588740Y4856990D01*
X1572870Y4849050D01*
X1556990D01*
X1541120Y4856990D01*
X1533180Y4864930D01*
X1525240Y4880800D01*
Y4912550D01*
X1533180Y4928430D01*
X1541120Y4936370D01*
X1556990Y4944300D01*
X1572870D01*
X1588740Y4936370D01*
X1596680Y4928430D01*
X1604620Y4912550D01*
X1668120Y4849050D02*
X1699870D01*
X1683990D02*
Y4944300D01*
X1668120Y4928430D01*
X1779240Y4856990D02*
X1795120Y4849050D01*
X1818930D01*
X1834800Y4856990D01*
X1842740Y4872870D01*
Y4880800D01*
X1834800Y4896680D01*
X1818930Y4904620D01*
X1779240D01*
Y4944300D01*
X1842740D01*
X1906240Y4849050D02*
X1985620Y4944300D01*
X2033240Y4872870D02*
X2041180Y4856990D01*
X2057050Y4849050D01*
X2088800D01*
X2104680Y4856990D01*
X2112620Y4872870D01*
X2104680Y4888740D01*
X2088800Y4896680D01*
X2057050D01*
X2041180Y4904620D01*
X2033240Y4920490D01*
X2041180Y4936370D01*
X2057050Y4944300D01*
X2088800D01*
X2104680Y4936370D01*
X2112620Y4920490D01*
X2239620Y4864930D02*
X2231680Y4856990D01*
X2215800Y4849050D01*
X2191990D01*
X2176120Y4856990D01*
X2168180Y4864930D01*
X2160240Y4880800D01*
Y4912550D01*
X2168180Y4928430D01*
X2176120Y4936370D01*
X2191990Y4944300D01*
X2215800D01*
X2231680Y4936370D01*
X2239620Y4928430D01*
X2287240Y4944300D02*
Y4849050D01*
X2366620D01*
X1580800Y5148740D02*
X1604620D01*
Y5140800D01*
X1596680Y5124930D01*
X1588740Y5116990D01*
X1572870Y5109050D01*
X1556990D01*
X1541120Y5116990D01*
X1533180Y5124930D01*
X1525240Y5140800D01*
Y5172550D01*
X1533180Y5188430D01*
X1541120Y5196370D01*
X1556990Y5204300D01*
X1572870D01*
X1588740Y5196370D01*
X1596680Y5188430D01*
X1604620Y5172550D01*
X1668120Y5109050D02*
X1699870D01*
X1683990D02*
Y5204300D01*
X1668120Y5188430D01*
X1787180Y5116990D02*
X1803050Y5109050D01*
X1818930D01*
X1834800Y5116990D01*
X1842740Y5132870D01*
X1834800Y5148740D01*
X1818930Y5156680D01*
X1803050D01*
X1818930D02*
X1834800Y5164620D01*
X1842740Y5180490D01*
X1834800Y5196370D01*
X1818930Y5204300D01*
X1803050D01*
X1787180Y5196370D01*
X1906240Y5109050D02*
X1985620Y5204300D01*
X2033240Y5132870D02*
X2041180Y5116990D01*
X2057050Y5109050D01*
X2088800D01*
X2104680Y5116990D01*
X2112620Y5132870D01*
X2104680Y5148740D01*
X2088800Y5156680D01*
X2057050D01*
X2041180Y5164620D01*
X2033240Y5180490D01*
X2041180Y5196370D01*
X2057050Y5204300D01*
X2088800D01*
X2104680Y5196370D01*
X2112620Y5180490D01*
X2160240Y5109050D02*
Y5204300D01*
X2207870D01*
X2223740Y5196370D01*
X2231680Y5188430D01*
X2239620Y5172550D01*
Y5140800D01*
X2231680Y5124930D01*
X2223740Y5116990D01*
X2207870Y5109050D01*
X2160240D01*
X2287240D02*
X2326930Y5204300D01*
X2366620Y5109050D01*
X2303120Y5148740D02*
X2350740D01*
X1535240Y5366990D02*
X1551120Y5359050D01*
X1574930D01*
X1590800Y5366990D01*
X1598740Y5382870D01*
Y5390800D01*
X1590800Y5406680D01*
X1574930Y5414620D01*
X1535240D01*
Y5454300D01*
X1598740D01*
X1662240D02*
X1701930Y5359050D01*
X1741620Y5454300D01*
X1739930Y7879050D02*
Y7974300D01*
X1700240D02*
X1779620D01*
X1827240Y7879050D02*
Y7974300D01*
X1906620D01*
X1890740Y7926680D02*
X1827240D01*
Y7879050D02*
X1906620D01*
X1954240Y7902870D02*
X1962180Y7886990D01*
X1978050Y7879050D01*
X2009800D01*
X2025680Y7886990D01*
X2033620Y7902870D01*
X2025680Y7918740D01*
X2009800Y7926680D01*
X1978050D01*
X1962180Y7934620D01*
X1954240Y7950490D01*
X1962180Y7966370D01*
X1978050Y7974300D01*
X2009800D01*
X2025680Y7966370D01*
X2033620Y7950490D01*
X2120930Y7879050D02*
Y7974300D01*
X2081240D02*
X2160620D01*
X2390800Y7926680D02*
X2406680Y7918740D01*
X2414620Y7902870D01*
X2406680Y7886990D01*
X2390800Y7879050D01*
X2335240D01*
Y7974300D01*
X2390800D01*
X2406680Y7966370D01*
X2414620Y7950490D01*
X2406680Y7934620D01*
X2390800Y7926680D01*
X2335240D01*
X2462240Y7902870D02*
X2470180Y7886990D01*
X2486050Y7879050D01*
X2501930D01*
X2517800Y7886990D01*
X2525740Y7902870D01*
Y7918740D01*
X2517800Y7934620D01*
X2501930Y7942550D01*
X2486050D01*
X2470180Y7934620D01*
X2462240Y7918740D01*
Y7902870D01*
X2589240Y7934620D02*
X2605120Y7942550D01*
X2628930D01*
X2644800Y7934620D01*
X2652740Y7918740D01*
Y7894930D01*
X2644800Y7886990D01*
X2628930Y7879050D01*
X2613050D01*
X2597180Y7886990D01*
X2589240Y7894930D01*
Y7902870D01*
X2597180Y7910800D01*
X2613050Y7918740D01*
X2628930D01*
X2644800Y7910800D01*
X2652740Y7902870D01*
Y7894930D02*
Y7879050D01*
X2716240D02*
Y7942550D01*
Y7918740D02*
X2724180Y7934620D01*
X2740050Y7942550D01*
X2755930D01*
X2771800Y7934620D01*
X2906740Y7918740D02*
X2898800Y7934620D01*
X2882930Y7942550D01*
X2867050D01*
X2851180Y7934620D01*
X2843240Y7918740D01*
Y7902870D01*
X2851180Y7886990D01*
X2867050Y7879050D01*
X2882930D01*
X2898800Y7886990D01*
X2906740Y7902870D01*
Y7879050D02*
Y7974300D01*
X2065240Y3800240D02*
X1705240D01*
Y2740240D01*
X2165240D01*
Y3700240D01*
X2065240Y3800240D01*
X2253740Y7694050D02*
X2190240D01*
X2245800Y7749620D01*
X2253740Y7765490D01*
X2245800Y7781370D01*
X2229930Y7789300D01*
X2206120D01*
X2190240Y7781370D01*
X2325180Y7701990D02*
X2341050Y7694050D01*
X2356930D01*
X2372800Y7701990D01*
X2380740Y7717870D01*
Y7765490D01*
X2372800Y7781370D01*
X2356930Y7789300D01*
X2341050D01*
X2325180Y7781370D01*
X2317240Y7765490D01*
Y7717870D01*
X2325180Y7701990D01*
X2372800Y7781370D01*
X2507740Y7694050D02*
X2444240D01*
X2499800Y7749620D01*
X2507740Y7765490D01*
X2499800Y7781370D01*
X2483930Y7789300D01*
X2460120D01*
X2444240Y7781370D01*
X2571240Y7701990D02*
X2587120Y7694050D01*
X2610930D01*
X2626800Y7701990D01*
X2634740Y7717870D01*
Y7725800D01*
X2626800Y7741680D01*
X2610930Y7749620D01*
X2571240D01*
Y7789300D01*
X2634740D01*
X2698240Y7694050D02*
X2777620Y7789300D01*
X2833180Y7701990D02*
X2849050Y7694050D01*
X2864930D01*
X2880800Y7701990D01*
X2888740Y7717870D01*
Y7765490D01*
X2880800Y7781370D01*
X2864930Y7789300D01*
X2849050D01*
X2833180Y7781370D01*
X2825240Y7765490D01*
Y7717870D01*
X2833180Y7701990D01*
X2880800Y7781370D01*
X2991930Y7694050D02*
Y7789300D01*
X2952240Y7725800D01*
X3015740D01*
X3079240Y7694050D02*
X3158620Y7789300D01*
X3222120Y7694050D02*
X3253870D01*
X3237990D02*
Y7789300D01*
X3222120Y7773430D01*
X3333240Y7701990D02*
X3349120Y7694050D01*
X3372930D01*
X3388800Y7701990D01*
X3396740Y7717870D01*
Y7725800D01*
X3388800Y7741680D01*
X3372930Y7749620D01*
X3333240D01*
Y7789300D01*
X3396740D01*
X2273740Y3694680D02*
Y3670860D01*
X2265800D01*
X2249930Y3678800D01*
X2241990Y3686740D01*
X2234050Y3702610D01*
Y3718490D01*
X2241990Y3734360D01*
X2249930Y3742300D01*
X2265800Y3750240D01*
X2297550D01*
X2313430Y3742300D01*
X2321370Y3734360D01*
X2329300Y3718490D01*
Y3702610D01*
X2321370Y3686740D01*
X2313430Y3678800D01*
X2297550Y3670860D01*
X2234050Y3623240D02*
X2297550D01*
X2273740D02*
X2289620Y3615300D01*
X2297550Y3599430D01*
Y3583550D01*
X2289620Y3567680D01*
X2257870Y3496240D02*
X2241990Y3488300D01*
X2234050Y3472430D01*
Y3456550D01*
X2241990Y3440680D01*
X2257870Y3432740D01*
X2273740D01*
X2289620Y3440680D01*
X2297550Y3456550D01*
Y3472430D01*
X2289620Y3488300D01*
X2273740Y3496240D01*
X2257870D01*
X2297550Y3369240D02*
X2234050Y3337490D01*
X2297550Y3305740D01*
X2241990Y3178740D02*
X2234050Y3186680D01*
Y3202550D01*
Y3218430D01*
X2241990Y3234300D01*
X2257870Y3242240D01*
X2281680D01*
X2289620Y3234300D01*
X2297550Y3218430D01*
Y3202550D01*
X2289620Y3186680D01*
X2281680Y3178740D01*
X2273740D01*
X2265800Y3186680D01*
X2257870Y3202550D01*
Y3218430D01*
X2265800Y3234300D01*
X2273740Y3242240D01*
X2234050Y3091430D02*
Y3059680D01*
Y3075550D02*
X2329300D01*
Y3091430D02*
Y3059680D01*
X2234050Y2924740D02*
Y2988240D01*
X2289620Y2932680D01*
X2305490Y2924740D01*
X2321370Y2932680D01*
X2329300Y2948550D01*
Y2972360D01*
X2321370Y2988240D01*
X2249930Y2781860D02*
X2241990Y2789800D01*
X2234050Y2805680D01*
Y2829490D01*
X2241990Y2845360D01*
X2249930Y2853300D01*
X2265800Y2861240D01*
X2297550D01*
X2313430Y2853300D01*
X2321370Y2845360D01*
X2329300Y2829490D01*
Y2805680D01*
X2321370Y2789800D01*
X2313430Y2781860D01*
X2655240Y4885240D02*
Y4525240D01*
X3715240D01*
Y4985240D01*
X2755240D01*
X2655240Y4885240D01*
Y5650240D02*
Y5290240D01*
X3715240D01*
Y5750240D01*
X2755240D01*
X2655240Y5650240D01*
Y6415240D02*
Y6055240D01*
X3715240D01*
Y6515240D01*
X2755240D01*
X2655240Y6415240D01*
X2775800Y6588740D02*
X2799620D01*
Y6580800D01*
X2791680Y6564930D01*
X2783740Y6556990D01*
X2767870Y6549050D01*
X2751990D01*
X2736120Y6556990D01*
X2728180Y6564930D01*
X2720240Y6580800D01*
Y6612550D01*
X2728180Y6628430D01*
X2736120Y6636370D01*
X2751990Y6644300D01*
X2767870D01*
X2783740Y6636370D01*
X2791680Y6628430D01*
X2799620Y6612550D01*
X2847240Y6549050D02*
Y6644300D01*
X2902800D01*
X2918680Y6636370D01*
X2926620Y6620490D01*
X2918680Y6604620D01*
X2902800Y6596680D01*
X2847240D01*
X2974240Y6572870D02*
X2982180Y6556990D01*
X2998050Y6549050D01*
X3029800D01*
X3045680Y6556990D01*
X3053620Y6572870D01*
X3045680Y6588740D01*
X3029800Y6596680D01*
X2998050D01*
X2982180Y6604620D01*
X2974240Y6620490D01*
X2982180Y6636370D01*
X2998050Y6644300D01*
X3029800D01*
X3045680Y6636370D01*
X3053620Y6620490D01*
X3228240Y6644300D02*
X3267930Y6549050D01*
X3307620Y6644300D01*
X3371120Y6549050D02*
X3402870D01*
X3386990D02*
Y6644300D01*
X3371120Y6628430D01*
X3490180Y6549050D02*
X3498120Y6556990D01*
X3490180Y6564930D01*
X3482240Y6556990D01*
X3490180Y6549050D01*
X3625120D02*
X3656870D01*
X3640990D02*
Y6644300D01*
X3625120Y6628430D01*
X2789050Y5029050D02*
X2820800D01*
X2804930D02*
Y5124300D01*
X2789050D02*
X2820800D01*
X2892240Y5029050D02*
Y5124300D01*
X2931930Y5076680D01*
X2971620Y5124300D01*
Y5029050D01*
X3019240Y5124300D02*
Y5052870D01*
X3027180Y5036990D01*
X3043050Y5029050D01*
X3074800D01*
X3090680Y5036990D01*
X3098620Y5052870D01*
Y5124300D01*
X3273240Y5029050D02*
Y5124300D01*
X3328800D01*
X3344680Y5116370D01*
X3352620Y5100490D01*
X3344680Y5084620D01*
X3328800Y5076680D01*
X3273240D01*
X3400240Y5029050D02*
Y5124300D01*
X3455800D01*
X3471680Y5116370D01*
X3479620Y5100490D01*
X3471680Y5084620D01*
X3455800Y5076680D01*
X3400240D01*
X3455800D02*
X3479620Y5029050D01*
X3527240Y5060800D02*
Y5092550D01*
X3535180Y5108430D01*
X3543120Y5116370D01*
X3558990Y5124300D01*
X3574870D01*
X3590740Y5116370D01*
X3598680Y5108430D01*
X3606620Y5092550D01*
Y5060800D01*
X3598680Y5044930D01*
X3590740Y5036990D01*
X3574870Y5029050D01*
X3558990D01*
X3543120Y5036990D01*
X3535180Y5044930D01*
X3527240Y5060800D01*
X2890240Y1889050D02*
Y1984300D01*
X2929930Y1936680D01*
X2969620Y1984300D01*
Y1889050D01*
X3017240Y1896990D02*
X3033120Y1889050D01*
X3056930D01*
X3072800Y1896990D01*
X3080740Y1912870D01*
Y1920800D01*
X3072800Y1936680D01*
X3056930Y1944620D01*
X3017240D01*
Y1984300D01*
X3080740D01*
X3271240Y1912870D02*
X3279180Y1896990D01*
X3295050Y1889050D01*
X3326800D01*
X3342680Y1896990D01*
X3350620Y1912870D01*
X3342680Y1928740D01*
X3326800Y1936680D01*
X3295050D01*
X3279180Y1944620D01*
X3271240Y1960490D01*
X3279180Y1976370D01*
X3295050Y1984300D01*
X3326800D01*
X3342680Y1976370D01*
X3350620Y1960490D01*
X3411470Y1952550D02*
X3448510D01*
X3429990Y1968430D02*
Y1896990D01*
X3437930Y1889050D01*
X3445870D01*
X3453800Y1896990D01*
X3525240Y1944620D02*
X3541120Y1952550D01*
X3564930D01*
X3580800Y1944620D01*
X3588740Y1928740D01*
Y1904930D01*
X3580800Y1896990D01*
X3564930Y1889050D01*
X3549050D01*
X3533180Y1896990D01*
X3525240Y1904930D01*
Y1912870D01*
X3533180Y1920800D01*
X3549050Y1928740D01*
X3564930D01*
X3580800Y1920800D01*
X3588740Y1912870D01*
Y1904930D02*
Y1889050D01*
X3652240D02*
Y1952550D01*
Y1944620D02*
X3660180Y1952550D01*
X3676050D01*
X3683990Y1944620D01*
Y1920800D01*
Y1944620D02*
X3691930Y1952550D01*
X3707800D01*
X3715740Y1944620D01*
Y1889050D01*
X3779240Y1952550D02*
Y1865240D01*
Y1912870D02*
X3787180Y1896990D01*
X3803050Y1889050D01*
X3818930D01*
X3834800Y1896990D01*
X3842740Y1912870D01*
Y1928740D01*
X3834800Y1944620D01*
X3818930Y1952550D01*
X3803050D01*
X3787180Y1944620D01*
X3779240Y1928740D01*
Y1912870D01*
X4033240D02*
X4041180Y1896990D01*
X4057050Y1889050D01*
X4088800D01*
X4104680Y1896990D01*
X4112620Y1912870D01*
X4104680Y1928740D01*
X4088800Y1936680D01*
X4057050D01*
X4041180Y1944620D01*
X4033240Y1960490D01*
X4041180Y1976370D01*
X4057050Y1984300D01*
X4088800D01*
X4104680Y1976370D01*
X4112620Y1960490D01*
X4168180Y1896990D02*
X4184050Y1889050D01*
X4199930D01*
X4215800Y1896990D01*
X4223740Y1912870D01*
X4215800Y1928740D01*
X4199930Y1936680D01*
X4184050D01*
X4199930D02*
X4215800Y1944620D01*
X4223740Y1960490D01*
X4215800Y1976370D01*
X4199930Y1984300D01*
X4184050D01*
X4168180Y1976370D01*
X2905240Y5884300D02*
Y5789050D01*
X2984620D01*
X3056050D02*
X3087800D01*
X3071930D02*
Y5884300D01*
X3056050D02*
X3087800D01*
X3214800Y5828740D02*
X3238620D01*
Y5820800D01*
X3230680Y5804930D01*
X3222740Y5796990D01*
X3206870Y5789050D01*
X3190990D01*
X3175120Y5796990D01*
X3167180Y5804930D01*
X3159240Y5820800D01*
Y5852550D01*
X3167180Y5868430D01*
X3175120Y5876370D01*
X3190990Y5884300D01*
X3206870D01*
X3222740Y5876370D01*
X3230680Y5868430D01*
X3238620Y5852550D01*
X3286240Y5789050D02*
Y5884300D01*
Y5836680D02*
X3365620D01*
Y5789050D02*
Y5884300D01*
X3452930Y5789050D02*
Y5884300D01*
X3413240D02*
X3492620D01*
X3034240Y4137300D02*
Y4065870D01*
X3042180Y4049990D01*
X3058050Y4042050D01*
X3089800D01*
X3105680Y4049990D01*
X3113620Y4065870D01*
Y4137300D01*
X3177120Y4042050D02*
X3208870D01*
X3192990D02*
Y4137300D01*
X3177120Y4121430D01*
X3939930Y7399050D02*
Y7494300D01*
X3900240D02*
X3979620D01*
X4027240Y7399050D02*
X4106620Y7494300D01*
X4027240D02*
X4106620Y7399050D01*
X4154240Y7430800D02*
Y7462550D01*
X4162180Y7478430D01*
X4170120Y7486370D01*
X4185990Y7494300D01*
X4201870D01*
X4217740Y7486370D01*
X4225680Y7478430D01*
X4233620Y7462550D01*
Y7430800D01*
X4225680Y7414930D01*
X4217740Y7406990D01*
X4201870Y7399050D01*
X4185990D01*
X4170120Y7406990D01*
X4162180Y7414930D01*
X4154240Y7430800D01*
X3905240Y7759300D02*
X3944930Y7664050D01*
X3984620Y7759300D01*
X4111620Y7679930D02*
X4103680Y7671990D01*
X4087800Y7664050D01*
X4063990D01*
X4048120Y7671990D01*
X4040180Y7679930D01*
X4032240Y7695800D01*
Y7727550D01*
X4040180Y7743430D01*
X4048120Y7751370D01*
X4063990Y7759300D01*
X4087800D01*
X4103680Y7751370D01*
X4111620Y7743430D01*
X4238620Y7679930D02*
X4230680Y7671990D01*
X4214800Y7664050D01*
X4190990D01*
X4175120Y7671990D01*
X4167180Y7679930D01*
X4159240Y7695800D01*
Y7727550D01*
X4167180Y7743430D01*
X4175120Y7751370D01*
X4190990Y7759300D01*
X4214800D01*
X4230680Y7751370D01*
X4238620Y7743430D01*
X3965800Y6938740D02*
X3989620D01*
Y6930800D01*
X3981680Y6914930D01*
X3973740Y6906990D01*
X3957870Y6899050D01*
X3941990D01*
X3926120Y6906990D01*
X3918180Y6914930D01*
X3910240Y6930800D01*
Y6962550D01*
X3918180Y6978430D01*
X3926120Y6986370D01*
X3941990Y6994300D01*
X3957870D01*
X3973740Y6986370D01*
X3981680Y6978430D01*
X3989620Y6962550D01*
X4037240Y6899050D02*
Y6994300D01*
X4092800D01*
X4108680Y6986370D01*
X4116620Y6970490D01*
X4108680Y6954620D01*
X4092800Y6946680D01*
X4037240D01*
X4092800D02*
X4116620Y6899050D01*
X4164240D02*
Y6994300D01*
X4243620Y6899050D01*
Y6994300D01*
X3920240Y7149050D02*
Y7244300D01*
X3975800D01*
X3991680Y7236370D01*
X3999620Y7220490D01*
X3991680Y7204620D01*
X3975800Y7196680D01*
X3920240D01*
X3975800D02*
X3999620Y7149050D01*
X4047240D02*
X4126620Y7244300D01*
X4047240D02*
X4126620Y7149050D01*
X4198050D02*
X4229800D01*
X4213930D02*
Y7244300D01*
X4198050D02*
X4229800D01*
X3985800Y8221680D02*
X4001680Y8213740D01*
X4009620Y8197870D01*
X4001680Y8181990D01*
X3985800Y8174050D01*
X3930240D01*
Y8269300D01*
X3985800D01*
X4001680Y8261370D01*
X4009620Y8245490D01*
X4001680Y8229620D01*
X3985800Y8221680D01*
X3930240D01*
X4057240Y8269300D02*
Y8174050D01*
X4136620D01*
X4184240D02*
Y8269300D01*
Y8221680D02*
X4208050D01*
X4263620Y8269300D01*
X4208050Y8221680D02*
X4263620Y8174050D01*
X3990800Y7953740D02*
X4014620D01*
Y7945800D01*
X4006680Y7929930D01*
X3998740Y7921990D01*
X3982870Y7914050D01*
X3966990D01*
X3951120Y7921990D01*
X3943180Y7929930D01*
X3935240Y7945800D01*
Y7977550D01*
X3943180Y7993430D01*
X3951120Y8001370D01*
X3966990Y8009300D01*
X3982870D01*
X3998740Y8001370D01*
X4006680Y7993430D01*
X4014620Y7977550D01*
X4062240Y7914050D02*
Y8009300D01*
X4141620Y7914050D01*
Y8009300D01*
X4189240Y7914050D02*
Y8009300D01*
X4236870D01*
X4252740Y8001370D01*
X4260680Y7993430D01*
X4268620Y7977550D01*
Y7945800D01*
X4260680Y7929930D01*
X4252740Y7921990D01*
X4236870Y7914050D01*
X4189240D01*
X4070240Y2860240D02*
G75*
G03*
Y2700240I0J-80000D01*
G01*
G75*
G03*
Y2860240I0J80000D01*
G01*
X4093240Y4758490D02*
Y5139490D01*
X4347240D01*
Y4694990D01*
X4156740D01*
X4093240Y4758490D01*
X4122610Y5555240D02*
X4138490Y5563180D01*
X4146430Y5579050D01*
Y5610800D01*
X4138490Y5626680D01*
X4122610Y5634620D01*
X4106740Y5626680D01*
X4098800Y5610800D01*
Y5579050D01*
X4090860Y5563180D01*
X4074990Y5555240D01*
X4059110Y5563180D01*
X4051180Y5579050D01*
Y5610800D01*
X4059110Y5626680D01*
X4074990Y5634620D01*
X4138490Y5745740D02*
X4146430Y5737800D01*
Y5721930D01*
Y5706050D01*
X4138490Y5690180D01*
X4122610Y5682240D01*
X4098800D01*
X4090860Y5690180D01*
X4082930Y5706050D01*
Y5721930D01*
X4090860Y5737800D01*
X4098800Y5745740D01*
X4106740D01*
X4114680Y5737800D01*
X4122610Y5721930D01*
Y5706050D01*
X4114680Y5690180D01*
X4106740Y5682240D01*
X4146430Y5809240D02*
X4082930D01*
X4106740D02*
X4090860Y5817180D01*
X4082930Y5833050D01*
Y5848930D01*
X4090860Y5864800D01*
X4146430Y5967990D02*
X4082930D01*
X4059110D02*
X4138490Y6126740D02*
X4146430Y6118800D01*
Y6102930D01*
Y6087050D01*
X4138490Y6071180D01*
X4122610Y6063240D01*
X4098800D01*
X4090860Y6071180D01*
X4082930Y6087050D01*
Y6102930D01*
X4090860Y6118800D01*
X4098800Y6126740D01*
X4106740D01*
X4114680Y6118800D01*
X4122610Y6102930D01*
Y6087050D01*
X4114680Y6071180D01*
X4106740Y6063240D01*
X4138490Y6190240D02*
X4146430Y6206120D01*
Y6237870D01*
X4138490Y6253740D01*
X4122610D01*
X4114680Y6237870D01*
Y6206120D01*
X4106740Y6190240D01*
X4090860D01*
X4082930Y6206120D01*
Y6237870D01*
X4090860Y6253740D01*
X4294240Y4168240D02*
Y3618240D01*
X2994240D01*
Y4168240D01*
X4294240D01*
X4281740Y5640800D02*
Y5664620D01*
X4289680D01*
X4305550Y5656680D01*
X4313490Y5648740D01*
X4321430Y5632870D01*
Y5616990D01*
X4313490Y5601120D01*
X4305550Y5593180D01*
X4289680Y5585240D01*
X4257930D01*
X4242050Y5593180D01*
X4234110Y5601120D01*
X4226180Y5616990D01*
Y5632870D01*
X4234110Y5648740D01*
X4242050Y5656680D01*
X4257930Y5664620D01*
X4321430Y5712240D02*
X4226180D01*
X4321430Y5791620D01*
X4226180D01*
X4321430Y5839240D02*
X4226180D01*
Y5886870D01*
X4234110Y5902740D01*
X4242050Y5910680D01*
X4257930Y5918620D01*
X4289680D01*
X4305550Y5910680D01*
X4313490Y5902740D01*
X4321430Y5886870D01*
Y5839240D01*
X4318490Y6018180D02*
X4326430Y6034050D01*
Y6049930D01*
X4318490Y6065800D01*
X4302610Y6073740D01*
X4286740Y6065800D01*
X4278800Y6049930D01*
Y6034050D01*
Y6049930D02*
X4270860Y6065800D01*
X4254990Y6073740D01*
X4239110Y6065800D01*
X4231180Y6049930D01*
Y6034050D01*
X4239110Y6018180D01*
X4231180Y6137240D02*
X4326430Y6176930D01*
X4231180Y6216620D01*
X4323490Y5298180D02*
X4331430Y5314050D01*
Y5329930D01*
X4323490Y5345800D01*
X4307610Y5353740D01*
X4291740Y5345800D01*
X4283800Y5329930D01*
Y5314050D01*
Y5329930D02*
X4275860Y5345800D01*
X4259990Y5353740D01*
X4244110Y5345800D01*
X4236180Y5329930D01*
Y5314050D01*
X4244110Y5298180D01*
X4236180Y5417240D02*
X4331430Y5456930D01*
X4236180Y5496620D01*
X4291740Y6380800D02*
Y6404620D01*
X4299680D01*
X4315550Y6396680D01*
X4323490Y6388740D01*
X4331430Y6372870D01*
Y6356990D01*
X4323490Y6341120D01*
X4315550Y6333180D01*
X4299680Y6325240D01*
X4267930D01*
X4252050Y6333180D01*
X4244110Y6341120D01*
X4236180Y6356990D01*
Y6372870D01*
X4244110Y6388740D01*
X4252050Y6396680D01*
X4267930Y6404620D01*
X4331430Y6452240D02*
X4236180D01*
X4331430Y6531620D01*
X4236180D01*
X4331430Y6579240D02*
X4236180D01*
Y6626870D01*
X4244110Y6642740D01*
X4252050Y6650680D01*
X4267930Y6658620D01*
X4299680D01*
X4315550Y6650680D01*
X4323490Y6642740D01*
X4331430Y6626870D01*
Y6579240D01*
X4383240Y5398490D02*
Y5779490D01*
X4637240D01*
Y5334990D01*
X4446740D01*
X4383240Y5398490D01*
Y6043490D02*
Y6424490D01*
X4637240D01*
Y5979990D01*
X4446740D01*
X4383240Y6043490D01*
X4467610Y4810240D02*
X4483490Y4818180D01*
X4491430Y4834050D01*
Y4865800D01*
X4483490Y4881680D01*
X4467610Y4889620D01*
X4451740Y4881680D01*
X4443800Y4865800D01*
Y4834050D01*
X4435860Y4818180D01*
X4419990Y4810240D01*
X4404110Y4818180D01*
X4396180Y4834050D01*
Y4865800D01*
X4404110Y4881680D01*
X4419990Y4889620D01*
X4396180Y4937240D02*
X4491430Y4945180D01*
X4443800Y4976930D01*
X4491430Y5008680D01*
X4396180Y5016620D01*
X4524740Y4330740D02*
Y1854240D01*
X2619740D01*
Y4203740D01*
X2746740Y4330740D01*
X4524740D01*
X4540240Y4980240D02*
Y4815240D01*
X4660240D01*
Y4980240D01*
X4540240D01*
X4597240Y8301440D02*
Y6828240D01*
X4343240D01*
Y8352240D01*
X4546440D01*
X4597240Y8301440D01*
X4625550Y4595240D02*
X4633490Y4603180D01*
X4641430Y4619050D01*
X4633490Y4634930D01*
X4625550Y4642870D01*
X4546180D01*
Y4658740D01*
Y4642870D02*
Y4611120D01*
X4641430Y4738120D02*
Y4769870D01*
Y4753990D02*
X4546180D01*
X4562050Y4738120D01*
X4774680Y6900240D02*
X4742930D01*
X4727050Y6908180D01*
X4719110Y6916120D01*
X4711180Y6931990D01*
Y6947870D01*
X4719110Y6963740D01*
X4727050Y6971680D01*
X4742930Y6979620D01*
X4774680D01*
X4790550Y6971680D01*
X4798490Y6963740D01*
X4806430Y6947870D01*
Y6931990D01*
X4798490Y6916120D01*
X4790550Y6908180D01*
X4774680Y6900240D01*
X4742930Y7027240D02*
X4830240D01*
X4782610D02*
X4798490Y7035180D01*
X4806430Y7051050D01*
Y7066930D01*
X4798490Y7082800D01*
X4782610Y7090740D01*
X4766740D01*
X4750860Y7082800D01*
X4742930Y7066930D01*
Y7051050D01*
X4750860Y7035180D01*
X4766740Y7027240D01*
X4782610D01*
X4798490Y7217740D02*
X4806430Y7209800D01*
Y7193930D01*
Y7178050D01*
X4798490Y7162180D01*
X4782610Y7154240D01*
X4758800D01*
X4750860Y7162180D01*
X4742930Y7178050D01*
Y7193930D01*
X4750860Y7209800D01*
X4758800Y7217740D01*
X4766740D01*
X4774680Y7209800D01*
X4782610Y7193930D01*
Y7178050D01*
X4774680Y7162180D01*
X4766740Y7154240D01*
X4806430Y7281240D02*
X4742930D01*
X4766740D02*
X4750860Y7289180D01*
X4742930Y7305050D01*
Y7320930D01*
X4750860Y7336800D01*
X4766740Y7344740D01*
X4806430D01*
X4711180Y7408240D02*
X4806430D01*
Y7487620D01*
X4782610Y7535240D02*
X4798490Y7543180D01*
X4806430Y7559050D01*
Y7574930D01*
X4798490Y7590800D01*
X4782610Y7598740D01*
X4766740D01*
X4750860Y7590800D01*
X4742930Y7574930D01*
Y7559050D01*
X4750860Y7543180D01*
X4766740Y7535240D01*
X4782610D01*
X4766740Y7725740D02*
X4750860Y7717800D01*
X4742930Y7701930D01*
Y7686050D01*
X4750860Y7670180D01*
X4766740Y7662240D01*
X4774680D01*
X4790550Y7670180D01*
X4798490Y7686050D01*
Y7701930D01*
X4790550Y7717800D01*
X4774680Y7725740D01*
X4742930D02*
X4806430D01*
X4822300Y7717800D01*
X4830240Y7701930D01*
Y7678120D01*
X4822300Y7662240D01*
X4711180Y7916240D02*
X4806430Y7955930D01*
X4711180Y7995620D01*
X4806430Y8059120D02*
Y8090870D01*
Y8074990D02*
X4711180D01*
X4727050Y8059120D01*
X4798490Y8170240D02*
X4806430Y8186120D01*
Y8209930D01*
X4798490Y8225800D01*
X4782610Y8233740D01*
X4774680D01*
X4758800Y8225800D01*
X4750860Y8209930D01*
Y8170240D01*
X4711180D01*
Y8233740D01*
X4763800Y5220800D02*
X4771740Y5236680D01*
X4787610Y5244620D01*
X4803490Y5236680D01*
X4811430Y5220800D01*
Y5165240D01*
X4716180D01*
Y5220800D01*
X4724110Y5236680D01*
X4739990Y5244620D01*
X4755860Y5236680D01*
X4763800Y5220800D01*
Y5165240D01*
X4811430Y5292240D02*
X4716180Y5331930D01*
X4811430Y5371620D01*
X4771740Y5308120D02*
Y5355740D01*
X4811430Y5458930D02*
X4716180D01*
Y5419240D02*
Y5498620D01*
X4811430Y5585930D02*
X4716180D01*
Y5546240D02*
Y5625620D01*
X4811430Y5728800D02*
X4787610Y5712930D01*
X4732050D01*
X4716180Y5728800D01*
X4787610Y5800240D02*
X4803490Y5808180D01*
X4811430Y5824050D01*
Y5855800D01*
X4803490Y5871680D01*
X4787610Y5879620D01*
X4771740Y5871680D01*
X4763800Y5855800D01*
Y5824050D01*
X4755860Y5808180D01*
X4739990Y5800240D01*
X4724110Y5808180D01*
X4716180Y5824050D01*
Y5855800D01*
X4724110Y5871680D01*
X4739990Y5879620D01*
X4803490Y5990740D02*
X4811430Y5982800D01*
Y5966930D01*
Y5951050D01*
X4803490Y5935180D01*
X4787610Y5927240D01*
X4763800D01*
X4755860Y5935180D01*
X4747930Y5951050D01*
Y5966930D01*
X4755860Y5982800D01*
X4763800Y5990740D01*
X4771740D01*
X4779680Y5982800D01*
X4787610Y5966930D01*
Y5951050D01*
X4779680Y5935180D01*
X4771740Y5927240D01*
X4811430Y6054240D02*
X4747930D01*
X4771740D02*
X4755860Y6062180D01*
X4747930Y6078050D01*
Y6093930D01*
X4755860Y6109800D01*
X4811430Y6212990D02*
X4747930D01*
X4724110D02*
X4803490Y6371740D02*
X4811430Y6363800D01*
Y6347930D01*
Y6332050D01*
X4803490Y6316180D01*
X4787610Y6308240D01*
X4763800D01*
X4755860Y6316180D01*
X4747930Y6332050D01*
Y6347930D01*
X4755860Y6363800D01*
X4763800Y6371740D01*
X4771740D01*
X4779680Y6363800D01*
X4787610Y6347930D01*
Y6332050D01*
X4779680Y6316180D01*
X4771740Y6308240D01*
X4803490Y6435240D02*
X4811430Y6451120D01*
Y6482870D01*
X4803490Y6498740D01*
X4787610D01*
X4779680Y6482870D01*
Y6451120D01*
X4771740Y6435240D01*
X4755860D01*
X4747930Y6451120D01*
Y6482870D01*
X4755860Y6498740D01*
X4811430Y6586050D02*
X4787610Y6601930D01*
X4732050D01*
X4716180Y6586050D01*
X0Y0D02*
M02*
