  0
SECTION
  2
HEADER
  9
$ACADVER
  1
AC1009
  9
$INSBASE
 10
0
 20
0
 30
0
  9
$EXTMIN
 10
0
 20
0
  9
$EXTMAX
 10
148.5
 20
105
  9
$LIMMIN
 10
0
 20
0
  9
$LIMMAX
 10
148.5
 20
105
  9
$LTSCALE
 40
0.5
  0
ENDSEC
  0
SECTION
  2
TABLES
  0
TABLE
  2
LTYPE
 70
     9
  0
LTYPE
  2
CONTINUOUS
 70
    64
  3
実線
 72
    65
 73
     0
 40
0.0
  0
LTYPE
  2
DASHED1
 70
    64
  3
--  --  --  --  --  --  --  --  
 72
    65
 73
     2
 40
2.5
 49
1.25
 49
-1.25
  0
LTYPE
  2
DASHED2
 70
    64
  3
----    ----    ----    ----    
 72
    65
 73
     2
 40
5.0
 49
2.5
 49
-2.5
  0
LTYPE
  2
DASHED3
 70
    64
  3
------  ------  ------  ------  
 72
    65
 73
     2
 40
5.0
 49
3.75
 49
-1.25
  0
LTYPE
  2
CENTER1
 70
    64
  3
----- - ----- - ----- - ----- - 
 72
    65
 73
     4
 40
10.0
 49
6.25
 49
-1.25
 49
1.25
 49
-1.25
  0
LTYPE
  2
CENTER2
 70
    64
  3
----------  --  ----------  --  
 72
    65
 73
     4
 40
20.0
 49
12.5
 49
-2.5
 49
2.5
 49
-2.5
  0
LTYPE
  2
PHANTOM1
 70
    64
  3
--- - - --- - - --- - - --- - - 
 72
    65
 73
     6
 40
10.0
 49
3.25
 49
-1.25
 49
1.25
 49
-1.25
 49
1.25
 49
-1.25
  0
LTYPE
  2
PHANTOM2
 70
    64
  3
--------  -  -  --------  -  -  
 72
    65
 73
     6
 40
20.0
 49
10.0
 49
-2.5
 49
1.25
 49
-2.5
 49
1.25
 49
-2.5
  0
LTYPE
  2
DOT
 70
    64
  3
-   -   -   -   -   -   -   -   
 72
    65
 73
     2
 40
2.5
 49
0.625
 49
-1.875
  0
LTYPE
  2
DUMMY
 70
    64
  3
ダミー
 72
    65
 73
     0
 40
0.0
  0
LTYPE
  2
RAND1
 70
    64
  3
ランダム線1
 72
    65
 73
     4
 40
10.0
 49
1.0
 49
-2.0
 49
3.0
 49
-4.0
  0
LTYPE
  2
RAND2
 70
    64
  3
ランダム線2
 72
    65
 73
     4
 40
14.0
 49
2.0
 49
-3.0
 49
4.0
 49
-5.0
  0
LTYPE
  2
RAND3
 70
    64
  3
ランダム線3
 72
    65
 73
     4
 40
18.0
 49
3.0
 49
-4.0
 49
5.0
 49
-6.0
  0
LTYPE
  2
RAND4
 70
    64
  3
ランダム線4
 72
    65
 73
     4
 40
22.0
 49
4.0
 49
-5.0
 49
6.0
 49
-7.0
  0
LTYPE
  2
RAND5
 70
    64
  3
ランダム線5
 72
    65
 73
     4
 40
26.0
 49
5.0
 49
-6.0
 49
7.0
 49
-8.0
  0
LTYPE
  2
LONG1
 70
    64
  3
----------  --  ----------  --  
 72
    65
 73
     4
 40
40.0
 49
32.5
 49
-2.5
 49
2.5
 49
-2.5
  0
LTYPE
  2
LONG2
 70
    64
  3
--------  -  -  --------  -  -  
 72
    65
 73
     6
 40
40.0
 49
30.0
 49
-2.5
 49
1.25
 49
-2.5
 49
1.25
 49
-2.5
  0
LTYPE
  2
LONG3
 70
    64
  3
+++++++++++++++..+++++++++++++++
 72
    65
 73
     2
 40
40.0
 49
37.5
 49
-2.5
  0
LTYPE
  2
LONG4
 70
    64
  3
+++++++++++++++..+++++++++++++++
 72
    65
 73
     2
 40
80.0
 49
75.0
 49
-5.0
  0
LTYPE
  2
LONG5
 70
    64
  3
----------  --  ----------  --  
 72
    65
 73
     4
 40
60.0
 49
37.5
 49
-7.5
 49
7.5
 49
-7.5
  0
LTYPE
  2
dashed
 70
   64
  3
-------   -------------   ------
 72
   65
 73
    2
 40
7.5
 49
6
 49
-1.5
  0
LTYPE
  2
dashed_spaced
 70
   64
  3
----        --------        ----
 72
   65
 73
    2
 40
12
 49
6
 49
-6
  0
LTYPE
  2
long_dashed_dotted
 70
   64
  3
------------- --- --------------
 72
   65
 73
    4
 40
15.25
 49
12
 49
-1.5
 49
0.25
 49
-1.5
  0
LTYPE
  2
long_dashed_double-dotted
 70
   64
  3
----------- --- --- ------------
 72
   65
 73
    6
 40
17
 49
12
 49
-1.5
 49
0.25
 49
-1.5
 49
0.25
 49
-1.5
  0
LTYPE
  2
long_dashed_triplicate-dotted
 70
   64
  3
--------- --- --- --- ----------
 72
   65
 73
    8
 40
18.75
 49
12
 49
-1.5
 49
0.25
 49
-1.5
 49
0.25
 49
-1.5
 49
0.25
 49
-1.5
  0
LTYPE
  2
dotted
 70
   64
  3
   -       -       -       -    
 72
   65
 73
    2
 40
1.75
 49
0.25
 49
-1.5
  0
LTYPE
  2
chain
 70
   64
  3
-------------- -- --------------
 72
   65
 73
    4
 40
18.5
 49
12
 49
-1.5
 49
3.5
 49
-1.5
  0
LTYPE
  2
chain_double_dash
 70
   64
  3
------------ -- -- -------------
 72
   65
 73
    6
 40
23.5
 49
12
 49
-1.5
 49
3.5
 49
-1.5
 49
3.5
 49
-1.5
  0
LTYPE
  2
dashed_dotted
 70
   64
  3
-----------     -     ----------
 72
   65
 73
    4
 40
9.25
 49
6
 49
-1.5
 49
0.25
 49
-1.5
  0
LTYPE
  2
double-dashed_dotted
 70
   64
  3
------   -----------   -   -----
 72
   65
 73
    6
 40
16.75
 49
6
 49
-1.5
 49
6
 49
-1.5
 49
0.25
 49
-1.5
  0
LTYPE
  2
dashed_double-dotted
 70
   64
  3
---------    -    -    ---------
 72
   65
 73
    6
 40
11
 49
6
 49
-1.5
 49
0.25
 49
-1.5
 49
0.25
 49
-1.5
  0
LTYPE
  2
double-dashed_double-dotted
 70
   64
  3
-----   ---------   -   -   ----
 72
   65
 73
    8
 40
18.5
 49
6
 49
-1.5
 49
6
 49
-1.5
 49
0.25
 49
-1.5
 49
0.25
 49
-1.5
  0
LTYPE
  2
dashed_triplicate-dotted
 70
   64
  3
-------    -    -    -    ------
 72
   65
 73
    8
 40
12.75
 49
6
 49
-1.5
 49
0.25
 49
-1.5
 49
0.25
 49
-1.5
 49
0.25
 49
-1.5
  0
LTYPE
  2
double-dashed_triplicate-dotted
 70
   64
  3
-----  ---------  -  -  -  -----
 72
   65
 73
   10
 40
20.25
 49
6
 49
-1.5
 49
6
 49
-1.5
 49
0.25
 49
-1.5
 49
0.25
 49
-1.5
 49
0.25
 49
-1.5
  0
LTYPE
  2
undefined
 70
   64
  3
--------------------------------
 72
   65
 73
    0
 40
0
  0
LTYPE
  2
_
 70
   64
  3
                                
 72
   65
 73
    0
 40
0
  0
LTYPE
  2
__18
 70
   64
  3
                                
 72
   65
 73
    0
 40
0
  0
LTYPE
  2
__19
 70
   64
  3
                                
 72
   65
 73
    0
 40
0
  0
LTYPE
  2
__20
 70
   64
  3
                                
 72
   65
 73
    0
 40
0
  0
LTYPE
  2
__21
 70
   64
  3
                                
 72
   65
 73
    0
 40
0
  0
LTYPE
  2
__22
 70
   64
  3
                                
 72
   65
 73
    0
 40
0
  0
LTYPE
  2
__23
 70
   64
  3
                                
 72
   65
 73
    0
 40
0
  0
LTYPE
  2
__24
 70
   64
  3
                                
 72
   65
 73
    0
 40
0
  0
LTYPE
  2
__25
 70
   64
  3
                                
 72
   65
 73
    0
 40
0
  0
LTYPE
  2
__26
 70
   64
  3
                                
 72
   65
 73
    0
 40
0
  0
LTYPE
  2
__27
 70
   64
  3
                                
 72
   65
 73
    0
 40
0
  0
LTYPE
  2
__28
 70
   64
  3
                                
 72
   65
 73
    0
 40
0
  0
LTYPE
  2
__29
 70
   64
  3
                                
 72
   65
 73
    0
 40
0
  0
LTYPE
  2
__30
 70
   64
  3
                                
 72
   65
 73
    0
 40
0
  0
LTYPE
  2
__31
 70
   64
  3
                                
 72
   65
 73
    0
 40
0
  0
LTYPE
  2
__32
 70
   64
  3
                                
 72
   65
 73
    0
 40
0
  0
ENDTAB
  0
TABLE
  2
STYLE
  5
3
100
AcDbSymbolTable
 70
     1
  0
STYLE
  5
10
100
AcDbSymbolTableRecord
100
AcDbTextStyleTableRecord
  2
STANDARD
 70
     0
 40
0.0
 41
1.0
 50
0.0
 71
     0
 42
0.2
  3
txt
  4
bigfont.shx
  0
STYLE
  5
26
100
AcDbSymbolTableRecord
100
AcDbTextStyleTableRecord
  2
TATEGAKI
 70
    68
 40
0.0
 41
1.0
 50
0.0
 71
     0
 42
1.0
  3
txt
  4
bigfont.shx
  0
ENDTAB
  0
TABLE
  2
LAYER
 70
    4
  0
LAYER
  2
_0-0_0
 70
   64
 62
    7
  6
CONTINUOUS
  0
LAYER
  2
_0-1__BOARD
 70
   64
 62
    7
  6
CONTINUOUS
  0
LAYER
  2
_0-2__DRILL
 70
   64
 62
    7
  6
CONTINUOUS
  0
LAYER
  2
ADD_LINE
 70
   64
 62
    7
  6
CONTINUOUS
  0
ENDTAB
  0
ENDSEC
  0
SECTION
  2
BLOCKS
  0
BLOCK
  2
-000-_HOLE
 70
   64
 10
0
 20
0
 30
0
  0
CIRCLE
  8
_0-0_0
  6
CONTINUOUS
 62
    7
 10
0
 20
0
 40
2
  0
ENDBLK
  0
ENDSEC
  0
SECTION
  2
ENTITIES
  0
LINE
  8
_0-1__BOARD
  6
CONTINUOUS
 62
    3
 10
55.625
 20
24.700000000000045
 11
95.625
 21
24.700000000000045
  0
LINE
  8
_0-1__BOARD
  6
CONTINUOUS
 62
    3
 10
95.625
 20
24.700000000000045
 11
95.625
 21
92.200000000000045
  0
LINE
  8
_0-1__BOARD
  6
CONTINUOUS
 62
    3
 10
95.625
 20
92.200000000000045
 11
55.625
 21
92.200000000000045
  0
LINE
  8
_0-1__BOARD
  6
CONTINUOUS
 62
    3
 10
55.625
 20
92.200000000000045
 11
55.625
 21
24.700000000000045
  0
INSERT
  2
-000-_HOLE
  8
_0-2__DRILL
 10
64.925000000000011
 20
37.550000000000068
 41
0.225
 42
0.225
 50
0
  0
INSERT
  2
-000-_HOLE
  8
_0-2__DRILL
 10
64.925000000000011
 20
39.550000000000068
 41
0.225
 42
0.225
 50
0
  0
INSERT
  2
-000-_HOLE
  8
_0-2__DRILL
 10
64.925000000000011
 20
41.550000000000068
 41
0.225
 42
0.225
 50
0
  0
INSERT
  2
-000-_HOLE
  8
_0-2__DRILL
 10
64.925000000000011
 20
43.550000000000068
 41
0.225
 42
0.225
 50
0
  0
INSERT
  2
-000-_HOLE
  8
_0-2__DRILL
 10
88.175000000000011
 20
58.290000000000077
 41
0.225
 42
0.225
 50
0
  0
INSERT
  2
-000-_HOLE
  8
_0-2__DRILL
 10
88.175000000000011
 20
55.75
 41
0.225
 42
0.225
 50
0
  0
INSERT
  2
-000-_HOLE
  8
_0-2__DRILL
 10
91.074999999999988
 20
64.690000000000054
 41
0.225
 42
0.225
 50
0
  0
INSERT
  2
-000-_HOLE
  8
_0-2__DRILL
 10
91.074999999999988
 20
62.15000000000009
 41
0.225
 42
0.225
 50
0
  0
INSERT
  2
-000-_HOLE
  8
_0-2__DRILL
 10
91.074999999999988
 20
71.1400000000001
 41
0.225
 42
0.225
 50
0
  0
INSERT
  2
-000-_HOLE
  8
_0-2__DRILL
 10
91.074999999999988
 20
68.600000000000022
 41
0.225
 42
0.225
 50
0
  0
INSERT
  2
-000-_HOLE
  8
_0-2__DRILL
 10
67.595000000000027
 20
27.950000000000045
 41
0.1499999999999999
 42
0.1499999999999999
 50
0
  0
INSERT
  2
-000-_HOLE
  8
_0-2__DRILL
 10
58.954999999999984
 20
27.950000000000045
 41
0.1499999999999999
 42
0.1499999999999999
 50
0
  0
INSERT
  2
-000-_HOLE
  8
_0-2__DRILL
 10
65.074999999999988
 20
31.750000000000056
 41
0.28
 42
0.28
 50
0
  0
INSERT
  2
-000-_HOLE
  8
_0-2__DRILL
 10
61.475000000000022
 20
31.750000000000056
 41
0.28
 42
0.28
 50
0
  0
INSERT
  2
-000-_HOLE
  8
_0-2__DRILL
 10
59.324999999999988
 20
39.050000000000068
 41
0.25
 42
0.25
 50
0
  0
INSERT
  2
-000-_HOLE
  8
_0-2__DRILL
 10
59.324999999999988
 20
41.590000000000031
 41
0.25
 42
0.25
 50
0
  0
INSERT
  2
-000-_HOLE
  8
_0-2__DRILL
 10
59.324999999999988
 20
44.129999999999995
 41
0.25
 42
0.25
 50
0
  0
INSERT
  2
-000-_HOLE
  8
_0-2__DRILL
 10
59.324999999999988
 20
46.670000000000072
 41
0.25
 42
0.25
 50
0
  0
INSERT
  2
-000-_HOLE
  8
_0-2__DRILL
 10
59.324999999999988
 20
49.210000000000036
 41
0.25
 42
0.25
 50
0
  0
INSERT
  2
-000-_HOLE
  8
_0-2__DRILL
 10
59.324999999999988
 20
51.75
 41
0.25
 42
0.25
 50
0
  0
INSERT
  2
-000-_HOLE
  8
_0-2__DRILL
 10
59.324999999999988
 20
54.290000000000077
 41
0.25
 42
0.25
 50
0
  0
INSERT
  2
-000-_HOLE
  8
_0-2__DRILL
 10
59.324999999999988
 20
56.83000000000004
 41
0.25
 42
0.25
 50
0
  0
INSERT
  2
-000-_HOLE
  8
_0-2__DRILL
 10
59.324999999999988
 20
59.370000000000004
 41
0.25
 42
0.25
 50
0
  0
INSERT
  2
-000-_HOLE
  8
_0-2__DRILL
 10
59.324999999999988
 20
61.910000000000081
 41
0.25
 42
0.25
 50
0
  0
INSERT
  2
-000-_HOLE
  8
_0-2__DRILL
 10
59.324999999999988
 20
64.450000000000045
 41
0.25
 42
0.25
 50
0
  0
INSERT
  2
-000-_HOLE
  8
_0-2__DRILL
 10
59.324999999999988
 20
66.990000000000009
 41
0.25
 42
0.25
 50
0
  0
INSERT
  2
-000-_HOLE
  8
_0-2__DRILL
 10
59.324999999999988
 20
69.530000000000086
 41
0.25
 42
0.25
 50
0
  0
INSERT
  2
-000-_HOLE
  8
_0-2__DRILL
 10
59.324999999999988
 20
72.07000000000005
 41
0.25
 42
0.25
 50
0
  0
INSERT
  2
-000-_HOLE
  8
_0-2__DRILL
 10
59.324999999999988
 20
74.610000000000013
 41
0.25
 42
0.25
 50
0
  0
INSERT
  2
-000-_HOLE
  8
_0-2__DRILL
 10
59.324999999999988
 20
77.15000000000009
 41
0.25
 42
0.25
 50
0
  0
INSERT
  2
-000-_HOLE
  8
_0-2__DRILL
 10
90.675000000000011
 20
77.40000000000009
 41
0.25
 42
0.25
 50
0
  0
INSERT
  2
-000-_HOLE
  8
_0-2__DRILL
 10
90.675000000000011
 20
79.940000000000054
 41
0.25
 42
0.25
 50
0
  0
INSERT
  2
-000-_HOLE
  8
_0-2__DRILL
 10
90.675000000000011
 20
82.480000000000018
 41
0.25
 42
0.25
 50
0
  0
INSERT
  2
-000-_HOLE
  8
_0-2__DRILL
 10
90.675000000000011
 20
85.020000000000095
 41
0.25
 42
0.25
 50
0
  0
INSERT
  2
-000-_HOLE
  8
_0-2__DRILL
 10
90.675000000000011
 20
87.560000000000059
 41
0.25
 42
0.25
 50
0
  0
INSERT
  2
-000-_HOLE
  8
_0-2__DRILL
 10
90.675000000000011
 20
90.100000000000022
 41
0.25
 42
0.25
 50
0
  0
INSERT
  2
-000-_HOLE
  8
_0-2__DRILL
 10
89.314999999999997
 20
41.630000000000052
 41
0.25
 42
0.25
 50
0
  0
INSERT
  2
-000-_HOLE
  8
_0-2__DRILL
 10
89.314999999999997
 20
39.090000000000031
 41
0.25
 42
0.25
 50
0
  0
INSERT
  2
-000-_HOLE
  8
_0-2__DRILL
 10
89.314999999999997
 20
36.550000000000068
 41
0.25
 42
0.25
 50
0
  0
INSERT
  2
-000-_HOLE
  8
_0-2__DRILL
 10
89.314999999999997
 20
34.010000000000047
 41
0.25
 42
0.25
 50
0
  0
INSERT
  2
-000-_HOLE
  8
_0-2__DRILL
 10
89.314999999999997
 20
31.470000000000027
 41
0.25
 42
0.25
 50
0
  0
INSERT
  2
-000-_HOLE
  8
_0-2__DRILL
 10
89.314999999999997
 20
28.930000000000063
 41
0.25
 42
0.25
 50
0
  0
INSERT
  2
-000-_HOLE
  8
_0-2__DRILL
 10
74.074999999999988
 20
49.25
 41
0.25
 42
0.25
 50
0
  0
INSERT
  2
-000-_HOLE
  8
_0-2__DRILL
 10
74.074999999999988
 20
46.710000000000036
 41
0.25
 42
0.25
 50
0
  0
INSERT
  2
-000-_HOLE
  8
_0-2__DRILL
 10
74.074999999999988
 20
44.170000000000072
 41
0.25
 42
0.25
 50
0
  0
INSERT
  2
-000-_HOLE
  8
_0-2__DRILL
 10
74.074999999999988
 20
41.630000000000052
 41
0.25
 42
0.25
 50
0
  0
INSERT
  2
-000-_HOLE
  8
_0-2__DRILL
 10
74.074999999999988
 20
39.090000000000031
 41
0.25
 42
0.25
 50
0
  0
INSERT
  2
-000-_HOLE
  8
_0-2__DRILL
 10
74.074999999999988
 20
36.550000000000068
 41
0.25
 42
0.25
 50
0
  0
INSERT
  2
-000-_HOLE
  8
_0-2__DRILL
 10
74.074999999999988
 20
34.010000000000047
 41
0.25
 42
0.25
 50
0
  0
INSERT
  2
-000-_HOLE
  8
_0-2__DRILL
 10
74.074999999999988
 20
31.470000000000027
 41
0.25
 42
0.25
 50
0
  0
INSERT
  2
-000-_HOLE
  8
_0-2__DRILL
 10
74.074999999999988
 20
28.930000000000063
 41
0.25
 42
0.25
 50
0
  0
INSERT
  2
-000-_HOLE
  8
_0-2__DRILL
 10
80.824999999999988
 20
55
 41
0.225
 42
0.225
 50
0
  0
INSERT
  2
-000-_HOLE
  8
_0-2__DRILL
 10
78.824999999999988
 20
55
 41
0.225
 42
0.225
 50
0
  0
INSERT
  2
-000-_HOLE
  8
_0-2__DRILL
 10
76.824999999999988
 20
55
 41
0.225
 42
0.225
 50
0
  0
INSERT
  2
-000-_HOLE
  8
_0-2__DRILL
 10
74.824999999999988
 20
55
 41
0.225
 42
0.225
 50
0
  0
INSERT
  2
-000-_HOLE
  8
_0-2__DRILL
 10
80.824999999999988
 20
62.65000000000009
 41
0.225
 42
0.225
 50
0
  0
INSERT
  2
-000-_HOLE
  8
_0-2__DRILL
 10
78.824999999999988
 20
62.65000000000009
 41
0.225
 42
0.225
 50
0
  0
INSERT
  2
-000-_HOLE
  8
_0-2__DRILL
 10
76.824999999999988
 20
62.65000000000009
 41
0.225
 42
0.225
 50
0
  0
INSERT
  2
-000-_HOLE
  8
_0-2__DRILL
 10
74.824999999999988
 20
62.65000000000009
 41
0.225
 42
0.225
 50
0
  0
INSERT
  2
-000-_HOLE
  8
_0-2__DRILL
 10
80.824999999999988
 20
70.300000000000068
 41
0.225
 42
0.225
 50
0
  0
INSERT
  2
-000-_HOLE
  8
_0-2__DRILL
 10
78.824999999999988
 20
70.300000000000068
 41
0.225
 42
0.225
 50
0
  0
INSERT
  2
-000-_HOLE
  8
_0-2__DRILL
 10
76.824999999999988
 20
70.300000000000068
 41
0.225
 42
0.225
 50
0
  0
INSERT
  2
-000-_HOLE
  8
_0-2__DRILL
 10
74.824999999999988
 20
70.300000000000068
 41
0.225
 42
0.225
 50
0
  0
LINE
  8
_0-0_0
  6
CONTINUOUS
 62
    4
 10
95.625
 20
93.275384370336837
 11
55.625
 21
93.275384370336837
  0
POINT
  8
_0-0_0
 62
    4
 10
95.625
 20
93.275384370336837
  0
POINT
  8
_0-0_0
 62
    4
 10
55.625
 20
93.275384370336837
  0
LINE
  8
_0-0_0
  6
CONTINUOUS
 62
    4
 10
95.625
 20
93.275384370336837
 11
95.625
 21
92.443119896718812
  0
LINE
  8
_0-0_0
  6
CONTINUOUS
 62
    4
 10
55.625
 20
93.275384370336837
 11
55.625
 21
92.443119896718812
  0
TEXT
  8
_0-0_0
 62
    4
 10
75
 20
93.525384370336837
 40
1.25
 41
1
 50
0
  1
40
  0
LINE
  8
_0-0_0
  6
CONTINUOUS
 62
    4
 10
53.691028284962186
 20
92.200000000000045
 11
53.691028284962186
 21
24.700000000000045
  0
POINT
  8
_0-0_0
 62
    4
 10
53.691028284962186
 20
92.200000000000045
  0
POINT
  8
_0-0_0
 62
    4
 10
53.691028284962186
 20
24.700000000000045
  0
LINE
  8
_0-0_0
  6
CONTINUOUS
 62
    4
 10
53.691028284962186
 20
92.200000000000045
 11
55.213839008768843
 21
92.200000000000045
  0
LINE
  8
_0-0_0
  6
CONTINUOUS
 62
    4
 10
53.691028284962186
 20
24.700000000000045
 11
55.213839008768836
 21
24.700000000000045
  0
TEXT
  8
_0-0_0
 62
    4
 10
53.441028284962186
 20
57.200000000000045
 40
1.25
 41
1
 50
90
  1
67.5
  0
ENDSEC
  0
EOF
