G04 DesignSpark PCB Gerber Version 12.0 Build 5942*
%FSLAX35Y35*%
%MOMM*%
%AMT22*0 Bullet Pad at angle 0*4,1,26,-0.40000,-0.30000,0.40000,-0.30000,0.40000,-0.10000,0.39630,-0.04550,0.38520,0.00800,0.36690,0.05940,0.34180,0.10790,0.31030,0.15250,0.27300,0.19240,0.23060,0.22680,0.18400,0.25520,0.13390,0.27690,0.08130,0.29160,0.02720,0.29900,-0.02740,0.29900,-0.08150,0.29160,-0.13410,0.27690,-0.18420,0.25510,-0.23080,0.22670,-0.27310,0.19220,-0.31030,0.15230,-0.34180,0.10770,-0.36690,0.05920,-0.38520,0.00780,-0.39630,-0.04570,-0.40000,-0.10000,-0.40000,-0.30000,0*%
%ADD22T22*%
%ADD20O,1.30000X2.00000*%
%ADD17R,1.40000X1.42000*%
%ADD12C,0.25400*%
%ADD11C,0.30480*%
%ADD15C,0.60000*%
%ADD13C,0.80000*%
%ADD16C,1.01600*%
%ADD18C,1.40000*%
%ADD70C,1.52400*%
%ADD71C,1.80000*%
%ADD14C,2.20000*%
%ADD19R,3.00000X1.35000*%
%AMT21*0 Bullet Pad at angle 180*4,1,26,0.40000,0.30000,-0.40000,0.30000,-0.40000,0.10000,-0.39630,0.04550,-0.38520,-0.00800,-0.36690,-0.05940,-0.34180,-0.10790,-0.31030,-0.15250,-0.27300,-0.19240,-0.23060,-0.22680,-0.18400,-0.25520,-0.13390,-0.27690,-0.08130,-0.29160,-0.02720,-0.29900,0.02740,-0.29900,0.08150,-0.29160,0.13410,-0.27690,0.18420,-0.25510,0.23080,-0.22670,0.27310,-0.19220,0.31030,-0.15230,0.34180,-0.10770,0.36690,-0.05920,0.38520,-0.00780,0.39630,0.04570,0.40000,0.10000,0.40000,0.30000,0*%
%ADD21T21*%
%ADD23R,1.42000X1.40000*%
X0Y0D02*
D02*
D11*
X1021120Y2813480D02*
Y1741120D01*
X2990240D01*
Y2000140D01*
X2619640D01*
Y2216340D01*
X2990240D01*
Y2254140D01*
X2619640D01*
Y2470340D01*
X2990240D01*
Y2508140D01*
X2619640D01*
Y2535640D01*
X2543050D01*
G75*
G02*
X2473230Y2558230I-12810J79600D01*
G01*
X2471820Y2559640D01*
X2387500D01*
G75*
G02*
X2109600Y2640240I-127260J80600D01*
G01*
G75*
G02*
X2387500Y2720840I150640J0D01*
G01*
X2503260D01*
G75*
G02*
X2562250Y2697250I1980J-80600D01*
G01*
X2562660Y2696840D01*
X2619640D01*
Y2724340D01*
X2990240D01*
Y2762140D01*
X2619640D01*
Y2936940D01*
X2562410D01*
G75*
G02*
X2522520Y2952520I-2170J53300D01*
G01*
X2222520Y3252520D01*
G75*
G02*
X2206900Y3290240I37720J37720D01*
G01*
G75*
G02*
X2206940Y3292410I53350J100D01*
G01*
Y3630940D01*
G75*
G02*
X2309090Y3782540I53300J74300D01*
G01*
G75*
G02*
X2491680Y3775240I91150J-7300D01*
G01*
G75*
G02*
X2453540Y3700940I-91440J0D01*
G01*
Y3347380D01*
X2497380Y3303540D01*
X2619640D01*
Y3456940D01*
X2612410D01*
G75*
G02*
X2572520Y3472520I-2170J53300D01*
G01*
X2522520Y3522520D01*
G75*
G02*
X2506900Y3560240I37720J37720D01*
G01*
G75*
G02*
X2506940Y3562410I53350J100D01*
G01*
Y3798100D01*
X2400650Y3904390D01*
G75*
G02*
X2298800Y3995240I-10410J90850D01*
G01*
G75*
G02*
X2481680I91440J0D01*
G01*
G75*
G02*
X2479680Y3976240I-91430J20D01*
G01*
X2597960Y3857960D01*
G75*
G02*
X2613580Y3820240I-37720J-37720D01*
G01*
G75*
G02*
X2613540Y3818070I-53370J-100D01*
G01*
Y3582380D01*
X2619640Y3576280D01*
Y3740340D01*
X2990240D01*
Y3778140D01*
X2619640D01*
Y3994340D01*
X2990240D01*
Y4032140D01*
X2619640D01*
Y4248340D01*
X2990240D01*
Y4279640D01*
X2598680D01*
X2592260Y4273220D01*
G75*
G02*
X2532750Y4249640I-57020J57020D01*
G01*
X2422500D01*
G75*
G02*
X2144600Y4330240I-127260J80600D01*
G01*
G75*
G02*
X2239630Y4470240I150640J0D01*
G01*
X1938540D01*
Y4209540D01*
G75*
G02*
X1976680Y4135240I-53300J-74300D01*
G01*
G75*
G02*
X1793800I-91440J0D01*
G01*
G75*
G02*
X1831940Y4209540I91440J0D01*
G01*
Y4470240D01*
X1420400D01*
G75*
G02*
X1452080Y4390240I-85160J-80000D01*
G01*
G75*
G02*
X1218400I-116840J0D01*
G01*
G75*
G02*
X1250080Y4470240I116840J0D01*
G01*
X1175840D01*
Y2878680D01*
X1188680Y2865840D01*
X1366800D01*
X1469640Y2968680D01*
Y3037750D01*
G75*
G02*
X1469600Y3040240I80580J2540D01*
G01*
G75*
G02*
X1493220Y3097260I80640J0D01*
G01*
X1609640Y3213680D01*
Y3252750D01*
G75*
G02*
X1609600Y3255240I80580J2540D01*
G01*
G75*
G02*
X1633220Y3312260I80640J0D01*
G01*
X1748220Y3427260D01*
G75*
G02*
X1807730Y3450840I57020J-57020D01*
G01*
X1819450D01*
G75*
G02*
X1830060Y3459640I75790J-80580D01*
G01*
X1783640D01*
Y3680840D01*
X2006840D01*
Y3459640D01*
X1960420D01*
G75*
G02*
X1942580Y3270240I-65180J-89400D01*
G01*
G75*
G02*
Y3070240I-47340J-100000D01*
G01*
G75*
G02*
X1895240Y2859600I-47340J-100000D01*
G01*
G75*
G02*
X1847900Y3070240I0J110640D01*
G01*
G75*
G02*
Y3270240I47340J100000D01*
G01*
G75*
G02*
X1829950Y3280910I47310J100020D01*
G01*
X1770840Y3221800D01*
Y3182730D01*
G75*
G02*
X1770880Y3180240I-80620J-2540D01*
G01*
G75*
G02*
X1747260Y3123220I-80640J0D01*
G01*
X1630840Y3006800D01*
Y2937730D01*
G75*
G02*
X1630880Y2935240I-80620J-2540D01*
G01*
G75*
G02*
X1607260Y2878220I-80640J0D01*
G01*
X1570970Y2841930D01*
G75*
G02*
X1755880Y2695240I34270J-146690D01*
G01*
G75*
G02*
X1454600I-150640J0D01*
G01*
G75*
G02*
X1458550Y2729510I150640J0D01*
G01*
X1457260Y2728220D01*
G75*
G02*
X1397750Y2704640I-57020J57020D01*
G01*
X1349880D01*
X1534580Y2519940D01*
G75*
G02*
X1680880Y2390240I15660J-129700D01*
G01*
G75*
G02*
X1419600I-130640J0D01*
G01*
G75*
G02*
X1420540Y2405900I130650J20D01*
G01*
X1038220Y2788220D01*
G75*
G02*
X1021120Y2813480I57020J57020D01*
G01*
X2056640Y1975240D02*
Y2045240D01*
G75*
G02*
X2267840I105600J0D01*
G01*
Y1975240D01*
G75*
G02*
X2056640I-105600J0D01*
G01*
X1218400Y3120240D02*
G75*
G02*
X1452080I116840J0D01*
G01*
G75*
G02*
X1218400I-116840J0D01*
G01*
Y3374240D02*
G75*
G02*
X1452080I116840J0D01*
G01*
G75*
G02*
X1218400I-116840J0D01*
G01*
Y3628240D02*
G75*
G02*
X1452080I116840J0D01*
G01*
G75*
G02*
X1218400I-116840J0D01*
G01*
Y3882240D02*
G75*
G02*
X1452080I116840J0D01*
G01*
G75*
G02*
X1218400I-116840J0D01*
G01*
Y4136240D02*
G75*
G02*
X1452080I116840J0D01*
G01*
G75*
G02*
X1218400I-116840J0D01*
G01*
X1779600Y2390240D02*
G75*
G02*
X2040880I130640J0D01*
G01*
G75*
G02*
X1779600I-130640J0D01*
G01*
X1192640Y1975240D02*
Y2045240D01*
G75*
G02*
X1403840I105600J0D01*
G01*
Y1975240D01*
G75*
G02*
X1192640I-105600J0D01*
G01*
X1036360Y2010240D02*
G36*
X1036360Y2010240D02*
Y1756360D01*
X2975000D01*
Y2000140D01*
X2619640D01*
Y2010240D01*
X2267840D01*
Y1975240D01*
G75*
G02*
X2056640I-105600J0D01*
G01*
Y2010240D01*
X1403840D01*
Y1975240D01*
G75*
G02*
X1192640I-105600J0D01*
G01*
Y2010240D01*
X1036360D01*
G37*
Y2390240D02*
G36*
X1036360Y2390240D02*
Y2010240D01*
X1192640D01*
Y2045240D01*
G75*
G02*
X1403840I105600J0D01*
G01*
Y2010240D01*
X2056640D01*
Y2045240D01*
G75*
G02*
X2267840I105600J0D01*
G01*
Y2010240D01*
X2619640D01*
Y2216340D01*
X2975000D01*
Y2254140D01*
X2619640D01*
Y2390240D01*
X2040880D01*
G75*
G02*
X1779600I-130640J0D01*
G01*
X1680880D01*
G75*
G02*
X1419600I-130640J0D01*
G01*
X1036360D01*
G37*
Y2790140D02*
G36*
X1036360Y2790140D02*
Y2390240D01*
X1419600D01*
G75*
G02*
Y2390400I127320J80D01*
G01*
G75*
G02*
X1420540Y2405900I128240J0D01*
G01*
X1038220Y2788220D01*
G75*
G02*
X1036360Y2790140I56750J56840D01*
G01*
G37*
X1175840Y3120240D02*
G36*
X1175840Y3120240D02*
Y2878680D01*
X1188680Y2865840D01*
X1366800D01*
X1469640Y2968680D01*
Y3037750D01*
G75*
G02*
X1469600Y3040230I76910J2480D01*
G01*
G75*
G02*
Y3040240I81850J10D01*
G01*
G75*
G02*
X1493220Y3097260I80650J-10D01*
G01*
X1516200Y3120240D01*
X1452080D01*
G75*
G02*
X1218400I-116840J0D01*
G01*
X1175840D01*
G37*
X1397750Y2704640D02*
G36*
X1397750Y2704640D02*
X1349880D01*
X1534580Y2519940D01*
G75*
G02*
X1680880Y2390240I15660J-129700D01*
G01*
X1779600D01*
G75*
G02*
X2040880I130640J0D01*
G01*
X2619640D01*
Y2470340D01*
X2975000D01*
Y2508140D01*
X2619640D01*
Y2535640D01*
X2543050D01*
G75*
G02*
X2473230Y2558230I-12810J79590D01*
G01*
X2471820Y2559640D01*
X2387500D01*
G75*
G02*
X2109600Y2640240I-127260J80600D01*
G01*
G75*
G02*
X2387500Y2720840I150640J0D01*
G01*
X2503260D01*
G75*
G02*
X2562250Y2697250I1980J-80590D01*
G01*
X2562660Y2696840D01*
X2619640D01*
Y2724340D01*
X2975000D01*
Y2762140D01*
X2619640D01*
Y2936940D01*
X2562410D01*
G75*
G02*
X2522520Y2952520I-2180J53270D01*
G01*
X2354800Y3120240D01*
X1993940D01*
G75*
G02*
X1942580Y3070240I-98700J50010D01*
G01*
G75*
G02*
X2005880Y2970240I-47340J-100000D01*
G01*
G75*
G02*
X1895240Y2859600I-110640J0D01*
G01*
G75*
G02*
X1784600Y2970240I0J110640D01*
G01*
G75*
G02*
X1847900Y3070240I110640J0D01*
G01*
G75*
G02*
X1796540Y3120240I47340J100010D01*
G01*
X1744280D01*
X1630840Y3006800D01*
Y2937730D01*
G75*
G02*
X1630880Y2935250I-76910J-2480D01*
G01*
G75*
G02*
Y2935240I-81850J0D01*
G01*
G75*
G02*
X1607260Y2878220I-80650J10D01*
G01*
X1570970Y2841930D01*
G75*
G02*
X1755880Y2695240I34260J-146700D01*
G01*
G75*
G02*
X1454600I-150640J0D01*
G01*
G75*
G02*
Y2695260I190990J10D01*
G01*
G75*
G02*
X1458550Y2729510I150480J0D01*
G01*
X1457260Y2728220D01*
G75*
G02*
X1397750Y2704640I-57000J56980D01*
G01*
G37*
X1175840Y3374240D02*
G36*
X1175840Y3374240D02*
Y3120240D01*
X1218400D01*
G75*
G02*
X1452080I116840J0D01*
G01*
X1516200D01*
X1609640Y3213680D01*
Y3252750D01*
G75*
G02*
X1609600Y3255230I76910J2480D01*
G01*
G75*
G02*
Y3255240I81850J10D01*
G01*
G75*
G02*
X1633220Y3312260I80650J-10D01*
G01*
X1695200Y3374240D01*
X1452080D01*
G75*
G02*
X1218400I-116840J0D01*
G01*
X1175840D01*
G37*
X1747260Y3123220D02*
G36*
X1747260Y3123220D02*
X1744280Y3120240D01*
X1796540D01*
G75*
G02*
X1784600Y3170240I98700J50000D01*
G01*
G75*
G02*
X1847900Y3270240I110640J0D01*
G01*
G75*
G02*
X1829950Y3280910I47090J99660D01*
G01*
X1770840Y3221800D01*
Y3182730D01*
G75*
G02*
X1770880Y3180250I-76910J-2480D01*
G01*
G75*
G02*
Y3180240I-81850J0D01*
G01*
G75*
G02*
X1747260Y3123220I-80650J10D01*
G01*
G37*
X2005880Y3370240D02*
G36*
X2005880Y3370240D02*
G75*
G02*
X1942580Y3270240I-110640J0D01*
G01*
G75*
G02*
X2005880Y3170240I-47340J-100000D01*
G01*
G75*
G02*
X1993940Y3120240I-110640J0D01*
G01*
X2354800D01*
X2222520Y3252520D01*
G75*
G02*
X2206900Y3290240I37760J37730D01*
G01*
G75*
G02*
X2206940Y3292410I59450J-10D01*
G01*
Y3374240D01*
X2005810D01*
G75*
G02*
X2005880Y3370240I-110560J-3940D01*
G01*
G37*
X2453540Y3374240D02*
G36*
X2453540Y3374240D02*
Y3347380D01*
X2497380Y3303540D01*
X2619640D01*
Y3374240D01*
X2453540D01*
G37*
X1175840Y3628240D02*
G36*
X1175840Y3628240D02*
Y3374240D01*
X1218400D01*
G75*
G02*
X1452080I116840J0D01*
G01*
X1695200D01*
X1748220Y3427260D01*
G75*
G02*
X1807730Y3450840I57020J-57020D01*
G01*
X1819450D01*
G75*
G02*
X1830060Y3459640I75100J-79760D01*
G01*
X1783640D01*
Y3628240D01*
X1452080D01*
G75*
G02*
X1218400I-116840J0D01*
G01*
X1175840D01*
G37*
X1960420Y3459640D02*
G36*
X1960420Y3459640D02*
G75*
G02*
X2005810Y3374240I-65180J-89410D01*
G01*
X2206940D01*
Y3628240D01*
X2006840D01*
Y3459640D01*
X1960420D01*
G37*
X2453540Y3628240D02*
G36*
X2453540Y3628240D02*
Y3374240D01*
X2619640D01*
Y3456940D01*
X2612410D01*
G75*
G02*
X2572520Y3472520I-2180J53270D01*
G01*
X2522520Y3522520D01*
G75*
G02*
X2506900Y3560240I37760J37730D01*
G01*
G75*
G02*
X2506940Y3562410I59450J-10D01*
G01*
Y3628240D01*
X2453540D01*
G37*
X2613540D02*
G36*
X2613540Y3628240D02*
Y3582380D01*
X2619640Y3576280D01*
Y3628240D01*
X2613540D01*
G37*
X1175840Y3882240D02*
G36*
X1175840Y3882240D02*
Y3628240D01*
X1218400D01*
G75*
G02*
X1452080I116840J0D01*
G01*
X1783640D01*
Y3680840D01*
X2006840D01*
Y3628240D01*
X2206940D01*
Y3630940D01*
G75*
G02*
X2168800Y3705240I53300J74300D01*
G01*
G75*
G02*
X2309090Y3782540I91440J0D01*
G01*
G75*
G02*
X2491680Y3775240I91150J-7300D01*
G01*
G75*
G02*
Y3775230I-114590J0D01*
G01*
G75*
G02*
X2453540Y3700940I-91420J0D01*
G01*
Y3628240D01*
X2506940D01*
Y3798100D01*
X2422800Y3882240D01*
X1452080D01*
G75*
G02*
X1218400I-116840J0D01*
G01*
X1175840D01*
G37*
X2573680D02*
G36*
X2573680Y3882240D02*
X2597960Y3857960D01*
G75*
G02*
X2613580Y3820240I-37760J-37730D01*
G01*
G75*
G02*
Y3820230I-63660J0D01*
G01*
G75*
G02*
X2613540Y3818070I-58360J0D01*
G01*
Y3628240D01*
X2619640D01*
Y3740340D01*
X2975000D01*
Y3778140D01*
X2619640D01*
Y3882240D01*
X2573680D01*
G37*
X1175840Y4136240D02*
G36*
X1175840Y4136240D02*
Y3882240D01*
X1218400D01*
G75*
G02*
X1452080I116840J0D01*
G01*
X2422800D01*
X2400650Y3904390D01*
G75*
G02*
X2298800Y3995240I-10410J90850D01*
G01*
G75*
G02*
X2481680I91440J0D01*
G01*
G75*
G02*
Y3995220I-88150J-10D01*
G01*
G75*
G02*
X2479680Y3976240I-91060J0D01*
G01*
X2573680Y3882240D01*
X2619640D01*
Y3994340D01*
X2975000D01*
Y4032140D01*
X2619640D01*
Y4136240D01*
X1976670D01*
G75*
G02*
X1976680Y4135250I-91480J-1420D01*
G01*
G75*
G02*
Y4135240I-114590J0D01*
G01*
G75*
G02*
X1793800I-91440J0D01*
G01*
G75*
G02*
Y4135250I114590J10D01*
G01*
G75*
G02*
X1793810Y4136240I91490J-430D01*
G01*
X1452080D01*
G75*
G02*
X1218400I-116840J0D01*
G01*
X1175840D01*
G37*
Y4455000D02*
G36*
X1175840Y4455000D02*
Y4136240D01*
X1218400D01*
G75*
G02*
X1452080I116840J0D01*
G01*
X1793810D01*
G75*
G02*
X1831940Y4209540I91420J-990D01*
G01*
Y4455000D01*
X1432490D01*
G75*
G02*
X1452080Y4390240I-97290J-64770D01*
G01*
G75*
G02*
X1218400I-116840J0D01*
G01*
G75*
G02*
X1237990Y4455000I116880J-10D01*
G01*
X1175840D01*
G37*
X1938540D02*
G36*
X1938540Y4455000D02*
Y4209540D01*
G75*
G02*
X1976670Y4136240I-53290J-74290D01*
G01*
X2619640D01*
Y4248340D01*
X2975000D01*
Y4279640D01*
X2598680D01*
X2592260Y4273220D01*
G75*
G02*
X2532750Y4249640I-57000J56980D01*
G01*
X2422500D01*
G75*
G02*
X2144600Y4330240I-127260J80600D01*
G01*
G75*
G02*
X2210820Y4455000I150640J-10D01*
G01*
X1938540D01*
G37*
X1021120Y8379360D02*
Y7549000D01*
G75*
G02*
X1038220Y7574260I74120J-31760D01*
G01*
X1241220Y7777260D01*
G75*
G02*
X1300730Y7800840I57020J-57020D01*
G01*
X3407750D01*
G75*
G02*
X3432170Y7797840I2490J-80610D01*
G01*
X4385650D01*
G75*
G02*
X4587080Y7717240I84590J-80600D01*
G01*
G75*
G02*
X4385650Y7636640I-116840J0D01*
G01*
X3440680D01*
X3240840Y7436800D01*
Y7002500D01*
G75*
G02*
X3310880Y6875240I-80600J-127260D01*
G01*
G75*
G02*
X3009600I-150640J0D01*
G01*
G75*
G02*
X3079640Y7002500I150640J0D01*
G01*
Y7467750D01*
G75*
G02*
X3079600Y7470240I80580J2540D01*
G01*
G75*
G02*
X3103220Y7527260I80640J0D01*
G01*
X3215600Y7639640D01*
X1331680D01*
X1175840Y7483800D01*
Y5493680D01*
X1182680Y5486840D01*
X1250650D01*
G75*
G02*
X1452080Y5406240I84590J-80600D01*
G01*
G75*
G02*
X1250650Y5325640I-116840J0D01*
G01*
X1175840D01*
Y4180240D01*
X1227000D01*
G75*
G02*
X1443480I108240J-44000D01*
G01*
X1805640D01*
G75*
G02*
X1831940Y4209540I79600J-45000D01*
G01*
Y4763070D01*
G75*
G02*
X1831900Y4765240I53310J2070D01*
G01*
G75*
G02*
X1847520Y4802960I53340J0D01*
G01*
X1986940Y4942380D01*
Y6120940D01*
G75*
G02*
X2041070Y6286680I53300J74300D01*
G01*
X1953220Y6371940D01*
X1617380D01*
X1447180Y6201740D01*
G75*
G02*
X1452080Y6168240I-111950J-33480D01*
G01*
G75*
G02*
X1218400I-116840J0D01*
G01*
G75*
G02*
X1373280Y6278720I116840J0D01*
G01*
X1463500Y6368940D01*
X1439210D01*
G75*
G02*
X1218400Y6422240I-103970J53300D01*
G01*
G75*
G02*
X1439210Y6475540I116840J0D01*
G01*
X1465100D01*
X1531500Y6541940D01*
X1412410D01*
G75*
G02*
X1372520Y6557520I-2170J53300D01*
G01*
X1366410Y6563630D01*
G75*
G02*
X1218400Y6676240I-31170J112610D01*
G01*
G75*
G02*
X1452080I116840J0D01*
G01*
G75*
G02*
X1448750Y6648540I-116840J0D01*
G01*
X1541500D01*
X1371030Y6819010D01*
G75*
G02*
X1218400Y6930240I-35790J111230D01*
G01*
G75*
G02*
X1452080I116840J0D01*
G01*
G75*
G02*
X1446470Y6894450I-116860J-20D01*
G01*
X1607380Y6733540D01*
X2408070D01*
G75*
G02*
X2447960Y6717960I2170J-53300D01*
G01*
X2672960Y6492960D01*
G75*
G02*
X2688580Y6455240I-37720J-37720D01*
G01*
G75*
G02*
X2688540Y6453070I-53370J-100D01*
G01*
Y4994540D01*
G75*
G02*
X2726680Y4920240I-53300J-74300D01*
G01*
G75*
G02*
X2565240Y4861410I-91440J0D01*
G01*
G75*
G02*
X2403800Y4920240I-70000J58830D01*
G01*
G75*
G02*
X2441940Y4994540I91440J0D01*
G01*
Y5478070D01*
G75*
G02*
X2441900Y5480240I53310J2070D01*
G01*
G75*
G02*
X2457520Y5517960I53340J0D01*
G01*
X2476940Y5537380D01*
Y6096180D01*
G75*
G02*
X2439960Y6048500I-86700J29060D01*
G01*
G75*
G02*
X2476680Y5975240I-54720J-73260D01*
G01*
G75*
G02*
X2293800I-91440J0D01*
G01*
G75*
G02*
X2295000Y5990040I91460J30D01*
G01*
X2124740Y6160300D01*
G75*
G02*
X2093540Y6120940I-84500J34940D01*
G01*
Y4922410D01*
G75*
G02*
X2093580Y4920240I-53330J-2070D01*
G01*
G75*
G02*
X2077960Y4882520I-53340J0D01*
G01*
X1938540Y4743100D01*
Y4209540D01*
G75*
G02*
X1964840Y4180240I-53300J-74300D01*
G01*
X2281370D01*
G75*
G02*
X2285990Y4480600I13870J150000D01*
G01*
G75*
G02*
X2253800Y4550240I59250J69640D01*
G01*
G75*
G02*
X2419540Y4603540I91440J0D01*
G01*
X3008070D01*
G75*
G02*
X3047960Y4587960I2170J-53300D01*
G01*
X3122380Y4513540D01*
X3167750D01*
G75*
G02*
X3191940Y4655780I67490J61700D01*
G01*
G75*
G02*
X3185240Y4667900I93280J59480D01*
G01*
G75*
G02*
X2995840Y4650060I-100000J47340D01*
G01*
Y4603640D01*
X2774640D01*
Y4826840D01*
X2995840D01*
Y4780420D01*
G75*
G02*
X3004640Y4791030I89380J-65180D01*
G01*
Y4937750D01*
G75*
G02*
X3004600Y4940240I80580J2540D01*
G01*
G75*
G02*
X3004640Y4942730I80620J-50D01*
G01*
Y5404450D01*
G75*
G02*
X2995840Y5415060I80580J75790D01*
G01*
Y5368640D01*
X2774640D01*
Y5591840D01*
X2995840D01*
Y5545420D01*
G75*
G02*
X3004640Y5556030I89380J-65180D01*
G01*
Y6169450D01*
G75*
G02*
X2995840Y6180060I80580J75790D01*
G01*
Y6133640D01*
X2774640D01*
Y6356840D01*
X2995840D01*
Y6310420D01*
G75*
G02*
X3185240Y6292580I89400J-65180D01*
G01*
G75*
G02*
X3385240I100000J-47340D01*
G01*
G75*
G02*
X3582200Y6298540I100000J-47340D01*
G01*
X3953070D01*
G75*
G02*
X3992960Y6282960I2170J-53300D01*
G01*
X4047960Y6227960D01*
G75*
G02*
X4063580Y6190240I-37720J-37720D01*
G01*
G75*
G02*
X4063540Y6188070I-53370J-100D01*
G01*
Y5379540D01*
G75*
G02*
X4101680Y5305240I-53300J-74300D01*
G01*
G75*
G02*
X3918800I-91440J0D01*
G01*
G75*
G02*
X3956940Y5379540I91440J0D01*
G01*
Y5438490D01*
G75*
G02*
X3793800Y5495240I-71700J56750D01*
G01*
G75*
G02*
X3831940Y5569540I91440J0D01*
G01*
Y5843100D01*
X3758100Y5916940D01*
X3337410D01*
G75*
G02*
X3297520Y5932520I-2170J53300D01*
G01*
X3247520Y5982520D01*
G75*
G02*
X3231900Y6020240I37720J37720D01*
G01*
G75*
G02*
X3231940Y6022410I53350J100D01*
G01*
Y6148280D01*
G75*
G02*
X3185240Y6197900I53310J96960D01*
G01*
G75*
G02*
X3165840Y6169450I-99990J47340D01*
G01*
Y5556030D01*
G75*
G02*
X3185240Y5527580I-80590J-75790D01*
G01*
G75*
G02*
X3385240I100000J-47340D01*
G01*
G75*
G02*
X3595880Y5480240I100000J-47340D01*
G01*
G75*
G02*
X3385240Y5432900I-110640J0D01*
G01*
G75*
G02*
X3185240I-100000J47340D01*
G01*
G75*
G02*
X3165840Y5404450I-99990J47340D01*
G01*
Y5090840D01*
X3672330D01*
G75*
G02*
X3732270Y5067270I2910J-80600D01*
G01*
X3734260Y5065280D01*
G75*
G02*
X3745280Y5055270I-49030J-65040D01*
G01*
X3800280Y4995270D01*
G75*
G02*
X3805340Y4989180I-60050J-55040D01*
G01*
X3923680Y4870840D01*
X4135650D01*
G75*
G02*
X4304830I84590J-80600D01*
G01*
X4511800D01*
X4519640Y4878680D01*
Y4930840D01*
X4519830D01*
G75*
G02*
X4520260Y4935240I80410J-5640D01*
G01*
G75*
G02*
X4519640Y4945240I79970J9980D01*
G01*
Y5306800D01*
X4513010Y5313430D01*
G75*
G02*
X4425650Y5349640I-2770J116810D01*
G01*
X4393680D01*
X4300840Y5256800D01*
Y5128830D01*
G75*
G02*
X4337080Y5044240I-80600J-84590D01*
G01*
G75*
G02*
X4103400I-116840J0D01*
G01*
G75*
G02*
X4139640Y5128830I116840J0D01*
G01*
Y5287750D01*
G75*
G02*
X4139600Y5290240I80580J2540D01*
G01*
G75*
G02*
X4163220Y5347260I80640J0D01*
G01*
X4303220Y5487260D01*
G75*
G02*
X4362730Y5510840I57020J-57020D01*
G01*
X4425650D01*
G75*
G02*
X4627080Y5430240I84590J-80600D01*
G01*
G75*
G02*
X4627050Y5427470I-116970J-120D01*
G01*
X4657260Y5397260D01*
G75*
G02*
X4680880Y5340240I-57020J-57020D01*
G01*
G75*
G02*
X4680840Y5337750I-80660J50D01*
G01*
Y4945240D01*
G75*
G02*
X4680220Y4935240I-80600J-20D01*
G01*
G75*
G02*
X4680650Y4930840I-79980J-10040D01*
G01*
X4680840D01*
Y4864640D01*
X4680650D01*
G75*
G02*
X4679880Y4857860I-80470J5700D01*
G01*
G75*
G02*
X4680880Y4845240I-79620J-12660D01*
G01*
G75*
G02*
X4657260Y4788220I-80640J0D01*
G01*
X4602260Y4733220D01*
G75*
G02*
X4542750Y4709640I-57020J57020D01*
G01*
X4304830D01*
G75*
G02*
X4135650I-84590J80600D01*
G01*
X3892730D01*
G75*
G02*
X3833220Y4733220I-2490J80600D01*
G01*
X3691300Y4875140D01*
G75*
G02*
X3680200Y4885210I48940J65100D01*
G01*
X3639470Y4929640D01*
X3188680D01*
X3165840Y4906800D01*
Y4791030D01*
G75*
G02*
X3185240Y4762580I-80590J-75790D01*
G01*
G75*
G02*
X3385240I100000J-47340D01*
G01*
G75*
G02*
X3595880Y4715240I100000J-47340D01*
G01*
G75*
G02*
X3538540Y4618280I-110650J0D01*
G01*
Y4579540D01*
G75*
G02*
X3550150Y4440840I-53300J-74300D01*
G01*
X3616800D01*
X3668220Y4492260D01*
G75*
G02*
X3727730Y4515840I57020J-57020D01*
G01*
X4337750D01*
G75*
G02*
X4397260Y4492260I2490J-80600D01*
G01*
X4522260Y4367260D01*
G75*
G02*
X4545880Y4310240I-57020J-57020D01*
G01*
G75*
G02*
X4545840Y4307750I-80660J50D01*
G01*
Y4180240D01*
X4909360D01*
Y8379360D01*
X1021120D01*
X4353400Y7971240D02*
G75*
G02*
X4587080I116840J0D01*
G01*
G75*
G02*
X4353400I-116840J0D01*
G01*
Y8225240D02*
G75*
G02*
X4587080I116840J0D01*
G01*
G75*
G02*
X4353400I-116840J0D01*
G01*
Y6955240D02*
G75*
G02*
X4587080I116840J0D01*
G01*
G75*
G02*
X4353400I-116840J0D01*
G01*
X4393400Y5684240D02*
G75*
G02*
X4429640Y5768830I116840J0D01*
G01*
Y5990650D01*
G75*
G02*
X4393400Y6075240I80600J84590D01*
G01*
G75*
G02*
X4627080I116840J0D01*
G01*
G75*
G02*
X4590840Y5990650I-116840J0D01*
G01*
Y5768830D01*
G75*
G02*
X4627080Y5684240I-80600J-84590D01*
G01*
G75*
G02*
X4393400I-116840J0D01*
G01*
Y6329240D02*
G75*
G02*
X4627080I116840J0D01*
G01*
G75*
G02*
X4393400I-116840J0D01*
G01*
X4353400Y7209240D02*
G75*
G02*
X4587080I116840J0D01*
G01*
G75*
G02*
X4353400I-116840J0D01*
G01*
Y7463240D02*
G75*
G02*
X4587080I116840J0D01*
G01*
G75*
G02*
X4353400I-116840J0D01*
G01*
X1218400Y5660240D02*
G75*
G02*
X1452080I116840J0D01*
G01*
G75*
G02*
X1218400I-116840J0D01*
G01*
Y5914240D02*
G75*
G02*
X1439210Y5967540I116840J0D01*
G01*
X1759070D01*
G75*
G02*
X1798960Y5951960I2170J-53300D01*
G01*
X1857960Y5892960D01*
G75*
G02*
X1873580Y5855240I-37720J-37720D01*
G01*
G75*
G02*
X1873540Y5853070I-53370J-100D01*
G01*
Y5109540D01*
G75*
G02*
X1911680Y5035240I-53300J-74300D01*
G01*
G75*
G02*
X1728800I-91440J0D01*
G01*
G75*
G02*
X1766940Y5109540I91440J0D01*
G01*
Y5833100D01*
X1739100Y5860940D01*
X1439210D01*
G75*
G02*
X1218400Y5914240I-103970J53300D01*
G01*
Y4390240D02*
G75*
G02*
X1452080I116840J0D01*
G01*
G75*
G02*
X1218400I-116840J0D01*
G01*
Y4644240D02*
G75*
G02*
X1452080I116840J0D01*
G01*
G75*
G02*
X1218400I-116840J0D01*
G01*
Y4898240D02*
G75*
G02*
X1452080I116840J0D01*
G01*
G75*
G02*
X1218400I-116840J0D01*
G01*
Y5152240D02*
G75*
G02*
X1452080I116840J0D01*
G01*
G75*
G02*
X1218400I-116840J0D01*
G01*
X1175840Y4390240D02*
G36*
X1175840Y4390240D02*
Y4195480D01*
X1234530D01*
G75*
G02*
X1435950I100710J-59240D01*
G01*
X1816450D01*
G75*
G02*
X1831940Y4209540I68750J-60180D01*
G01*
Y4390240D01*
X1452080D01*
G75*
G02*
X1218400I-116840J0D01*
G01*
X1175840D01*
G37*
X1938540D02*
G36*
X1938540Y4390240D02*
Y4209540D01*
G75*
G02*
X1954030Y4195480I-53260J-74240D01*
G01*
X2227910D01*
G75*
G02*
X2144590Y4330240I67320J134760D01*
G01*
G75*
G02*
X2157060Y4390240I150660J-20D01*
G01*
X1938540D01*
G37*
X4499280D02*
G36*
X4499280Y4390240D02*
X4522260Y4367260D01*
G75*
G02*
X4545880Y4310240I-57030J-57030D01*
G01*
G75*
G02*
X4545840Y4307750I-78190J10D01*
G01*
Y4195480D01*
X4894120D01*
Y4390240D01*
X4499280D01*
G37*
X1175840Y4644240D02*
G36*
X1175840Y4644240D02*
Y4390240D01*
X1218400D01*
G75*
G02*
X1452080I116840J0D01*
G01*
X1831940D01*
Y4644240D01*
X1452080D01*
G75*
G02*
X1218400I-116840J0D01*
G01*
X1175840D01*
G37*
X1938540D02*
G36*
X1938540Y4644240D02*
Y4390240D01*
X2157060D01*
G75*
G02*
X2285990Y4480600I138180J-59990D01*
G01*
G75*
G02*
X2253800Y4550240I59260J69650D01*
G01*
G75*
G02*
X2419540Y4603540I91440J0D01*
G01*
X3008070D01*
G75*
G02*
X3047960Y4587960I2180J-53270D01*
G01*
X3122380Y4513540D01*
X3167750D01*
G75*
G02*
X3143800Y4575240I67490J61700D01*
G01*
G75*
G02*
X3175230Y4644240I91440J10D01*
G01*
X3170090D01*
G75*
G02*
X3000390I-84850J71000D01*
G01*
X2995840D01*
Y4603640D01*
X2774640D01*
Y4644240D01*
X1938540D01*
G37*
X3538540Y4618280D02*
G36*
X3538540Y4618280D02*
Y4579540D01*
G75*
G02*
X3576680Y4505240I-53300J-74300D01*
G01*
G75*
G02*
X3550150Y4440840I-91440J0D01*
G01*
X3616800D01*
X3668220Y4492260D01*
G75*
G02*
X3727730Y4515840I57020J-57020D01*
G01*
X4337750D01*
G75*
G02*
X4397260Y4492260I2490J-80600D01*
G01*
X4499280Y4390240D01*
X4894120D01*
Y4644240D01*
X3570090D01*
G75*
G02*
X3538540Y4618280I-84880J71010D01*
G01*
G37*
X1175840Y4898240D02*
G36*
X1175840Y4898240D02*
Y4644240D01*
X1218400D01*
G75*
G02*
X1452080I116840J0D01*
G01*
X1831940D01*
Y4763070D01*
G75*
G02*
X1831900Y4765230I58320J2160D01*
G01*
G75*
G02*
Y4765240I63660J10D01*
G01*
G75*
G02*
X1847520Y4802960I53380J-10D01*
G01*
X1942800Y4898240D01*
X1452080D01*
G75*
G02*
X1218400I-116840J0D01*
G01*
X1175840D01*
G37*
X1938540Y4743100D02*
G36*
X1938540Y4743100D02*
Y4644240D01*
X2774640D01*
Y4826840D01*
X2995840D01*
Y4780420D01*
G75*
G02*
X3004640Y4791030I88560J-64490D01*
G01*
Y4898240D01*
X2723990D01*
G75*
G02*
X2565240Y4861410I-88750J22000D01*
G01*
G75*
G02*
X2406490Y4898240I-70000J58830D01*
G01*
X2088830D01*
G75*
G02*
X2077960Y4882520I-48630J22010D01*
G01*
X1938540Y4743100D01*
G37*
X2995840Y4650060D02*
G36*
X2995840Y4650060D02*
Y4644240D01*
X3000390D01*
G75*
G02*
X2995840Y4650060I84870J71040D01*
G01*
G37*
X3165840Y4898240D02*
G36*
X3165840Y4898240D02*
Y4791030D01*
G75*
G02*
X3185240Y4762580I-80590J-75790D01*
G01*
G75*
G02*
X3385240I100000J-47340D01*
G01*
G75*
G02*
X3595880Y4715240I100000J-47340D01*
G01*
G75*
G02*
X3570090Y4644240I-110670J20D01*
G01*
X4894120D01*
Y4898240D01*
X4680840D01*
Y4864640D01*
X4680650D01*
G75*
G02*
X4679880Y4857860I-76800J5290D01*
G01*
G75*
G02*
X4680880Y4845250I-79010J-12610D01*
G01*
G75*
G02*
Y4845240I-81850J0D01*
G01*
G75*
G02*
X4657260Y4788220I-80650J10D01*
G01*
X4602260Y4733220D01*
G75*
G02*
X4542750Y4709640I-57000J56980D01*
G01*
X4304830D01*
G75*
G02*
X4135650I-84590J80600D01*
G01*
X3892730D01*
G75*
G02*
X3833220Y4733220I-2490J80600D01*
G01*
X3691300Y4875140D01*
G75*
G02*
X3680200Y4885210I49270J65460D01*
G01*
X3668260Y4898240D01*
X3165840D01*
G37*
X3170090Y4644240D02*
G36*
X3170090Y4644240D02*
X3175230D01*
G75*
G02*
X3191940Y4655780I60000J-69020D01*
G01*
G75*
G02*
X3185240Y4667900I92150J58850D01*
G01*
G75*
G02*
X3170090Y4644240I-100010J47360D01*
G01*
G37*
X3896280Y4898240D02*
G36*
X3896280Y4898240D02*
X3923680Y4870840D01*
X4135650D01*
G75*
G02*
X4175660Y4898240I84590J-80610D01*
G01*
X3896280D01*
G37*
X4264820D02*
G36*
X4264820Y4898240D02*
G75*
G02*
X4304830Y4870840I-44580J-108010D01*
G01*
X4511800D01*
X4519640Y4878680D01*
Y4898240D01*
X4264820D01*
G37*
X1175840Y5152240D02*
G36*
X1175840Y5152240D02*
Y4898240D01*
X1218400D01*
G75*
G02*
X1452080I116840J0D01*
G01*
X1942800D01*
X1986940Y4942380D01*
Y5152240D01*
X1873540D01*
Y5109540D01*
G75*
G02*
X1911680Y5035250I-53280J-74290D01*
G01*
G75*
G02*
Y5035240I-114590J0D01*
G01*
G75*
G02*
X1728800I-91440J0D01*
G01*
G75*
G02*
Y5035250I114590J10D01*
G01*
G75*
G02*
X1766940Y5109540I91420J0D01*
G01*
Y5152240D01*
X1452080D01*
G75*
G02*
X1218400I-116840J0D01*
G01*
X1175840D01*
G37*
X2093540D02*
G36*
X2093540Y5152240D02*
Y4922410D01*
G75*
G02*
X2093580Y4920250I-58320J-2160D01*
G01*
G75*
G02*
Y4920240I-63660J0D01*
G01*
G75*
G02*
X2088830Y4898240I-53380J10D01*
G01*
X2406490D01*
G75*
G02*
X2403800Y4920240I88760J22020D01*
G01*
G75*
G02*
Y4920250I114590J10D01*
G01*
G75*
G02*
X2441940Y4994540I91420J0D01*
G01*
Y5152240D01*
X2093540D01*
G37*
X2688540D02*
G36*
X2688540Y5152240D02*
Y4994540D01*
G75*
G02*
X2726680Y4920250I-53280J-74290D01*
G01*
G75*
G02*
Y4920240I-114590J0D01*
G01*
G75*
G02*
X2723990Y4898240I-91450J20D01*
G01*
X3004640D01*
Y4937750D01*
G75*
G02*
X3004600Y4940230I76910J2480D01*
G01*
G75*
G02*
Y4940240I81850J10D01*
G01*
G75*
G02*
Y4940250I81850J10D01*
G01*
G75*
G02*
X3004640Y4942730I76950J0D01*
G01*
Y5152240D01*
X2688540D01*
G37*
X3165840Y4906800D02*
G36*
X3165840Y4906800D02*
Y4898240D01*
X3668260D01*
X3639470Y4929640D01*
X3188680D01*
X3165840Y4906800D01*
G37*
Y5152240D02*
G36*
X3165840Y5152240D02*
Y5090840D01*
X3672330D01*
G75*
G02*
X3732270Y5067270I2910J-80600D01*
G01*
X3734260Y5065280D01*
G75*
G02*
X3745280Y5055270I-48620J-64600D01*
G01*
X3800280Y4995270D01*
G75*
G02*
X3805340Y4989180I-60630J-55530D01*
G01*
X3896280Y4898240D01*
X4175660D01*
G75*
G02*
X4264820I44580J-108000D01*
G01*
X4519640D01*
Y4930840D01*
X4519830D01*
G75*
G02*
X4520260Y4935240I70010J-4620D01*
G01*
G75*
G02*
X4519640Y4945080I77750J9840D01*
G01*
G75*
G02*
Y4945240I78350J80D01*
G01*
Y5152240D01*
X4300840D01*
Y5128830D01*
G75*
G02*
X4337080Y5044240I-80600J-84590D01*
G01*
G75*
G02*
X4103400I-116840J0D01*
G01*
G75*
G02*
X4139640Y5128830I116840J0D01*
G01*
Y5152240D01*
X3165840D01*
G37*
X4680220Y4935240D02*
G36*
X4680220Y4935240D02*
G75*
G02*
X4680650Y4930840I-69580J-9020D01*
G01*
X4680840D01*
Y4898240D01*
X4894120D01*
Y5152240D01*
X4680840D01*
Y4945240D01*
G75*
G02*
Y4945080I-78350J-80D01*
G01*
G75*
G02*
X4680220Y4935240I-78370J0D01*
G01*
G37*
X1175840Y5325640D02*
G36*
X1175840Y5325640D02*
Y5152240D01*
X1218400D01*
G75*
G02*
X1452080I116840J0D01*
G01*
X1766940D01*
Y5660240D01*
X1452080D01*
G75*
G02*
X1218400I-116840J0D01*
G01*
X1175840D01*
Y5493680D01*
X1182680Y5486840D01*
X1250650D01*
G75*
G02*
X1452080Y5406240I84590J-80600D01*
G01*
G75*
G02*
X1250650Y5325640I-116840J0D01*
G01*
X1175840D01*
G37*
X1873540Y5660240D02*
G36*
X1873540Y5660240D02*
Y5152240D01*
X1986940D01*
Y5660240D01*
X1873540D01*
G37*
X2093540D02*
G36*
X2093540Y5660240D02*
Y5152240D01*
X2441940D01*
Y5478070D01*
G75*
G02*
X2441900Y5480230I58320J2160D01*
G01*
G75*
G02*
Y5480240I63660J10D01*
G01*
G75*
G02*
X2457520Y5517960I53380J-10D01*
G01*
X2476940Y5537380D01*
Y5660240D01*
X2093540D01*
G37*
X2688540D02*
G36*
X2688540Y5660240D02*
Y5152240D01*
X3004640D01*
Y5404450D01*
G75*
G02*
X2995840Y5415060I79760J75100D01*
G01*
Y5368640D01*
X2774640D01*
Y5591840D01*
X2995840D01*
Y5545420D01*
G75*
G02*
X3004640Y5556030I88560J-64490D01*
G01*
Y5660240D01*
X2688540D01*
G37*
X3165840Y5404450D02*
G36*
X3165840Y5404450D02*
Y5152240D01*
X4139640D01*
Y5287750D01*
G75*
G02*
X4139600Y5290230I76910J2480D01*
G01*
G75*
G02*
Y5290240I81850J10D01*
G01*
G75*
G02*
X4163220Y5347260I80650J-10D01*
G01*
X4303220Y5487260D01*
G75*
G02*
X4362730Y5510840I57020J-57020D01*
G01*
X4425650D01*
G75*
G02*
X4627080Y5430240I84590J-80600D01*
G01*
G75*
G02*
X4627050Y5427470I-194030J720D01*
G01*
X4657260Y5397260D01*
G75*
G02*
X4680880Y5340240I-57030J-57030D01*
G01*
G75*
G02*
X4680840Y5337750I-78190J10D01*
G01*
Y5152240D01*
X4894120D01*
Y5660240D01*
X4624590D01*
G75*
G02*
X4395890I-114350J24000D01*
G01*
X4063540D01*
Y5379540D01*
G75*
G02*
X4101680Y5305250I-53280J-74290D01*
G01*
G75*
G02*
Y5305240I-114590J0D01*
G01*
G75*
G02*
X3918800I-91440J0D01*
G01*
G75*
G02*
Y5305250I114590J10D01*
G01*
G75*
G02*
X3956940Y5379540I91420J0D01*
G01*
Y5438490D01*
G75*
G02*
X3793800Y5495230I-71700J56740D01*
G01*
G75*
G02*
Y5495240I143240J10D01*
G01*
G75*
G02*
Y5495250I114590J10D01*
G01*
G75*
G02*
X3831940Y5569540I91420J0D01*
G01*
Y5660240D01*
X3165840D01*
Y5556030D01*
G75*
G02*
X3185240Y5527580I-80590J-75790D01*
G01*
G75*
G02*
X3385240I100000J-47340D01*
G01*
G75*
G02*
X3595880Y5480240I100000J-47340D01*
G01*
G75*
G02*
X3385240Y5432900I-110640J0D01*
G01*
G75*
G02*
X3185240I-100000J47340D01*
G01*
G75*
G02*
X3165840Y5404450I-100370J47600D01*
G01*
G37*
X4300840Y5256800D02*
G36*
X4300840Y5256800D02*
Y5152240D01*
X4519640D01*
Y5306800D01*
X4513010Y5313430D01*
G75*
G02*
X4425650Y5349640I-2780J116780D01*
G01*
X4393680D01*
X4300840Y5256800D01*
G37*
X1175840Y5879740D02*
G36*
X1175840Y5879740D02*
Y5660240D01*
X1218400D01*
G75*
G02*
X1452080I116840J0D01*
G01*
X1766940D01*
Y5833100D01*
X1739100Y5860940D01*
X1439210D01*
G75*
G02*
X1223610Y5879740I-103970J53290D01*
G01*
X1175840D01*
G37*
X1873540Y5853070D02*
G36*
X1873540Y5853070D02*
Y5660240D01*
X1986940D01*
Y5879740D01*
X1867620D01*
G75*
G02*
X1873580Y5855240I-47420J-24510D01*
G01*
G75*
G02*
Y5855230I-63660J0D01*
G01*
G75*
G02*
X1873540Y5853070I-58360J0D01*
G01*
G37*
X2093540Y5879740D02*
G36*
X2093540Y5879740D02*
Y5660240D01*
X2476940D01*
Y5879740D01*
X2093540D01*
G37*
X2688540D02*
G36*
X2688540Y5879740D02*
Y5660240D01*
X3004640D01*
Y5879740D01*
X2688540D01*
G37*
X3165840D02*
G36*
X3165840Y5879740D02*
Y5660240D01*
X3831940D01*
Y5843100D01*
X3795300Y5879740D01*
X3165840D01*
G37*
X4063540D02*
G36*
X4063540Y5879740D02*
Y5660240D01*
X4395890D01*
G75*
G02*
X4393400Y5684240I114350J23990D01*
G01*
G75*
G02*
X4429640Y5768830I116840J0D01*
G01*
Y5879740D01*
X4063540D01*
G37*
X4590840D02*
G36*
X4590840Y5879740D02*
Y5768830D01*
G75*
G02*
X4627080Y5684240I-80600J-84590D01*
G01*
G75*
G02*
X4624590Y5660240I-116840J-10D01*
G01*
X4894120D01*
Y5879740D01*
X4590840D01*
G37*
X1175840Y6329240D02*
G36*
X1175840Y6329240D02*
Y5879740D01*
X1223610D01*
G75*
G02*
X1218400Y5914230I111620J34500D01*
G01*
G75*
G02*
Y5914240I286480J10D01*
G01*
G75*
G02*
Y5914250I286480J10D01*
G01*
G75*
G02*
X1439210Y5967540I116840J0D01*
G01*
X1759070D01*
G75*
G02*
X1798960Y5951960I2180J-53270D01*
G01*
X1857960Y5892960D01*
G75*
G02*
X1867620Y5879740I-37760J-37730D01*
G01*
X1986940D01*
Y6120940D01*
G75*
G02*
X1948800Y6195240I53300J74300D01*
G01*
G75*
G02*
X2041070Y6286680I91450J0D01*
G01*
X1997220Y6329240D01*
X1574680D01*
X1447180Y6201740D01*
G75*
G02*
X1452080Y6168260I-111920J-33480D01*
G01*
G75*
G02*
Y6168240I-104170J-10D01*
G01*
G75*
G02*
X1218400I-116840J0D01*
G01*
G75*
G02*
X1373280Y6278720I116850J-10D01*
G01*
X1423800Y6329240D01*
X1405970D01*
G75*
G02*
X1264510I-70730J92990D01*
G01*
X1175840D01*
G37*
X2093540Y6120940D02*
G36*
X2093540Y6120940D02*
Y5879740D01*
X2476940D01*
Y6096180D01*
G75*
G02*
X2439960Y6048500I-86640J29020D01*
G01*
G75*
G02*
X2476680Y5975250I-54700J-73250D01*
G01*
G75*
G02*
Y5975240I-143240J0D01*
G01*
G75*
G02*
X2293800I-91440J0D01*
G01*
G75*
G02*
X2295000Y5990040I91850J0D01*
G01*
X2124740Y6160300D01*
G75*
G02*
X2093540Y6120940I-84480J34920D01*
G01*
G37*
X2688540Y6329240D02*
G36*
X2688540Y6329240D02*
Y5879740D01*
X3004640D01*
Y6169450D01*
G75*
G02*
X2995840Y6180060I79760J75100D01*
G01*
Y6133640D01*
X2774640D01*
Y6329240D01*
X2688540D01*
G37*
X2995840D02*
G36*
X2995840Y6329240D02*
Y6310420D01*
G75*
G02*
X3013230Y6329240I89400J-65160D01*
G01*
X2995840D01*
G37*
X3165840Y6169450D02*
G36*
X3165840Y6169450D02*
Y5879740D01*
X3795300D01*
X3758100Y5916940D01*
X3337410D01*
G75*
G02*
X3297520Y5932520I-2180J53270D01*
G01*
X3247520Y5982520D01*
G75*
G02*
X3231900Y6020240I37760J37730D01*
G01*
G75*
G02*
X3231940Y6022410I59450J-10D01*
G01*
Y6148280D01*
G75*
G02*
X3185240Y6197900I53310J96950D01*
G01*
G75*
G02*
X3165840Y6169450I-100370J47600D01*
G01*
G37*
X3157250Y6329240D02*
G36*
X3157250Y6329240D02*
G75*
G02*
X3185240Y6292580I-72010J-83990D01*
G01*
G75*
G02*
X3213230Y6329240I100000J-47340D01*
G01*
X3157250D01*
G37*
X3357250D02*
G36*
X3357250Y6329240D02*
G75*
G02*
X3385240Y6292580I-72010J-84000D01*
G01*
G75*
G02*
X3413230Y6329240I100000J-47340D01*
G01*
X3357250D01*
G37*
X3557250D02*
G36*
X3557250Y6329240D02*
G75*
G02*
X3582200Y6298540I-72010J-84010D01*
G01*
X3953070D01*
G75*
G02*
X3992960Y6282960I2180J-53270D01*
G01*
X4047960Y6227960D01*
G75*
G02*
X4063580Y6190240I-37760J-37730D01*
G01*
G75*
G02*
Y6190230I-63660J0D01*
G01*
G75*
G02*
X4063540Y6188070I-58360J0D01*
G01*
Y5879740D01*
X4429640D01*
Y5990650D01*
G75*
G02*
X4393400Y6075240I80600J84590D01*
G01*
G75*
G02*
X4627080I116840J0D01*
G01*
G75*
G02*
X4590840Y5990650I-116840J0D01*
G01*
Y5879740D01*
X4894120D01*
Y6329240D01*
X4627080D01*
G75*
G02*
X4393400I-116840J0D01*
G01*
X3557250D01*
G37*
X1175840Y6955240D02*
G36*
X1175840Y6955240D02*
Y6329240D01*
X1264510D01*
G75*
G02*
X1218400Y6422230I70730J93000D01*
G01*
G75*
G02*
Y6422240I286480J10D01*
G01*
G75*
G02*
Y6422250I286480J10D01*
G01*
G75*
G02*
X1439210Y6475540I116840J0D01*
G01*
X1465100D01*
X1531500Y6541940D01*
X1412410D01*
G75*
G02*
X1372520Y6557520I-2180J53270D01*
G01*
X1366410Y6563630D01*
G75*
G02*
X1218400Y6676240I-31160J112620D01*
G01*
G75*
G02*
X1452080I116840J0D01*
G01*
G75*
G02*
X1448750Y6648540I-117500J70D01*
G01*
X1541500D01*
X1371030Y6819010D01*
G75*
G02*
X1218400Y6930240I-35780J111230D01*
G01*
G75*
G02*
X1221110Y6955240I116850J-20D01*
G01*
X1175840D01*
G37*
X1405970Y6329240D02*
G36*
X1405970Y6329240D02*
X1423800D01*
X1463500Y6368940D01*
X1439210D01*
G75*
G02*
X1405970Y6329240I-103970J53290D01*
G01*
G37*
X1449370Y6955240D02*
G36*
X1449370Y6955240D02*
G75*
G02*
X1452080Y6930240I-114140J-25020D01*
G01*
G75*
G02*
Y6930230I-286480J0D01*
G01*
G75*
G02*
X1446470Y6894450I-116920J0D01*
G01*
X1607380Y6733540D01*
X2408070D01*
G75*
G02*
X2447960Y6717960I2180J-53270D01*
G01*
X2672960Y6492960D01*
G75*
G02*
X2688580Y6455240I-37760J-37730D01*
G01*
G75*
G02*
Y6455230I-63660J0D01*
G01*
G75*
G02*
X2688540Y6453070I-58360J0D01*
G01*
Y6329240D01*
X2774640D01*
Y6356840D01*
X2995840D01*
Y6329240D01*
X3013230D01*
G75*
G02*
X3157250I72010J-84010D01*
G01*
X3213230D01*
G75*
G02*
X3357250I72010J-84000D01*
G01*
X3413230D01*
G75*
G02*
X3557250I72010J-84000D01*
G01*
X4393400D01*
G75*
G02*
X4627080I116840J0D01*
G01*
X4894120D01*
Y6955240D01*
X4587080D01*
G75*
G02*
X4353400I-116840J0D01*
G01*
X3287880D01*
G75*
G02*
X3310880Y6875240I-127660J-80010D01*
G01*
G75*
G02*
X3009600I-150640J0D01*
G01*
G75*
G02*
X3032600Y6955240I150660J-10D01*
G01*
X1449370D01*
G37*
X1617380Y6371940D02*
G36*
X1617380Y6371940D02*
X1574680Y6329240D01*
X1997220D01*
X1953220Y6371940D01*
X1617380D01*
G37*
X1175840Y7209240D02*
G36*
X1175840Y7209240D02*
Y6955240D01*
X1221110D01*
G75*
G02*
X1449370I114130J-25000D01*
G01*
X3032600D01*
G75*
G02*
X3079640Y7002500I127660J-80020D01*
G01*
Y7209240D01*
X1175840D01*
G37*
X3240840D02*
G36*
X3240840Y7209240D02*
Y7002500D01*
G75*
G02*
X3287880Y6955240I-80620J-127280D01*
G01*
X4353400D01*
G75*
G02*
X4587080I116840J0D01*
G01*
X4894120D01*
Y7209240D01*
X4587080D01*
G75*
G02*
X4353400I-116840J0D01*
G01*
X3240840D01*
G37*
X1175840Y7463240D02*
G36*
X1175840Y7463240D02*
Y7209240D01*
X3079640D01*
Y7463240D01*
X1175840D01*
G37*
X3240840Y7436800D02*
G36*
X3240840Y7436800D02*
Y7209240D01*
X4353400D01*
G75*
G02*
X4587080I116840J0D01*
G01*
X4894120D01*
Y7463240D01*
X4587080D01*
G75*
G02*
X4353400I-116840J0D01*
G01*
X3267280D01*
X3240840Y7436800D01*
G37*
X1036360Y7971240D02*
G36*
X1036360Y7971240D02*
Y7572340D01*
G75*
G02*
X1038220Y7574260I58610J-54920D01*
G01*
X1241220Y7777260D01*
G75*
G02*
X1300730Y7800840I57020J-57020D01*
G01*
X3407750D01*
G75*
G02*
X3432170Y7797840I2530J-80290D01*
G01*
X4385650D01*
G75*
G02*
X4587080Y7717240I84590J-80600D01*
G01*
G75*
G02*
X4385650Y7636640I-116840J0D01*
G01*
X3440680D01*
X3267280Y7463240D01*
X4353400D01*
G75*
G02*
X4587080I116840J0D01*
G01*
X4894120D01*
Y7971240D01*
X4587080D01*
G75*
G02*
X4353400I-116840J0D01*
G01*
X1036360D01*
G37*
X1175840Y7483800D02*
G36*
X1175840Y7483800D02*
Y7463240D01*
X3079640D01*
Y7467750D01*
G75*
G02*
X3079600Y7470230I76910J2480D01*
G01*
G75*
G02*
Y7470240I81850J10D01*
G01*
G75*
G02*
X3103220Y7527260I80650J-10D01*
G01*
X3215600Y7639640D01*
X1331680D01*
X1175840Y7483800D01*
G37*
X1036360Y8225240D02*
G36*
X1036360Y8225240D02*
Y7971240D01*
X4353400D01*
G75*
G02*
X4587080I116840J0D01*
G01*
X4894120D01*
Y8225240D01*
X4587080D01*
G75*
G02*
X4353400I-116840J0D01*
G01*
X1036360D01*
G37*
Y8364120D02*
G36*
X1036360Y8364120D02*
Y8225240D01*
X4353400D01*
G75*
G02*
X4587080I116840J0D01*
G01*
X4894120D01*
Y8364120D01*
X1036360D01*
G37*
X2535240Y2943120D02*
Y2715080D01*
G75*
G02*
X2562250Y2697250I-30010J-74840D01*
G01*
X2562660Y2696840D01*
X2619640D01*
Y2724340D01*
X3000840D01*
Y2508140D01*
X2619640D01*
Y2535640D01*
X2543050D01*
G75*
G02*
X2535240Y2534770I-12820J79590D01*
G01*
Y1741120D01*
X4505240D01*
Y2000140D01*
X4143640D01*
Y2216340D01*
X4505240D01*
Y2254140D01*
X4143640D01*
Y2308940D01*
X4075410D01*
G75*
G02*
X4035520Y2324520I-2170J53300D01*
G01*
X3952520Y2407520D01*
G75*
G02*
X3936900Y2445240I37720J37720D01*
G01*
G75*
G02*
X3936940Y2447410I53350J100D01*
G01*
Y2523100D01*
X3523100Y2936940D01*
X3000840D01*
Y2762140D01*
X2619640D01*
Y2936940D01*
X2562410D01*
G75*
G02*
X2535240Y2943120I-2160J53300D01*
G01*
X3148800Y2735240D02*
G75*
G02*
X3327690Y2761940I91440J0D01*
G01*
G75*
G02*
X3481680Y2695240I62550J-66700D01*
G01*
G75*
G02*
X3443540Y2620940I-91440J0D01*
G01*
Y2375410D01*
G75*
G02*
X3443580Y2373240I-53330J-2070D01*
G01*
G75*
G02*
X3427960Y2335520I-53340J0D01*
G01*
X3162960Y2070520D01*
G75*
G02*
X3123070Y2054940I-37720J37720D01*
G01*
X3000840D01*
Y2000140D01*
X2619640D01*
Y2216340D01*
X3000840D01*
Y2161540D01*
X3103100D01*
X3336940Y2395380D01*
Y2620940D01*
G75*
G02*
X3302790Y2668540I53310J74300D01*
G01*
G75*
G02*
X3293540Y2660940I-62580J66740D01*
G01*
Y2564410D01*
G75*
G02*
X3293580Y2562240I-53330J-2070D01*
G01*
G75*
G02*
X3277960Y2524520I-53340J0D01*
G01*
X3077960Y2324520D01*
G75*
G02*
X3038070Y2308940I-37720J37720D01*
G01*
X3000840D01*
Y2254140D01*
X2619640D01*
Y2470340D01*
X3000840D01*
Y2415540D01*
X3018100D01*
X3186940Y2584380D01*
Y2660940D01*
G75*
G02*
X3148800Y2735240I53300J74300D01*
G01*
X2550480Y2413410D02*
G36*
X2550480Y2413410D02*
Y1756360D01*
X4490000D01*
Y2000140D01*
X4143640D01*
Y2216340D01*
X4490000D01*
Y2254140D01*
X4143640D01*
Y2308940D01*
X4075410D01*
G75*
G02*
X4035520Y2324520I-2180J53270D01*
G01*
X3952520Y2407520D01*
G75*
G02*
X3947440Y2413410I37760J37700D01*
G01*
X3443540D01*
Y2375410D01*
G75*
G02*
X3443580Y2373250I-58320J-2160D01*
G01*
G75*
G02*
Y2373240I-63660J0D01*
G01*
G75*
G02*
X3427960Y2335520I-53380J10D01*
G01*
X3162960Y2070520D01*
G75*
G02*
X3123070Y2054940I-37710J37690D01*
G01*
X3000840D01*
Y2000140D01*
X2619640D01*
Y2216340D01*
X3000840D01*
Y2161540D01*
X3103100D01*
X3336940Y2395380D01*
Y2413410D01*
X3166850D01*
X3077960Y2324520D01*
G75*
G02*
X3038070Y2308940I-37710J37690D01*
G01*
X3000840D01*
Y2254140D01*
X2619640D01*
Y2413410D01*
X2550480D01*
G37*
Y2535640D02*
G36*
X2550480Y2535640D02*
Y2413410D01*
X2619640D01*
Y2470340D01*
X3000840D01*
Y2415540D01*
X3018100D01*
X3186940Y2584380D01*
Y2660940D01*
G75*
G02*
X3148800Y2735230I53280J74290D01*
G01*
G75*
G02*
Y2735240I114590J10D01*
G01*
G75*
G02*
X3327690Y2761940I91440J-10D01*
G01*
G75*
G02*
X3481680Y2695240I62550J-66700D01*
G01*
G75*
G02*
Y2695230I-114590J0D01*
G01*
G75*
G02*
X3443540Y2620940I-91420J0D01*
G01*
Y2413410D01*
X3947440D01*
G75*
G02*
X3936900Y2445240I42840J31850D01*
G01*
G75*
G02*
X3936940Y2447410I59450J-10D01*
G01*
Y2523100D01*
X3532160Y2927880D01*
X3000840D01*
Y2762140D01*
X2619640D01*
Y2927880D01*
X2550480D01*
Y2706970D01*
G75*
G02*
X2562250Y2697250I-45300J-66850D01*
G01*
X2562660Y2696840D01*
X2619640D01*
Y2724340D01*
X3000840D01*
Y2508140D01*
X2619640D01*
Y2535640D01*
X2550480D01*
G37*
X3277960Y2524520D02*
G36*
X3277960Y2524520D02*
X3166850Y2413410D01*
X3336940D01*
Y2620940D01*
G75*
G02*
X3302790Y2668540I53300J74290D01*
G01*
G75*
G02*
X3293540Y2660940I-62810J67020D01*
G01*
Y2564410D01*
G75*
G02*
X3293580Y2562250I-58320J-2160D01*
G01*
G75*
G02*
Y2562240I-63660J0D01*
G01*
G75*
G02*
X3277960Y2524520I-53380J10D01*
G01*
G37*
X4300240Y4550240D02*
Y4515840D01*
X4337750D01*
G75*
G02*
X4397260Y4492260I2490J-80600D01*
G01*
X4522260Y4367260D01*
G75*
G02*
X4545880Y4310240I-57020J-57020D01*
G01*
G75*
G02*
X4545840Y4307750I-80660J50D01*
G01*
Y3642730D01*
G75*
G02*
X4545880Y3640240I-80620J-2540D01*
G01*
G75*
G02*
X4522260Y3583220I-80640J0D01*
G01*
X4425380Y3486340D01*
X4524840D01*
Y3270140D01*
X4300240D01*
Y3232340D01*
X4524840D01*
Y3016140D01*
X4300240D01*
Y2978340D01*
X4524840D01*
Y2762140D01*
X4300240D01*
Y2724340D01*
X4524840D01*
Y2508140D01*
X4300240D01*
Y2470340D01*
X4524840D01*
Y2254140D01*
X4300240D01*
Y2216340D01*
X4524840D01*
Y2000140D01*
X4300240D01*
Y1741120D01*
X4909360D01*
Y4550240D01*
X4300240D01*
G36*
X4300240Y4550240D02*
Y4515840D01*
X4337750D01*
G75*
G02*
X4397260Y4492260I2490J-80600D01*
G01*
X4522260Y4367260D01*
G75*
G02*
X4545880Y4310240I-57020J-57020D01*
G01*
G75*
G02*
X4545840Y4307750I-80660J50D01*
G01*
Y3642730D01*
G75*
G02*
X4545880Y3640240I-80620J-2540D01*
G01*
G75*
G02*
X4522260Y3583220I-80640J0D01*
G01*
X4425380Y3486340D01*
X4524840D01*
Y3270140D01*
X4300240D01*
Y3232340D01*
X4524840D01*
Y3016140D01*
X4300240D01*
Y2978340D01*
X4524840D01*
Y2762140D01*
X4300240D01*
Y2724340D01*
X4524840D01*
Y2508140D01*
X4300240D01*
Y2470340D01*
X4524840D01*
Y2254140D01*
X4300240D01*
Y2216340D01*
X4524840D01*
Y2000140D01*
X4300240D01*
Y1741120D01*
X4909360D01*
Y4550240D01*
X4300240D01*
G37*
D02*
D12*
X1271740Y3120240D02*
X1218400D01*
X1271740Y4644240D02*
X1218400D01*
X1271740Y5660240D02*
X1218400D01*
X1335240Y3056740D02*
Y3003400D01*
Y3183740D02*
Y3237080D01*
Y4580740D02*
Y4527400D01*
Y4707740D02*
Y4761080D01*
Y5596740D02*
Y5543400D01*
Y5723740D02*
Y5777080D01*
Y5914240D02*
X1761240D01*
X1820240Y5855240D01*
Y5035240D01*
X1335240Y6168240D02*
X1338240D01*
X1595240Y6425240D01*
X1975240D01*
X2145240Y6260240D01*
Y6215240D01*
X2385240Y5975240D01*
X1335240Y6422240D02*
X1487240D01*
X1585240Y6520240D01*
X2005240D01*
X2075240Y6450240D01*
Y6440240D01*
X2390240Y6125240D01*
X1335240Y6930240D02*
X1585240Y6680240D01*
X2410240D01*
X2635240Y6455240D01*
Y4920240D01*
X1398740Y3120240D02*
X1452080D01*
X1398740Y4644240D02*
X1452080D01*
X1398740Y5660240D02*
X1452080D01*
X1507940Y2695240D02*
X1454600D01*
X1605240Y2597940D02*
Y2544600D01*
Y2792540D02*
Y2845880D01*
X1702540Y2695240D02*
X1755880D01*
X1832940Y2390240D02*
X1779600D01*
X1836940Y3570240D02*
X1783640D01*
X1895240Y3627540D02*
Y3680840D01*
X1910240Y2312940D02*
Y2259600D01*
Y2467540D02*
Y2520880D01*
X1953540Y3570240D02*
X2006840D01*
X1987540Y2390240D02*
X2040880D01*
X2040240Y6195240D02*
Y4920240D01*
X1885240Y4765240D01*
Y4135240D01*
X2345240Y4550240D02*
X3010240D01*
X3100240Y4460240D01*
X3440240D01*
X3485240Y4505240D01*
X2390240Y3995240D02*
Y3990240D01*
X2560240Y3820240D01*
Y3560240D01*
X2610240Y3510240D01*
X3090240D01*
X2400240Y3775240D02*
Y3325240D01*
X2475240Y3250240D01*
X3456240D01*
X4090240Y2616240D01*
X4334240D01*
X2495240Y4920240D02*
Y5480240D01*
X2530240Y5515240D01*
Y6135240D01*
X2070240Y6595240D01*
X1410240D01*
X1335240Y6670240D01*
Y6676240D01*
X2672940Y2870240D02*
X2619640D01*
X2672940D02*
X2619640D01*
X2810240Y2815440D02*
Y2762140D01*
Y2815440D02*
Y2762140D01*
X2827940Y4715240D02*
X2774640D01*
X2827940Y5480240D02*
X2774640D01*
X2827940Y6245240D02*
X2774640D01*
X2885240Y4656940D02*
Y4603640D01*
Y4773540D02*
Y4826840D01*
Y5421940D02*
Y5368640D01*
Y5538540D02*
Y5591840D01*
Y6186940D02*
Y6133640D01*
Y6303540D02*
Y6356840D01*
X2947540Y2870240D02*
X3000840D01*
X3190240Y3725240D02*
Y3420240D01*
X3148240Y3378240D01*
X2810240D01*
X3235240Y4220240D02*
X3225240D01*
Y3930240D01*
X3330240Y3825240D01*
Y3365240D01*
X3240240Y2735240D02*
Y2562240D01*
X3040240Y2362240D01*
X2810240D01*
X3285240Y4715240D02*
Y4665240D01*
X3235240Y4575240D01*
X3390240Y2695240D02*
Y2373240D01*
X3125240Y2108240D01*
X2810240D01*
X3485240Y4220240D02*
Y3730240D01*
X3475240D01*
Y3355240D01*
X3485240Y4715240D02*
Y4505240D01*
Y6245240D02*
X3955240D01*
X4010240Y6190240D01*
Y5305240D01*
X3845240Y3510240D02*
X3945240D01*
X4010240Y3445240D01*
X3885240Y4285240D02*
X4140240D01*
X4190240Y4235240D01*
Y3605240D01*
X4090240Y3505240D01*
Y3174240D01*
X4140240Y3124240D01*
X4334240D01*
X3885240Y5495240D02*
Y5865240D01*
X3780240Y5970240D01*
X3545240D01*
X3335240D01*
X3285240Y6020240D01*
Y6245240D01*
X4010240Y3445240D02*
Y2950240D01*
X4090240Y2870240D01*
X4334240D01*
X4010240Y4175240D02*
Y3445240D01*
X4196940Y2108240D02*
X4143640D01*
X4334240Y2053440D02*
Y2000140D01*
Y2053440D02*
Y2000140D01*
Y2163040D02*
Y2216340D01*
Y2163040D02*
Y2216340D01*
Y2362240D02*
X4073240D01*
X3990240Y2445240D01*
Y2545240D01*
X3545240Y2990240D01*
X2560240D01*
X2260240Y3290240D01*
Y3705240D01*
X4406740Y7971240D02*
X4353400D01*
X4406740Y8225240D02*
X4353400D01*
X4446740Y6329240D02*
X4393400D01*
X4470240Y7907740D02*
Y7854400D01*
Y8034740D02*
Y8088080D01*
Y8161740D02*
Y8108400D01*
Y8288740D02*
Y8342080D01*
X4471540Y2108240D02*
X4524840D01*
X4510240Y6265740D02*
Y6212400D01*
Y6392740D02*
Y6446080D01*
X4533740Y7971240D02*
X4587080D01*
X4533740Y8225240D02*
X4587080D01*
X4573740Y6329240D02*
X4627080D01*
D02*
D13*
X1095240Y5460240D02*
Y7517240D01*
X1298240Y7720240D01*
X3410240D01*
X1130240Y2810240D02*
X1095240Y2845240D01*
Y5460240D01*
X1335240Y5406240D02*
X1149240D01*
X1095240Y5460240D01*
X1335240Y5660240D02*
X1400240D01*
X1555240Y5505240D01*
Y4864240D01*
X1335240Y4644240D01*
X1550240Y2390240D02*
X1130240Y2810240D01*
X1605240Y2695240D02*
X1820240D01*
X1910240Y2605240D01*
X1895240Y3370240D02*
X1805240D01*
X1690240Y3255240D01*
Y3180240D01*
X1550240Y3040240D01*
Y2935240D01*
X1400240Y2785240D01*
X1155240D01*
X1130240Y2810240D01*
X1895240Y3570240D02*
Y3555240D01*
X1705240D01*
X1540240Y3390240D01*
Y3325240D01*
X1335240Y3120240D01*
X1910240Y2390240D02*
Y2605240D01*
X2810240Y2616240D02*
X2530240D01*
Y2615240D01*
X2505240Y2640240D01*
X2260240D01*
X2810240Y2870240D02*
X3435240D01*
X3590240Y2715240D01*
Y2438240D01*
X3920240Y2108240D01*
X4334240D01*
X2810240Y2870240D02*
X2175240D01*
X1910240Y2605240D01*
X2885240Y4715240D02*
X2275240D01*
X2060240Y4500240D01*
Y3945240D01*
Y3735240D01*
X1895240Y3570240D01*
X2885240Y5480240D02*
Y4715240D01*
Y6245240D02*
Y5480240D01*
X3085240Y4940240D02*
X3155240Y5010240D01*
X3675240D01*
X3685240Y5000240D01*
X3740240Y4940240D01*
X3890240Y4790240D01*
X4220240D01*
X3085240Y4940240D02*
Y4715240D01*
Y5480240D02*
Y4940240D01*
Y6245240D02*
Y5480240D01*
X3410240Y7720240D02*
X3160240Y7470240D01*
Y6875240D01*
X4220240Y4790240D02*
X4545240D01*
X4600240Y4845240D01*
X4334240Y3378240D02*
Y3509240D01*
X4465240Y3640240D01*
Y4310240D01*
X4340240Y4435240D01*
X3725240D01*
X3650240Y4360240D01*
X2565240D01*
X2535240Y4330240D01*
X2295240D01*
X4470240Y7717240D02*
X3410240D01*
Y7720240D01*
X4470240Y8225240D02*
Y7971240D01*
X4510240Y5430240D02*
X4600240Y5340240D01*
Y4945240D01*
X4510240Y5430240D02*
X4360240D01*
X4220240Y5290240D01*
Y5044240D01*
X4510240Y6075240D02*
Y5684240D01*
Y6329240D02*
X4236240D01*
X3905240Y6660240D01*
X2965240D01*
X2885240Y6580240D01*
Y6245240D01*
X4510240Y6329240D02*
X4628240D01*
X4739240Y6440240D01*
Y7851240D01*
X4620240Y7970240D01*
X4470240D01*
Y7971240D01*
D02*
D14*
X1605240Y2695240D03*
X2260240Y2640240D03*
X2295240Y4330240D03*
X3160240Y6875240D03*
D02*
D15*
X4600240Y4845240D02*
Y4860240D01*
Y4945240D02*
Y4935240D01*
D02*
D16*
X1820240Y5035240D03*
X1885240Y4135240D03*
X2040240Y6195240D03*
X2260240Y3705240D03*
X2345240Y4550240D03*
X2385240Y5975240D03*
X2390240Y3995240D03*
Y6125240D03*
X2400240Y3775240D03*
X2495240Y4920240D03*
X2635240D03*
X3090240Y3510240D03*
X3190240Y3725240D03*
X3235240Y4220240D03*
Y4575240D03*
X3240240Y2735240D03*
X3330240Y3365240D03*
X3390240Y2695240D03*
X3475240Y3355240D03*
X3485240Y4220240D03*
Y4505240D03*
X3845240Y3510240D03*
X3885240Y4285240D03*
Y5495240D03*
X4010240Y4175240D03*
Y5305240D03*
D02*
D17*
X2885240Y4715240D03*
Y5480240D03*
Y6245240D03*
D02*
D18*
X1895240Y2970240D03*
Y3170240D03*
Y3370240D03*
X3085240Y4715240D03*
Y5480240D03*
Y6245240D03*
X3285240Y4715240D03*
Y5480240D03*
Y6245240D03*
X3485240Y4715240D03*
Y5480240D03*
Y6245240D03*
D02*
D19*
X2810240Y2108240D03*
Y2362240D03*
Y2616240D03*
Y2870240D03*
Y3124240D03*
Y3378240D03*
Y3632240D03*
Y3886240D03*
Y4140240D03*
X4334240Y2108240D03*
Y2362240D03*
Y2616240D03*
Y2870240D03*
Y3124240D03*
Y3378240D03*
D02*
D70*
X1335240Y3120240D03*
Y3374240D03*
Y3628240D03*
Y3882240D03*
Y4136240D03*
Y4390240D03*
Y4644240D03*
Y4898240D03*
Y5152240D03*
Y5406240D03*
Y5660240D03*
Y5914240D03*
Y6168240D03*
Y6422240D03*
Y6676240D03*
Y6930240D03*
X4220240Y4790240D03*
Y5044240D03*
X4470240Y6955240D03*
Y7209240D03*
Y7463240D03*
Y7717240D03*
Y7971240D03*
Y8225240D03*
X4510240Y5430240D03*
Y5684240D03*
Y6075240D03*
Y6329240D03*
D02*
D71*
X1550240Y2390240D03*
X1910240D03*
D02*
D20*
X1298240Y2010240D03*
X2162240D03*
D02*
D21*
X4600240Y4860240D03*
D02*
D22*
Y4935240D03*
D02*
D23*
X1895240Y3570240D03*
X0Y0D02*
M02*
