G04 DesignSpark PCB Gerber Version 12.0 Build 5942*
%FSLAX35Y35*%
%MOMM*%
%ADD10C,0.12700*%
%ADD82C,2.54000*%
X0Y0D02*
D02*
D10*
X1552240Y2161050D02*
Y2256300D01*
X1631620D01*
X1615740Y2208680D02*
X1552240D01*
X1589240Y3271050D02*
Y3366300D01*
X1636870D01*
X1652740Y3358370D01*
X1660680Y3350430D01*
X1668620Y3334550D01*
Y3302800D01*
X1660680Y3286930D01*
X1652740Y3278990D01*
X1636870Y3271050D01*
X1589240D01*
Y3525050D02*
Y3620300D01*
X1636870D01*
X1652740Y3612370D01*
X1660680Y3604430D01*
X1668620Y3588550D01*
Y3556800D01*
X1660680Y3540930D01*
X1652740Y3532990D01*
X1636870Y3525050D01*
X1589240D01*
Y3779050D02*
Y3874300D01*
X1636870D01*
X1652740Y3866370D01*
X1660680Y3858430D01*
X1668620Y3842550D01*
Y3810800D01*
X1660680Y3794930D01*
X1652740Y3786990D01*
X1636870Y3779050D01*
X1589240D01*
Y4033050D02*
Y4128300D01*
X1636870D01*
X1652740Y4120370D01*
X1660680Y4112430D01*
X1668620Y4096550D01*
Y4064800D01*
X1660680Y4048930D01*
X1652740Y4040990D01*
X1636870Y4033050D01*
X1589240D01*
Y4287050D02*
Y4382300D01*
X1636870D01*
X1652740Y4374370D01*
X1660680Y4366430D01*
X1668620Y4350550D01*
Y4318800D01*
X1660680Y4302930D01*
X1652740Y4294990D01*
X1636870Y4287050D01*
X1589240D01*
Y4541050D02*
Y4636300D01*
X1636870D01*
X1652740Y4628370D01*
X1660680Y4620430D01*
X1668620Y4604550D01*
Y4572800D01*
X1660680Y4556930D01*
X1652740Y4548990D01*
X1636870Y4541050D01*
X1589240D01*
Y4795050D02*
Y4890300D01*
X1636870D01*
X1652740Y4882370D01*
X1660680Y4874430D01*
X1668620Y4858550D01*
Y4826800D01*
X1660680Y4810930D01*
X1652740Y4802990D01*
X1636870Y4795050D01*
X1589240D01*
Y5049050D02*
Y5144300D01*
X1636870D01*
X1652740Y5136370D01*
X1660680Y5128430D01*
X1668620Y5112550D01*
Y5080800D01*
X1660680Y5064930D01*
X1652740Y5056990D01*
X1636870Y5049050D01*
X1589240D01*
Y5303050D02*
Y5398300D01*
X1636870D01*
X1652740Y5390370D01*
X1660680Y5382430D01*
X1668620Y5366550D01*
Y5334800D01*
X1660680Y5318930D01*
X1652740Y5310990D01*
X1636870Y5303050D01*
X1589240D01*
Y5557050D02*
Y5652300D01*
X1636870D01*
X1652740Y5644370D01*
X1660680Y5636430D01*
X1668620Y5620550D01*
Y5588800D01*
X1660680Y5572930D01*
X1652740Y5564990D01*
X1636870Y5557050D01*
X1589240D01*
Y5811050D02*
Y5906300D01*
X1636870D01*
X1652740Y5898370D01*
X1660680Y5890430D01*
X1668620Y5874550D01*
Y5842800D01*
X1660680Y5826930D01*
X1652740Y5818990D01*
X1636870Y5811050D01*
X1589240D01*
Y6065050D02*
Y6160300D01*
X1636870D01*
X1652740Y6152370D01*
X1660680Y6144430D01*
X1668620Y6128550D01*
Y6096800D01*
X1660680Y6080930D01*
X1652740Y6072990D01*
X1636870Y6065050D01*
X1589240D01*
Y6319050D02*
Y6414300D01*
X1636870D01*
X1652740Y6406370D01*
X1660680Y6398430D01*
X1668620Y6382550D01*
Y6350800D01*
X1660680Y6334930D01*
X1652740Y6326990D01*
X1636870Y6319050D01*
X1589240D01*
Y6573050D02*
Y6668300D01*
X1636870D01*
X1652740Y6660370D01*
X1660680Y6652430D01*
X1668620Y6636550D01*
Y6604800D01*
X1660680Y6588930D01*
X1652740Y6580990D01*
X1636870Y6573050D01*
X1589240D01*
Y6827050D02*
Y6922300D01*
X1636870D01*
X1652740Y6914370D01*
X1660680Y6906430D01*
X1668620Y6890550D01*
Y6858800D01*
X1660680Y6842930D01*
X1652740Y6834990D01*
X1636870Y6827050D01*
X1589240D01*
Y7081050D02*
Y7176300D01*
X1636870D01*
X1652740Y7168370D01*
X1660680Y7160430D01*
X1668620Y7144550D01*
Y7112800D01*
X1660680Y7096930D01*
X1652740Y7088990D01*
X1636870Y7081050D01*
X1589240D01*
X1804240Y2541050D02*
Y2636300D01*
X1883620D01*
X1867740Y2588680D02*
X1804240D01*
Y2541050D02*
X1883620D01*
X1859240Y2846050D02*
X1898930Y2941300D01*
X1938620Y2846050D01*
X1875120Y2885740D02*
X1922740D01*
X2129800Y5233680D02*
X2145680Y5225740D01*
X2153620Y5209870D01*
X2145680Y5193990D01*
X2129800Y5186050D01*
X2074240D01*
Y5281300D01*
X2129800D01*
X2145680Y5273370D01*
X2153620Y5257490D01*
X2145680Y5241620D01*
X2129800Y5233680D01*
X2074240D01*
X2194800Y4333680D02*
X2210680Y4325740D01*
X2218620Y4309870D01*
X2210680Y4293990D01*
X2194800Y4286050D01*
X2139240D01*
Y4381300D01*
X2194800D01*
X2210680Y4373370D01*
X2218620Y4357490D01*
X2210680Y4341620D01*
X2194800Y4333680D01*
X2139240D01*
X2228620Y3136930D02*
X2220680Y3128990D01*
X2204800Y3121050D01*
X2180990D01*
X2165120Y3128990D01*
X2157180Y3136930D01*
X2149240Y3152800D01*
Y3184550D01*
X2157180Y3200430D01*
X2165120Y3208370D01*
X2180990Y3216300D01*
X2204800D01*
X2220680Y3208370D01*
X2228620Y3200430D01*
Y3336930D02*
X2220680Y3328990D01*
X2204800Y3321050D01*
X2180990D01*
X2165120Y3328990D01*
X2157180Y3336930D01*
X2149240Y3352800D01*
Y3384550D01*
X2157180Y3400430D01*
X2165120Y3408370D01*
X2180990Y3416300D01*
X2204800D01*
X2220680Y3408370D01*
X2228620Y3400430D01*
Y3536930D02*
X2220680Y3528990D01*
X2204800Y3521050D01*
X2180990D01*
X2165120Y3528990D01*
X2157180Y3536930D01*
X2149240Y3552800D01*
Y3584550D01*
X2157180Y3600430D01*
X2165120Y3608370D01*
X2180990Y3616300D01*
X2204800D01*
X2220680Y3608370D01*
X2228620Y3600430D01*
Y3736930D02*
X2220680Y3728990D01*
X2204800Y3721050D01*
X2180990D01*
X2165120Y3728990D01*
X2157180Y3736930D01*
X2149240Y3752800D01*
Y3784550D01*
X2157180Y3800430D01*
X2165120Y3808370D01*
X2180990Y3816300D01*
X2204800D01*
X2220680Y3808370D01*
X2228620Y3800430D01*
X2164240Y2541050D02*
Y2636300D01*
X2243620D01*
X2227740Y2588680D02*
X2164240D01*
Y2541050D02*
X2243620D01*
X2349800Y6393680D02*
X2365680Y6385740D01*
X2373620Y6369870D01*
X2365680Y6353990D01*
X2349800Y6346050D01*
X2294240D01*
Y6441300D01*
X2349800D01*
X2365680Y6433370D01*
X2373620Y6417490D01*
X2365680Y6401620D01*
X2349800Y6393680D01*
X2294240D01*
X2416240Y2161050D02*
Y2256300D01*
X2495620D01*
X2479740Y2208680D02*
X2416240D01*
X2514240Y2791050D02*
X2553930Y2886300D01*
X2593620Y2791050D01*
X2530120Y2830740D02*
X2577740D01*
X2569800Y3903680D02*
X2585680Y3895740D01*
X2593620Y3879870D01*
X2585680Y3863990D01*
X2569800Y3856050D01*
X2514240D01*
Y3951300D01*
X2569800D01*
X2585680Y3943370D01*
X2593620Y3927490D01*
X2585680Y3911620D01*
X2569800Y3903680D01*
X2514240D01*
X2549240Y4481050D02*
X2588930Y4576300D01*
X2628620Y4481050D01*
X2565120Y4520740D02*
X2612740D01*
X2654800Y4748680D02*
X2670680Y4740740D01*
X2678620Y4724870D01*
X2670680Y4708990D01*
X2654800Y4701050D01*
X2599240D01*
Y4796300D01*
X2654800D01*
X2670680Y4788370D01*
X2678620Y4772490D01*
X2670680Y4756620D01*
X2654800Y4748680D01*
X2599240D01*
X2694800Y6173680D02*
X2710680Y6165740D01*
X2718620Y6149870D01*
X2710680Y6133990D01*
X2694800Y6126050D01*
X2639240D01*
Y6221300D01*
X2694800D01*
X2710680Y6213370D01*
X2718620Y6197490D01*
X2710680Y6181620D01*
X2694800Y6173680D01*
X2639240D01*
X2699800Y4193680D02*
X2715680Y4185740D01*
X2723620Y4169870D01*
X2715680Y4153990D01*
X2699800Y4146050D01*
X2644240D01*
Y4241300D01*
X2699800D01*
X2715680Y4233370D01*
X2723620Y4217490D01*
X2715680Y4201620D01*
X2699800Y4193680D01*
X2644240D01*
X2699800Y6323680D02*
X2715680Y6315740D01*
X2723620Y6299870D01*
X2715680Y6283990D01*
X2699800Y6276050D01*
X2644240D01*
Y6371300D01*
X2699800D01*
X2715680Y6363370D01*
X2723620Y6347490D01*
X2715680Y6331620D01*
X2699800Y6323680D01*
X2644240D01*
X2709800Y3973680D02*
X2725680Y3965740D01*
X2733620Y3949870D01*
X2725680Y3933990D01*
X2709800Y3926050D01*
X2654240D01*
Y4021300D01*
X2709800D01*
X2725680Y4013370D01*
X2733620Y3997490D01*
X2725680Y3981620D01*
X2709800Y3973680D01*
X2654240D01*
X2804800Y5118680D02*
X2820680Y5110740D01*
X2828620Y5094870D01*
X2820680Y5078990D01*
X2804800Y5071050D01*
X2749240D01*
Y5166300D01*
X2804800D01*
X2820680Y5158370D01*
X2828620Y5142490D01*
X2820680Y5126620D01*
X2804800Y5118680D01*
X2749240D01*
X2944800D02*
X2960680Y5110740D01*
X2968620Y5094870D01*
X2960680Y5078990D01*
X2944800Y5071050D01*
X2889240D01*
Y5166300D01*
X2944800D01*
X2960680Y5158370D01*
X2968620Y5142490D01*
X2960680Y5126620D01*
X2944800Y5118680D01*
X2889240D01*
X3064240Y2259050D02*
Y2354300D01*
X3111870D01*
X3127740Y2346370D01*
X3135680Y2338430D01*
X3143620Y2322550D01*
Y2290800D01*
X3135680Y2274930D01*
X3127740Y2266990D01*
X3111870Y2259050D01*
X3064240D01*
Y2513050D02*
Y2608300D01*
X3111870D01*
X3127740Y2600370D01*
X3135680Y2592430D01*
X3143620Y2576550D01*
Y2544800D01*
X3135680Y2528930D01*
X3127740Y2520990D01*
X3111870Y2513050D01*
X3064240D01*
Y2767050D02*
Y2862300D01*
X3111870D01*
X3127740Y2854370D01*
X3135680Y2846430D01*
X3143620Y2830550D01*
Y2798800D01*
X3135680Y2782930D01*
X3127740Y2774990D01*
X3111870Y2767050D01*
X3064240D01*
Y3021050D02*
Y3116300D01*
X3111870D01*
X3127740Y3108370D01*
X3135680Y3100430D01*
X3143620Y3084550D01*
Y3052800D01*
X3135680Y3036930D01*
X3127740Y3028990D01*
X3111870Y3021050D01*
X3064240D01*
Y3275050D02*
Y3370300D01*
X3111870D01*
X3127740Y3362370D01*
X3135680Y3354430D01*
X3143620Y3338550D01*
Y3306800D01*
X3135680Y3290930D01*
X3127740Y3282990D01*
X3111870Y3275050D01*
X3064240D01*
Y3529050D02*
Y3624300D01*
X3111870D01*
X3127740Y3616370D01*
X3135680Y3608430D01*
X3143620Y3592550D01*
Y3560800D01*
X3135680Y3544930D01*
X3127740Y3536990D01*
X3111870Y3529050D01*
X3064240D01*
Y3783050D02*
Y3878300D01*
X3111870D01*
X3127740Y3870370D01*
X3135680Y3862430D01*
X3143620Y3846550D01*
Y3814800D01*
X3135680Y3798930D01*
X3127740Y3790990D01*
X3111870Y3783050D01*
X3064240D01*
Y4037050D02*
Y4132300D01*
X3111870D01*
X3127740Y4124370D01*
X3135680Y4116430D01*
X3143620Y4100550D01*
Y4068800D01*
X3135680Y4052930D01*
X3127740Y4044990D01*
X3111870Y4037050D01*
X3064240D01*
Y4291050D02*
Y4386300D01*
X3111870D01*
X3127740Y4378370D01*
X3135680Y4370430D01*
X3143620Y4354550D01*
Y4322800D01*
X3135680Y4306930D01*
X3127740Y4298990D01*
X3111870Y4291050D01*
X3064240D01*
X3218620Y4881930D02*
X3210680Y4873990D01*
X3194800Y4866050D01*
X3170990D01*
X3155120Y4873990D01*
X3147180Y4881930D01*
X3139240Y4897800D01*
Y4929550D01*
X3147180Y4945430D01*
X3155120Y4953370D01*
X3170990Y4961300D01*
X3194800D01*
X3210680Y4953370D01*
X3218620Y4945430D01*
Y5646930D02*
X3210680Y5638990D01*
X3194800Y5631050D01*
X3170990D01*
X3155120Y5638990D01*
X3147180Y5646930D01*
X3139240Y5662800D01*
Y5694550D01*
X3147180Y5710430D01*
X3155120Y5718370D01*
X3170990Y5726300D01*
X3194800D01*
X3210680Y5718370D01*
X3218620Y5710430D01*
Y6411930D02*
X3210680Y6403990D01*
X3194800Y6396050D01*
X3170990D01*
X3155120Y6403990D01*
X3147180Y6411930D01*
X3139240Y6427800D01*
Y6459550D01*
X3147180Y6475430D01*
X3155120Y6483370D01*
X3170990Y6491300D01*
X3194800D01*
X3210680Y6483370D01*
X3218620Y6475430D01*
X3418620Y4881930D02*
X3410680Y4873990D01*
X3394800Y4866050D01*
X3370990D01*
X3355120Y4873990D01*
X3347180Y4881930D01*
X3339240Y4897800D01*
Y4929550D01*
X3347180Y4945430D01*
X3355120Y4953370D01*
X3370990Y4961300D01*
X3394800D01*
X3410680Y4953370D01*
X3418620Y4945430D01*
Y5646930D02*
X3410680Y5638990D01*
X3394800Y5631050D01*
X3370990D01*
X3355120Y5638990D01*
X3347180Y5646930D01*
X3339240Y5662800D01*
Y5694550D01*
X3347180Y5710430D01*
X3355120Y5718370D01*
X3370990Y5726300D01*
X3394800D01*
X3410680Y5718370D01*
X3418620Y5710430D01*
Y6411930D02*
X3410680Y6403990D01*
X3394800Y6396050D01*
X3370990D01*
X3355120Y6403990D01*
X3347180Y6411930D01*
X3339240Y6427800D01*
Y6459550D01*
X3347180Y6475430D01*
X3355120Y6483370D01*
X3370990Y6491300D01*
X3394800D01*
X3410680Y6483370D01*
X3418620Y6475430D01*
X3399800Y3708680D02*
X3415680Y3700740D01*
X3423620Y3684870D01*
X3415680Y3668990D01*
X3399800Y3661050D01*
X3344240D01*
Y3756300D01*
X3399800D01*
X3415680Y3748370D01*
X3423620Y3732490D01*
X3415680Y3716620D01*
X3399800Y3708680D01*
X3344240D01*
X3414240Y7026050D02*
X3453930Y7121300D01*
X3493620Y7026050D01*
X3430120Y7065740D02*
X3477740D01*
X3499800Y3923680D02*
X3515680Y3915740D01*
X3523620Y3899870D01*
X3515680Y3883990D01*
X3499800Y3876050D01*
X3444240D01*
Y3971300D01*
X3499800D01*
X3515680Y3963370D01*
X3523620Y3947490D01*
X3515680Y3931620D01*
X3499800Y3923680D01*
X3444240D01*
X3544800Y4418680D02*
X3560680Y4410740D01*
X3568620Y4394870D01*
X3560680Y4378990D01*
X3544800Y4371050D01*
X3489240D01*
Y4466300D01*
X3544800D01*
X3560680Y4458370D01*
X3568620Y4442490D01*
X3560680Y4426620D01*
X3544800Y4418680D01*
X3489240D01*
X3544800Y4773680D02*
X3560680Y4765740D01*
X3568620Y4749870D01*
X3560680Y4733990D01*
X3544800Y4726050D01*
X3489240D01*
Y4821300D01*
X3544800D01*
X3560680Y4813370D01*
X3568620Y4797490D01*
X3560680Y4781620D01*
X3544800Y4773680D01*
X3489240D01*
X3549800Y2933680D02*
X3565680Y2925740D01*
X3573620Y2909870D01*
X3565680Y2893990D01*
X3549800Y2886050D01*
X3494240D01*
Y2981300D01*
X3549800D01*
X3565680Y2973370D01*
X3573620Y2957490D01*
X3565680Y2941620D01*
X3549800Y2933680D01*
X3494240D01*
X3618620Y4881930D02*
X3610680Y4873990D01*
X3594800Y4866050D01*
X3570990D01*
X3555120Y4873990D01*
X3547180Y4881930D01*
X3539240Y4897800D01*
Y4929550D01*
X3547180Y4945430D01*
X3555120Y4953370D01*
X3570990Y4961300D01*
X3594800D01*
X3610680Y4953370D01*
X3618620Y4945430D01*
Y5646930D02*
X3610680Y5638990D01*
X3594800Y5631050D01*
X3570990D01*
X3555120Y5638990D01*
X3547180Y5646930D01*
X3539240Y5662800D01*
Y5694550D01*
X3547180Y5710430D01*
X3555120Y5718370D01*
X3570990Y5726300D01*
X3594800D01*
X3610680Y5718370D01*
X3618620Y5710430D01*
Y6411930D02*
X3610680Y6403990D01*
X3594800Y6396050D01*
X3570990D01*
X3555120Y6403990D01*
X3547180Y6411930D01*
X3539240Y6427800D01*
Y6459550D01*
X3547180Y6475430D01*
X3555120Y6483370D01*
X3570990Y6491300D01*
X3594800D01*
X3610680Y6483370D01*
X3618620Y6475430D01*
X3639800Y3563680D02*
X3655680Y3555740D01*
X3663620Y3539870D01*
X3655680Y3523990D01*
X3639800Y3516050D01*
X3584240D01*
Y3611300D01*
X3639800D01*
X3655680Y3603370D01*
X3663620Y3587490D01*
X3655680Y3571620D01*
X3639800Y3563680D01*
X3584240D01*
X3699800Y2893680D02*
X3715680Y2885740D01*
X3723620Y2869870D01*
X3715680Y2853990D01*
X3699800Y2846050D01*
X3644240D01*
Y2941300D01*
X3699800D01*
X3715680Y2933370D01*
X3723620Y2917490D01*
X3715680Y2901620D01*
X3699800Y2893680D01*
X3644240D01*
X3784800Y3553680D02*
X3800680Y3545740D01*
X3808620Y3529870D01*
X3800680Y3513990D01*
X3784800Y3506050D01*
X3729240D01*
Y3601300D01*
X3784800D01*
X3800680Y3593370D01*
X3808620Y3577490D01*
X3800680Y3561620D01*
X3784800Y3553680D01*
X3729240D01*
X3794800Y4418680D02*
X3810680Y4410740D01*
X3818620Y4394870D01*
X3810680Y4378990D01*
X3794800Y4371050D01*
X3739240D01*
Y4466300D01*
X3794800D01*
X3810680Y4458370D01*
X3818620Y4442490D01*
X3810680Y4426620D01*
X3794800Y4418680D01*
X3739240D01*
X3794800Y4703680D02*
X3810680Y4695740D01*
X3818620Y4679870D01*
X3810680Y4663990D01*
X3794800Y4656050D01*
X3739240D01*
Y4751300D01*
X3794800D01*
X3810680Y4743370D01*
X3818620Y4727490D01*
X3810680Y4711620D01*
X3794800Y4703680D01*
X3739240D01*
X3818620Y4881930D02*
X3810680Y4873990D01*
X3794800Y4866050D01*
X3770990D01*
X3755120Y4873990D01*
X3747180Y4881930D01*
X3739240Y4897800D01*
Y4929550D01*
X3747180Y4945430D01*
X3755120Y4953370D01*
X3770990Y4961300D01*
X3794800D01*
X3810680Y4953370D01*
X3818620Y4945430D01*
Y5646930D02*
X3810680Y5638990D01*
X3794800Y5631050D01*
X3770990D01*
X3755120Y5638990D01*
X3747180Y5646930D01*
X3739240Y5662800D01*
Y5694550D01*
X3747180Y5710430D01*
X3755120Y5718370D01*
X3770990Y5726300D01*
X3794800D01*
X3810680Y5718370D01*
X3818620Y5710430D01*
Y6411930D02*
X3810680Y6403990D01*
X3794800Y6396050D01*
X3770990D01*
X3755120Y6403990D01*
X3747180Y6411930D01*
X3739240Y6427800D01*
Y6459550D01*
X3747180Y6475430D01*
X3755120Y6483370D01*
X3770990Y6491300D01*
X3794800D01*
X3810680Y6483370D01*
X3818620Y6475430D01*
X4154800Y3708680D02*
X4170680Y3700740D01*
X4178620Y3684870D01*
X4170680Y3668990D01*
X4154800Y3661050D01*
X4099240D01*
Y3756300D01*
X4154800D01*
X4170680Y3748370D01*
X4178620Y3732490D01*
X4170680Y3716620D01*
X4154800Y3708680D01*
X4099240D01*
X4194800Y4483680D02*
X4210680Y4475740D01*
X4218620Y4459870D01*
X4210680Y4443990D01*
X4194800Y4436050D01*
X4139240D01*
Y4531300D01*
X4194800D01*
X4210680Y4523370D01*
X4218620Y4507490D01*
X4210680Y4491620D01*
X4194800Y4483680D01*
X4139240D01*
X4194800Y5693680D02*
X4210680Y5685740D01*
X4218620Y5669870D01*
X4210680Y5653990D01*
X4194800Y5646050D01*
X4139240D01*
Y5741300D01*
X4194800D01*
X4210680Y5733370D01*
X4218620Y5717490D01*
X4210680Y5701620D01*
X4194800Y5693680D01*
X4139240D01*
X4319800Y4373680D02*
X4335680Y4365740D01*
X4343620Y4349870D01*
X4335680Y4333990D01*
X4319800Y4326050D01*
X4264240D01*
Y4421300D01*
X4319800D01*
X4335680Y4413370D01*
X4343620Y4397490D01*
X4335680Y4381620D01*
X4319800Y4373680D01*
X4264240D01*
X4319800Y5503680D02*
X4335680Y5495740D01*
X4343620Y5479870D01*
X4335680Y5463990D01*
X4319800Y5456050D01*
X4264240D01*
Y5551300D01*
X4319800D01*
X4335680Y5543370D01*
X4343620Y5527490D01*
X4335680Y5511620D01*
X4319800Y5503680D01*
X4264240D01*
X4553620Y4956930D02*
X4545680Y4948990D01*
X4529800Y4941050D01*
X4505990D01*
X4490120Y4948990D01*
X4482180Y4956930D01*
X4474240Y4972800D01*
Y5004550D01*
X4482180Y5020430D01*
X4490120Y5028370D01*
X4505990Y5036300D01*
X4529800D01*
X4545680Y5028370D01*
X4553620Y5020430D01*
Y5210930D02*
X4545680Y5202990D01*
X4529800Y5195050D01*
X4505990D01*
X4490120Y5202990D01*
X4482180Y5210930D01*
X4474240Y5226800D01*
Y5258550D01*
X4482180Y5274430D01*
X4490120Y5282370D01*
X4505990Y5290300D01*
X4529800D01*
X4545680Y5282370D01*
X4553620Y5274430D01*
X4588240Y2259050D02*
Y2354300D01*
X4635870D01*
X4651740Y2346370D01*
X4659680Y2338430D01*
X4667620Y2322550D01*
Y2290800D01*
X4659680Y2274930D01*
X4651740Y2266990D01*
X4635870Y2259050D01*
X4588240D01*
Y2513050D02*
Y2608300D01*
X4635870D01*
X4651740Y2600370D01*
X4659680Y2592430D01*
X4667620Y2576550D01*
Y2544800D01*
X4659680Y2528930D01*
X4651740Y2520990D01*
X4635870Y2513050D01*
X4588240D01*
Y2767050D02*
Y2862300D01*
X4635870D01*
X4651740Y2854370D01*
X4659680Y2846430D01*
X4667620Y2830550D01*
Y2798800D01*
X4659680Y2782930D01*
X4651740Y2774990D01*
X4635870Y2767050D01*
X4588240D01*
Y3021050D02*
Y3116300D01*
X4635870D01*
X4651740Y3108370D01*
X4659680Y3100430D01*
X4667620Y3084550D01*
Y3052800D01*
X4659680Y3036930D01*
X4651740Y3028990D01*
X4635870Y3021050D01*
X4588240D01*
Y3275050D02*
Y3370300D01*
X4635870D01*
X4651740Y3362370D01*
X4659680Y3354430D01*
X4667620Y3338550D01*
Y3306800D01*
X4659680Y3290930D01*
X4651740Y3282990D01*
X4635870Y3275050D01*
X4588240D01*
Y3529050D02*
Y3624300D01*
X4635870D01*
X4651740Y3616370D01*
X4659680Y3608430D01*
X4667620Y3592550D01*
Y3560800D01*
X4659680Y3544930D01*
X4651740Y3536990D01*
X4635870Y3529050D01*
X4588240D01*
X4724240Y7106050D02*
Y7201300D01*
X4771870D01*
X4787740Y7193370D01*
X4795680Y7185430D01*
X4803620Y7169550D01*
Y7137800D01*
X4795680Y7121930D01*
X4787740Y7113990D01*
X4771870Y7106050D01*
X4724240D01*
Y7360050D02*
Y7455300D01*
X4771870D01*
X4787740Y7447370D01*
X4795680Y7439430D01*
X4803620Y7423550D01*
Y7391800D01*
X4795680Y7375930D01*
X4787740Y7367990D01*
X4771870Y7360050D01*
X4724240D01*
Y7614050D02*
Y7709300D01*
X4771870D01*
X4787740Y7701370D01*
X4795680Y7693430D01*
X4803620Y7677550D01*
Y7645800D01*
X4795680Y7629930D01*
X4787740Y7621990D01*
X4771870Y7614050D01*
X4724240D01*
Y7868050D02*
Y7963300D01*
X4771870D01*
X4787740Y7955370D01*
X4795680Y7947430D01*
X4803620Y7931550D01*
Y7899800D01*
X4795680Y7883930D01*
X4787740Y7875990D01*
X4771870Y7868050D01*
X4724240D01*
Y8122050D02*
Y8217300D01*
X4771870D01*
X4787740Y8209370D01*
X4795680Y8201430D01*
X4803620Y8185550D01*
Y8153800D01*
X4795680Y8137930D01*
X4787740Y8129990D01*
X4771870Y8122050D01*
X4724240D01*
Y8376050D02*
Y8471300D01*
X4771870D01*
X4787740Y8463370D01*
X4795680Y8455430D01*
X4803620Y8439550D01*
Y8407800D01*
X4795680Y8391930D01*
X4787740Y8383990D01*
X4771870Y8376050D01*
X4724240D01*
X4843620Y5596930D02*
X4835680Y5588990D01*
X4819800Y5581050D01*
X4795990D01*
X4780120Y5588990D01*
X4772180Y5596930D01*
X4764240Y5612800D01*
Y5644550D01*
X4772180Y5660430D01*
X4780120Y5668370D01*
X4795990Y5676300D01*
X4819800D01*
X4835680Y5668370D01*
X4843620Y5660430D01*
Y5850930D02*
X4835680Y5842990D01*
X4819800Y5835050D01*
X4795990D01*
X4780120Y5842990D01*
X4772180Y5850930D01*
X4764240Y5866800D01*
Y5898550D01*
X4772180Y5914430D01*
X4780120Y5922370D01*
X4795990Y5930300D01*
X4819800D01*
X4835680Y5922370D01*
X4843620Y5914430D01*
Y6241930D02*
X4835680Y6233990D01*
X4819800Y6226050D01*
X4795990D01*
X4780120Y6233990D01*
X4772180Y6241930D01*
X4764240Y6257800D01*
Y6289550D01*
X4772180Y6305430D01*
X4780120Y6313370D01*
X4795990Y6321300D01*
X4819800D01*
X4835680Y6313370D01*
X4843620Y6305430D01*
Y6495930D02*
X4835680Y6487990D01*
X4819800Y6480050D01*
X4795990D01*
X4780120Y6487990D01*
X4772180Y6495930D01*
X4764240Y6511800D01*
Y6543550D01*
X4772180Y6559430D01*
X4780120Y6567370D01*
X4795990Y6575300D01*
X4819800D01*
X4835680Y6567370D01*
X4843620Y6559430D01*
D02*
D82*
X1298240Y2010240D03*
X1335240Y3120240D03*
Y3374240D03*
Y3628240D03*
Y3882240D03*
Y4136240D03*
Y4390240D03*
Y4644240D03*
Y4898240D03*
Y5152240D03*
Y5406240D03*
Y5660240D03*
Y5914240D03*
Y6168240D03*
Y6422240D03*
Y6676240D03*
Y6930240D03*
X1550240Y2390240D03*
X1605240Y2695240D03*
X1820240Y5035240D03*
X1885240Y4135240D03*
X1895240Y2970240D03*
Y3170240D03*
Y3370240D03*
Y3570240D03*
X1910240Y2390240D03*
X2040240Y6195240D03*
X2162240Y2010240D03*
X2260240Y2640240D03*
Y3705240D03*
X2295240Y4330240D03*
X2345240Y4550240D03*
X2385240Y5975240D03*
X2390240Y3995240D03*
Y6125240D03*
X2400240Y3775240D03*
X2495240Y4920240D03*
X2635240D03*
X2810240Y2108240D03*
Y2362240D03*
Y2616240D03*
Y2870240D03*
Y3124240D03*
Y3378240D03*
Y3632240D03*
Y3886240D03*
Y4140240D03*
X2885240Y4715240D03*
Y5480240D03*
Y6245240D03*
X3085240Y4715240D03*
Y5480240D03*
Y6245240D03*
X3090240Y3510240D03*
X3160240Y6875240D03*
X3190240Y3725240D03*
X3235240Y4220240D03*
Y4575240D03*
X3240240Y2735240D03*
X3285240Y4715240D03*
Y5480240D03*
Y6245240D03*
X3330240Y3365240D03*
X3390240Y2695240D03*
X3475240Y3355240D03*
X3485240Y4220240D03*
Y4505240D03*
Y4715240D03*
Y5480240D03*
Y6245240D03*
X3845240Y3510240D03*
X3885240Y4285240D03*
Y5495240D03*
X4010240Y4175240D03*
Y5305240D03*
X4220240Y4790240D03*
Y5044240D03*
X4334240Y2108240D03*
Y2362240D03*
Y2616240D03*
Y2870240D03*
Y3124240D03*
Y3378240D03*
X4470240Y6955240D03*
Y7209240D03*
Y7463240D03*
Y7717240D03*
Y7971240D03*
Y8225240D03*
X4510240Y5430240D03*
Y5684240D03*
Y6075240D03*
Y6329240D03*
X0Y0D02*
M02*
