G04 DesignSpark PCB Gerber Version 12.0 Build 5942*
%FSLAX35Y35*%
%MOMM*%
%ADD20O,1.30000X2.00000*%
%ADD17R,1.40000X1.42000*%
%ADD12C,0.25400*%
%ADD11C,0.30480*%
%ADD13C,0.80000*%
%ADD16C,1.01600*%
%ADD18C,1.40000*%
%ADD70C,1.52400*%
%ADD71C,1.80000*%
%ADD14C,2.20000*%
%ADD19R,3.00000X1.35000*%
%ADD23R,1.42000X1.40000*%
X0Y0D02*
D02*
D11*
X1021120Y4330240D02*
Y1741120D01*
X2980240D01*
Y2000140D01*
X2619640D01*
Y2054940D01*
X2599410D01*
G75*
G02*
X2559520Y2070520I-2170J53300D01*
G01*
X2427520Y2202520D01*
G75*
G02*
X2411900Y2240240I37720J37720D01*
G01*
G75*
G02*
X2411940Y2242410I53350J100D01*
G01*
Y2798100D01*
X2293100Y2916940D01*
X1992200D01*
G75*
G02*
X1784600Y2970240I-96960J53300D01*
G01*
G75*
G02*
X1847900Y3070240I110640J0D01*
G01*
G75*
G02*
Y3270240I47340J100000D01*
G01*
G75*
G02*
X1830060Y3459640I47340J100000D01*
G01*
X1783640D01*
Y3651940D01*
X1692380D01*
X1447400Y3406960D01*
G75*
G02*
X1452080Y3374240I-112150J-32740D01*
G01*
G75*
G02*
X1218400I-116840J0D01*
G01*
G75*
G02*
X1374020Y3484460I116840J0D01*
G01*
X1466010Y3576450D01*
G75*
G02*
X1451070Y3574940I-12780J51810D01*
G01*
X1439210D01*
G75*
G02*
X1218400Y3628240I-103970J53300D01*
G01*
G75*
G02*
X1436350Y3686790I116840J0D01*
G01*
X1732520Y3982960D01*
G75*
G02*
X1744460Y3991940I37720J-37720D01*
G01*
X1662380D01*
X1517960Y3847520D01*
G75*
G02*
X1478070Y3831940I-37720J37720D01*
G01*
X1440700D01*
G75*
G02*
X1218400Y3882240I-105460J50300D01*
G01*
G75*
G02*
X1437620Y3938540I116840J0D01*
G01*
X1458100D01*
X1601500Y4081940D01*
X1438700D01*
G75*
G02*
X1218400Y4136240I-103460J54300D01*
G01*
G75*
G02*
X1439720Y4188540I116840J0D01*
G01*
X1810940D01*
G75*
G02*
X1968990Y4098540I74300J-53290D01*
G01*
X2338070D01*
G75*
G02*
X2375290Y4085450I2170J-53300D01*
G01*
G75*
G02*
X2446940Y4066980I14950J-90210D01*
G01*
Y4330240D01*
X2445880D01*
G75*
G02*
X2144600I-150640J0D01*
G01*
X1529120D01*
G75*
G02*
X1472750Y4309640I-53880J60010D01*
G01*
X1419830D01*
G75*
G02*
X1234980Y4330240I-84590J80600D01*
G01*
X1021120D01*
X1454600Y2695240D02*
G75*
G02*
X1755880I150640J0D01*
G01*
G75*
G02*
X1725560Y2604600I-150640J0D01*
G01*
X1818220Y2697260D01*
G75*
G02*
X1877730Y2720840I57020J-57020D01*
G01*
X2132980D01*
G75*
G02*
X2410880Y2640240I127260J-80600D01*
G01*
G75*
G02*
X2132980Y2559640I-150640J0D01*
G01*
X1908680D01*
X1859780Y2510740D01*
G75*
G02*
X2040880Y2390240I50460J-120500D01*
G01*
G75*
G02*
X1779600I-130640J0D01*
G01*
G75*
G02*
X1789740Y2440700I130640J0D01*
G01*
X1767260Y2418220D01*
G75*
G02*
X1707750Y2394640I-57020J57020D01*
G01*
X1680810D01*
G75*
G02*
X1680880Y2390240I-130580J-4280D01*
G01*
G75*
G02*
X1419600I-130640J0D01*
G01*
G75*
G02*
X1565900Y2519940I130640J0D01*
G01*
X1578220Y2532260D01*
G75*
G02*
X1594730Y2544970I57030J-57000D01*
G01*
G75*
G02*
X1454600Y2695240I10510J150270D01*
G01*
X2056640Y1975240D02*
Y2045240D01*
G75*
G02*
X2267840I105600J0D01*
G01*
Y1975240D01*
G75*
G02*
X2056640I-105600J0D01*
G01*
X1192640D02*
Y2045240D01*
G75*
G02*
X1403840I105600J0D01*
G01*
Y1975240D01*
G75*
G02*
X1192640I-105600J0D01*
G01*
X1218400Y3120240D02*
G75*
G02*
X1452080I116840J0D01*
G01*
G75*
G02*
X1218400I-116840J0D01*
G01*
X1036360Y2010240D02*
G36*
X1036360Y2010240D02*
Y1756360D01*
X2965000D01*
Y2000140D01*
X2619640D01*
Y2010240D01*
X2267840D01*
Y1975240D01*
G75*
G02*
X2056640I-105600J0D01*
G01*
Y2010240D01*
X1403840D01*
Y1975240D01*
G75*
G02*
X1192640I-105600J0D01*
G01*
Y2010240D01*
X1036360D01*
G37*
Y2552740D02*
G36*
X1036360Y2552740D02*
Y2010240D01*
X1192640D01*
Y2045240D01*
G75*
G02*
X1403840I105600J0D01*
G01*
Y2010240D01*
X2056640D01*
Y2045240D01*
G75*
G02*
X2267840I105600J0D01*
G01*
Y2010240D01*
X2619640D01*
Y2054940D01*
X2599410D01*
G75*
G02*
X2559520Y2070520I-2180J53270D01*
G01*
X2427520Y2202520D01*
G75*
G02*
X2411900Y2240240I37760J37730D01*
G01*
G75*
G02*
X2411940Y2242410I59450J-10D01*
G01*
Y2552740D01*
X2382860D01*
G75*
G02*
X2137620I-122620J87500D01*
G01*
X1901780D01*
X1859780Y2510740D01*
G75*
G02*
X2040880Y2390240I50460J-120500D01*
G01*
G75*
G02*
X1779600I-130640J0D01*
G01*
G75*
G02*
X1789740Y2440700I130670J-10D01*
G01*
X1767260Y2418220D01*
G75*
G02*
X1707750Y2394640I-57000J56980D01*
G01*
X1680810D01*
G75*
G02*
X1680880Y2390240I-161350J-4770D01*
G01*
G75*
G02*
X1419600I-130640J0D01*
G01*
G75*
G02*
X1565900Y2519940I130640J0D01*
G01*
X1578220Y2532260D01*
G75*
G02*
X1594730Y2544970I56940J-56890D01*
G01*
G75*
G02*
X1556390Y2552740I10500J150290D01*
G01*
X1036360D01*
G37*
Y3120240D02*
G36*
X1036360Y3120240D02*
Y2552740D01*
X1556390D01*
G75*
G02*
X1454600Y2695230I48840J142490D01*
G01*
G75*
G02*
Y2695240I286480J10D01*
G01*
G75*
G02*
X1755880I150640J0D01*
G01*
G75*
G02*
Y2695230I-190990J0D01*
G01*
G75*
G02*
X1725560Y2604600I-150620J0D01*
G01*
X1818220Y2697260D01*
G75*
G02*
X1877730Y2720840I57020J-57020D01*
G01*
X2132980D01*
G75*
G02*
X2410880Y2640240I127260J-80600D01*
G01*
G75*
G02*
X2382860Y2552740I-150650J10D01*
G01*
X2411940D01*
Y2798100D01*
X2293100Y2916940D01*
X1992200D01*
G75*
G02*
X1784600Y2970240I-96960J53300D01*
G01*
G75*
G02*
X1847900Y3070240I110640J0D01*
G01*
G75*
G02*
X1796540Y3120240I47340J100010D01*
G01*
X1452080D01*
G75*
G02*
X1218400I-116840J0D01*
G01*
X1036360D01*
G37*
X1908680Y2559640D02*
G36*
X1908680Y2559640D02*
X1901780Y2552740D01*
X2137620D01*
G75*
G02*
X2132980Y2559640I122640J87480D01*
G01*
X1908680D01*
G37*
X1036360Y4315000D02*
G36*
X1036360Y4315000D02*
Y3120240D01*
X1218400D01*
G75*
G02*
X1452080I116840J0D01*
G01*
X1796540D01*
G75*
G02*
X1784600Y3170240I98700J50000D01*
G01*
G75*
G02*
X1847900Y3270240I110640J0D01*
G01*
G75*
G02*
X1784600Y3370240I47340J100000D01*
G01*
G75*
G02*
X1830060Y3459640I110640J0D01*
G01*
X1783640D01*
Y3651940D01*
X1692380D01*
X1447400Y3406960D01*
G75*
G02*
X1452080Y3374240I-112400J-32770D01*
G01*
G75*
G02*
X1218400I-116840J0D01*
G01*
G75*
G02*
X1374020Y3484460I116840J0D01*
G01*
X1466010Y3576450D01*
G75*
G02*
X1451070Y3574940I-12820J52160D01*
G01*
X1439210D01*
G75*
G02*
X1218400Y3628230I-103970J53290D01*
G01*
G75*
G02*
Y3628240I286480J10D01*
G01*
G75*
G02*
X1436350Y3686790I116840J0D01*
G01*
X1732520Y3982960D01*
G75*
G02*
X1744460Y3991940I37570J-37530D01*
G01*
X1662380D01*
X1517960Y3847520D01*
G75*
G02*
X1478070Y3831940I-37710J37690D01*
G01*
X1440700D01*
G75*
G02*
X1218400Y3882240I-105460J50300D01*
G01*
G75*
G02*
X1437620Y3938540I116840J0D01*
G01*
X1458100D01*
X1601500Y4081940D01*
X1438700D01*
G75*
G02*
X1218400Y4136240I-103460J54300D01*
G01*
G75*
G02*
X1439720Y4188540I116840J0D01*
G01*
X1810940D01*
G75*
G02*
X1976680Y4135250I74300J-53290D01*
G01*
G75*
G02*
X1968990Y4098540I-91440J-10D01*
G01*
X2338070D01*
G75*
G02*
X2375290Y4085450I2150J-53350D01*
G01*
G75*
G02*
X2446940Y4066980I14960J-90160D01*
G01*
Y4315000D01*
X2445110D01*
G75*
G02*
X2145370I-149870J15240D01*
G01*
X1504250D01*
G75*
G02*
X1472750Y4309640I-29010J75250D01*
G01*
X1419830D01*
G75*
G02*
X1245850Y4315000I-84590J80610D01*
G01*
X1036360D01*
G37*
X1021120Y8379360D02*
Y4185240D01*
X1229170D01*
G75*
G02*
X1439720Y4188540I106070J-49000D01*
G01*
X1810940D01*
G75*
G02*
X1961800Y4185240I74300J-53300D01*
G01*
X2254410D01*
G75*
G02*
X2148250Y4363190I40820J144990D01*
G01*
X2016800Y4494640D01*
X1693680D01*
X1532260Y4333220D01*
G75*
G02*
X1472750Y4309640I-57020J57020D01*
G01*
X1419830D01*
G75*
G02*
X1218400Y4390240I-84590J80600D01*
G01*
G75*
G02*
X1419830Y4470840I116840J0D01*
G01*
X1441800D01*
X1603220Y4632260D01*
G75*
G02*
X1662730Y4655840I57020J-57020D01*
G01*
X2047750D01*
G75*
G02*
X2107260Y4632260I2490J-80600D01*
G01*
X2262290Y4477230D01*
G75*
G02*
X2285990Y4480600I32990J-146990D01*
G01*
G75*
G02*
X2253800Y4550240I59250J69640D01*
G01*
G75*
G02*
X2255000Y4565040I91460J30D01*
G01*
X2128100Y4691940D01*
X1827410D01*
G75*
G02*
X1787520Y4707520I-2170J53300D01*
G01*
X1650100Y4844940D01*
X1439210D01*
G75*
G02*
X1218400Y4898240I-103970J53300D01*
G01*
G75*
G02*
X1439210Y4951540I116840J0D01*
G01*
X1670070D01*
G75*
G02*
X1709960Y4935960I2170J-53300D01*
G01*
X1847380Y4798540D01*
X2148070D01*
G75*
G02*
X2187960Y4782960I2170J-53300D01*
G01*
X2330440Y4640480D01*
G75*
G02*
X2353760Y4641280I14770J-90270D01*
G01*
X2312520Y4682520D01*
G75*
G02*
X2296900Y4720240I37720J37720D01*
G01*
G75*
G02*
X2296940Y4722410I53350J100D01*
G01*
Y4953100D01*
X2268100Y4981940D01*
X1894540D01*
G75*
G02*
X1728800Y5035240I-74300J53300D01*
G01*
G75*
G02*
X1757690Y5101940I91440J0D01*
G01*
X1440700D01*
G75*
G02*
X1218400Y5152240I-105460J50300D01*
G01*
G75*
G02*
X1437620Y5208540I116840J0D01*
G01*
X2117900D01*
X2000800Y5325640D01*
X1419830D01*
G75*
G02*
X1218400Y5406240I-84590J80600D01*
G01*
G75*
G02*
X1419830Y5486840I116840J0D01*
G01*
X2031750D01*
G75*
G02*
X2091260Y5463260I2490J-80600D01*
G01*
X2218680Y5335840D01*
X2896800D01*
X2929600Y5368640D01*
X2774640D01*
Y5571940D01*
X2737410D01*
G75*
G02*
X2697520Y5587520I-2170J53300D01*
G01*
X2400040Y5885000D01*
G75*
G02*
X2335520Y6051980I-14800J90240D01*
G01*
G75*
G02*
X2298800Y6125240I54720J73260D01*
G01*
G75*
G02*
X2481680I91440J0D01*
G01*
G75*
G02*
X2480480Y6110440I-91470J-30D01*
G01*
X2812380Y5778540D01*
X3238070D01*
G75*
G02*
X3277960Y5762960I2170J-53300D01*
G01*
X3454420Y5586500D01*
G75*
G02*
X3538540Y5383280I30810J-106270D01*
G01*
Y5247380D01*
X3812960Y4972960D01*
G75*
G02*
X3828580Y4935240I-37720J-37720D01*
G01*
G75*
G02*
X3828540Y4933070I-53370J-100D01*
G01*
Y4356980D01*
G75*
G02*
X3831940Y4359540I56690J-71750D01*
G01*
Y5420940D01*
G75*
G02*
X3793800Y5495240I53300J74300D01*
G01*
G75*
G02*
X3976680I91440J0D01*
G01*
G75*
G02*
X3938540Y5420940I-91440J0D01*
G01*
Y5361990D01*
G75*
G02*
X4101680Y5305240I71700J-56750D01*
G01*
G75*
G02*
X4063540Y5230940I-91440J0D01*
G01*
Y4249540D01*
G75*
G02*
X4101130Y4185240I-53300J-74300D01*
G01*
X4909360D01*
Y8379360D01*
X1021120D01*
X1218400Y4644240D02*
G75*
G02*
X1452080I116840J0D01*
G01*
G75*
G02*
X1218400I-116840J0D01*
G01*
Y5660240D02*
G75*
G02*
X1452080I116840J0D01*
G01*
G75*
G02*
X1218400I-116840J0D01*
G01*
Y5914240D02*
G75*
G02*
X1452080I116840J0D01*
G01*
G75*
G02*
X1218400I-116840J0D01*
G01*
Y6168240D02*
G75*
G02*
X1452080I116840J0D01*
G01*
G75*
G02*
X1218400I-116840J0D01*
G01*
Y6422240D02*
G75*
G02*
X1452080I116840J0D01*
G01*
G75*
G02*
X1218400I-116840J0D01*
G01*
Y6676240D02*
G75*
G02*
X1371030Y6787470I116840J0D01*
G01*
X1561520Y6977960D01*
G75*
G02*
X1601410Y6993540I37720J-37720D01*
G01*
X2598100D01*
X2702520Y7097960D01*
G75*
G02*
X2742410Y7113540I37720J-37720D01*
G01*
X4268100D01*
X4353830Y7199270D01*
G75*
G02*
X4353540Y7203480I116320J10130D01*
G01*
G75*
G02*
X4349960Y7199520I-41300J33740D01*
G01*
X4282960Y7132520D01*
G75*
G02*
X4243070Y7116940I-37720J37720D01*
G01*
X1527380D01*
X1420530Y7010090D01*
G75*
G02*
X1452080Y6930240I-85290J-79860D01*
G01*
G75*
G02*
X1218400I-116840J0D01*
G01*
G75*
G02*
X1301730Y7042170I116840J0D01*
G01*
X1467520Y7207960D01*
G75*
G02*
X1507410Y7223540I37720J-37720D01*
G01*
X4223100D01*
X4258940Y7259380D01*
Y7463240D01*
G75*
G02*
X4312240Y7516540I53300J0D01*
G01*
X4366270D01*
G75*
G02*
X4587080Y7463240I103970J-53300D01*
G01*
G75*
G02*
X4366270Y7409940I-116840J0D01*
G01*
X4365540D01*
Y7261100D01*
G75*
G02*
X4587080Y7209240I104700J-51860D01*
G01*
G75*
G02*
X4412890Y7107450I-116840J0D01*
G01*
X4327960Y7022520D01*
G75*
G02*
X4288070Y7006940I-37720J37720D01*
G01*
X3233370D01*
G75*
G02*
X3240840Y6747980I-73130J-131700D01*
G01*
Y6346580D01*
G75*
G02*
X3385240Y6292580I44400J-101340D01*
G01*
G75*
G02*
X3595880Y6245240I100000J-47340D01*
G01*
G75*
G02*
X3385240Y6197900I-110640J0D01*
G01*
G75*
G02*
X3338540Y6148280I-100010J47340D01*
G01*
Y6062410D01*
G75*
G02*
X3338580Y6060240I-53330J-2070D01*
G01*
G75*
G02*
X3322960Y6022520I-53340J0D01*
G01*
X3267960Y5967520D01*
G75*
G02*
X3228070Y5951940I-37720J37720D01*
G01*
X2767410D01*
G75*
G02*
X2727520Y5967520I-2170J53300D01*
G01*
X2418100Y6276940D01*
X2197380D01*
X2130480Y6210040D01*
G75*
G02*
X2131680Y6195240I-90270J-14770D01*
G01*
G75*
G02*
X1948800I-91440J0D01*
G01*
G75*
G02*
X2055040Y6285480I91440J0D01*
G01*
X2137520Y6367960D01*
G75*
G02*
X2177410Y6383540I37720J-37720D01*
G01*
X2438070D01*
G75*
G02*
X2477960Y6367960I2170J-53300D01*
G01*
X2787380Y6058540D01*
X3208100D01*
X3231940Y6082380D01*
Y6148280D01*
G75*
G02*
X3185240Y6197900I53310J96960D01*
G01*
G75*
G02*
X2995840Y6180060I-100000J47340D01*
G01*
Y6133640D01*
X2774640D01*
Y6356840D01*
X2995840D01*
Y6310420D01*
G75*
G02*
X3079640Y6355740I89410J-65180D01*
G01*
Y6747980D01*
G75*
G02*
X3087110Y7006940I80600J127260D01*
G01*
X2762380D01*
X2657960Y6902520D01*
G75*
G02*
X2618070Y6886940I-37720J37720D01*
G01*
X1621380D01*
X1446470Y6712030D01*
G75*
G02*
X1452080Y6676240I-111250J-35770D01*
G01*
G75*
G02*
X1218400I-116840J0D01*
G01*
X4353400Y6955240D02*
G75*
G02*
X4587080I116840J0D01*
G01*
G75*
G02*
X4353400I-116840J0D01*
G01*
X4393400Y5430240D02*
G75*
G02*
X4627080I116840J0D01*
G01*
G75*
G02*
X4393400I-116840J0D01*
G01*
Y5684240D02*
G75*
G02*
X4627080I116840J0D01*
G01*
G75*
G02*
X4393400I-116840J0D01*
G01*
Y6075240D02*
G75*
G02*
X4627080I116840J0D01*
G01*
G75*
G02*
X4393400I-116840J0D01*
G01*
Y6329240D02*
G75*
G02*
X4627080I116840J0D01*
G01*
G75*
G02*
X4393400I-116840J0D01*
G01*
X4103400Y4790240D02*
G75*
G02*
X4337080I116840J0D01*
G01*
G75*
G02*
X4103400I-116840J0D01*
G01*
Y5044240D02*
G75*
G02*
X4337080I116840J0D01*
G01*
G75*
G02*
X4103400I-116840J0D01*
G01*
X4353400Y7717240D02*
G75*
G02*
X4587080I116840J0D01*
G01*
G75*
G02*
X4353400I-116840J0D01*
G01*
Y7971240D02*
G75*
G02*
X4587080I116840J0D01*
G01*
G75*
G02*
X4353400I-116840J0D01*
G01*
Y8225240D02*
G75*
G02*
X4587080I116840J0D01*
G01*
G75*
G02*
X4353400I-116840J0D01*
G01*
X1036360Y4644240D02*
G36*
X1036360Y4644240D02*
Y4200480D01*
X1237640D01*
G75*
G02*
X1432830I97600J-64230D01*
G01*
X1821170D01*
G75*
G02*
X1949310I64070J-65240D01*
G01*
X2218720D01*
G75*
G02*
X2144600Y4330230I76510J129750D01*
G01*
G75*
G02*
X2148250Y4363190I150630J0D01*
G01*
X2016800Y4494640D01*
X1693680D01*
X1532260Y4333220D01*
G75*
G02*
X1472750Y4309640I-57000J56980D01*
G01*
X1419830D01*
G75*
G02*
X1218400Y4390240I-84590J80600D01*
G01*
G75*
G02*
X1419830Y4470840I116840J0D01*
G01*
X1441800D01*
X1603220Y4632260D01*
G75*
G02*
X1618510Y4644240I57020J-57030D01*
G01*
X1452080D01*
G75*
G02*
X1218400I-116840J0D01*
G01*
X1036360D01*
G37*
X2091970D02*
G36*
X2091970Y4644240D02*
G75*
G02*
X2107260Y4632260I-41730J-69010D01*
G01*
X2262290Y4477230D01*
G75*
G02*
X2285990Y4480600I32820J-145790D01*
G01*
G75*
G02*
X2253800Y4550240I59260J69650D01*
G01*
G75*
G02*
X2255000Y4565040I91850J0D01*
G01*
X2175800Y4644240D01*
X2091970D01*
G37*
X2326680D02*
G36*
X2326680Y4644240D02*
X2330440Y4640480D01*
G75*
G02*
X2353760Y4641280I14760J-89850D01*
G01*
X2350800Y4644240D01*
X2326680D01*
G37*
X3828540D02*
G36*
X3828540Y4644240D02*
Y4356980D01*
G75*
G02*
X3831940Y4359540I50320J-63300D01*
G01*
Y4644240D01*
X3828540D01*
G37*
X4063540D02*
G36*
X4063540Y4644240D02*
Y4249540D01*
G75*
G02*
X4098130Y4200480I-53290J-74300D01*
G01*
X4894120D01*
Y4644240D01*
X4063540D01*
G37*
X1036360Y4790240D02*
G36*
X1036360Y4790240D02*
Y4644240D01*
X1218400D01*
G75*
G02*
X1452080I116840J0D01*
G01*
X1618510D01*
G75*
G02*
X1662730Y4655840I41730J-69000D01*
G01*
X2047750D01*
G75*
G02*
X2091970Y4644240I2490J-80600D01*
G01*
X2175800D01*
X2128100Y4691940D01*
X1827410D01*
G75*
G02*
X1787520Y4707520I-2180J53270D01*
G01*
X1704800Y4790240D01*
X1379820D01*
G75*
G02*
X1290650I-44580J107990D01*
G01*
X1036360D01*
G37*
X2178890D02*
G36*
X2178890Y4790240D02*
G75*
G02*
X2187960Y4782960I-28640J-44970D01*
G01*
X2326680Y4644240D01*
X2350800D01*
X2312520Y4682520D01*
G75*
G02*
X2296900Y4720240I37760J37730D01*
G01*
G75*
G02*
X2296940Y4722410I59450J-10D01*
G01*
Y4790240D01*
X2178890D01*
G37*
X3828540D02*
G36*
X3828540Y4790240D02*
Y4644240D01*
X3831940D01*
Y4790240D01*
X3828540D01*
G37*
X4063540D02*
G36*
X4063540Y4790240D02*
Y4644240D01*
X4894120D01*
Y4790240D01*
X4337080D01*
G75*
G02*
X4103400I-116840J0D01*
G01*
X4063540D01*
G37*
X1036360Y5044240D02*
G36*
X1036360Y5044240D02*
Y4790240D01*
X1290650D01*
G75*
G02*
X1218400Y4898230I44590J107990D01*
G01*
G75*
G02*
Y4898240I286480J10D01*
G01*
G75*
G02*
Y4898250I286480J10D01*
G01*
G75*
G02*
X1439210Y4951540I116840J0D01*
G01*
X1670070D01*
G75*
G02*
X1709960Y4935960I2180J-53270D01*
G01*
X1847380Y4798540D01*
X2148070D01*
G75*
G02*
X2178890Y4790240I2180J-53280D01*
G01*
X2296940D01*
Y4953100D01*
X2268100Y4981940D01*
X1894540D01*
G75*
G02*
X1728800Y5035240I-74300J53300D01*
G01*
G75*
G02*
X1729240Y5044240I91480J40D01*
G01*
X1379820D01*
G75*
G02*
X1290660I-44580J108000D01*
G01*
X1036360D01*
G37*
X1439210Y4844940D02*
G36*
X1439210Y4844940D02*
G75*
G02*
X1379820Y4790240I-103980J53300D01*
G01*
X1704800D01*
X1650100Y4844940D01*
X1439210D01*
G37*
X3741680Y5044240D02*
G36*
X3741680Y5044240D02*
X3812960Y4972960D01*
G75*
G02*
X3828580Y4935240I-37760J-37730D01*
G01*
G75*
G02*
Y4935230I-63660J0D01*
G01*
G75*
G02*
X3828540Y4933070I-58360J0D01*
G01*
Y4790240D01*
X3831940D01*
Y5044240D01*
X3741680D01*
G37*
X4063540D02*
G36*
X4063540Y5044240D02*
Y4790240D01*
X4103400D01*
G75*
G02*
X4337080I116840J0D01*
G01*
X4894120D01*
Y5044240D01*
X4337080D01*
G75*
G02*
X4103400I-116840J0D01*
G01*
X4063540D01*
G37*
X1036360Y5430240D02*
G36*
X1036360Y5430240D02*
Y5044240D01*
X1290660D01*
G75*
G02*
X1218400Y5152240I44580J108000D01*
G01*
G75*
G02*
X1437620Y5208540I116840J0D01*
G01*
X2117900D01*
X2000800Y5325640D01*
X1419830D01*
G75*
G02*
X1218400Y5406240I-84590J80600D01*
G01*
G75*
G02*
X1220890Y5430240I116860J0D01*
G01*
X1036360D01*
G37*
X1440700Y5101940D02*
G36*
X1440700Y5101940D02*
G75*
G02*
X1379820Y5044240I-105460J50310D01*
G01*
X1729240D01*
G75*
G02*
X1757690Y5101940I90990J-9000D01*
G01*
X1440700D01*
G37*
X2124280Y5430240D02*
G36*
X2124280Y5430240D02*
X2218680Y5335840D01*
X2896800D01*
X2929600Y5368640D01*
X2774640D01*
Y5430240D01*
X2124280D01*
G37*
X3538540Y5383280D02*
G36*
X3538540Y5383280D02*
Y5247380D01*
X3741680Y5044240D01*
X3831940D01*
Y5420940D01*
G75*
G02*
X3820920Y5430240I53290J74320D01*
G01*
X3583930D01*
G75*
G02*
X3538540Y5383280I-98700J49990D01*
G01*
G37*
X3938540Y5420940D02*
G36*
X3938540Y5420940D02*
Y5361990D01*
G75*
G02*
X4101680Y5305240I71700J-56760D01*
G01*
G75*
G02*
Y5305230I-114590J0D01*
G01*
G75*
G02*
X4063540Y5230940I-91420J0D01*
G01*
Y5044240D01*
X4103400D01*
G75*
G02*
X4337080I116840J0D01*
G01*
X4894120D01*
Y5430240D01*
X4627080D01*
G75*
G02*
X4393400I-116840J0D01*
G01*
X3949560D01*
G75*
G02*
X3938540Y5420940I-64310J65020D01*
G01*
G37*
X1036360Y5660240D02*
G36*
X1036360Y5660240D02*
Y5430240D01*
X1220890D01*
G75*
G02*
X1419830Y5486840I114350J-24000D01*
G01*
X2031750D01*
G75*
G02*
X2091260Y5463260I2490J-80600D01*
G01*
X2124280Y5430240D01*
X2774640D01*
Y5571940D01*
X2737410D01*
G75*
G02*
X2697520Y5587520I-2180J53270D01*
G01*
X2624800Y5660240D01*
X1452080D01*
G75*
G02*
X1218400I-116840J0D01*
G01*
X1036360D01*
G37*
X3380680D02*
G36*
X3380680Y5660240D02*
X3454420Y5586500D01*
G75*
G02*
X3595870Y5480230I30810J-106270D01*
G01*
G75*
G02*
X3583930Y5430240I-110640J10D01*
G01*
X3820920D01*
G75*
G02*
X3793800Y5495230I64300J64990D01*
G01*
G75*
G02*
Y5495240I114590J10D01*
G01*
G75*
G02*
X3976680I91440J0D01*
G01*
G75*
G02*
Y5495230I-114590J0D01*
G01*
G75*
G02*
X3949560Y5430240I-91420J0D01*
G01*
X4393400D01*
G75*
G02*
X4627080I116840J0D01*
G01*
X4894120D01*
Y5660240D01*
X4624590D01*
G75*
G02*
X4395890I-114350J24000D01*
G01*
X3380680D01*
G37*
X1036360Y5914240D02*
G36*
X1036360Y5914240D02*
Y5660240D01*
X1218400D01*
G75*
G02*
X1452080I116840J0D01*
G01*
X2624800D01*
X2400040Y5885000D01*
G75*
G02*
X2317110Y5914240I-14800J90240D01*
G01*
X1452080D01*
G75*
G02*
X1218400I-116840J0D01*
G01*
X1036360D01*
G37*
X2676680D02*
G36*
X2676680Y5914240D02*
X2812380Y5778540D01*
X3238070D01*
G75*
G02*
X3277960Y5762960I2180J-53270D01*
G01*
X3380680Y5660240D01*
X4395890D01*
G75*
G02*
X4393400Y5684240I114350J23990D01*
G01*
G75*
G02*
X4627080I116840J0D01*
G01*
G75*
G02*
X4624590Y5660240I-116840J-10D01*
G01*
X4894120D01*
Y5914240D01*
X2676680D01*
G37*
X1036360Y6168240D02*
G36*
X1036360Y6168240D02*
Y5914240D01*
X1218400D01*
G75*
G02*
X1452080I116840J0D01*
G01*
X2317110D01*
G75*
G02*
X2293800Y5975240I68140J60990D01*
G01*
G75*
G02*
X2335520Y6051980I91430J0D01*
G01*
G75*
G02*
X2298800Y6125230I54700J73250D01*
G01*
G75*
G02*
Y6125240I143240J10D01*
G01*
G75*
G02*
X2309540Y6168240I91440J0D01*
G01*
X2127600D01*
G75*
G02*
X1952880I-87360J27000D01*
G01*
X1452080D01*
G75*
G02*
X1218400I-116840J0D01*
G01*
X1036360D01*
G37*
X2470940D02*
G36*
X2470940Y6168240D02*
G75*
G02*
X2481680Y6125240I-80700J-43000D01*
G01*
G75*
G02*
X2480480Y6110440I-91850J0D01*
G01*
X2676680Y5914240D01*
X4894120D01*
Y6168240D01*
X4580970D01*
G75*
G02*
X4627080Y6075240I-70730J-93000D01*
G01*
G75*
G02*
X4393400I-116840J0D01*
G01*
G75*
G02*
X4439510Y6168240I116840J0D01*
G01*
X3564690D01*
G75*
G02*
X3405790I-79450J77000D01*
G01*
X3364690D01*
G75*
G02*
X3338540Y6148280I-79450J76980D01*
G01*
Y6062410D01*
G75*
G02*
X3338580Y6060250I-58320J-2160D01*
G01*
G75*
G02*
Y6060240I-63660J0D01*
G01*
G75*
G02*
X3322960Y6022520I-53380J10D01*
G01*
X3267960Y5967520D01*
G75*
G02*
X3228070Y5951940I-37710J37690D01*
G01*
X2767410D01*
G75*
G02*
X2727520Y5967520I-2180J53270D01*
G01*
X2526800Y6168240D01*
X2470940D01*
G37*
X2774640Y6133640D02*
G36*
X2774640Y6133640D02*
Y6168240D01*
X2677680D01*
X2787380Y6058540D01*
X3208100D01*
X3231940Y6082380D01*
Y6148280D01*
G75*
G02*
X3205790Y6168240I53310J96950D01*
G01*
X3164690D01*
G75*
G02*
X3005790I-79450J77000D01*
G01*
X2995840D01*
Y6133640D01*
X2774640D01*
G37*
X1036360Y6422240D02*
G36*
X1036360Y6422240D02*
Y6168240D01*
X1218400D01*
G75*
G02*
X1452080I116840J0D01*
G01*
X1952880D01*
G75*
G02*
X1948800Y6195240I87360J27010D01*
G01*
G75*
G02*
Y6195250I71620J10D01*
G01*
G75*
G02*
X2055040Y6285480I91440J0D01*
G01*
X2137520Y6367960D01*
G75*
G02*
X2177410Y6383540I37710J-37690D01*
G01*
X2438070D01*
G75*
G02*
X2477960Y6367960I2180J-53270D01*
G01*
X2677680Y6168240D01*
X2774640D01*
Y6356840D01*
X2995840D01*
Y6310420D01*
G75*
G02*
X3079640Y6355740I89410J-65180D01*
G01*
Y6422240D01*
X1452080D01*
G75*
G02*
X1218400I-116840J0D01*
G01*
X1036360D01*
G37*
X2131680Y6195240D02*
G36*
X2131680Y6195240D02*
G75*
G02*
X2127600Y6168240I-91440J10D01*
G01*
X2309540D01*
G75*
G02*
X2470940I80700J-43000D01*
G01*
X2526800D01*
X2418100Y6276940D01*
X2197380D01*
X2130480Y6210040D01*
G75*
G02*
X2131680Y6195260I-90400J-14780D01*
G01*
G75*
G02*
Y6195240I-81850J-10D01*
G01*
G37*
X2995840Y6180060D02*
G36*
X2995840Y6180060D02*
Y6168240D01*
X3005790D01*
G75*
G02*
X2995840Y6180060I79460J76980D01*
G01*
G37*
X3185240Y6197900D02*
G36*
X3185240Y6197900D02*
G75*
G02*
X3164690Y6168240I-100000J47340D01*
G01*
X3205790D01*
G75*
G02*
X3185240Y6197900I79460J77000D01*
G01*
G37*
X3240840Y6422240D02*
G36*
X3240840Y6422240D02*
Y6346580D01*
G75*
G02*
X3385240Y6292580I44400J-101350D01*
G01*
G75*
G02*
X3595880Y6245240I100000J-47340D01*
G01*
G75*
G02*
X3564690Y6168240I-110640J0D01*
G01*
X4439510D01*
G75*
G02*
X4580970I70730J-93000D01*
G01*
X4894120D01*
Y6422240D01*
X4580970D01*
G75*
G02*
X4627080Y6329240I-70730J-93000D01*
G01*
G75*
G02*
X4393400I-116840J0D01*
G01*
G75*
G02*
X4439510Y6422240I116840J0D01*
G01*
X3240840D01*
G37*
X3385240Y6197900D02*
G36*
X3385240Y6197900D02*
G75*
G02*
X3364690Y6168240I-100000J47340D01*
G01*
X3405790D01*
G75*
G02*
X3385240Y6197900I79450J77000D01*
G01*
G37*
X1036360Y6955240D02*
G36*
X1036360Y6955240D02*
Y6422240D01*
X1218400D01*
G75*
G02*
X1452080I116840J0D01*
G01*
X3079640D01*
Y6747980D01*
G75*
G02*
X3009600Y6875240I80590J127260D01*
G01*
G75*
G02*
X3032590Y6955240I150640J10D01*
G01*
X2710680D01*
X2657960Y6902520D01*
G75*
G02*
X2618070Y6886940I-37710J37690D01*
G01*
X1621380D01*
X1446470Y6712030D01*
G75*
G02*
X1452080Y6676250I-111310J-35780D01*
G01*
G75*
G02*
Y6676240I-286480J0D01*
G01*
G75*
G02*
X1218400I-116840J0D01*
G01*
G75*
G02*
X1371030Y6787470I116850J0D01*
G01*
X1538800Y6955240D01*
X1449380D01*
G75*
G02*
X1452080Y6930260I-114070J-24970D01*
G01*
G75*
G02*
Y6930240I-127320J-10D01*
G01*
G75*
G02*
X1218400I-116840J0D01*
G01*
G75*
G02*
X1221110Y6955240I116850J-20D01*
G01*
X1036360D01*
G37*
X3240840Y6747980D02*
G36*
X3240840Y6747980D02*
Y6422240D01*
X4439510D01*
G75*
G02*
X4580970I70730J-93000D01*
G01*
X4894120D01*
Y6955240D01*
X4587080D01*
G75*
G02*
X4353400I-116840J0D01*
G01*
X3287890D01*
G75*
G02*
X3310880Y6875240I-127650J-79990D01*
G01*
G75*
G02*
X3240840Y6747980I-150630J0D01*
G01*
G37*
X1036360Y7717240D02*
G36*
X1036360Y7717240D02*
Y6955240D01*
X1221110D01*
G75*
G02*
X1301730Y7042170I114130J-25000D01*
G01*
X1467520Y7207960D01*
G75*
G02*
X1507410Y7223540I37710J-37690D01*
G01*
X4223100D01*
X4258940Y7259380D01*
Y7463240D01*
G75*
G02*
X4312240Y7516540I53300J0D01*
G01*
X4366270D01*
G75*
G02*
X4587080Y7463250I103970J-53290D01*
G01*
G75*
G02*
Y7463240I-286480J0D01*
G01*
G75*
G02*
Y7463230I-286480J0D01*
G01*
G75*
G02*
X4366270Y7409940I-116840J0D01*
G01*
X4365540D01*
Y7261100D01*
G75*
G02*
X4587080Y7209240I104700J-51870D01*
G01*
G75*
G02*
X4412890Y7107450I-116840J10D01*
G01*
X4327960Y7022520D01*
G75*
G02*
X4288070Y7006940I-37710J37690D01*
G01*
X3233370D01*
G75*
G02*
X3287890Y6955240I-73120J-131710D01*
G01*
X4353400D01*
G75*
G02*
X4587080I116840J0D01*
G01*
X4894120D01*
Y7717240D01*
X4587080D01*
G75*
G02*
X4353400I-116840J0D01*
G01*
X1036360D01*
G37*
X1420530Y7010090D02*
G36*
X1420530Y7010090D02*
G75*
G02*
X1449380Y6955240I-85220J-79840D01*
G01*
X1538800D01*
X1561520Y6977960D01*
G75*
G02*
X1601410Y6993540I37710J-37690D01*
G01*
X2598100D01*
X2702520Y7097960D01*
G75*
G02*
X2742410Y7113540I37710J-37690D01*
G01*
X4268100D01*
X4353830Y7199270D01*
G75*
G02*
X4353540Y7203480I144980J12100D01*
G01*
G75*
G02*
X4349960Y7199520I-43120J35380D01*
G01*
X4282960Y7132520D01*
G75*
G02*
X4243070Y7116940I-37710J37690D01*
G01*
X1527380D01*
X1420530Y7010090D01*
G37*
X2762380Y7006940D02*
G36*
X2762380Y7006940D02*
X2710680Y6955240D01*
X3032590D01*
G75*
G02*
X3087110Y7006940I127640J-80010D01*
G01*
X2762380D01*
G37*
X1036360Y7971240D02*
G36*
X1036360Y7971240D02*
Y7717240D01*
X4353400D01*
G75*
G02*
X4587080I116840J0D01*
G01*
X4894120D01*
Y7971240D01*
X4587080D01*
G75*
G02*
X4353400I-116840J0D01*
G01*
X1036360D01*
G37*
Y8225240D02*
G36*
X1036360Y8225240D02*
Y7971240D01*
X4353400D01*
G75*
G02*
X4587080I116840J0D01*
G01*
X4894120D01*
Y8225240D01*
X4587080D01*
G75*
G02*
X4353400I-116840J0D01*
G01*
X1036360D01*
G37*
Y8364120D02*
G36*
X1036360Y8364120D02*
Y8225240D01*
X4353400D01*
G75*
G02*
X4587080I116840J0D01*
G01*
X4894120D01*
Y8364120D01*
X1036360D01*
G37*
X1942580Y3270240D02*
G75*
G02*
X1992200Y3223540I-47340J-100010D01*
G01*
X2328070D01*
G75*
G02*
X2367960Y3207960I2170J-53300D01*
G01*
X2607960Y2967960D01*
G75*
G02*
X2619640Y2950370I-37720J-37720D01*
G01*
Y2978340D01*
X2980240D01*
Y3016140D01*
X2619640D01*
Y3070940D01*
X2562410D01*
G75*
G02*
X2522520Y3086520I-2170J53300D01*
G01*
X2462520Y3146520D01*
G75*
G02*
X2446900Y3184240I37720J37720D01*
G01*
G75*
G02*
X2446940Y3186410I53350J100D01*
G01*
Y3696620D01*
G75*
G02*
X2351390Y3697940I-46700J78620D01*
G01*
G75*
G02*
X2185940Y3651940I-91150J7300D01*
G01*
X2006840D01*
Y3459640D01*
X1960420D01*
G75*
G02*
X1942580Y3270240I-65180J-89400D01*
G01*
G36*
X1942580Y3270240D02*
G75*
G02*
X1992200Y3223540I-47340J-100010D01*
G01*
X2328070D01*
G75*
G02*
X2367960Y3207960I2170J-53300D01*
G01*
X2607960Y2967960D01*
G75*
G02*
X2619640Y2950370I-37720J-37720D01*
G01*
Y2978340D01*
X2980240D01*
Y3016140D01*
X2619640D01*
Y3070940D01*
X2562410D01*
G75*
G02*
X2522520Y3086520I-2170J53300D01*
G01*
X2462520Y3146520D01*
G75*
G02*
X2446900Y3184240I37720J37720D01*
G01*
G75*
G02*
X2446940Y3186410I53350J100D01*
G01*
Y3696620D01*
G75*
G02*
X2351390Y3697940I-46700J78620D01*
G01*
G75*
G02*
X2185940Y3651940I-91150J7300D01*
G01*
X2006840D01*
Y3459640D01*
X1960420D01*
G75*
G02*
X1942580Y3270240I-65180J-89400D01*
G01*
G37*
X2348980Y5051940D02*
X2387960Y5012960D01*
G75*
G02*
X2403580Y4975240I-37720J-37720D01*
G01*
G75*
G02*
X2403540Y4973070I-53370J-100D01*
G01*
Y4742380D01*
X2441940Y4703980D01*
Y4845940D01*
G75*
G02*
X2403800Y4920240I53300J74300D01*
G01*
G75*
G02*
X2565240Y4979070I91440J0D01*
G01*
G75*
G02*
X2726680Y4920240I70000J-58830D01*
G01*
G75*
G02*
X2688540Y4845940I-91440J0D01*
G01*
Y4652380D01*
X2847960Y4492960D01*
G75*
G02*
X2863580Y4455240I-37720J-37720D01*
G01*
G75*
G02*
X2863540Y4453070I-53370J-100D01*
G01*
Y4248340D01*
X3000840D01*
Y4185240D01*
X3150760D01*
G75*
G02*
X3181940Y4294540I84480J35000D01*
G01*
Y4500940D01*
G75*
G02*
X3191940Y4655780I53300J74300D01*
G01*
G75*
G02*
X3185240Y4667900I93280J59480D01*
G01*
G75*
G02*
X2995840Y4650060I-100000J47340D01*
G01*
Y4603640D01*
X2774640D01*
Y4826840D01*
X2995840D01*
Y4780420D01*
G75*
G02*
X3185240Y4762580I89400J-65180D01*
G01*
G75*
G02*
X3231940Y4812200I100010J-47340D01*
G01*
Y4913100D01*
X3093100Y5051940D01*
X2348980D01*
G36*
X2348980Y5051940D02*
X2387960Y5012960D01*
G75*
G02*
X2403580Y4975240I-37720J-37720D01*
G01*
G75*
G02*
X2403540Y4973070I-53370J-100D01*
G01*
Y4742380D01*
X2441940Y4703980D01*
Y4845940D01*
G75*
G02*
X2403800Y4920240I53300J74300D01*
G01*
G75*
G02*
X2565240Y4979070I91440J0D01*
G01*
G75*
G02*
X2726680Y4920240I70000J-58830D01*
G01*
G75*
G02*
X2688540Y4845940I-91440J0D01*
G01*
Y4652380D01*
X2847960Y4492960D01*
G75*
G02*
X2863580Y4455240I-37720J-37720D01*
G01*
G75*
G02*
X2863540Y4453070I-53370J-100D01*
G01*
Y4248340D01*
X3000840D01*
Y4185240D01*
X3150760D01*
G75*
G02*
X3181940Y4294540I84480J35000D01*
G01*
Y4500940D01*
G75*
G02*
X3191940Y4655780I53300J74300D01*
G01*
G75*
G02*
X3185240Y4667900I93280J59480D01*
G01*
G75*
G02*
X2995840Y4650060I-100000J47340D01*
G01*
Y4603640D01*
X2774640D01*
Y4826840D01*
X2995840D01*
Y4780420D01*
G75*
G02*
X3185240Y4762580I89400J-65180D01*
G01*
G75*
G02*
X3231940Y4812200I100010J-47340D01*
G01*
Y4913100D01*
X3093100Y5051940D01*
X2348980D01*
G37*
X2623540Y2762140D02*
Y2724340D01*
X2980240D01*
Y2762140D01*
X2623540D01*
G36*
X2623540Y2762140D02*
Y2724340D01*
X2980240D01*
Y2762140D01*
X2623540D01*
G37*
X2680240Y3524140D02*
Y3486340D01*
X3000840D01*
Y3270140D01*
X2680240D01*
Y3232340D01*
X3000840D01*
Y3016140D01*
X2680240D01*
Y2978340D01*
X3000840D01*
Y2762140D01*
X2680240D01*
Y2724340D01*
X3000840D01*
Y2508140D01*
X2680240D01*
Y2470340D01*
X3000840D01*
Y2254140D01*
X2680240D01*
Y2216340D01*
X3000840D01*
Y2000140D01*
X2680240D01*
Y1741120D01*
X4670240D01*
Y3610240D01*
X3738680D01*
X3722960Y3594520D01*
G75*
G02*
X3683070Y3578940I-37720J37720D01*
G01*
X3150590D01*
G75*
G02*
X3164540Y3563540I-60350J-68680D01*
G01*
X3770940D01*
G75*
G02*
X3936680Y3510240I74300J-53300D01*
G01*
G75*
G02*
X3770940Y3456940I-91440J0D01*
G01*
X3164540D01*
G75*
G02*
X2999860Y3524140I-74300J53310D01*
G01*
X2680240D01*
X4143640Y2216340D02*
X4524840D01*
Y2000140D01*
X4143640D01*
Y2216340D01*
Y2470340D02*
X4524840D01*
Y2254140D01*
X4143640D01*
Y2470340D01*
Y2724340D02*
X4524840D01*
Y2508140D01*
X4143640D01*
Y2724340D01*
Y2978340D02*
X4524840D01*
Y2762140D01*
X4143640D01*
Y2978340D01*
Y3232340D02*
X4524840D01*
Y3016140D01*
X4143640D01*
Y3232340D01*
Y3486340D02*
X4524840D01*
Y3270140D01*
X4143640D01*
Y3486340D01*
X3202520Y2997960D02*
X3276940Y3072380D01*
Y3290940D01*
G75*
G02*
X3238800Y3365240I53300J74300D01*
G01*
G75*
G02*
X3406560Y3415610I91440J0D01*
G01*
G75*
G02*
X3566680Y3355240I68680J-60370D01*
G01*
G75*
G02*
X3528540Y3280940I-91440J0D01*
G01*
Y2782410D01*
G75*
G02*
X3528580Y2780240I-53330J-2070D01*
G01*
G75*
G02*
X3512960Y2742520I-53340J0D01*
G01*
X3480480Y2710040D01*
G75*
G02*
X3481680Y2695240I-90270J-14770D01*
G01*
G75*
G02*
X3302790Y2668540I-91440J0D01*
G01*
G75*
G02*
X3148800Y2735240I-62550J66700D01*
G01*
G75*
G02*
X3186940Y2809540I91440J0D01*
G01*
Y2958070D01*
G75*
G02*
X3186900Y2960240I53310J2070D01*
G01*
G75*
G02*
X3202520Y2997960I53340J0D01*
G01*
X2695480Y2000140D02*
G36*
X2695480Y2000140D02*
Y1756360D01*
X4655000D01*
Y2108240D01*
X4524840D01*
Y2000140D01*
X4143640D01*
Y2108240D01*
X3000840D01*
Y2000140D01*
X2695480D01*
G37*
Y2254140D02*
G36*
X2695480Y2254140D02*
Y2216340D01*
X3000840D01*
Y2108240D01*
X4143640D01*
Y2216340D01*
X4524840D01*
Y2108240D01*
X4655000D01*
Y2362240D01*
X4524840D01*
Y2254140D01*
X4143640D01*
Y2362240D01*
X3000840D01*
Y2254140D01*
X2695480D01*
G37*
Y2508140D02*
G36*
X2695480Y2508140D02*
Y2470340D01*
X3000840D01*
Y2362240D01*
X4143640D01*
Y2470340D01*
X4524840D01*
Y2362240D01*
X4655000D01*
Y2616240D01*
X4524840D01*
Y2508140D01*
X4143640D01*
Y2616240D01*
X3436270D01*
G75*
G02*
X3344210I-46030J79000D01*
G01*
X3000840D01*
Y2508140D01*
X2695480D01*
G37*
Y2762140D02*
G36*
X2695480Y2762140D02*
Y2724340D01*
X3000840D01*
Y2616240D01*
X3344210D01*
G75*
G02*
X3302790Y2668540I46030J79010D01*
G01*
G75*
G02*
X3148800Y2735240I-62550J66700D01*
G01*
G75*
G02*
Y2735250I114590J10D01*
G01*
G75*
G02*
X3186940Y2809540I91420J0D01*
G01*
Y2870240D01*
X3000840D01*
Y2762140D01*
X2695480D01*
G37*
X3481680Y2695240D02*
G36*
X3481680Y2695240D02*
G75*
G02*
X3436270Y2616240I-91440J10D01*
G01*
X4143640D01*
Y2724340D01*
X4524840D01*
Y2616240D01*
X4655000D01*
Y2870240D01*
X4524840D01*
Y2762140D01*
X4143640D01*
Y2870240D01*
X3528540D01*
Y2782410D01*
G75*
G02*
X3528580Y2780250I-58320J-2160D01*
G01*
G75*
G02*
Y2780240I-63660J0D01*
G01*
G75*
G02*
X3512960Y2742520I-53380J10D01*
G01*
X3480480Y2710040D01*
G75*
G02*
X3481680Y2695260I-90400J-14780D01*
G01*
G75*
G02*
Y2695240I-81850J-10D01*
G01*
G37*
X2695480Y3016140D02*
G36*
X2695480Y3016140D02*
Y2978340D01*
X3000840D01*
Y2870240D01*
X3186940D01*
Y2958070D01*
G75*
G02*
X3186900Y2960230I58320J2160D01*
G01*
G75*
G02*
Y2960240I63660J10D01*
G01*
G75*
G02*
X3202520Y2997960I53380J-10D01*
G01*
X3276940Y3072380D01*
Y3124240D01*
X3000840D01*
Y3016140D01*
X2695480D01*
G37*
X3528540Y3124240D02*
G36*
X3528540Y3124240D02*
Y2870240D01*
X4143640D01*
Y2978340D01*
X4524840D01*
Y2870240D01*
X4655000D01*
Y3124240D01*
X4524840D01*
Y3016140D01*
X4143640D01*
Y3124240D01*
X3528540D01*
G37*
X2695480Y3270140D02*
G36*
X2695480Y3270140D02*
Y3232340D01*
X3000840D01*
Y3124240D01*
X3276940D01*
Y3290940D01*
G75*
G02*
X3238800Y3365230I53280J74290D01*
G01*
G75*
G02*
Y3365240I114590J10D01*
G01*
G75*
G02*
X3239730Y3378240I91450J-10D01*
G01*
X3000840D01*
Y3270140D01*
X2695480D01*
G37*
X3528540Y3280940D02*
G36*
X3528540Y3280940D02*
Y3124240D01*
X4143640D01*
Y3232340D01*
X4524840D01*
Y3124240D01*
X4655000D01*
Y3378240D01*
X4524840D01*
Y3270140D01*
X4143640D01*
Y3378240D01*
X3563740D01*
G75*
G02*
X3566680Y3355240I-88510J-23000D01*
G01*
G75*
G02*
Y3355230I-114590J0D01*
G01*
G75*
G02*
X3528540Y3280940I-91420J0D01*
G01*
G37*
X2695480Y3524140D02*
G36*
X2695480Y3524140D02*
Y3486340D01*
X3000840D01*
Y3378240D01*
X3239730D01*
G75*
G02*
X3406560Y3415610I90510J-13000D01*
G01*
G75*
G02*
X3563740Y3378240I68680J-60370D01*
G01*
X4143640D01*
Y3486340D01*
X4524840D01*
Y3378240D01*
X4655000D01*
Y3595000D01*
X3879550D01*
G75*
G02*
X3936680Y3510240I-34310J-84760D01*
G01*
G75*
G02*
X3770940Y3456940I-91440J0D01*
G01*
X3164540D01*
G75*
G02*
X2998800Y3510260I-74290J53320D01*
G01*
G75*
G02*
X2999860Y3524140I91420J0D01*
G01*
X2695480D01*
G37*
X3150590Y3578940D02*
G36*
X3150590Y3578940D02*
G75*
G02*
X3164540Y3563540I-60500J-68820D01*
G01*
X3770940D01*
G75*
G02*
X3810930Y3595000I74300J-53300D01*
G01*
X3723440D01*
X3722960Y3594520D01*
G75*
G02*
X3683070Y3578940I-37710J37690D01*
G01*
X3150590D01*
G37*
X4305240Y4380240D02*
Y3486340D01*
X4524840D01*
Y3270140D01*
X4305240D01*
Y3232340D01*
X4524840D01*
Y3016140D01*
X4305240D01*
Y2978340D01*
X4524840D01*
Y2762140D01*
X4305240D01*
Y2724340D01*
X4524840D01*
Y2508140D01*
X4305240D01*
Y2470340D01*
X4524840D01*
Y2254140D01*
X4305240D01*
Y2216340D01*
X4524840D01*
Y2000140D01*
X4305240D01*
Y1741120D01*
X4909360D01*
Y4380240D01*
X4305240D01*
G36*
X4305240Y4380240D02*
Y3486340D01*
X4524840D01*
Y3270140D01*
X4305240D01*
Y3232340D01*
X4524840D01*
Y3016140D01*
X4305240D01*
Y2978340D01*
X4524840D01*
Y2762140D01*
X4305240D01*
Y2724340D01*
X4524840D01*
Y2508140D01*
X4305240D01*
Y2470340D01*
X4524840D01*
Y2254140D01*
X4305240D01*
Y2216340D01*
X4524840D01*
Y2000140D01*
X4305240D01*
Y1741120D01*
X4909360D01*
Y4380240D01*
X4305240D01*
G37*
D02*
D12*
X1271740Y3120240D02*
X1218400D01*
X1271740Y4644240D02*
X1218400D01*
X1271740Y5660240D02*
X1218400D01*
X1335240Y3056740D02*
Y3003400D01*
Y3183740D02*
Y3237080D01*
Y3628240D02*
X1453240D01*
X1770240Y3945240D01*
X2230240D01*
X2400240Y3775240D01*
X1335240Y3882240D02*
Y3885240D01*
X1480240D01*
X1640240Y4045240D01*
X2340240D01*
X2390240Y3995240D01*
X1335240Y4580740D02*
Y4527400D01*
Y4707740D02*
Y4761080D01*
Y4898240D02*
X1672240D01*
X1825240Y4745240D01*
X2150240D01*
X2345240Y4550240D01*
X1335240Y5152240D02*
X1389240D01*
X1392240Y5155240D01*
X2120240D01*
X2170240Y5105240D01*
X3115240D01*
X3285240Y4935240D01*
Y4715240D01*
X1335240Y5596740D02*
Y5543400D01*
Y5723740D02*
Y5777080D01*
Y6930240D02*
Y7000240D01*
X1505240Y7170240D01*
X4245240D01*
X4312240Y7237240D01*
Y7463240D01*
X4470240D01*
X1398740Y3120240D02*
X1452080D01*
X1398740Y4644240D02*
X1452080D01*
X1398740Y5660240D02*
X1452080D01*
X1507940Y2695240D02*
X1454600D01*
X1605240Y2792540D02*
Y2845880D01*
X1702540Y2695240D02*
X1755880D01*
X1820240Y5035240D02*
X2290240D01*
X2350240Y4975240D01*
Y4720240D01*
X2500240Y4570240D01*
Y3184240D01*
X2560240Y3124240D01*
X2810240D01*
X1832940Y2390240D02*
X1779600D01*
X1836940Y3570240D02*
X1783640D01*
X1885240Y4135240D02*
X1336240D01*
X1335240Y4136240D01*
X1910240Y2312940D02*
Y2259600D01*
Y2467540D02*
Y2520880D01*
X1953540Y3570240D02*
X2006840D01*
X1987540Y2390240D02*
X2040880D01*
X2260240Y3705240D02*
X1670240D01*
X1339240Y3374240D01*
X1335240D01*
X2385240Y5975240D02*
X2735240Y5625240D01*
X3235240D01*
X3285240Y5575240D01*
Y5480240D01*
X2390240Y6125240D02*
X2790240Y5725240D01*
X3240240D01*
X3485240Y5480240D01*
X2635240Y4920240D02*
Y4630240D01*
X2810240Y4455240D01*
Y4140240D01*
Y2108240D02*
X2597240D01*
X2465240Y2240240D01*
Y2820240D01*
X2315240Y2970240D01*
X1895240D01*
X2810240Y2362240D02*
X2583240D01*
X2570240Y2375240D01*
Y2930240D01*
X2330240Y3170240D01*
X1895240D01*
X2810240Y2815440D02*
Y2762140D01*
Y2815440D02*
Y2762140D01*
Y2925040D02*
Y2978340D01*
Y2925040D02*
Y2978340D01*
Y3886240D02*
X2630240D01*
X2586240Y3930240D01*
Y4579240D01*
X2495240Y4670240D01*
Y4920240D01*
X2827940Y4715240D02*
X2774640D01*
X2827940Y5480240D02*
X2774640D01*
X2827940Y6245240D02*
X2774640D01*
X2885240Y4656940D02*
Y4603640D01*
Y4773540D02*
Y4826840D01*
Y5421940D02*
Y5368640D01*
Y6186940D02*
Y6133640D01*
Y6303540D02*
Y6356840D01*
X2947540Y2870240D02*
X3000840D01*
X3090240Y3510240D02*
X3845240D01*
X3235240Y4575240D02*
Y4220240D01*
X3285240Y5480240D02*
Y5220240D01*
X3345240Y5160240D01*
X3420240D01*
X3670240Y4910240D01*
Y3800240D01*
X3595240Y3725240D01*
X3190240D01*
X3285240Y6245240D02*
Y6060240D01*
X3230240Y6005240D01*
X2765240D01*
X2440240Y6330240D01*
X2175240D01*
X2040240Y6195240D01*
X3330240Y3365240D02*
Y3050240D01*
X3240240Y2960240D01*
Y2735240D01*
X3475240Y3355240D02*
Y2780240D01*
X3390240Y2695240D01*
X3485240Y4505240D02*
Y4220240D01*
Y5480240D02*
Y5225240D01*
X3775240Y4935240D01*
Y3722240D01*
X3685240Y3632240D01*
X2810240D01*
X3885240Y5495240D02*
Y4285240D01*
X4010240Y5305240D02*
Y4175240D01*
X4196940Y2108240D02*
X4143640D01*
X4334240Y2053440D02*
Y2000140D01*
Y2053440D02*
Y2000140D01*
Y2163040D02*
Y2216340D01*
Y2163040D02*
Y2216340D01*
X4406740Y7971240D02*
X4353400D01*
X4406740Y8225240D02*
X4353400D01*
X4446740Y6329240D02*
X4393400D01*
X4470240Y7209240D02*
X4439240D01*
X4290240Y7060240D01*
X2740240D01*
X2620240Y6940240D01*
X1599240D01*
X1335240Y6676240D01*
X4470240Y7907740D02*
Y7854400D01*
Y8034740D02*
Y8088080D01*
Y8161740D02*
Y8108400D01*
Y8288740D02*
Y8342080D01*
X4471540Y2108240D02*
X4524840D01*
X4471540D02*
X4524840D01*
X4510240Y6265740D02*
Y6212400D01*
Y6392740D02*
Y6446080D01*
X4533740Y7971240D02*
X4587080D01*
X4533740Y8225240D02*
X4587080D01*
X4573740Y6329240D02*
X4627080D01*
D02*
D13*
X1335240Y3120240D02*
Y2965240D01*
X1605240Y2695240D01*
X1335240Y4390240D02*
X1475240D01*
X1660240Y4575240D01*
X2050240D01*
X2295240Y4330240D01*
X1335240Y5406240D02*
X2034240D01*
X2185240Y5255240D01*
X2930240D01*
X3085240Y5410240D01*
Y5480240D01*
X1335240Y5660240D02*
X1515240D01*
X1570240Y5715240D01*
X2115240D01*
X2350240Y5480240D01*
X2885240D01*
X2260240Y2640240D02*
X1875240D01*
X1710240Y2475240D01*
X1635240D01*
X1550240Y2390240D01*
X3085240Y6245240D02*
X3160240Y6320240D01*
Y6875240D01*
D02*
D14*
X1605240Y2695240D03*
X2260240Y2640240D03*
X2295240Y4330240D03*
X3160240Y6875240D03*
D02*
D16*
X1820240Y5035240D03*
X1885240Y4135240D03*
X2040240Y6195240D03*
X2260240Y3705240D03*
X2345240Y4550240D03*
X2385240Y5975240D03*
X2390240Y3995240D03*
Y6125240D03*
X2400240Y3775240D03*
X2495240Y4920240D03*
X2635240D03*
X3090240Y3510240D03*
X3190240Y3725240D03*
X3235240Y4220240D03*
Y4575240D03*
X3240240Y2735240D03*
X3330240Y3365240D03*
X3390240Y2695240D03*
X3475240Y3355240D03*
X3485240Y4220240D03*
Y4505240D03*
X3845240Y3510240D03*
X3885240Y4285240D03*
Y5495240D03*
X4010240Y4175240D03*
Y5305240D03*
D02*
D17*
X2885240Y4715240D03*
Y5480240D03*
Y6245240D03*
D02*
D18*
X1895240Y2970240D03*
Y3170240D03*
Y3370240D03*
X3085240Y4715240D03*
Y5480240D03*
Y6245240D03*
X3285240Y4715240D03*
Y5480240D03*
Y6245240D03*
X3485240Y4715240D03*
Y5480240D03*
Y6245240D03*
D02*
D19*
X2810240Y2108240D03*
Y2362240D03*
Y2616240D03*
Y2870240D03*
Y3124240D03*
Y3378240D03*
Y3632240D03*
Y3886240D03*
Y4140240D03*
X4334240Y2108240D03*
Y2362240D03*
Y2616240D03*
Y2870240D03*
Y3124240D03*
Y3378240D03*
D02*
D70*
X1335240Y3120240D03*
Y3374240D03*
Y3628240D03*
Y3882240D03*
Y4136240D03*
Y4390240D03*
Y4644240D03*
Y4898240D03*
Y5152240D03*
Y5406240D03*
Y5660240D03*
Y5914240D03*
Y6168240D03*
Y6422240D03*
Y6676240D03*
Y6930240D03*
X4220240Y4790240D03*
Y5044240D03*
X4470240Y6955240D03*
Y7209240D03*
Y7463240D03*
Y7717240D03*
Y7971240D03*
Y8225240D03*
X4510240Y5430240D03*
Y5684240D03*
Y6075240D03*
Y6329240D03*
D02*
D71*
X1550240Y2390240D03*
X1910240D03*
D02*
D20*
X1298240Y2010240D03*
X2162240D03*
D02*
D23*
X1895240Y3570240D03*
X0Y0D02*
M02*
