  0
SECTION
  2
HEADER
  9
$EXTMIN
 10
411.698
 20
491.648
  9
$EXTMAX
 10
457.102
 20
571.802
  9
$LIMMIN
 10
411.698
 20
491.648
  9
$LIMMAX
 10
457.102
 20
571.802
  0
ENDSEC
  0
SECTION
  2
TABLES
  0
TABLE
  2
LAYER
 70
    18
  0
LAYER
  2
0
 70
    64
 62
     7
  6
CONTINUOUS
  0
LAYER
  2
_BOARD
 70
    64
 62
    254
  6
CONTINUOUS
  0
LAYER
  2
_DRILL
 70
    64
 62
    251
  6
CONTINUOUS
  0
ENDTAB
  0
ENDSEC
  0
SECTION
  2
BLOCKS
  0
BLOCK
  8
0
  2
_HOLE
 70
    64
 10
0.000
 20
0.000
  0
CIRCLE
  8
0
 10
0.000
 20
0.000
 40
0.500
  0
ENDBLK
  8
0
  0
ENDSEC
  0
SECTION
  2
ENTITIES
  0
POLYLINE
  8
_BOARD
 66
     1
 62
     3
 10
0.000
 20
0.000
 70
     1
 40
0.000
 41
0.000
  0
VERTEX
  8
_BOARD
 10
415.000
 20
495.000
 40
0.000
 41
0.000
  0
VERTEX
  8
_BOARD
 10
455.000
 20
495.000
  0
VERTEX
  8
_BOARD
 10
455.000
 20
495.000
 40
0.000
 41
0.000
  0
VERTEX
  8
_BOARD
 10
455.000
 20
568.000
  0
VERTEX
  8
_BOARD
 10
455.000
 20
568.000
 40
0.000
 41
0.000
  0
VERTEX
  8
_BOARD
 10
415.000
 20
568.000
  0
VERTEX
  8
_BOARD
 10
415.000
 20
568.000
 40
0.000
 41
0.000
  0
VERTEX
  8
_BOARD
 10
415.000
 20
495.000
 40
0.000
 41
0.000
  0
VERTEX
  8
_BOARD
 10
415.000
 20
495.000
  0
SEQEND
  8
_BOARD
  0
INSERT
  8
_DRILL
  2
_HOLE
 10
448.400
 20
559.200
 41
0.900
 42
0.900
  0
INSERT
  8
_DRILL
  2
_HOLE
 10
448.400
 20
561.200
 41
0.900
 42
0.900
  0
INSERT
  8
_DRILL
  2
_HOLE
 10
448.400
 20
563.200
 41
0.900
 42
0.900
  0
INSERT
  8
_DRILL
  2
_HOLE
 10
448.400
 20
565.200
 41
0.900
 42
0.900
  0
INSERT
  8
_DRILL
  2
_HOLE
 10
451.150
 20
532.940
 41
0.900
 42
0.900
  0
INSERT
  8
_DRILL
  2
_HOLE
 10
451.150
 20
530.400
 41
0.900
 42
0.900
  0
INSERT
  8
_DRILL
  2
_HOLE
 10
447.750
 20
532.940
 41
0.900
 42
0.900
  0
INSERT
  8
_DRILL
  2
_HOLE
 10
447.750
 20
530.400
 41
0.900
 42
0.900
  0
INSERT
  8
_DRILL
  2
_HOLE
 10
447.750
 20
554.940
 41
0.900
 42
0.900
  0
INSERT
  8
_DRILL
  2
_HOLE
 10
447.750
 20
552.400
 41
0.900
 42
0.900
  0
INSERT
  8
_DRILL
  2
_HOLE
 10
426.670
 20
498.100
 41
1.300
 42
1.300
  0
INSERT
  8
_DRILL
  2
_HOLE
 10
418.030
 20
498.100
 41
1.300
 42
1.300
  0
INSERT
  8
_DRILL
  2
_HOLE
 10
424.150
 20
501.900
 41
1.120
 42
1.120
  0
INSERT
  8
_DRILL
  2
_HOLE
 10
420.550
 20
501.900
 41
1.120
 42
1.120
  0
INSERT
  8
_DRILL
  2
_HOLE
 10
424.300
 20
507.850
 41
0.900
 42
0.900
  0
INSERT
  8
_DRILL
  2
_HOLE
 10
424.300
 20
509.850
 41
0.900
 42
0.900
  0
INSERT
  8
_DRILL
  2
_HOLE
 10
424.300
 20
511.850
 41
0.900
 42
0.900
  0
INSERT
  8
_DRILL
  2
_HOLE
 10
424.300
 20
513.850
 41
0.900
 42
0.900
  0
INSERT
  8
_DRILL
  2
_HOLE
 10
450.900
 20
552.360
 41
0.900
 42
0.900
  0
INSERT
  8
_DRILL
  2
_HOLE
 10
450.900
 20
554.900
 41
0.900
 42
0.900
  0
INSERT
  8
_DRILL
  2
_HOLE
 10
451.150
 20
527.590
 41
0.900
 42
0.900
  0
INSERT
  8
_DRILL
  2
_HOLE
 10
451.150
 20
525.050
 41
0.900
 42
0.900
  0
INSERT
  8
_DRILL
  2
_HOLE
 10
451.150
 20
538.140
 41
0.900
 42
0.900
  0
INSERT
  8
_DRILL
  2
_HOLE
 10
451.150
 20
535.600
 41
0.900
 42
0.900
  0
INSERT
  8
_DRILL
  2
_HOLE
 10
418.700
 20
509.350
 41
1.000
 42
1.000
  0
INSERT
  8
_DRILL
  2
_HOLE
 10
418.700
 20
511.890
 41
1.000
 42
1.000
  0
INSERT
  8
_DRILL
  2
_HOLE
 10
418.700
 20
514.430
 41
1.000
 42
1.000
  0
INSERT
  8
_DRILL
  2
_HOLE
 10
418.700
 20
516.970
 41
1.000
 42
1.000
  0
INSERT
  8
_DRILL
  2
_HOLE
 10
418.700
 20
519.510
 41
1.000
 42
1.000
  0
INSERT
  8
_DRILL
  2
_HOLE
 10
418.700
 20
522.050
 41
1.000
 42
1.000
  0
INSERT
  8
_DRILL
  2
_HOLE
 10
418.700
 20
524.590
 41
1.000
 42
1.000
  0
INSERT
  8
_DRILL
  2
_HOLE
 10
418.700
 20
527.130
 41
1.000
 42
1.000
  0
INSERT
  8
_DRILL
  2
_HOLE
 10
418.700
 20
529.670
 41
1.000
 42
1.000
  0
INSERT
  8
_DRILL
  2
_HOLE
 10
418.700
 20
532.210
 41
1.000
 42
1.000
  0
INSERT
  8
_DRILL
  2
_HOLE
 10
418.700
 20
534.750
 41
1.000
 42
1.000
  0
INSERT
  8
_DRILL
  2
_HOLE
 10
418.700
 20
537.290
 41
1.000
 42
1.000
  0
INSERT
  8
_DRILL
  2
_HOLE
 10
418.700
 20
539.830
 41
1.000
 42
1.000
  0
INSERT
  8
_DRILL
  2
_HOLE
 10
418.700
 20
542.370
 41
1.000
 42
1.000
  0
INSERT
  8
_DRILL
  2
_HOLE
 10
418.700
 20
544.910
 41
1.000
 42
1.000
  0
INSERT
  8
_DRILL
  2
_HOLE
 10
418.700
 20
547.450
 41
1.000
 42
1.000
  0
INSERT
  8
_DRILL
  2
_HOLE
 10
418.700
 20
565.230
 41
1.000
 42
1.000
  0
INSERT
  8
_DRILL
  2
_HOLE
 10
418.700
 20
562.690
 41
1.000
 42
1.000
  0
INSERT
  8
_DRILL
  2
_HOLE
 10
418.700
 20
560.150
 41
1.000
 42
1.000
  0
INSERT
  8
_DRILL
  2
_HOLE
 10
418.700
 20
557.610
 41
1.000
 42
1.000
  0
INSERT
  8
_DRILL
  2
_HOLE
 10
418.700
 20
555.070
 41
1.000
 42
1.000
  0
INSERT
  8
_DRILL
  2
_HOLE
 10
418.700
 20
552.530
 41
1.000
 42
1.000
  0
INSERT
  8
_DRILL
  2
_HOLE
 10
448.690
 20
511.930
 41
1.000
 42
1.000
  0
INSERT
  8
_DRILL
  2
_HOLE
 10
448.690
 20
509.390
 41
1.000
 42
1.000
  0
INSERT
  8
_DRILL
  2
_HOLE
 10
448.690
 20
506.850
 41
1.000
 42
1.000
  0
INSERT
  8
_DRILL
  2
_HOLE
 10
448.690
 20
504.310
 41
1.000
 42
1.000
  0
INSERT
  8
_DRILL
  2
_HOLE
 10
448.690
 20
501.770
 41
1.000
 42
1.000
  0
INSERT
  8
_DRILL
  2
_HOLE
 10
448.690
 20
499.230
 41
1.000
 42
1.000
  0
INSERT
  8
_DRILL
  2
_HOLE
 10
433.450
 20
519.550
 41
1.000
 42
1.000
  0
INSERT
  8
_DRILL
  2
_HOLE
 10
433.450
 20
517.010
 41
1.000
 42
1.000
  0
INSERT
  8
_DRILL
  2
_HOLE
 10
433.450
 20
514.470
 41
1.000
 42
1.000
  0
INSERT
  8
_DRILL
  2
_HOLE
 10
433.450
 20
511.930
 41
1.000
 42
1.000
  0
INSERT
  8
_DRILL
  2
_HOLE
 10
433.450
 20
509.390
 41
1.000
 42
1.000
  0
INSERT
  8
_DRILL
  2
_HOLE
 10
433.450
 20
506.850
 41
1.000
 42
1.000
  0
INSERT
  8
_DRILL
  2
_HOLE
 10
433.450
 20
504.310
 41
1.000
 42
1.000
  0
INSERT
  8
_DRILL
  2
_HOLE
 10
433.450
 20
501.770
 41
1.000
 42
1.000
  0
INSERT
  8
_DRILL
  2
_HOLE
 10
433.450
 20
499.230
 41
1.000
 42
1.000
  0
INSERT
  8
_DRILL
  2
_HOLE
 10
440.200
 20
525.300
 41
0.900
 42
0.900
  0
INSERT
  8
_DRILL
  2
_HOLE
 10
438.200
 20
525.300
 41
0.900
 42
0.900
  0
INSERT
  8
_DRILL
  2
_HOLE
 10
436.200
 20
525.300
 41
0.900
 42
0.900
  0
INSERT
  8
_DRILL
  2
_HOLE
 10
434.200
 20
525.300
 41
0.900
 42
0.900
  0
INSERT
  8
_DRILL
  2
_HOLE
 10
440.200
 20
532.950
 41
0.900
 42
0.900
  0
INSERT
  8
_DRILL
  2
_HOLE
 10
438.200
 20
532.950
 41
0.900
 42
0.900
  0
INSERT
  8
_DRILL
  2
_HOLE
 10
436.200
 20
532.950
 41
0.900
 42
0.900
  0
INSERT
  8
_DRILL
  2
_HOLE
 10
434.200
 20
532.950
 41
0.900
 42
0.900
  0
INSERT
  8
_DRILL
  2
_HOLE
 10
440.200
 20
540.600
 41
0.900
 42
0.900
  0
INSERT
  8
_DRILL
  2
_HOLE
 10
438.200
 20
540.600
 41
0.900
 42
0.900
  0
INSERT
  8
_DRILL
  2
_HOLE
 10
436.200
 20
540.600
 41
0.900
 42
0.900
  0
INSERT
  8
_DRILL
  2
_HOLE
 10
434.200
 20
540.600
 41
0.900
 42
0.900
  0
ENDSEC
  0
EOF
