G04 DesignSpark PCB Gerber Version 12.0 Build 5942*
%FSLAX35Y35*%
%MOMM*%
%AMT72*0 Bullet Pad at angle 0*4,1,28,-0.47620,-0.37620,0.47620,-0.37620,0.47620,-0.10000,0.47240,-0.04030,0.46120,0.01840,0.44270,0.07530,0.41720,0.12940,0.38520,0.17990,0.34710,0.22600,0.30350,0.26690,0.25510,0.30200,0.20270,0.33080,0.14710,0.35280,0.08920,0.36770,0.02990,0.37520,-0.02990,0.37520,-0.08920,0.36770,-0.14710,0.35280,-0.20270,0.33080,-0.25510,0.30200,-0.30350,0.26690,-0.34710,0.22600,-0.38520,0.17990,-0.41720,0.12940,-0.44270,0.07530,-0.46120,0.01840,-0.47240,-0.04030,-0.47620,-0.10000,-0.47620,-0.37620,0*%
%ADD72T72*%
%ADD75O,1.75240X2.15240*%
%ADD24R,1.55240X1.57240*%
%ADD29C,0.95240*%
%ADD25C,1.55240*%
%ADD27C,1.67640*%
%ADD74C,1.95240*%
%ADD26R,3.15240X1.50240*%
%AMT28*0 Bullet Pad at angle 180*4,1,28,0.47620,0.37620,-0.47620,0.37620,-0.47620,0.10000,-0.47240,0.04030,-0.46120,-0.01840,-0.44270,-0.07530,-0.41720,-0.12940,-0.38520,-0.17990,-0.34710,-0.22600,-0.30350,-0.26690,-0.25510,-0.30200,-0.20270,-0.33080,-0.14710,-0.35280,-0.08920,-0.36770,-0.02990,-0.37520,0.02990,-0.37520,0.08920,-0.36770,0.14710,-0.35280,0.20270,-0.33080,0.25510,-0.30200,0.30350,-0.26690,0.34710,-0.22600,0.38520,-0.17990,0.41720,-0.12940,0.44270,-0.07530,0.46120,-0.01840,0.47240,0.04030,0.47620,0.10000,0.47620,0.37620,0*%
%ADD28T28*%
%ADD73R,1.57240X1.55240*%
X0Y0D02*
D02*
D24*
X2250240Y3365240D03*
Y4130240D03*
Y4895240D03*
D02*
D25*
X1260240Y1620240D03*
Y1820240D03*
Y2020240D03*
X2450240Y3365240D03*
Y4130240D03*
Y4895240D03*
X2650240Y3365240D03*
Y4130240D03*
Y4895240D03*
X2850240Y3365240D03*
Y4130240D03*
Y4895240D03*
X3670240Y6755240D03*
Y6955240D03*
Y7155240D03*
D02*
D26*
X2175240Y758240D03*
Y1012240D03*
Y1266240D03*
Y1520240D03*
Y1774240D03*
Y2028240D03*
Y2282240D03*
Y2536240D03*
Y2790240D03*
X3699240Y758240D03*
Y1012240D03*
Y1266240D03*
Y1520240D03*
Y1774240D03*
Y2028240D03*
D02*
D27*
X700240Y1770240D03*
Y2024240D03*
Y2278240D03*
Y2532240D03*
Y2786240D03*
Y3040240D03*
Y3294240D03*
Y3548240D03*
Y3802240D03*
Y4056240D03*
Y4310240D03*
Y4564240D03*
Y4818240D03*
Y5072240D03*
Y5326240D03*
Y5580240D03*
Y6088240D03*
Y6342240D03*
Y6596240D03*
Y6850240D03*
Y7104240D03*
Y7358240D03*
X3605240Y3875240D03*
Y4129240D03*
Y6075240D03*
Y6329240D03*
X3920240Y6071240D03*
Y6325240D03*
X3945240Y3340240D03*
Y3594240D03*
Y3875240D03*
Y4129240D03*
Y4395240D03*
Y4649240D03*
D02*
D28*
X3315240Y6170240D03*
X3365240Y3950240D03*
X4175240D03*
X4180240Y6145240D03*
D02*
D72*
X3315240Y6245240D03*
X3365240Y4025240D03*
X4175240D03*
X4180240Y6220240D03*
D02*
D73*
X1260240Y2220240D03*
X3670240Y7355240D03*
D02*
D74*
X885240Y1025240D03*
X1245240D03*
D02*
D75*
X633240Y645240D03*
X1497240D03*
X0Y0D02*
M02*
