G04 DesignSpark PCB Gerber Version 12.0 Build 5942*
%FSLAX35Y35*%
%MOMM*%
%ADD23O,1.60000X2.00000*%
%ADD17R,1.40000X1.42000*%
%ADD12C,0.25400*%
%ADD11C,0.30480*%
%ADD13C,0.80000*%
%ADD16C,1.01600*%
%ADD18C,1.40000*%
%ADD70C,1.52400*%
%ADD22C,1.80000*%
%ADD14C,2.20000*%
%ADD19R,3.00000X1.35000*%
%ADD21R,1.42000X1.40000*%
X0Y0D02*
D02*
D11*
X386120Y7579360D02*
Y391120D01*
X2325240D01*
Y650140D01*
X1984640D01*
Y704940D01*
X1964410D01*
G75*
G02*
X1924520Y720520I-2170J53300D01*
G01*
X1792520Y852520D01*
G75*
G02*
X1776900Y890240I37720J37720D01*
G01*
G75*
G02*
X1776940Y892410I53350J100D01*
G01*
Y1448100D01*
X1658100Y1566940D01*
X1357200D01*
G75*
G02*
X1149600Y1620240I-96960J53300D01*
G01*
G75*
G02*
X1212900Y1720240I110640J0D01*
G01*
G75*
G02*
Y1920240I47340J100000D01*
G01*
G75*
G02*
X1195060Y2109640I47340J100000D01*
G01*
X1148640D01*
Y2301940D01*
X1057380D01*
X812400Y2056960D01*
G75*
G02*
X817080Y2024240I-112150J-32740D01*
G01*
G75*
G02*
X583400I-116840J0D01*
G01*
G75*
G02*
X739020Y2134460I116840J0D01*
G01*
X831010Y2226450D01*
G75*
G02*
X816070Y2224940I-12780J51810D01*
G01*
X804210D01*
G75*
G02*
X583400Y2278240I-103970J53300D01*
G01*
G75*
G02*
X801350Y2336790I116840J0D01*
G01*
X1097520Y2632960D01*
G75*
G02*
X1109460Y2641940I37720J-37720D01*
G01*
X1027380D01*
X882960Y2497520D01*
G75*
G02*
X843070Y2481940I-37720J37720D01*
G01*
X805700D01*
G75*
G02*
X583400Y2532240I-105460J50300D01*
G01*
G75*
G02*
X802620Y2588540I116840J0D01*
G01*
X823100D01*
X966500Y2731940D01*
X803700D01*
G75*
G02*
X583400Y2786240I-103460J54300D01*
G01*
G75*
G02*
X804720Y2838540I116840J0D01*
G01*
X1175940D01*
G75*
G02*
X1333990Y2748540I74300J-53290D01*
G01*
X1703070D01*
G75*
G02*
X1740290Y2735450I2170J-53300D01*
G01*
G75*
G02*
X1811940Y2716980I14950J-90210D01*
G01*
Y3198100D01*
X1801280Y3208760D01*
G75*
G02*
X1801680Y3200240I-91080J-8550D01*
G01*
G75*
G02*
X1733570Y3111830I-91440J0D01*
G01*
G75*
G02*
X1810880Y2980240I-73340J-131590D01*
G01*
G75*
G02*
X1509600I-150640J0D01*
G01*
G75*
G02*
X1513250Y3013190I150630J-10D01*
G01*
X1381800Y3144640D01*
X1058680D01*
X897260Y2983220D01*
G75*
G02*
X837750Y2959640I-57020J57020D01*
G01*
X784830D01*
G75*
G02*
X583400Y3040240I-84590J80600D01*
G01*
G75*
G02*
X784830Y3120840I116840J0D01*
G01*
X806800D01*
X968220Y3282260D01*
G75*
G02*
X1027730Y3305840I57020J-57020D01*
G01*
X1412750D01*
G75*
G02*
X1472260Y3282260I2490J-80600D01*
G01*
X1627290Y3127230D01*
G75*
G02*
X1650990Y3130600I32990J-146990D01*
G01*
G75*
G02*
X1618800Y3200240I59250J69640D01*
G01*
G75*
G02*
X1620000Y3215040I91460J30D01*
G01*
X1493100Y3341940D01*
X1192410D01*
G75*
G02*
X1152520Y3357520I-2170J53300D01*
G01*
X1015100Y3494940D01*
X804210D01*
G75*
G02*
X583400Y3548240I-103970J53300D01*
G01*
G75*
G02*
X804210Y3601540I116840J0D01*
G01*
X1035070D01*
G75*
G02*
X1074960Y3585960I2170J-53300D01*
G01*
X1212380Y3448540D01*
X1513070D01*
G75*
G02*
X1552960Y3432960I2170J-53300D01*
G01*
X1695440Y3290480D01*
G75*
G02*
X1718760Y3291280I14770J-90270D01*
G01*
X1677520Y3332520D01*
G75*
G02*
X1661900Y3370240I37720J37720D01*
G01*
G75*
G02*
X1661940Y3372410I53350J100D01*
G01*
Y3603100D01*
X1633100Y3631940D01*
X1259540D01*
G75*
G02*
X1093800Y3685240I-74300J53300D01*
G01*
G75*
G02*
X1122690Y3751940I91440J0D01*
G01*
X805700D01*
G75*
G02*
X583400Y3802240I-105460J50300D01*
G01*
G75*
G02*
X802620Y3858540I116840J0D01*
G01*
X1482900D01*
X1365800Y3975640D01*
X784830D01*
G75*
G02*
X583400Y4056240I-84590J80600D01*
G01*
G75*
G02*
X784830Y4136840I116840J0D01*
G01*
X1396750D01*
G75*
G02*
X1456260Y4113260I2490J-80600D01*
G01*
X1583680Y3985840D01*
X2261800D01*
X2294600Y4018640D01*
X2139640D01*
Y4221940D01*
X2102410D01*
G75*
G02*
X2062520Y4237520I-2170J53300D01*
G01*
X1765040Y4535000D01*
G75*
G02*
X1700520Y4701980I-14800J90240D01*
G01*
G75*
G02*
X1663800Y4775240I54720J73260D01*
G01*
G75*
G02*
X1846680I91440J0D01*
G01*
G75*
G02*
X1845480Y4760440I-91470J-30D01*
G01*
X2177380Y4428540D01*
X2603070D01*
G75*
G02*
X2642960Y4412960I2170J-53300D01*
G01*
X2819420Y4236500D01*
G75*
G02*
X2903540Y4033280I30810J-106270D01*
G01*
Y3897380D01*
X3177960Y3622960D01*
G75*
G02*
X3193580Y3585240I-37720J-37720D01*
G01*
G75*
G02*
X3193540Y3583070I-53370J-100D01*
G01*
Y3006980D01*
G75*
G02*
X3196940Y3009540I56690J-71750D01*
G01*
Y4070940D01*
G75*
G02*
X3292490Y4226330I53300J74300D01*
G01*
G75*
G02*
X3283800Y4265240I82760J38910D01*
G01*
G75*
G02*
X3466680I91440J0D01*
G01*
G75*
G02*
X3428540Y4190940I-91440J0D01*
G01*
Y2899540D01*
G75*
G02*
X3463200Y2850240I-53300J-74300D01*
G01*
X3690240D01*
Y2136340D01*
X3889840D01*
Y1920140D01*
X3690240D01*
Y1882340D01*
X3889840D01*
Y1666140D01*
X3690240D01*
Y1628340D01*
X3889840D01*
Y1412140D01*
X3690240D01*
Y1374340D01*
X3889840D01*
Y1158140D01*
X3690240D01*
Y1120340D01*
X3889840D01*
Y1063540D01*
X3963100D01*
X4141940Y1242380D01*
Y6453100D01*
X3893100Y6701940D01*
X3767200D01*
G75*
G02*
X3559600Y6755240I-96960J53300D01*
G01*
G75*
G02*
X3622900Y6855240I110640J0D01*
G01*
G75*
G02*
X3573280Y6901940I47340J100010D01*
G01*
X1257380D01*
X1228540Y6873100D01*
Y5041410D01*
G75*
G02*
X1228580Y5039240I-53330J-2070D01*
G01*
G75*
G02*
X1212960Y5001520I-53340J0D01*
G01*
X811470Y4600030D01*
G75*
G02*
X817080Y4564240I-111250J-35770D01*
G01*
G75*
G02*
X583400I-116840J0D01*
G01*
G75*
G02*
X736030Y4675470I116840J0D01*
G01*
X1121940Y5061380D01*
Y6893070D01*
G75*
G02*
X1121900Y6895240I53310J2070D01*
G01*
G75*
G02*
X1137520Y6932960I53340J0D01*
G01*
X1197520Y6992960D01*
G75*
G02*
X1237410Y7008540I37720J-37720D01*
G01*
X3573280D01*
G75*
G02*
X3622900Y7055240I96960J-53310D01*
G01*
G75*
G02*
X3605060Y7244640I47340J100000D01*
G01*
X3558640D01*
Y7465840D01*
X3781840D01*
Y7244640D01*
X3735420D01*
G75*
G02*
X3717580Y7055240I-65180J-89400D01*
G01*
G75*
G02*
Y6855240I-47340J-100000D01*
G01*
G75*
G02*
X3767200Y6808540I-47340J-100010D01*
G01*
X3913070D01*
G75*
G02*
X3952960Y6792960I2170J-53300D01*
G01*
X4232960Y6512960D01*
G75*
G02*
X4248580Y6475240I-37720J-37720D01*
G01*
G75*
G02*
X4248540Y6473070I-53370J-100D01*
G01*
Y1222410D01*
G75*
G02*
X4248580Y1220240I-53330J-2070D01*
G01*
G75*
G02*
X4232960Y1182520I-53340J0D01*
G01*
X4022960Y972520D01*
G75*
G02*
X3983070Y956940I-37720J37720D01*
G01*
X3889840D01*
Y904140D01*
X3690240D01*
Y866340D01*
X3889840D01*
Y650140D01*
X3690240D01*
Y391120D01*
X4274360D01*
Y7579360D01*
X386120D01*
X501940Y5473410D02*
Y6958070D01*
G75*
G02*
X501900Y6960240I53310J2070D01*
G01*
G75*
G02*
X517520Y6997960I53340J0D01*
G01*
X588770Y7069210D01*
G75*
G02*
X583400Y7104240I111480J35020D01*
G01*
G75*
G02*
X817080I116840J0D01*
G01*
G75*
G02*
X663700Y6993260I-116840J0D01*
G01*
X608540Y6938100D01*
Y6922650D01*
G75*
G02*
X811470Y6814450I91690J-72440D01*
G01*
X962960Y6662960D01*
G75*
G02*
X978580Y6625240I-37720J-37720D01*
G01*
G75*
G02*
X978540Y6623070I-53370J-100D01*
G01*
Y6087410D01*
G75*
G02*
X978580Y6085240I-53330J-2070D01*
G01*
G75*
G02*
X962960Y6047520I-53340J0D01*
G01*
X753540Y5838100D01*
Y5684210D01*
G75*
G02*
X817080Y5580240I-53300J-103970D01*
G01*
G75*
G02*
X608540Y5507830I-116840J0D01*
G01*
Y5493380D01*
X664450Y5437470D01*
G75*
G02*
X817080Y5326240I35790J-111230D01*
G01*
G75*
G02*
X583400I-116840J0D01*
G01*
G75*
G02*
X589010Y5362030I116850J20D01*
G01*
X517520Y5433520D01*
G75*
G02*
X501900Y5471240I37720J37720D01*
G01*
G75*
G02*
X501940Y5473410I53350J100D01*
G01*
X583400Y1770240D02*
G75*
G02*
X817080I116840J0D01*
G01*
G75*
G02*
X583400I-116840J0D01*
G01*
X754600Y1025240D02*
G75*
G02*
X936400Y1145440I130640J0D01*
G01*
X986430Y1195470D01*
G75*
G02*
X819600Y1345240I-16190J149770D01*
G01*
G75*
G02*
X1120880I150640J0D01*
G01*
G75*
G02*
X1118650Y1319430I-150680J20D01*
G01*
G75*
G02*
X1152730Y1325840I31600J-74200D01*
G01*
X1497980D01*
G75*
G02*
X1775880Y1245240I127260J-80600D01*
G01*
G75*
G02*
X1497980Y1164640I-150640J0D01*
G01*
X1183680D01*
X1011770Y992730D01*
G75*
G02*
X754600Y1025240I-126530J32510D01*
G01*
X1376640Y625240D02*
Y665240D01*
G75*
G02*
X1617840I120600J0D01*
G01*
Y625240D01*
G75*
G02*
X1376640I-120600J0D01*
G01*
X1114600Y1025240D02*
G75*
G02*
X1375880I130640J0D01*
G01*
G75*
G02*
X1114600I-130640J0D01*
G01*
X583400Y3294240D02*
G75*
G02*
X817080I116840J0D01*
G01*
G75*
G02*
X583400I-116840J0D01*
G01*
Y4310240D02*
G75*
G02*
X817080I116840J0D01*
G01*
G75*
G02*
X583400I-116840J0D01*
G01*
Y4818240D02*
G75*
G02*
X817080I116840J0D01*
G01*
G75*
G02*
X583400I-116840J0D01*
G01*
Y5072240D02*
G75*
G02*
X817080I116840J0D01*
G01*
G75*
G02*
X583400I-116840J0D01*
G01*
X512640Y625240D02*
Y665240D01*
G75*
G02*
X753840I120600J0D01*
G01*
Y625240D01*
G75*
G02*
X512640I-120600J0D01*
G01*
X583400Y7358240D02*
G75*
G02*
X817080I116840J0D01*
G01*
G75*
G02*
X583400I-116840J0D01*
G01*
X3803400Y6071240D02*
G75*
G02*
X4037080I116840J0D01*
G01*
G75*
G02*
X4000840Y5986650I-116840J0D01*
G01*
Y5897730D01*
G75*
G02*
X4000880Y5895240I-80620J-2540D01*
G01*
G75*
G02*
X3977260Y5838220I-80640J0D01*
G01*
X3722260Y5583220D01*
G75*
G02*
X3662750Y5559640I-57020J57020D01*
G01*
X2823680D01*
X2530840Y5266800D01*
Y4971030D01*
G75*
G02*
X2550240Y4942580I-80590J-75790D01*
G01*
G75*
G02*
X2750240I100000J-47340D01*
G01*
G75*
G02*
X2960880Y4895240I100000J-47340D01*
G01*
G75*
G02*
X2750240Y4847900I-110640J0D01*
G01*
G75*
G02*
X2703540Y4798280I-100010J47340D01*
G01*
Y4712410D01*
G75*
G02*
X2703580Y4710240I-53330J-2070D01*
G01*
G75*
G02*
X2687960Y4672520I-53340J0D01*
G01*
X2632960Y4617520D01*
G75*
G02*
X2593070Y4601940I-37720J37720D01*
G01*
X2132410D01*
G75*
G02*
X2092520Y4617520I-2170J53300D01*
G01*
X1783100Y4926940D01*
X1562380D01*
X1495480Y4860040D01*
G75*
G02*
X1496680Y4845240I-90270J-14770D01*
G01*
G75*
G02*
X1313800I-91440J0D01*
G01*
G75*
G02*
X1420040Y4935480I91440J0D01*
G01*
X1502520Y5017960D01*
G75*
G02*
X1542410Y5033540I37720J-37720D01*
G01*
X1803070D01*
G75*
G02*
X1842960Y5017960I2170J-53300D01*
G01*
X2152380Y4708540D01*
X2573100D01*
X2596940Y4732380D01*
Y4798280D01*
G75*
G02*
X2550240Y4847900I53310J96960D01*
G01*
G75*
G02*
X2360840Y4830060I-100000J47340D01*
G01*
Y4783640D01*
X2139640D01*
Y5006840D01*
X2360840D01*
Y4960420D01*
G75*
G02*
X2369640Y4971030I89380J-65180D01*
G01*
Y5297750D01*
G75*
G02*
X2369600Y5300240I80580J2540D01*
G01*
G75*
G02*
X2393220Y5357260I80640J0D01*
G01*
X2733220Y5697260D01*
G75*
G02*
X2792730Y5720840I57020J-57020D01*
G01*
X3631800D01*
X3839640Y5928680D01*
Y5986650D01*
G75*
G02*
X3803400Y6071240I80600J84590D01*
G01*
X3828400Y3340240D02*
G75*
G02*
X4062080I116840J0D01*
G01*
G75*
G02*
X3828400I-116840J0D01*
G01*
Y3594240D02*
G75*
G02*
X4062080I116840J0D01*
G01*
G75*
G02*
X3828400I-116840J0D01*
G01*
Y3875240D02*
G75*
G02*
X4062080I116840J0D01*
G01*
G75*
G02*
X3828400I-116840J0D01*
G01*
Y4129240D02*
G75*
G02*
X4062080I116840J0D01*
G01*
G75*
G02*
X3828400I-116840J0D01*
G01*
Y4395240D02*
G75*
G02*
X4062080I116840J0D01*
G01*
G75*
G02*
X3828400I-116840J0D01*
G01*
Y4649240D02*
G75*
G02*
X4062080I116840J0D01*
G01*
G75*
G02*
X3828400I-116840J0D01*
G01*
X3488400Y3875240D02*
G75*
G02*
X3722080I116840J0D01*
G01*
G75*
G02*
X3488400I-116840J0D01*
G01*
Y4129240D02*
G75*
G02*
X3722080I116840J0D01*
G01*
G75*
G02*
X3488400I-116840J0D01*
G01*
X3803400Y6325240D02*
G75*
G02*
X4037080I116840J0D01*
G01*
G75*
G02*
X3803400I-116840J0D01*
G01*
X3488400Y6075240D02*
G75*
G02*
X3722080I116840J0D01*
G01*
G75*
G02*
X3488400I-116840J0D01*
G01*
Y6329240D02*
G75*
G02*
X3722080I116840J0D01*
G01*
G75*
G02*
X3488400I-116840J0D01*
G01*
X401360Y645240D02*
G36*
X401360Y645240D02*
Y406360D01*
X2325240D01*
Y645240D01*
X1617840D01*
Y625240D01*
G75*
G02*
X1376640I-120600J0D01*
G01*
Y645240D01*
X753840D01*
Y625240D01*
G75*
G02*
X512640I-120600J0D01*
G01*
Y645240D01*
X401360D01*
G37*
X3690240D02*
G36*
X3690240Y645240D02*
Y406360D01*
X4259120D01*
Y645240D01*
X3690240D01*
G37*
X401360Y1025240D02*
G36*
X401360Y1025240D02*
Y645240D01*
X512640D01*
Y665240D01*
G75*
G02*
X753840I120600J0D01*
G01*
Y645240D01*
X1376640D01*
Y665240D01*
G75*
G02*
X1617840I120600J0D01*
G01*
Y645240D01*
X2325240D01*
Y650140D01*
X1984640D01*
Y704940D01*
X1964410D01*
G75*
G02*
X1924520Y720520I-2180J53270D01*
G01*
X1792520Y852520D01*
G75*
G02*
X1776900Y890240I37760J37730D01*
G01*
G75*
G02*
X1776940Y892410I59450J-10D01*
G01*
Y1025240D01*
X1375880D01*
G75*
G02*
X1114600I-130640J0D01*
G01*
X1044280D01*
X1011770Y992730D01*
G75*
G02*
X754600Y1025240I-126530J32510D01*
G01*
X401360D01*
G37*
X3690240Y650140D02*
G36*
X3690240Y650140D02*
Y645240D01*
X4259120D01*
Y1025240D01*
X4075680D01*
X4022960Y972520D01*
G75*
G02*
X3983070Y956940I-37710J37690D01*
G01*
X3889840D01*
Y904140D01*
X3690240D01*
Y866340D01*
X3889840D01*
Y650140D01*
X3690240D01*
G37*
X401360Y1195240D02*
G36*
X401360Y1195240D02*
Y1025240D01*
X754600D01*
G75*
G02*
X936400Y1145440I130640J0D01*
G01*
X986200Y1195240D01*
X984140D01*
G75*
G02*
X956340I-13900J150040D01*
G01*
X401360D01*
G37*
X1044280Y1025240D02*
G36*
X1044280Y1025240D02*
X1114600D01*
G75*
G02*
X1375880I130640J0D01*
G01*
X1776940D01*
Y1195240D01*
X1767340D01*
G75*
G02*
X1497980Y1164640I-142100J50000D01*
G01*
X1183680D01*
X1044280Y1025240D01*
G37*
X3690240Y1158140D02*
G36*
X3690240Y1158140D02*
Y1120340D01*
X3889840D01*
Y1063540D01*
X3963100D01*
X4094800Y1195240D01*
X3889840D01*
Y1158140D01*
X3690240D01*
G37*
X4232960Y1182520D02*
G36*
X4232960Y1182520D02*
X4075680Y1025240D01*
X4259120D01*
Y1195240D01*
X4242360D01*
G75*
G02*
X4232960Y1182520I-47150J25010D01*
G01*
G37*
X401360Y1770240D02*
G36*
X401360Y1770240D02*
Y1195240D01*
X956340D01*
G75*
G02*
X819600Y1345240I13900J150000D01*
G01*
G75*
G02*
X1120880I150640J0D01*
G01*
G75*
G02*
X1118650Y1319430I-150950J40D01*
G01*
G75*
G02*
X1152730Y1325840I31580J-74120D01*
G01*
X1497980D01*
G75*
G02*
X1775880Y1245240I127260J-80600D01*
G01*
G75*
G02*
X1767340Y1195240I-150660J0D01*
G01*
X1776940D01*
Y1448100D01*
X1658100Y1566940D01*
X1357200D01*
G75*
G02*
X1149600Y1620240I-96960J53300D01*
G01*
G75*
G02*
X1212900Y1720240I110640J0D01*
G01*
G75*
G02*
X1161540Y1770240I47340J100010D01*
G01*
X817080D01*
G75*
G02*
X583400I-116840J0D01*
G01*
X401360D01*
G37*
X984140Y1195240D02*
G36*
X984140Y1195240D02*
X986200D01*
X986430Y1195470D01*
G75*
G02*
X984140Y1195240I-16190J149660D01*
G01*
G37*
X3690240Y1412140D02*
G36*
X3690240Y1412140D02*
Y1374340D01*
X3889840D01*
Y1195240D01*
X4094800D01*
X4141940Y1242380D01*
Y1770240D01*
X3889840D01*
Y1666140D01*
X3690240D01*
Y1628340D01*
X3889840D01*
Y1412140D01*
X3690240D01*
G37*
X4248540Y1770240D02*
G36*
X4248540Y1770240D02*
Y1222410D01*
G75*
G02*
X4248580Y1220250I-58320J-2160D01*
G01*
G75*
G02*
Y1220240I-63660J0D01*
G01*
G75*
G02*
X4242360Y1195240I-53380J10D01*
G01*
X4259120D01*
Y1770240D01*
X4248540D01*
G37*
X401360Y3294240D02*
G36*
X401360Y3294240D02*
Y1770240D01*
X583400D01*
G75*
G02*
X817080I116840J0D01*
G01*
X1161540D01*
G75*
G02*
X1149600Y1820240I98700J50000D01*
G01*
G75*
G02*
X1212900Y1920240I110640J0D01*
G01*
G75*
G02*
X1149600Y2020240I47340J100000D01*
G01*
G75*
G02*
X1195060Y2109640I110640J0D01*
G01*
X1148640D01*
Y2301940D01*
X1057380D01*
X812400Y2056960D01*
G75*
G02*
X817080Y2024240I-112400J-32770D01*
G01*
G75*
G02*
X583400I-116840J0D01*
G01*
G75*
G02*
X739020Y2134460I116840J0D01*
G01*
X831010Y2226450D01*
G75*
G02*
X816070Y2224940I-12820J52160D01*
G01*
X804210D01*
G75*
G02*
X583400Y2278230I-103970J53290D01*
G01*
G75*
G02*
Y2278240I286480J10D01*
G01*
G75*
G02*
X801350Y2336790I116840J0D01*
G01*
X1097520Y2632960D01*
G75*
G02*
X1109460Y2641940I37570J-37530D01*
G01*
X1027380D01*
X882960Y2497520D01*
G75*
G02*
X843070Y2481940I-37710J37690D01*
G01*
X805700D01*
G75*
G02*
X583400Y2532240I-105460J50300D01*
G01*
G75*
G02*
X802620Y2588540I116840J0D01*
G01*
X823100D01*
X966500Y2731940D01*
X803700D01*
G75*
G02*
X583400Y2786240I-103460J54300D01*
G01*
G75*
G02*
X804720Y2838540I116840J0D01*
G01*
X1175940D01*
G75*
G02*
X1341680Y2785250I74300J-53290D01*
G01*
G75*
G02*
X1333990Y2748540I-91440J-10D01*
G01*
X1703070D01*
G75*
G02*
X1740290Y2735450I2150J-53350D01*
G01*
G75*
G02*
X1811940Y2716980I14960J-90160D01*
G01*
Y3198100D01*
X1801280Y3208760D01*
G75*
G02*
X1801680Y3200240I-90690J-8530D01*
G01*
G75*
G02*
X1733570Y3111830I-91430J0D01*
G01*
G75*
G02*
X1810880Y2980240I-73350J-131600D01*
G01*
G75*
G02*
X1509600I-150640J0D01*
G01*
G75*
G02*
X1513250Y3013190I151260J-80D01*
G01*
X1381800Y3144640D01*
X1058680D01*
X897260Y2983220D01*
G75*
G02*
X837750Y2959640I-57000J56980D01*
G01*
X784830D01*
G75*
G02*
X583400Y3040240I-84590J80600D01*
G01*
G75*
G02*
X784830Y3120840I116840J0D01*
G01*
X806800D01*
X968220Y3282260D01*
G75*
G02*
X983510Y3294240I57020J-57030D01*
G01*
X817080D01*
G75*
G02*
X583400I-116840J0D01*
G01*
X401360D01*
G37*
X1456970D02*
G36*
X1456970Y3294240D02*
G75*
G02*
X1472260Y3282260I-41730J-69010D01*
G01*
X1627290Y3127230D01*
G75*
G02*
X1650990Y3130600I32820J-145790D01*
G01*
G75*
G02*
X1618800Y3200240I59260J69650D01*
G01*
G75*
G02*
X1620000Y3215040I91850J0D01*
G01*
X1540800Y3294240D01*
X1456970D01*
G37*
X1691680D02*
G36*
X1691680Y3294240D02*
X1695440Y3290480D01*
G75*
G02*
X1718760Y3291280I14760J-89850D01*
G01*
X1715800Y3294240D01*
X1691680D01*
G37*
X3193540D02*
G36*
X3193540Y3294240D02*
Y3006980D01*
G75*
G02*
X3196940Y3009540I50320J-63300D01*
G01*
Y3294240D01*
X3193540D01*
G37*
X3428540D02*
G36*
X3428540Y3294240D02*
Y2899540D01*
G75*
G02*
X3463200Y2850240I-53250J-74270D01*
G01*
X3690240D01*
Y2136340D01*
X3889840D01*
Y1920140D01*
X3690240D01*
Y1882340D01*
X3889840D01*
Y1770240D01*
X4141940D01*
Y3294240D01*
X4052640D01*
G75*
G02*
X3837840I-107400J46000D01*
G01*
X3428540D01*
G37*
X4248540D02*
G36*
X4248540Y3294240D02*
Y1770240D01*
X4259120D01*
Y3294240D01*
X4248540D01*
G37*
X401360Y3594240D02*
G36*
X401360Y3594240D02*
Y3294240D01*
X583400D01*
G75*
G02*
X817080I116840J0D01*
G01*
X983510D01*
G75*
G02*
X1027730Y3305840I41730J-69000D01*
G01*
X1412750D01*
G75*
G02*
X1456970Y3294240I2490J-80600D01*
G01*
X1540800D01*
X1493100Y3341940D01*
X1192410D01*
G75*
G02*
X1152520Y3357520I-2180J53270D01*
G01*
X1015100Y3494940D01*
X804210D01*
G75*
G02*
X583400Y3548230I-103970J53290D01*
G01*
G75*
G02*
Y3548240I286480J10D01*
G01*
G75*
G02*
Y3548250I286480J10D01*
G01*
G75*
G02*
X592830Y3594240I116830J10D01*
G01*
X401360D01*
G37*
X1064250D02*
G36*
X1064250Y3594240D02*
G75*
G02*
X1074960Y3585960I-27000J-45990D01*
G01*
X1212380Y3448540D01*
X1513070D01*
G75*
G02*
X1552960Y3432960I2180J-53270D01*
G01*
X1691680Y3294240D01*
X1715800D01*
X1677520Y3332520D01*
G75*
G02*
X1661900Y3370240I37760J37730D01*
G01*
G75*
G02*
X1661940Y3372410I59450J-10D01*
G01*
Y3594240D01*
X1194190D01*
G75*
G02*
X1176290I-8950J90970D01*
G01*
X1064250D01*
G37*
X3193540Y3583070D02*
G36*
X3193540Y3583070D02*
Y3294240D01*
X3196940D01*
Y3594240D01*
X3192810D01*
G75*
G02*
X3193580Y3585240I-52610J-9030D01*
G01*
G75*
G02*
Y3585230I-63660J0D01*
G01*
G75*
G02*
X3193540Y3583070I-58360J0D01*
G01*
G37*
X3428540Y3594240D02*
G36*
X3428540Y3594240D02*
Y3294240D01*
X3837840D01*
G75*
G02*
X3828400Y3340240I107410J46010D01*
G01*
G75*
G02*
X4062080I116840J0D01*
G01*
G75*
G02*
X4052640Y3294240I-116850J10D01*
G01*
X4141940D01*
Y3594240D01*
X4062080D01*
G75*
G02*
X3828400I-116840J0D01*
G01*
X3428540D01*
G37*
X4248540D02*
G36*
X4248540Y3594240D02*
Y3294240D01*
X4259120D01*
Y3594240D01*
X4248540D01*
G37*
X401360Y3875240D02*
G36*
X401360Y3875240D02*
Y3594240D01*
X592830D01*
G75*
G02*
X804210Y3601540I107400J-46000D01*
G01*
X1035070D01*
G75*
G02*
X1064250Y3594240I2180J-53270D01*
G01*
X1176290D01*
G75*
G02*
X1093800Y3685240I8950J91000D01*
G01*
G75*
G02*
X1122690Y3751940I91440J0D01*
G01*
X805700D01*
G75*
G02*
X583400Y3802240I-105460J50300D01*
G01*
G75*
G02*
X609010Y3875240I116840J0D01*
G01*
X401360D01*
G37*
X791470D02*
G36*
X791470Y3875240D02*
G75*
G02*
X802620Y3858540I-91240J-72990D01*
G01*
X1482900D01*
X1466200Y3875240D01*
X791470D01*
G37*
X1259540Y3631940D02*
G36*
X1259540Y3631940D02*
G75*
G02*
X1194190Y3594240I-74300J53310D01*
G01*
X1661940D01*
Y3603100D01*
X1633100Y3631940D01*
X1259540D01*
G37*
X2925680Y3875240D02*
G36*
X2925680Y3875240D02*
X3177960Y3622960D01*
G75*
G02*
X3192810Y3594240I-37760J-37720D01*
G01*
X3196940D01*
Y3875240D01*
X2925680D01*
G37*
X3428540D02*
G36*
X3428540Y3875240D02*
Y3594240D01*
X3828400D01*
G75*
G02*
X4062080I116840J0D01*
G01*
X4141940D01*
Y3875240D01*
X4062080D01*
G75*
G02*
X3828400I-116840J0D01*
G01*
X3722080D01*
G75*
G02*
X3488400I-116840J0D01*
G01*
X3428540D01*
G37*
X4248540D02*
G36*
X4248540Y3875240D02*
Y3594240D01*
X4259120D01*
Y3875240D01*
X4248540D01*
G37*
X401360Y4129240D02*
G36*
X401360Y4129240D02*
Y3875240D01*
X609010D01*
G75*
G02*
X791470I91230J-73000D01*
G01*
X1466200D01*
X1365800Y3975640D01*
X784830D01*
G75*
G02*
X583400Y4056240I-84590J80600D01*
G01*
G75*
G02*
X609010Y4129240I116850J0D01*
G01*
X401360D01*
G37*
X1433500D02*
G36*
X1433500Y4129240D02*
G75*
G02*
X1456260Y4113260I-34260J-72990D01*
G01*
X1583680Y3985840D01*
X2261800D01*
X2294600Y4018640D01*
X2139640D01*
Y4129240D01*
X1433500D01*
G37*
X2903540Y4033280D02*
G36*
X2903540Y4033280D02*
Y3897380D01*
X2925680Y3875240D01*
X3196940D01*
Y4070940D01*
G75*
G02*
X3160210Y4129240I53300J74300D01*
G01*
X2960870D01*
G75*
G02*
X2903540Y4033280I-110640J990D01*
G01*
G37*
X3428540Y4129240D02*
G36*
X3428540Y4129240D02*
Y3875240D01*
X3488400D01*
G75*
G02*
X3722080I116840J0D01*
G01*
X3828400D01*
G75*
G02*
X4062080I116840J0D01*
G01*
X4141940D01*
Y4129240D01*
X4062080D01*
G75*
G02*
X3828400I-116840J0D01*
G01*
X3722080D01*
G75*
G02*
X3488400I-116840J0D01*
G01*
X3428540D01*
G37*
X4248540D02*
G36*
X4248540Y4129240D02*
Y3875240D01*
X4259120D01*
Y4129240D01*
X4248540D01*
G37*
X401360Y4310240D02*
G36*
X401360Y4310240D02*
Y4129240D01*
X609010D01*
G75*
G02*
X784830Y4136840I91230J-73000D01*
G01*
X1396750D01*
G75*
G02*
X1433500Y4129240I2490J-80600D01*
G01*
X2139640D01*
Y4221940D01*
X2102410D01*
G75*
G02*
X2062520Y4237520I-2180J53270D01*
G01*
X1989800Y4310240D01*
X817080D01*
G75*
G02*
X583400I-116840J0D01*
G01*
X401360D01*
G37*
X2745680D02*
G36*
X2745680Y4310240D02*
X2819420Y4236500D01*
G75*
G02*
X2960870Y4130230I30810J-106270D01*
G01*
G75*
G02*
Y4129240I-110350J-490D01*
G01*
X3160210D01*
G75*
G02*
X3158800Y4145240I90050J16000D01*
G01*
G75*
G02*
X3292490Y4226330I91440J0D01*
G01*
G75*
G02*
X3283800Y4265240I82850J38930D01*
G01*
G75*
G02*
X3295640Y4310240I91440J0D01*
G01*
X2745680D01*
G37*
X3428540Y4190940D02*
G36*
X3428540Y4190940D02*
Y4129240D01*
X3488400D01*
G75*
G02*
X3722080I116840J0D01*
G01*
X3828400D01*
G75*
G02*
X4062080I116840J0D01*
G01*
X4141940D01*
Y4310240D01*
X4025410D01*
G75*
G02*
X3865070I-80170J85000D01*
G01*
X3454840D01*
G75*
G02*
X3466680Y4265240I-79600J-45000D01*
G01*
G75*
G02*
Y4265230I-114590J0D01*
G01*
G75*
G02*
X3428540Y4190940I-91420J0D01*
G01*
G37*
X4248540Y4310240D02*
G36*
X4248540Y4310240D02*
Y4129240D01*
X4259120D01*
Y4310240D01*
X4248540D01*
G37*
X401360Y4649240D02*
G36*
X401360Y4649240D02*
Y4310240D01*
X583400D01*
G75*
G02*
X817080I116840J0D01*
G01*
X1989800D01*
X1765040Y4535000D01*
G75*
G02*
X1658800Y4625240I-14800J90240D01*
G01*
G75*
G02*
X1662000Y4649240I91420J20D01*
G01*
X860680D01*
X811470Y4600030D01*
G75*
G02*
X817080Y4564250I-111310J-35780D01*
G01*
G75*
G02*
Y4564240I-286480J0D01*
G01*
G75*
G02*
X583400I-116840J0D01*
G01*
G75*
G02*
X620070Y4649240I116850J0D01*
G01*
X401360D01*
G37*
X2060800D02*
G36*
X2060800Y4649240D02*
X1956680D01*
X2177380Y4428540D01*
X2603070D01*
G75*
G02*
X2642960Y4412960I2180J-53270D01*
G01*
X2745680Y4310240D01*
X3295640D01*
G75*
G02*
X3454840I79600J-45000D01*
G01*
X3865070D01*
G75*
G02*
X3828400Y4395240I80170J85000D01*
G01*
G75*
G02*
X4062080I116840J0D01*
G01*
G75*
G02*
X4025410Y4310240I-116840J0D01*
G01*
X4141940D01*
Y4649240D01*
X4062080D01*
G75*
G02*
X3828400I-116840J0D01*
G01*
X2664680D01*
X2632960Y4617520D01*
G75*
G02*
X2593070Y4601940I-37710J37690D01*
G01*
X2132410D01*
G75*
G02*
X2092520Y4617520I-2180J53270D01*
G01*
X2060800Y4649240D01*
G37*
X4248540D02*
G36*
X4248540Y4649240D02*
Y4310240D01*
X4259120D01*
Y4649240D01*
X4248540D01*
G37*
X401360Y4818240D02*
G36*
X401360Y4818240D02*
Y4649240D01*
X620070D01*
G75*
G02*
X736030Y4675470I80170J-85010D01*
G01*
X878800Y4818240D01*
X817080D01*
G75*
G02*
X583400I-116840J0D01*
G01*
X401360D01*
G37*
X1029680D02*
G36*
X1029680Y4818240D02*
X860680Y4649240D01*
X1662000D01*
G75*
G02*
X1700520Y4701980I88240J-24010D01*
G01*
G75*
G02*
X1663800Y4775230I54700J73250D01*
G01*
G75*
G02*
Y4775240I143240J10D01*
G01*
G75*
G02*
X1674540Y4818240I91440J0D01*
G01*
X1492600D01*
G75*
G02*
X1317880I-87360J27000D01*
G01*
X1029680D01*
G37*
X1835940D02*
G36*
X1835940Y4818240D02*
G75*
G02*
X1846680Y4775240I-80700J-43000D01*
G01*
G75*
G02*
X1845480Y4760440I-91850J0D01*
G01*
X1956680Y4649240D01*
X2060800D01*
X1891800Y4818240D01*
X1835940D01*
G37*
X2139640Y4783640D02*
G36*
X2139640Y4783640D02*
Y4818240D01*
X2042680D01*
X2152380Y4708540D01*
X2573100D01*
X2596940Y4732380D01*
Y4798280D01*
G75*
G02*
X2570790Y4818240I53310J96950D01*
G01*
X2529690D01*
G75*
G02*
X2370790I-79450J77000D01*
G01*
X2360840D01*
Y4783640D01*
X2139640D01*
G37*
X2687960Y4672520D02*
G36*
X2687960Y4672520D02*
X2664680Y4649240D01*
X3828400D01*
G75*
G02*
X4062080I116840J0D01*
G01*
X4141940D01*
Y4818240D01*
X2929690D01*
G75*
G02*
X2770790I-79450J77000D01*
G01*
X2729690D01*
G75*
G02*
X2703540Y4798280I-79450J76980D01*
G01*
Y4712410D01*
G75*
G02*
X2703580Y4710250I-58320J-2160D01*
G01*
G75*
G02*
Y4710240I-63660J0D01*
G01*
G75*
G02*
X2687960Y4672520I-53380J10D01*
G01*
G37*
X4248540Y4818240D02*
G36*
X4248540Y4818240D02*
Y4649240D01*
X4259120D01*
Y4818240D01*
X4248540D01*
G37*
X401360Y5072240D02*
G36*
X401360Y5072240D02*
Y4818240D01*
X583400D01*
G75*
G02*
X817080I116840J0D01*
G01*
X878800D01*
X1121940Y5061380D01*
Y5072240D01*
X817080D01*
G75*
G02*
X583400I-116840J0D01*
G01*
X401360D01*
G37*
X1212960Y5001520D02*
G36*
X1212960Y5001520D02*
X1029680Y4818240D01*
X1317880D01*
G75*
G02*
X1313800Y4845240I87360J27010D01*
G01*
G75*
G02*
Y4845250I71620J10D01*
G01*
G75*
G02*
X1420040Y4935480I91440J0D01*
G01*
X1502520Y5017960D01*
G75*
G02*
X1542410Y5033540I37710J-37690D01*
G01*
X1803070D01*
G75*
G02*
X1842960Y5017960I2180J-53270D01*
G01*
X2042680Y4818240D01*
X2139640D01*
Y5006840D01*
X2360840D01*
Y4960420D01*
G75*
G02*
X2369640Y4971030I88560J-64490D01*
G01*
Y5072240D01*
X1228540D01*
Y5041410D01*
G75*
G02*
X1228580Y5039250I-58320J-2160D01*
G01*
G75*
G02*
Y5039240I-63660J0D01*
G01*
G75*
G02*
X1212960Y5001520I-53380J10D01*
G01*
G37*
X1496680Y4845240D02*
G36*
X1496680Y4845240D02*
G75*
G02*
X1492600Y4818240I-91440J10D01*
G01*
X1674540D01*
G75*
G02*
X1835940I80700J-43000D01*
G01*
X1891800D01*
X1783100Y4926940D01*
X1562380D01*
X1495480Y4860040D01*
G75*
G02*
X1496680Y4845260I-90400J-14780D01*
G01*
G75*
G02*
Y4845240I-81850J-10D01*
G01*
G37*
X2360840Y4830060D02*
G36*
X2360840Y4830060D02*
Y4818240D01*
X2370790D01*
G75*
G02*
X2360840Y4830060I79460J76980D01*
G01*
G37*
X2530840Y5072240D02*
G36*
X2530840Y5072240D02*
Y4971030D01*
G75*
G02*
X2550240Y4942580I-80590J-75790D01*
G01*
G75*
G02*
X2750240I100000J-47340D01*
G01*
G75*
G02*
X2960880Y4895240I100000J-47340D01*
G01*
G75*
G02*
X2929690Y4818240I-110640J0D01*
G01*
X4141940D01*
Y5072240D01*
X2530840D01*
G37*
X2550240Y4847900D02*
G36*
X2550240Y4847900D02*
G75*
G02*
X2529690Y4818240I-100000J47340D01*
G01*
X2570790D01*
G75*
G02*
X2550240Y4847900I79460J77000D01*
G01*
G37*
X2750240D02*
G36*
X2750240Y4847900D02*
G75*
G02*
X2729690Y4818240I-100000J47340D01*
G01*
X2770790D01*
G75*
G02*
X2750240Y4847900I79450J77000D01*
G01*
G37*
X4248540Y5072240D02*
G36*
X4248540Y5072240D02*
Y4818240D01*
X4259120D01*
Y5072240D01*
X4248540D01*
G37*
X401360Y6075240D02*
G36*
X401360Y6075240D02*
Y5072240D01*
X583400D01*
G75*
G02*
X817080I116840J0D01*
G01*
X1121940D01*
Y6075240D01*
X977630D01*
G75*
G02*
X962960Y6047520I-52430J10000D01*
G01*
X753540Y5838100D01*
Y5684210D01*
G75*
G02*
X817080Y5580240I-53290J-103970D01*
G01*
G75*
G02*
Y5580230I-190990J0D01*
G01*
G75*
G02*
X608540Y5507830I-116840J0D01*
G01*
Y5493380D01*
X664450Y5437470D01*
G75*
G02*
X817080Y5326240I35780J-111230D01*
G01*
G75*
G02*
X583400I-116840J0D01*
G01*
G75*
G02*
Y5326250I286480J10D01*
G01*
G75*
G02*
X589010Y5362030I116920J0D01*
G01*
X517520Y5433520D01*
G75*
G02*
X501900Y5471240I37760J37730D01*
G01*
G75*
G02*
X501940Y5473410I59450J-10D01*
G01*
Y6075240D01*
X401360D01*
G37*
X1228540D02*
G36*
X1228540Y6075240D02*
Y5072240D01*
X2369640D01*
Y5297750D01*
G75*
G02*
X2369600Y5300230I76910J2480D01*
G01*
G75*
G02*
Y5300240I81850J10D01*
G01*
G75*
G02*
X2393220Y5357260I80650J-10D01*
G01*
X2733220Y5697260D01*
G75*
G02*
X2792730Y5720840I57020J-57020D01*
G01*
X3631800D01*
X3839640Y5928680D01*
Y5986650D01*
G75*
G02*
X3803400Y6071240I80600J84590D01*
G01*
G75*
G02*
X3803470Y6075240I116890J-50D01*
G01*
X3722080D01*
G75*
G02*
X3488400I-116840J0D01*
G01*
X1228540D01*
G37*
X2530840Y5266800D02*
G36*
X2530840Y5266800D02*
Y5072240D01*
X4141940D01*
Y6075240D01*
X4037010D01*
G75*
G02*
X4037080Y6071240I-116820J-4050D01*
G01*
G75*
G02*
X4000840Y5986650I-116840J0D01*
G01*
Y5897730D01*
G75*
G02*
X4000880Y5895250I-76910J-2480D01*
G01*
G75*
G02*
Y5895240I-81850J0D01*
G01*
G75*
G02*
X3977260Y5838220I-80650J10D01*
G01*
X3722260Y5583220D01*
G75*
G02*
X3662750Y5559640I-57000J56980D01*
G01*
X2823680D01*
X2530840Y5266800D01*
G37*
X4248540Y6075240D02*
G36*
X4248540Y6075240D02*
Y5072240D01*
X4259120D01*
Y6075240D01*
X4248540D01*
G37*
X401360Y6215240D02*
G36*
X401360Y6215240D02*
Y6075240D01*
X501940D01*
Y6215240D01*
X401360D01*
G37*
X978540D02*
G36*
X978540Y6215240D02*
Y6087410D01*
G75*
G02*
X978580Y6085250I-58320J-2160D01*
G01*
G75*
G02*
Y6085240I-63660J0D01*
G01*
G75*
G02*
X977630Y6075240I-53380J30D01*
G01*
X1121940D01*
Y6215240D01*
X978540D01*
G37*
X1228540D02*
G36*
X1228540Y6215240D02*
Y6075240D01*
X3488400D01*
G75*
G02*
X3722080I116840J0D01*
G01*
X3803470D01*
G75*
G02*
X4037010I116770J-4000D01*
G01*
X4141940D01*
Y6215240D01*
X3959630D01*
G75*
G02*
X3880850I-39390J110000D01*
G01*
X3630840D01*
G75*
G02*
X3579640I-25600J113980D01*
G01*
X1228540D01*
G37*
X4248540D02*
G36*
X4248540Y6215240D02*
Y6075240D01*
X4259120D01*
Y6215240D01*
X4248540D01*
G37*
X401360Y6325240D02*
G36*
X401360Y6325240D02*
Y6215240D01*
X501940D01*
Y6325240D01*
X401360D01*
G37*
X978540D02*
G36*
X978540Y6325240D02*
Y6215240D01*
X1121940D01*
Y6325240D01*
X978540D01*
G37*
X1228540D02*
G36*
X1228540Y6325240D02*
Y6215240D01*
X3579640D01*
G75*
G02*
X3488470Y6325240I25600J114000D01*
G01*
X1228540D01*
G37*
X3722010D02*
G36*
X3722010Y6325240D02*
G75*
G02*
X3630840Y6215240I-116770J4000D01*
G01*
X3880850D01*
G75*
G02*
X3803400Y6325240I39390J110000D01*
G01*
X3722010D01*
G37*
X4037080D02*
G36*
X4037080Y6325240D02*
G75*
G02*
X3959630Y6215240I-116840J0D01*
G01*
X4141940D01*
Y6325240D01*
X4037080D01*
G37*
X4248540D02*
G36*
X4248540Y6325240D02*
Y6215240D01*
X4259120D01*
Y6325240D01*
X4248540D01*
G37*
X401360Y7358240D02*
G36*
X401360Y7358240D02*
Y6325240D01*
X501940D01*
Y6958070D01*
G75*
G02*
X501900Y6960230I58320J2160D01*
G01*
G75*
G02*
Y6960240I63660J10D01*
G01*
G75*
G02*
X517520Y6997960I53380J-10D01*
G01*
X588770Y7069210D01*
G75*
G02*
X583400Y7104240I111560J35030D01*
G01*
G75*
G02*
X817080I116840J0D01*
G01*
G75*
G02*
X663700Y6993260I-116840J0D01*
G01*
X608540Y6938100D01*
Y6922650D01*
G75*
G02*
X817080Y6850210I91690J-72440D01*
G01*
G75*
G02*
X811470Y6814450I-116840J10D01*
G01*
X962960Y6662960D01*
G75*
G02*
X978580Y6625240I-37760J-37730D01*
G01*
G75*
G02*
Y6625230I-63660J0D01*
G01*
G75*
G02*
X978540Y6623070I-58360J0D01*
G01*
Y6325240D01*
X1121940D01*
Y6893070D01*
G75*
G02*
X1121900Y6895230I58320J2160D01*
G01*
G75*
G02*
Y6895240I63660J10D01*
G01*
G75*
G02*
X1137520Y6932960I53380J-10D01*
G01*
X1197520Y6992960D01*
G75*
G02*
X1237410Y7008540I37710J-37690D01*
G01*
X3573280D01*
G75*
G02*
X3622900Y7055240I96950J-53310D01*
G01*
G75*
G02*
X3559600Y7155240I47340J100000D01*
G01*
G75*
G02*
X3605060Y7244640I110640J0D01*
G01*
X3558640D01*
Y7358240D01*
X817080D01*
G75*
G02*
X583400I-116840J0D01*
G01*
X401360D01*
G37*
X1228540Y6873100D02*
G36*
X1228540Y6873100D02*
Y6325240D01*
X3488470D01*
G75*
G02*
X3488400Y6329240I116820J4050D01*
G01*
G75*
G02*
X3722080I116840J0D01*
G01*
G75*
G02*
X3722010Y6325240I-116890J50D01*
G01*
X3803400D01*
G75*
G02*
X4037080I116840J0D01*
G01*
X4141940D01*
Y6453100D01*
X3893100Y6701940D01*
X3767200D01*
G75*
G02*
X3559600Y6755240I-96960J53300D01*
G01*
G75*
G02*
X3622900Y6855240I110640J0D01*
G01*
G75*
G02*
X3573280Y6901940I47330J100000D01*
G01*
X1257380D01*
X1228540Y6873100D01*
G37*
X3717580Y6855240D02*
G36*
X3717580Y6855240D02*
G75*
G02*
X3767200Y6808540I-47330J-100000D01*
G01*
X3913070D01*
G75*
G02*
X3952960Y6792960I2180J-53270D01*
G01*
X4232960Y6512960D01*
G75*
G02*
X4248580Y6475240I-37760J-37730D01*
G01*
G75*
G02*
Y6475230I-63660J0D01*
G01*
G75*
G02*
X4248540Y6473070I-58360J0D01*
G01*
Y6325240D01*
X4259120D01*
Y7358240D01*
X3781840D01*
Y7244640D01*
X3735420D01*
G75*
G02*
X3780880Y7155240I-65180J-89400D01*
G01*
G75*
G02*
X3717580Y7055240I-110640J0D01*
G01*
G75*
G02*
X3780880Y6955240I-47340J-100000D01*
G01*
G75*
G02*
X3717580Y6855240I-110640J0D01*
G01*
G37*
X401360Y7564120D02*
G36*
X401360Y7564120D02*
Y7358240D01*
X583400D01*
G75*
G02*
X817080I116840J0D01*
G01*
X3558640D01*
Y7465840D01*
X3781840D01*
Y7358240D01*
X4259120D01*
Y7564120D01*
X401360D01*
G37*
X608540Y6015830D02*
Y5652650D01*
G75*
G02*
X646940Y5684210I91680J-72410D01*
G01*
Y5858070D01*
G75*
G02*
X646900Y5860240I53310J2070D01*
G01*
G75*
G02*
X662520Y5897960I53340J0D01*
G01*
X744780Y5980220D01*
G75*
G02*
X608540Y6015830I-44540J108010D01*
G01*
G36*
X608540Y6015830D02*
Y5652650D01*
G75*
G02*
X646940Y5684210I91680J-72410D01*
G01*
Y5858070D01*
G75*
G02*
X646900Y5860240I53310J2070D01*
G01*
G75*
G02*
X662520Y5897960I53340J0D01*
G01*
X744780Y5980220D01*
G75*
G02*
X608540Y6015830I-44540J108010D01*
G01*
G37*
Y6777830D02*
Y6668650D01*
G75*
G02*
X817080Y6596240I91700J-72410D01*
G01*
G75*
G02*
X608540Y6523830I-116840J0D01*
G01*
Y6414650D01*
G75*
G02*
X817080Y6342240I91700J-72410D01*
G01*
G75*
G02*
X608540Y6269830I-116840J0D01*
G01*
Y6160650D01*
G75*
G02*
X808260Y6043700I91700J-72410D01*
G01*
X871940Y6107380D01*
Y6603100D01*
X736030Y6739010D01*
G75*
G02*
X608540Y6777830I-35790J111230D01*
G01*
G36*
X608540Y6777830D02*
Y6668650D01*
G75*
G02*
X817080Y6596240I91700J-72410D01*
G01*
G75*
G02*
X608540Y6523830I-116840J0D01*
G01*
Y6414650D01*
G75*
G02*
X817080Y6342240I91700J-72410D01*
G01*
G75*
G02*
X608540Y6269830I-116840J0D01*
G01*
Y6160650D01*
G75*
G02*
X808260Y6043700I91700J-72410D01*
G01*
X871940Y6107380D01*
Y6603100D01*
X736030Y6739010D01*
G75*
G02*
X608540Y6777830I-35790J111230D01*
G01*
G37*
X1307580Y1920240D02*
G75*
G02*
X1357200Y1873540I-47340J-100010D01*
G01*
X1693070D01*
G75*
G02*
X1732960Y1857960I2170J-53300D01*
G01*
X1972960Y1617960D01*
G75*
G02*
X1984640Y1600370I-37720J-37720D01*
G01*
Y1628340D01*
X2325240D01*
Y1666140D01*
X1984640D01*
Y1720940D01*
X1927410D01*
G75*
G02*
X1887520Y1736520I-2170J53300D01*
G01*
X1827520Y1796520D01*
G75*
G02*
X1811900Y1834240I37720J37720D01*
G01*
G75*
G02*
X1811940Y1836410I53350J100D01*
G01*
Y2346620D01*
G75*
G02*
X1716390Y2347940I-46700J78620D01*
G01*
G75*
G02*
X1550940Y2301940I-91150J7300D01*
G01*
X1371840D01*
Y2109640D01*
X1325420D01*
G75*
G02*
X1307580Y1920240I-65180J-89400D01*
G01*
G36*
X1307580Y1920240D02*
G75*
G02*
X1357200Y1873540I-47340J-100010D01*
G01*
X1693070D01*
G75*
G02*
X1732960Y1857960I2170J-53300D01*
G01*
X1972960Y1617960D01*
G75*
G02*
X1984640Y1600370I-37720J-37720D01*
G01*
Y1628340D01*
X2325240D01*
Y1666140D01*
X1984640D01*
Y1720940D01*
X1927410D01*
G75*
G02*
X1887520Y1736520I-2170J53300D01*
G01*
X1827520Y1796520D01*
G75*
G02*
X1811900Y1834240I37720J37720D01*
G01*
G75*
G02*
X1811940Y1836410I53350J100D01*
G01*
Y2346620D01*
G75*
G02*
X1716390Y2347940I-46700J78620D01*
G01*
G75*
G02*
X1550940Y2301940I-91150J7300D01*
G01*
X1371840D01*
Y2109640D01*
X1325420D01*
G75*
G02*
X1307580Y1920240I-65180J-89400D01*
G01*
G37*
X1713980Y3701940D02*
X1752960Y3662960D01*
G75*
G02*
X1768580Y3625240I-37720J-37720D01*
G01*
G75*
G02*
X1768540Y3623070I-53370J-100D01*
G01*
Y3392380D01*
X1806940Y3353980D01*
Y3495940D01*
G75*
G02*
X1768800Y3570240I53300J74300D01*
G01*
G75*
G02*
X1930240Y3629070I91440J0D01*
G01*
G75*
G02*
X2091680Y3570240I70000J-58830D01*
G01*
G75*
G02*
X2053540Y3495940I-91440J0D01*
G01*
Y3302380D01*
X2212960Y3142960D01*
G75*
G02*
X2228580Y3105240I-37720J-37720D01*
G01*
G75*
G02*
X2228540Y3103070I-53370J-100D01*
G01*
Y2898340D01*
X2365840D01*
Y2850240D01*
X2511010D01*
G75*
G02*
X2546940Y2944540I89230J20000D01*
G01*
Y3150940D01*
G75*
G02*
X2556940Y3305780I53300J74300D01*
G01*
G75*
G02*
X2550240Y3317900I93280J59480D01*
G01*
G75*
G02*
X2360840Y3300060I-100000J47340D01*
G01*
Y3253640D01*
X2139640D01*
Y3476840D01*
X2360840D01*
Y3430420D01*
G75*
G02*
X2550240Y3412580I89400J-65180D01*
G01*
G75*
G02*
X2596940Y3462200I100010J-47340D01*
G01*
Y3563100D01*
X2458100Y3701940D01*
X1713980D01*
G36*
X1713980Y3701940D02*
X1752960Y3662960D01*
G75*
G02*
X1768580Y3625240I-37720J-37720D01*
G01*
G75*
G02*
X1768540Y3623070I-53370J-100D01*
G01*
Y3392380D01*
X1806940Y3353980D01*
Y3495940D01*
G75*
G02*
X1768800Y3570240I53300J74300D01*
G01*
G75*
G02*
X1930240Y3629070I91440J0D01*
G01*
G75*
G02*
X2091680Y3570240I70000J-58830D01*
G01*
G75*
G02*
X2053540Y3495940I-91440J0D01*
G01*
Y3302380D01*
X2212960Y3142960D01*
G75*
G02*
X2228580Y3105240I-37720J-37720D01*
G01*
G75*
G02*
X2228540Y3103070I-53370J-100D01*
G01*
Y2898340D01*
X2365840D01*
Y2850240D01*
X2511010D01*
G75*
G02*
X2546940Y2944540I89230J20000D01*
G01*
Y3150940D01*
G75*
G02*
X2556940Y3305780I53300J74300D01*
G01*
G75*
G02*
X2550240Y3317900I93280J59480D01*
G01*
G75*
G02*
X2360840Y3300060I-100000J47340D01*
G01*
Y3253640D01*
X2139640D01*
Y3476840D01*
X2360840D01*
Y3430420D01*
G75*
G02*
X2550240Y3412580I89400J-65180D01*
G01*
G75*
G02*
X2596940Y3462200I100010J-47340D01*
G01*
Y3563100D01*
X2458100Y3701940D01*
X1713980D01*
G37*
X1910240Y1723050D02*
Y1680680D01*
X1972960Y1617960D01*
G75*
G02*
X1984640Y1600370I-37720J-37720D01*
G01*
Y1628340D01*
X2365840D01*
Y1412140D01*
X1988540D01*
Y1374340D01*
X2365840D01*
Y1158140D01*
X1988540D01*
Y1120340D01*
X2365840D01*
Y904140D01*
X1984640D01*
Y958940D01*
X1950730D01*
G75*
G02*
X1910510Y974510I-2490J53300D01*
G01*
X1910240Y974780D01*
Y885680D01*
X1984380Y811540D01*
X1984640D01*
Y866340D01*
X2365840D01*
Y650140D01*
X1984640D01*
Y704940D01*
X1964410D01*
G75*
G02*
X1924520Y720520I-2170J53300D01*
G01*
X1910240Y734800D01*
Y391120D01*
X3925240D01*
Y956940D01*
X3889840D01*
Y904140D01*
X3508640D01*
Y1120340D01*
X3889840D01*
Y1063540D01*
X3925240D01*
Y2265240D01*
X3108680D01*
X3087960Y2244520D01*
G75*
G02*
X3048070Y2228940I-37720J37720D01*
G01*
X2515590D01*
G75*
G02*
X2529540Y2213540I-60350J-68680D01*
G01*
X3135940D01*
G75*
G02*
X3301680Y2160240I74300J-53300D01*
G01*
G75*
G02*
X3135940Y2106940I-91440J0D01*
G01*
X2529540D01*
G75*
G02*
X2364860Y2174140I-74300J53310D01*
G01*
X1984640D01*
Y2265240D01*
X1918540D01*
Y1856380D01*
X1947380Y1827540D01*
X1984640D01*
Y1882340D01*
X2365840D01*
Y1666140D01*
X1984640D01*
Y1720940D01*
X1927410D01*
G75*
G02*
X1910240Y1723050I-2160J53300D01*
G01*
X3508640Y866340D02*
X3889840D01*
Y650140D01*
X3508640D01*
Y866340D01*
Y1374340D02*
X3889840D01*
Y1158140D01*
X3508640D01*
Y1374340D01*
Y1628340D02*
X3889840D01*
Y1412140D01*
X3508640D01*
Y1628340D01*
Y1882340D02*
X3889840D01*
Y1666140D01*
X3508640D01*
Y1882340D01*
Y2136340D02*
X3889840D01*
Y1920140D01*
X3508640D01*
Y2136340D01*
X2567520Y1647960D02*
X2641940Y1722380D01*
Y1940940D01*
G75*
G02*
X2603800Y2015240I53300J74300D01*
G01*
G75*
G02*
X2771560Y2065610I91440J0D01*
G01*
G75*
G02*
X2931680Y2005240I68680J-60370D01*
G01*
G75*
G02*
X2893540Y1930940I-91440J0D01*
G01*
Y1432410D01*
G75*
G02*
X2893580Y1430240I-53330J-2070D01*
G01*
G75*
G02*
X2877960Y1392520I-53340J0D01*
G01*
X2845480Y1360040D01*
G75*
G02*
X2846680Y1345240I-90270J-14770D01*
G01*
G75*
G02*
X2667790Y1318540I-91440J0D01*
G01*
G75*
G02*
X2513800Y1385240I-62550J66700D01*
G01*
G75*
G02*
X2551940Y1459540I91440J0D01*
G01*
Y1608070D01*
G75*
G02*
X2551900Y1610240I53310J2070D01*
G01*
G75*
G02*
X2567520Y1647960I53340J0D01*
G01*
X1984640Y2136340D02*
X2365840D01*
Y1920140D01*
X1984640D01*
Y2136340D01*
X1925480Y719580D02*
G36*
X1925480Y719580D02*
Y406360D01*
X3910000D01*
Y758240D01*
X3889840D01*
Y650140D01*
X3508640D01*
Y758240D01*
X2365840D01*
Y650140D01*
X1984640D01*
Y704940D01*
X1964410D01*
G75*
G02*
X1925480Y719580I-2180J53270D01*
G01*
G37*
Y963980D02*
G36*
X1925480Y963980D02*
Y870440D01*
X1984380Y811540D01*
X1984640D01*
Y866340D01*
X2365840D01*
Y758240D01*
X3508640D01*
Y866340D01*
X3889840D01*
Y758240D01*
X3910000D01*
Y956940D01*
X3889840D01*
Y904140D01*
X3508640D01*
Y1120340D01*
X3889840D01*
Y1063540D01*
X3910000D01*
Y1266240D01*
X3889840D01*
Y1158140D01*
X3508640D01*
Y1266240D01*
X2801270D01*
G75*
G02*
X2709210I-46030J79000D01*
G01*
X2365840D01*
Y1158140D01*
X1988540D01*
Y1120340D01*
X2365840D01*
Y904140D01*
X1984640D01*
Y958940D01*
X1950730D01*
G75*
G02*
X1925480Y963980I-2490J53310D01*
G01*
G37*
X1988540Y1412140D02*
G36*
X1988540Y1412140D02*
Y1374340D01*
X2365840D01*
Y1266240D01*
X2709210D01*
G75*
G02*
X2667790Y1318540I46030J79010D01*
G01*
G75*
G02*
X2513800Y1385240I-62550J66700D01*
G01*
G75*
G02*
Y1385250I114590J10D01*
G01*
G75*
G02*
X2551940Y1459540I91420J0D01*
G01*
Y1520240D01*
X2365840D01*
Y1412140D01*
X1988540D01*
G37*
X2846680Y1345240D02*
G36*
X2846680Y1345240D02*
G75*
G02*
X2801270Y1266240I-91440J10D01*
G01*
X3508640D01*
Y1374340D01*
X3889840D01*
Y1266240D01*
X3910000D01*
Y1520240D01*
X3889840D01*
Y1412140D01*
X3508640D01*
Y1520240D01*
X2893540D01*
Y1432410D01*
G75*
G02*
X2893580Y1430250I-58320J-2160D01*
G01*
G75*
G02*
Y1430240I-63660J0D01*
G01*
G75*
G02*
X2877960Y1392520I-53380J10D01*
G01*
X2845480Y1360040D01*
G75*
G02*
X2846680Y1345260I-90400J-14780D01*
G01*
G75*
G02*
Y1345240I-81850J-10D01*
G01*
G37*
X1925480Y1720890D02*
G36*
X1925480Y1720890D02*
Y1665440D01*
X1972960Y1617960D01*
G75*
G02*
X1984640Y1600370I-37650J-37680D01*
G01*
Y1628340D01*
X2365840D01*
Y1520240D01*
X2551940D01*
Y1608070D01*
G75*
G02*
X2551900Y1610230I58320J2160D01*
G01*
G75*
G02*
Y1610240I63660J10D01*
G01*
G75*
G02*
X2567520Y1647960I53380J-10D01*
G01*
X2641940Y1722380D01*
Y1774240D01*
X2365840D01*
Y1666140D01*
X1984640D01*
Y1720940D01*
X1927410D01*
G75*
G02*
X1925480Y1720890I-2340J53010D01*
G01*
G37*
X2893540Y1774240D02*
G36*
X2893540Y1774240D02*
Y1520240D01*
X3508640D01*
Y1628340D01*
X3889840D01*
Y1520240D01*
X3910000D01*
Y1774240D01*
X3889840D01*
Y1666140D01*
X3508640D01*
Y1774240D01*
X2893540D01*
G37*
X1925480Y2028240D02*
G36*
X1925480Y2028240D02*
Y1849440D01*
X1947380Y1827540D01*
X1984640D01*
Y1882340D01*
X2365840D01*
Y1774240D01*
X2641940D01*
Y1940940D01*
G75*
G02*
X2603800Y2015230I53280J74290D01*
G01*
G75*
G02*
Y2015240I114590J10D01*
G01*
G75*
G02*
X2604730Y2028240I91450J-10D01*
G01*
X2365840D01*
Y1920140D01*
X1984640D01*
Y2028240D01*
X1925480D01*
G37*
X2893540Y1930940D02*
G36*
X2893540Y1930940D02*
Y1774240D01*
X3508640D01*
Y1882340D01*
X3889840D01*
Y1774240D01*
X3910000D01*
Y2028240D01*
X3889840D01*
Y1920140D01*
X3508640D01*
Y2028240D01*
X2928740D01*
G75*
G02*
X2931680Y2005240I-88510J-23000D01*
G01*
G75*
G02*
Y2005230I-114590J0D01*
G01*
G75*
G02*
X2893540Y1930940I-91420J0D01*
G01*
G37*
X1925480Y2250000D02*
G36*
X1925480Y2250000D02*
Y2028240D01*
X1984640D01*
Y2136340D01*
X2365840D01*
Y2028240D01*
X2604730D01*
G75*
G02*
X2771560Y2065610I90510J-13000D01*
G01*
G75*
G02*
X2928740Y2028240I68680J-60370D01*
G01*
X3508640D01*
Y2136340D01*
X3889840D01*
Y2028240D01*
X3910000D01*
Y2250000D01*
X3227680D01*
G75*
G02*
X3301680Y2160240I-17440J-89760D01*
G01*
G75*
G02*
X3135940Y2106940I-91440J0D01*
G01*
X2529540D01*
G75*
G02*
X2363800Y2160260I-74290J53320D01*
G01*
G75*
G02*
X2364860Y2174140I91420J0D01*
G01*
X1984640D01*
Y2250000D01*
X1925480D01*
G37*
X2515590Y2228940D02*
G36*
X2515590Y2228940D02*
G75*
G02*
X2529540Y2213540I-60500J-68820D01*
G01*
X3135940D01*
G75*
G02*
X3192790Y2250000I74300J-53300D01*
G01*
X3093440D01*
X3087960Y2244520D01*
G75*
G02*
X3048070Y2228940I-37710J37690D01*
G01*
X2515590D01*
G37*
X1988540Y1412140D02*
Y1374340D01*
X2325240D01*
Y1412140D01*
X1988540D01*
G36*
X1988540Y1412140D02*
Y1374340D01*
X2325240D01*
Y1412140D01*
X1988540D01*
G37*
D02*
D12*
X636740Y1770240D02*
X583400D01*
X636740Y3294240D02*
X583400D01*
X636740Y4310240D02*
X583400D01*
X700240Y1706740D02*
Y1653400D01*
Y1833740D02*
Y1887080D01*
Y2278240D02*
X818240D01*
X1135240Y2595240D01*
X1595240D01*
X1765240Y2425240D01*
X700240Y2532240D02*
Y2535240D01*
X845240D01*
X1005240Y2695240D01*
X1705240D01*
X1755240Y2645240D01*
X700240Y3230740D02*
Y3177400D01*
Y3357740D02*
Y3411080D01*
Y3548240D02*
X1037240D01*
X1190240Y3395240D01*
X1515240D01*
X1710240Y3200240D01*
X700240Y3802240D02*
X754240D01*
X757240Y3805240D01*
X1485240D01*
X1535240Y3755240D01*
X2480240D01*
X2650240Y3585240D01*
Y3365240D01*
X700240Y4246740D02*
Y4193400D01*
Y4373740D02*
Y4427080D01*
Y5326240D02*
X555240Y5471240D01*
Y6960240D01*
X699240Y7104240D01*
X700240D01*
Y5580240D02*
Y5860240D01*
X925240Y6085240D01*
Y6625240D01*
X700240Y6850240D01*
Y6024740D02*
Y5971400D01*
Y6151740D02*
Y6205080D01*
Y6278740D02*
Y6225400D01*
Y6405740D02*
Y6459080D01*
X763740Y1770240D02*
X817080D01*
X763740Y3294240D02*
X817080D01*
X763740Y4310240D02*
X817080D01*
X763740Y6088240D02*
X817080D01*
X763740Y6342240D02*
X817080D01*
X872940Y1345240D02*
X819600D01*
X970240Y1247940D02*
Y1194600D01*
Y1442540D02*
Y1495880D01*
X1067540Y1345240D02*
X1120880D01*
X1167940Y1025240D02*
X1114600D01*
X1185240Y3685240D02*
X1655240D01*
X1715240Y3625240D01*
Y3370240D01*
X1865240Y3220240D01*
Y1834240D01*
X1925240Y1774240D01*
X2175240D01*
X1201940Y2220240D02*
X1148640D01*
X1245240Y947940D02*
Y894600D01*
Y1102540D02*
Y1155880D01*
X1250240Y2785240D02*
X701240D01*
X700240Y2786240D01*
X1318540Y2220240D02*
X1371840D01*
X1322540Y1025240D02*
X1375880D01*
X1625240Y2355240D02*
X1035240D01*
X704240Y2024240D01*
X700240D01*
X1750240Y4625240D02*
X2100240Y4275240D01*
X2600240D01*
X2650240Y4225240D01*
Y4130240D01*
X1755240Y4775240D02*
X2155240Y4375240D01*
X2605240D01*
X2850240Y4130240D01*
X2000240Y3570240D02*
Y3280240D01*
X2175240Y3105240D01*
Y2790240D01*
Y758240D02*
X1962240D01*
X1830240Y890240D01*
Y1470240D01*
X1680240Y1620240D01*
X1260240D01*
X2175240Y1012240D02*
X1948240D01*
X1935240Y1025240D01*
Y1580240D01*
X1695240Y1820240D01*
X1260240D01*
X2175240Y1465440D02*
Y1412140D01*
Y1465440D02*
Y1412140D01*
Y1575040D02*
Y1628340D01*
Y1575040D02*
Y1628340D01*
Y2536240D02*
X1995240D01*
X1951240Y2580240D01*
Y3229240D01*
X1860240Y3320240D01*
Y3570240D01*
X2192940Y3365240D02*
X2139640D01*
X2192940Y4130240D02*
X2139640D01*
X2192940Y4895240D02*
X2139640D01*
X2250240Y3306940D02*
Y3253640D01*
Y3423540D02*
Y3476840D01*
Y4071940D02*
Y4018640D01*
Y4836940D02*
Y4783640D01*
Y4953540D02*
Y5006840D01*
X2312540Y1520240D02*
X2365840D01*
X2455240Y2160240D02*
X3210240D01*
X2600240Y3225240D02*
Y2870240D01*
X2650240Y4130240D02*
Y3870240D01*
X2710240Y3810240D01*
X2785240D01*
X3035240Y3560240D01*
Y2450240D01*
X2960240Y2375240D01*
X2555240D01*
X2650240Y4895240D02*
Y4710240D01*
X2595240Y4655240D01*
X2130240D01*
X1805240Y4980240D01*
X1540240D01*
X1405240Y4845240D01*
X2695240Y2015240D02*
Y1700240D01*
X2605240Y1610240D01*
Y1385240D01*
X2840240Y2005240D02*
Y1430240D01*
X2755240Y1345240D01*
X2850240Y3155240D02*
Y2870240D01*
Y4130240D02*
Y3875240D01*
X3140240Y3585240D01*
Y2372240D01*
X3050240Y2282240D01*
X2175240D01*
X3250240Y4145240D02*
Y2935240D01*
X3375240Y4265240D02*
Y2825240D01*
X3541740Y4129240D02*
X3488400D01*
X3561940Y758240D02*
X3508640D01*
X3605240Y4065740D02*
Y4012400D01*
Y4192740D02*
Y4246080D01*
X3611940Y7355240D02*
X3558640D01*
X3668740Y4129240D02*
X3722080D01*
X3670240Y6755240D02*
X3915240D01*
X4195240Y6475240D01*
Y1220240D01*
X3985240Y1010240D01*
X3716240D01*
X3714240Y1012240D01*
X3699240D01*
X3670240Y6955240D02*
X1235240D01*
X1175240Y6895240D01*
Y5039240D01*
X700240Y4564240D01*
X3670240Y7412540D02*
Y7465840D01*
X3699240Y703440D02*
Y650140D01*
Y703440D02*
Y650140D01*
Y813040D02*
Y866340D01*
Y813040D02*
Y866340D01*
X3728540Y7355240D02*
X3781840D01*
X3836540Y758240D02*
X3889840D01*
X3836540D02*
X3889840D01*
X3881740Y4649240D02*
X3828400D01*
X3945240Y4585740D02*
Y4532400D01*
Y4712740D02*
Y4766080D01*
X4008740Y4649240D02*
X4062080D01*
D02*
D13*
X700240Y1770240D02*
Y1615240D01*
X970240Y1345240D01*
X700240Y3040240D02*
X840240D01*
X1025240Y3225240D01*
X1415240D01*
X1660240Y2980240D01*
X700240Y4056240D02*
X1399240D01*
X1550240Y3905240D01*
X2295240D01*
X2450240Y4060240D01*
Y4130240D01*
X700240Y4310240D02*
X880240D01*
X935240Y4365240D01*
X1480240D01*
X1715240Y4130240D01*
X2250240D01*
X1625240Y1245240D02*
X1150240D01*
X930240Y1025240D01*
X885240D01*
X2450240Y4895240D02*
Y5300240D01*
X2790240Y5640240D01*
X3665240D01*
X3920240Y5895240D01*
Y6071240D01*
D02*
D14*
X970240Y1345240D03*
X1625240Y1245240D03*
X1660240Y2980240D03*
D02*
D16*
X1185240Y3685240D03*
X1250240Y2785240D03*
X1405240Y4845240D03*
X1625240Y2355240D03*
X1710240Y3200240D03*
X1750240Y4625240D03*
X1755240Y2645240D03*
Y4775240D03*
X1765240Y2425240D03*
X1860240Y3570240D03*
X2000240D03*
X2455240Y2160240D03*
X2555240Y2375240D03*
X2600240Y2870240D03*
Y3225240D03*
X2605240Y1385240D03*
X2695240Y2015240D03*
X2755240Y1345240D03*
X2840240Y2005240D03*
X2850240Y2870240D03*
Y3155240D03*
X3210240Y2160240D03*
X3250240Y2935240D03*
Y4145240D03*
X3375240Y2825240D03*
Y4265240D03*
D02*
D17*
X2250240Y3365240D03*
Y4130240D03*
Y4895240D03*
D02*
D18*
X1260240Y1620240D03*
Y1820240D03*
Y2020240D03*
X2450240Y3365240D03*
Y4130240D03*
Y4895240D03*
X2650240Y3365240D03*
Y4130240D03*
Y4895240D03*
X2850240Y3365240D03*
Y4130240D03*
Y4895240D03*
X3670240Y6755240D03*
Y6955240D03*
Y7155240D03*
D02*
D19*
X2175240Y758240D03*
Y1012240D03*
Y1266240D03*
Y1520240D03*
Y1774240D03*
Y2028240D03*
Y2282240D03*
Y2536240D03*
Y2790240D03*
X3699240Y758240D03*
Y1012240D03*
Y1266240D03*
Y1520240D03*
Y1774240D03*
Y2028240D03*
D02*
D70*
X700240Y1770240D03*
Y2024240D03*
Y2278240D03*
Y2532240D03*
Y2786240D03*
Y3040240D03*
Y3294240D03*
Y3548240D03*
Y3802240D03*
Y4056240D03*
Y4310240D03*
Y4564240D03*
Y4818240D03*
Y5072240D03*
Y5326240D03*
Y5580240D03*
Y6088240D03*
Y6342240D03*
Y6596240D03*
Y6850240D03*
Y7104240D03*
Y7358240D03*
X3605240Y3875240D03*
Y4129240D03*
Y6075240D03*
Y6329240D03*
X3920240Y6071240D03*
Y6325240D03*
X3945240Y3340240D03*
Y3594240D03*
Y3875240D03*
Y4129240D03*
Y4395240D03*
Y4649240D03*
D02*
D21*
X1260240Y2220240D03*
X3670240Y7355240D03*
D02*
D22*
X885240Y1025240D03*
X1245240D03*
D02*
D23*
X633240Y645240D03*
X1497240D03*
X0Y0D02*
M02*
