G04 DesignSpark PCB Gerber Version 12.0 Build 5942*
%FSLAX35Y35*%
%MOMM*%
%AMT20*0 Bullet Pad at angle 0*4,1,26,-0.40000,-0.30000,0.40000,-0.30000,0.40000,-0.10000,0.39630,-0.04550,0.38520,0.00800,0.36690,0.05940,0.34180,0.10790,0.31030,0.15250,0.27300,0.19240,0.23060,0.22680,0.18400,0.25520,0.13390,0.27690,0.08130,0.29160,0.02720,0.29900,-0.02740,0.29900,-0.08150,0.29160,-0.13410,0.27690,-0.18420,0.25510,-0.23080,0.22670,-0.27310,0.19220,-0.31030,0.15230,-0.34180,0.10770,-0.36690,0.05920,-0.38520,0.00780,-0.39630,-0.04570,-0.40000,-0.10000,-0.40000,-0.30000,0*%
%ADD20T20*%
%ADD23O,1.60000X2.00000*%
%ADD17R,1.40000X1.42000*%
%ADD12C,0.25400*%
%ADD11C,0.30480*%
%ADD15C,0.60000*%
%ADD13C,0.80000*%
%ADD16C,1.01600*%
%ADD18C,1.40000*%
%ADD70C,1.52400*%
%ADD22C,1.80000*%
%ADD14C,2.20000*%
%ADD19R,3.00000X1.35000*%
%AMT71*0 Bullet Pad at angle 180*4,1,26,0.40000,0.30000,-0.40000,0.30000,-0.40000,0.10000,-0.39630,0.04550,-0.38520,-0.00800,-0.36690,-0.05940,-0.34180,-0.10790,-0.31030,-0.15250,-0.27300,-0.19240,-0.23060,-0.22680,-0.18400,-0.25520,-0.13390,-0.27690,-0.08130,-0.29160,-0.02720,-0.29900,0.02740,-0.29900,0.08150,-0.29160,0.13410,-0.27690,0.18420,-0.25510,0.23080,-0.22670,0.27310,-0.19220,0.31030,-0.15230,0.34180,-0.10770,0.36690,-0.05920,0.38520,-0.00780,0.39630,0.04570,0.40000,0.10000,0.40000,0.30000,0*%
%ADD71T71*%
%ADD21R,1.42000X1.40000*%
X0Y0D02*
D02*
D11*
X386120Y7579360D02*
Y6388000D01*
G75*
G02*
X403220Y6413260I74120J-31760D01*
G01*
X583430Y6593470D01*
G75*
G02*
X583400Y6596240I116850J2650D01*
G01*
G75*
G02*
X817080I116840J0D01*
G01*
G75*
G02*
X697470Y6479430I-116840J0D01*
G01*
X674180Y6456140D01*
G75*
G02*
X817080Y6342240I26060J-113900D01*
G01*
G75*
G02*
X583400I-116840J0D01*
G01*
G75*
G02*
X586340Y6368300I116820J20D01*
G01*
X540840Y6322800D01*
Y4143680D01*
X547680Y4136840D01*
X615650D01*
G75*
G02*
X817080Y4056240I84590J-80600D01*
G01*
G75*
G02*
X615650Y3975640I-116840J0D01*
G01*
X540840D01*
Y1528680D01*
X553680Y1515840D01*
X731800D01*
X834640Y1618680D01*
Y1687750D01*
G75*
G02*
X834600Y1690240I80580J2540D01*
G01*
G75*
G02*
X858220Y1747260I80640J0D01*
G01*
X974640Y1863680D01*
Y1902750D01*
G75*
G02*
X974600Y1905240I80580J2540D01*
G01*
G75*
G02*
X998220Y1962260I80640J0D01*
G01*
X1113220Y2077260D01*
G75*
G02*
X1172730Y2100840I57020J-57020D01*
G01*
X1184450D01*
G75*
G02*
X1195060Y2109640I75790J-80580D01*
G01*
X1148640D01*
Y2330840D01*
X1371840D01*
Y2109640D01*
X1325420D01*
G75*
G02*
X1307580Y1920240I-65180J-89400D01*
G01*
G75*
G02*
Y1720240I-47340J-100000D01*
G01*
G75*
G02*
X1260240Y1509600I-47340J-100000D01*
G01*
G75*
G02*
X1212900Y1720240I0J110640D01*
G01*
G75*
G02*
Y1920240I47340J100000D01*
G01*
G75*
G02*
X1194950Y1930910I47310J100020D01*
G01*
X1135840Y1871800D01*
Y1832730D01*
G75*
G02*
X1135880Y1830240I-80620J-2540D01*
G01*
G75*
G02*
X1112260Y1773220I-80640J0D01*
G01*
X995840Y1656800D01*
Y1587730D01*
G75*
G02*
X995880Y1585240I-80620J-2540D01*
G01*
G75*
G02*
X972260Y1528220I-80640J0D01*
G01*
X935970Y1491930D01*
G75*
G02*
X1120880Y1345240I34270J-146690D01*
G01*
G75*
G02*
X819600I-150640J0D01*
G01*
G75*
G02*
X823550Y1379510I150640J0D01*
G01*
X822260Y1378220D01*
G75*
G02*
X762750Y1354640I-57020J57020D01*
G01*
X714880D01*
X727260Y1342260D01*
G75*
G02*
X750880Y1285240I-57020J-57020D01*
G01*
G75*
G02*
X750840Y1282750I-80660J50D01*
G01*
Y1273680D01*
X869580Y1154940D01*
G75*
G02*
X1015880Y1025240I15660J-129700D01*
G01*
G75*
G02*
X754600I-130640J0D01*
G01*
G75*
G02*
X755540Y1040900I130650J20D01*
G01*
X613220Y1183220D01*
G75*
G02*
X589600Y1240240I57020J57020D01*
G01*
G75*
G02*
X589640Y1242730I80620J-50D01*
G01*
Y1251800D01*
X403220Y1438220D01*
G75*
G02*
X386120Y1463480I57020J57020D01*
G01*
Y391120D01*
X2335240D01*
Y650140D01*
X1984640D01*
Y866340D01*
X2335240D01*
Y904140D01*
X1984640D01*
Y1120340D01*
X2335240D01*
Y1158140D01*
X1984640D01*
Y1185640D01*
X1929580D01*
G75*
G02*
X1872330Y1164640I-54340J59600D01*
G01*
X1752500D01*
G75*
G02*
X1474600Y1245240I-127260J80600D01*
G01*
G75*
G02*
X1752500Y1325840I150640J0D01*
G01*
X1840980D01*
G75*
G02*
X1895240Y1346840I54260J-59600D01*
G01*
X1984640D01*
Y1374340D01*
X2335240D01*
Y1412140D01*
X1984640D01*
Y1586940D01*
X1927410D01*
G75*
G02*
X1887520Y1602520I-2170J53300D01*
G01*
X1587520Y1902520D01*
G75*
G02*
X1571900Y1940240I37720J37720D01*
G01*
G75*
G02*
X1571940Y1942410I53350J100D01*
G01*
Y2280940D01*
G75*
G02*
X1674090Y2432540I53300J74300D01*
G01*
G75*
G02*
X1856680Y2425240I91150J-7300D01*
G01*
G75*
G02*
X1818540Y2350940I-91440J0D01*
G01*
Y1997380D01*
X1862380Y1953540D01*
X1984640D01*
Y2106940D01*
X1977410D01*
G75*
G02*
X1937520Y2122520I-2170J53300D01*
G01*
X1887520Y2172520D01*
G75*
G02*
X1871900Y2210240I37720J37720D01*
G01*
G75*
G02*
X1871940Y2212410I53350J100D01*
G01*
Y2448100D01*
X1765650Y2554390D01*
G75*
G02*
X1663800Y2645240I-10410J90850D01*
G01*
G75*
G02*
X1846680I91440J0D01*
G01*
G75*
G02*
X1844680Y2626240I-91430J20D01*
G01*
X1962960Y2507960D01*
G75*
G02*
X1978580Y2470240I-37720J-37720D01*
G01*
G75*
G02*
X1978540Y2468070I-53370J-100D01*
G01*
Y2232380D01*
X1984640Y2226280D01*
Y2390340D01*
X2335240D01*
Y2428140D01*
X1984640D01*
Y2644340D01*
X2335240D01*
Y2682140D01*
X1984640D01*
Y2898340D01*
X2365840D01*
Y2835240D01*
X2515760D01*
G75*
G02*
X2530720Y2929640I84480J35000D01*
G01*
X1963680D01*
X1957260Y2923220D01*
G75*
G02*
X1897750Y2899640I-57020J57020D01*
G01*
X1787500D01*
G75*
G02*
X1509600Y2980240I-127260J80600D01*
G01*
G75*
G02*
X1650990Y3130600I150640J0D01*
G01*
G75*
G02*
X1618800Y3200240I59250J69640D01*
G01*
G75*
G02*
X1784540Y3253540I91440J0D01*
G01*
X2373070D01*
G75*
G02*
X2412960Y3237960I2170J-53300D01*
G01*
X2487380Y3163540D01*
X2532750D01*
G75*
G02*
X2556940Y3305780I67490J61700D01*
G01*
G75*
G02*
X2550240Y3317900I93280J59480D01*
G01*
G75*
G02*
X2360840Y3300060I-100000J47340D01*
G01*
Y3253640D01*
X2139640D01*
Y3476840D01*
X2360840D01*
Y3430420D01*
G75*
G02*
X2369640Y3441030I89380J-65180D01*
G01*
Y3492750D01*
G75*
G02*
X2369600Y3495240I80580J2540D01*
G01*
G75*
G02*
X2369640Y3497730I80620J-50D01*
G01*
Y4054450D01*
G75*
G02*
X2360840Y4065060I80580J75790D01*
G01*
Y4018640D01*
X2139640D01*
Y4241840D01*
X2360840D01*
Y4195420D01*
G75*
G02*
X2369640Y4206030I89380J-65180D01*
G01*
Y4819450D01*
G75*
G02*
X2360840Y4830060I80580J75790D01*
G01*
Y4783640D01*
X2139640D01*
Y5006840D01*
X2360840D01*
Y4960420D01*
G75*
G02*
X2550240Y4942580I89400J-65180D01*
G01*
G75*
G02*
X2750240I100000J-47340D01*
G01*
G75*
G02*
X2947200Y4948540I100000J-47340D01*
G01*
X3318070D01*
G75*
G02*
X3357960Y4932960I2170J-53300D01*
G01*
X3412960Y4877960D01*
G75*
G02*
X3428580Y4840240I-37720J-37720D01*
G01*
G75*
G02*
X3428540Y4838070I-53370J-100D01*
G01*
Y4339540D01*
G75*
G02*
X3332990Y4184150I-53300J-74300D01*
G01*
G75*
G02*
X3341680Y4145240I-82760J-38910D01*
G01*
G75*
G02*
X3158800I-91440J0D01*
G01*
G75*
G02*
X3196940Y4219540I91440J0D01*
G01*
Y4493100D01*
X3123100Y4566940D01*
X2702410D01*
G75*
G02*
X2662520Y4582520I-2170J53300D01*
G01*
X2612520Y4632520D01*
G75*
G02*
X2596900Y4670240I37720J37720D01*
G01*
G75*
G02*
X2596940Y4672410I53350J100D01*
G01*
Y4798280D01*
G75*
G02*
X2550240Y4847900I53310J96960D01*
G01*
G75*
G02*
X2530840Y4819450I-99990J47340D01*
G01*
Y4206030D01*
G75*
G02*
X2550240Y4177580I-80590J-75790D01*
G01*
G75*
G02*
X2750240I100000J-47340D01*
G01*
G75*
G02*
X2960880Y4130240I100000J-47340D01*
G01*
G75*
G02*
X2750240Y4082900I-110640J0D01*
G01*
G75*
G02*
X2550240I-100000J47340D01*
G01*
G75*
G02*
X2530840Y4054450I-99990J47340D01*
G01*
Y3655880D01*
G75*
G02*
X2532730Y3655840I-760J-80650D01*
G01*
X3517750D01*
G75*
G02*
X3577260Y3632260I2490J-80600D01*
G01*
X3788680Y3420840D01*
X3860650D01*
G75*
G02*
X4062080Y3340240I84590J-80600D01*
G01*
G75*
G02*
X3860650Y3259640I-116840J0D01*
G01*
X3757730D01*
G75*
G02*
X3698220Y3283220I-2490J80600D01*
G01*
X3486800Y3494640D01*
X2563680D01*
X2530840Y3461800D01*
Y3441030D01*
G75*
G02*
X2550240Y3412580I-80590J-75790D01*
G01*
G75*
G02*
X2750240I100000J-47340D01*
G01*
G75*
G02*
X2960880Y3365240I100000J-47340D01*
G01*
G75*
G02*
X2903540Y3268280I-110650J0D01*
G01*
Y3229540D01*
G75*
G02*
X2915150Y3090840I-53300J-74300D01*
G01*
X2981800D01*
X3033220Y3142260D01*
G75*
G02*
X3092730Y3165840I57020J-57020D01*
G01*
X3702750D01*
G75*
G02*
X3762260Y3142260I2490J-80600D01*
G01*
X3887260Y3017260D01*
G75*
G02*
X3910880Y2960240I-57020J-57020D01*
G01*
G75*
G02*
X3910840Y2957750I-80660J50D01*
G01*
Y2292730D01*
G75*
G02*
X3910880Y2290240I-80620J-2540D01*
G01*
G75*
G02*
X3887260Y2233220I-80640J0D01*
G01*
X3790380Y2136340D01*
X3889840D01*
Y1920140D01*
X3670240D01*
Y1882340D01*
X3889840D01*
Y1666140D01*
X3670240D01*
Y1628340D01*
X3889840D01*
Y1412140D01*
X3670240D01*
Y1374340D01*
X3889840D01*
Y1158140D01*
X3670240D01*
Y1120340D01*
X3889840D01*
Y904140D01*
X3670240D01*
Y866340D01*
X3889840D01*
Y650140D01*
X3670240D01*
Y391120D01*
X4274360D01*
Y7579360D01*
X386120D01*
X583400Y6850240D02*
G75*
G02*
X817080I116840J0D01*
G01*
G75*
G02*
X583400I-116840J0D01*
G01*
Y7104240D02*
G75*
G02*
X817080I116840J0D01*
G01*
G75*
G02*
X583400I-116840J0D01*
G01*
Y7358240D02*
G75*
G02*
X817080I116840J0D01*
G01*
G75*
G02*
X583400I-116840J0D01*
G01*
X3234640Y6174640D02*
Y6240840D01*
X3234830D01*
G75*
G02*
X3275410Y6305310I80410J-5600D01*
G01*
X3321850Y6351750D01*
G75*
G02*
X3399240Y6409840I77390J-22510D01*
G01*
X3520650D01*
G75*
G02*
X3689830I84590J-80600D01*
G01*
X3839640D01*
Y7066800D01*
X3831800Y7074640D01*
X3746030D01*
G75*
G02*
X3717580Y7055240I-75790J80590D01*
G01*
G75*
G02*
Y6855240I-47340J-100000D01*
G01*
G75*
G02*
X3670240Y6644600I-47340J-100000D01*
G01*
G75*
G02*
X3622900Y6855240I0J110640D01*
G01*
G75*
G02*
Y7055240I47340J100000D01*
G01*
G75*
G02*
X3605060Y7244640I47340J100000D01*
G01*
X3558640D01*
Y7465840D01*
X3781840D01*
Y7244640D01*
X3735420D01*
G75*
G02*
X3746030Y7235840I-65180J-89380D01*
G01*
X3862750D01*
G75*
G02*
X3922260Y7212260I2490J-80600D01*
G01*
X3977260Y7157260D01*
G75*
G02*
X4000880Y7100240I-57020J-57020D01*
G01*
G75*
G02*
X4000840Y7097750I-80660J50D01*
G01*
Y6409830D01*
G75*
G02*
X4031520Y6360840I-80600J-84580D01*
G01*
X4120240D01*
G75*
G02*
X4197630Y6302750I0J-80600D01*
G01*
X4220070Y6280310D01*
G75*
G02*
X4260650Y6215840I-39830J-70070D01*
G01*
X4260840D01*
Y6149640D01*
X4260650D01*
G75*
G02*
X4220070Y6085170I-80410J5600D01*
G01*
X4183630Y6048730D01*
G75*
G02*
X4106240Y5990640I-77390J22510D01*
G01*
X4004830D01*
G75*
G02*
X3803400Y6071240I-84590J80600D01*
G01*
G75*
G02*
X4004830Y6151840I116840J0D01*
G01*
X4086940D01*
X4099640Y6164540D01*
Y6199640D01*
X3967730D01*
G75*
G02*
X3928100Y6208660I-2500J80590D01*
G01*
G75*
G02*
X3832010Y6248640I-7860J116580D01*
G01*
X3689830D01*
G75*
G02*
X3520650I-84590J80600D01*
G01*
X3418540D01*
X3395840Y6225940D01*
Y6189540D01*
X3429540Y6155840D01*
X3520650D01*
G75*
G02*
X3722080Y6075240I84590J-80600D01*
G01*
G75*
G02*
X3685840Y5990650I-116840J0D01*
G01*
Y5938680D01*
X4227260Y5397260D01*
G75*
G02*
X4250880Y5340240I-57020J-57020D01*
G01*
G75*
G02*
X4250840Y5337750I-80660J50D01*
G01*
Y4447730D01*
G75*
G02*
X4250880Y4445240I-80620J-2540D01*
G01*
G75*
G02*
X4227260Y4388220I-80640J0D01*
G01*
X4177260Y4338220D01*
G75*
G02*
X4117750Y4314640I-57020J57020D01*
G01*
X4029830D01*
G75*
G02*
X4025840Y4310650I-84600J80610D01*
G01*
Y4213830D01*
G75*
G02*
X4029830Y4209840I-80610J-84600D01*
G01*
X4071240D01*
G75*
G02*
X4148630Y4151750I0J-80600D01*
G01*
X4215070Y4085310D01*
G75*
G02*
X4255650Y4020840I-39830J-70070D01*
G01*
X4255840D01*
Y3954640D01*
X4255650D01*
G75*
G02*
X4215070Y3890170I-80410J5600D01*
G01*
X4177630Y3852730D01*
G75*
G02*
X4100240Y3794640I-77390J22510D01*
G01*
X4029830D01*
G75*
G02*
X4025840Y3790650I-84600J80610D01*
G01*
Y3678830D01*
G75*
G02*
X4062080Y3594240I-80600J-84590D01*
G01*
G75*
G02*
X3828400I-116840J0D01*
G01*
G75*
G02*
X3864640Y3678830I116840J0D01*
G01*
Y3790650D01*
G75*
G02*
X3860650Y3794640I80610J84600D01*
G01*
X3689830D01*
G75*
G02*
X3520650I-84590J80600D01*
G01*
X3440240D01*
G75*
G02*
X3362850Y3852730I0J80600D01*
G01*
X3325410Y3890170D01*
G75*
G02*
X3284830Y3954640I39830J70070D01*
G01*
X3284640D01*
Y4020840D01*
X3284830D01*
G75*
G02*
X3445650I80410J-5600D01*
G01*
X3445840D01*
Y3969540D01*
X3459540Y3955840D01*
X3520650D01*
G75*
G02*
X3689830I84590J-80600D01*
G01*
X3860650D01*
G75*
G02*
X4029830I84590J-80600D01*
G01*
X4080940D01*
X4094640Y3969540D01*
Y4005940D01*
X4051940Y4048640D01*
X4029830D01*
G75*
G02*
X3828400Y4129240I-84590J80600D01*
G01*
G75*
G02*
X3864640Y4213830I116840J0D01*
G01*
Y4310650D01*
G75*
G02*
X3828400Y4395240I80600J84590D01*
G01*
G75*
G02*
X4029830Y4475840I116840J0D01*
G01*
X4086800D01*
X4089640Y4478680D01*
Y5306800D01*
X3548220Y5848220D01*
G75*
G02*
X3524600Y5905240I57020J57020D01*
G01*
G75*
G02*
X3524640Y5907730I80620J-50D01*
G01*
Y5990650D01*
G75*
G02*
X3520650Y5994640I80610J84600D01*
G01*
X3410240D01*
G75*
G02*
X3332850Y6052730I0J80600D01*
G01*
X3275410Y6110170D01*
G75*
G02*
X3234830Y6174640I39830J70070D01*
G01*
X3234640D01*
X3828400Y4649240D02*
G75*
G02*
X4062080I116840J0D01*
G01*
G75*
G02*
X3828400I-116840J0D01*
G01*
X3488400Y4129240D02*
G75*
G02*
X3722080I116840J0D01*
G01*
G75*
G02*
X3488400I-116840J0D01*
G01*
X583400Y4310240D02*
G75*
G02*
X817080I116840J0D01*
G01*
G75*
G02*
X583400I-116840J0D01*
G01*
Y4564240D02*
G75*
G02*
X804210Y4617540I116840J0D01*
G01*
X1124070D01*
G75*
G02*
X1163960Y4601960I2170J-53300D01*
G01*
X1222960Y4542960D01*
G75*
G02*
X1238580Y4505240I-37720J-37720D01*
G01*
G75*
G02*
X1238540Y4503070I-53370J-100D01*
G01*
Y3759540D01*
G75*
G02*
X1276680Y3685240I-53300J-74300D01*
G01*
G75*
G02*
X1093800I-91440J0D01*
G01*
G75*
G02*
X1131940Y3759540I91440J0D01*
G01*
Y4483100D01*
X1104100Y4510940D01*
X804210D01*
G75*
G02*
X583400Y4564240I-103970J53300D01*
G01*
X1158800Y2785240D02*
G75*
G02*
X1196940Y2859540I91440J0D01*
G01*
Y3413070D01*
G75*
G02*
X1196900Y3415240I53310J2070D01*
G01*
G75*
G02*
X1212520Y3452960I53340J0D01*
G01*
X1351940Y3592380D01*
Y4770940D01*
G75*
G02*
X1406070Y4936680I53300J74300D01*
G01*
X1318220Y5021940D01*
X982380D01*
X812180Y4851740D01*
G75*
G02*
X817080Y4818240I-111950J-33480D01*
G01*
G75*
G02*
X583400I-116840J0D01*
G01*
G75*
G02*
X738280Y4928720I116840J0D01*
G01*
X828500Y5018940D01*
X804210D01*
G75*
G02*
X583400Y5072240I-103970J53300D01*
G01*
G75*
G02*
X804210Y5125540I116840J0D01*
G01*
X830100D01*
X896500Y5191940D01*
X777410D01*
G75*
G02*
X737520Y5207520I-2170J53300D01*
G01*
X731410Y5213630D01*
G75*
G02*
X583400Y5326240I-31170J112610D01*
G01*
G75*
G02*
X817080I116840J0D01*
G01*
G75*
G02*
X813750Y5298540I-116840J0D01*
G01*
X906500D01*
X736030Y5469010D01*
G75*
G02*
X583400Y5580240I-35790J111230D01*
G01*
G75*
G02*
X817080I116840J0D01*
G01*
G75*
G02*
X811470Y5544450I-116860J-20D01*
G01*
X972380Y5383540D01*
X1773070D01*
G75*
G02*
X1812960Y5367960I2170J-53300D01*
G01*
X2037960Y5142960D01*
G75*
G02*
X2053580Y5105240I-37720J-37720D01*
G01*
G75*
G02*
X2053540Y5103070I-53370J-100D01*
G01*
Y3644540D01*
G75*
G02*
X2091680Y3570240I-53300J-74300D01*
G01*
G75*
G02*
X1930240Y3511410I-91440J0D01*
G01*
G75*
G02*
X1768800Y3570240I-70000J58830D01*
G01*
G75*
G02*
X1806940Y3644540I91440J0D01*
G01*
Y4128070D01*
G75*
G02*
X1806900Y4130240I53310J2070D01*
G01*
G75*
G02*
X1822520Y4167960I53340J0D01*
G01*
X1841940Y4187380D01*
Y4746180D01*
G75*
G02*
X1804960Y4698500I-86700J29060D01*
G01*
G75*
G02*
X1841680Y4625240I-54720J-73260D01*
G01*
G75*
G02*
X1658800I-91440J0D01*
G01*
G75*
G02*
X1660000Y4640040I91460J30D01*
G01*
X1489740Y4810300D01*
G75*
G02*
X1458540Y4770940I-84500J34940D01*
G01*
Y3572410D01*
G75*
G02*
X1458580Y3570240I-53330J-2070D01*
G01*
G75*
G02*
X1442960Y3532520I-53340J0D01*
G01*
X1303540Y3393100D01*
Y2859540D01*
G75*
G02*
X1341680Y2785240I-53300J-74300D01*
G01*
G75*
G02*
X1158800I-91440J0D01*
G01*
X1376640Y625240D02*
Y665240D01*
G75*
G02*
X1617840I120600J0D01*
G01*
Y625240D01*
G75*
G02*
X1376640I-120600J0D01*
G01*
X583400Y6088240D02*
G75*
G02*
X817080I116840J0D01*
G01*
G75*
G02*
X583400I-116840J0D01*
G01*
Y1770240D02*
G75*
G02*
X817080I116840J0D01*
G01*
G75*
G02*
X583400I-116840J0D01*
G01*
Y2024240D02*
G75*
G02*
X817080I116840J0D01*
G01*
G75*
G02*
X583400I-116840J0D01*
G01*
Y2278240D02*
G75*
G02*
X817080I116840J0D01*
G01*
G75*
G02*
X583400I-116840J0D01*
G01*
Y2532240D02*
G75*
G02*
X817080I116840J0D01*
G01*
G75*
G02*
X583400I-116840J0D01*
G01*
Y2786240D02*
G75*
G02*
X817080I116840J0D01*
G01*
G75*
G02*
X583400I-116840J0D01*
G01*
Y3040240D02*
G75*
G02*
X817080I116840J0D01*
G01*
G75*
G02*
X583400I-116840J0D01*
G01*
Y3294240D02*
G75*
G02*
X817080I116840J0D01*
G01*
G75*
G02*
X583400I-116840J0D01*
G01*
Y3548240D02*
G75*
G02*
X817080I116840J0D01*
G01*
G75*
G02*
X583400I-116840J0D01*
G01*
Y3802240D02*
G75*
G02*
X817080I116840J0D01*
G01*
G75*
G02*
X583400I-116840J0D01*
G01*
X1114600Y1025240D02*
G75*
G02*
X1375880I130640J0D01*
G01*
G75*
G02*
X1114600I-130640J0D01*
G01*
X512640Y625240D02*
Y665240D01*
G75*
G02*
X753840I120600J0D01*
G01*
Y625240D01*
G75*
G02*
X512640I-120600J0D01*
G01*
X401360Y645240D02*
G36*
X401360Y645240D02*
Y406360D01*
X2335240D01*
Y645240D01*
X1617840D01*
Y625240D01*
G75*
G02*
X1376640I-120600J0D01*
G01*
Y645240D01*
X753840D01*
Y625240D01*
G75*
G02*
X512640I-120600J0D01*
G01*
Y645240D01*
X401360D01*
G37*
X3670240D02*
G36*
X3670240Y645240D02*
Y406360D01*
X4259120D01*
Y645240D01*
X3670240D01*
G37*
X401360Y1025240D02*
G36*
X401360Y1025240D02*
Y645240D01*
X512640D01*
Y665240D01*
G75*
G02*
X753840I120600J0D01*
G01*
Y645240D01*
X1376640D01*
Y665240D01*
G75*
G02*
X1617840I120600J0D01*
G01*
Y645240D01*
X2335240D01*
Y650140D01*
X1984640D01*
Y866340D01*
X2335240D01*
Y904140D01*
X1984640D01*
Y1025240D01*
X1375880D01*
G75*
G02*
X1114600I-130640J0D01*
G01*
X1015880D01*
G75*
G02*
X754600I-130640J0D01*
G01*
X401360D01*
G37*
X3670240Y650140D02*
G36*
X3670240Y650140D02*
Y645240D01*
X4259120D01*
Y1025240D01*
X3889840D01*
Y904140D01*
X3670240D01*
Y866340D01*
X3889840D01*
Y650140D01*
X3670240D01*
G37*
X401360Y1440140D02*
G36*
X401360Y1440140D02*
Y1025240D01*
X754600D01*
G75*
G02*
Y1025400I127320J80D01*
G01*
G75*
G02*
X755540Y1040900I128240J0D01*
G01*
X613220Y1183220D01*
G75*
G02*
X589600Y1240240I57030J57030D01*
G01*
G75*
G02*
Y1240250I81850J10D01*
G01*
G75*
G02*
X589640Y1242730I76950J0D01*
G01*
Y1251800D01*
X403220Y1438220D01*
G75*
G02*
X401360Y1440140I56750J56840D01*
G01*
G37*
X540840Y1770240D02*
G36*
X540840Y1770240D02*
Y1528680D01*
X553680Y1515840D01*
X731800D01*
X834640Y1618680D01*
Y1687750D01*
G75*
G02*
X834600Y1690230I76910J2480D01*
G01*
G75*
G02*
Y1690240I81850J10D01*
G01*
G75*
G02*
X858220Y1747260I80650J-10D01*
G01*
X881200Y1770240D01*
X817080D01*
G75*
G02*
X583400I-116840J0D01*
G01*
X540840D01*
G37*
X714880Y1354640D02*
G36*
X714880Y1354640D02*
X727260Y1342260D01*
G75*
G02*
X750880Y1285240I-57030J-57030D01*
G01*
G75*
G02*
X750840Y1282750I-78190J10D01*
G01*
Y1273680D01*
X869580Y1154940D01*
G75*
G02*
X1015880Y1025240I15660J-129700D01*
G01*
X1114600D01*
G75*
G02*
X1375880I130640J0D01*
G01*
X1984640D01*
Y1120340D01*
X2335240D01*
Y1158140D01*
X1984640D01*
Y1185640D01*
X1929580D01*
G75*
G02*
X1872330Y1164640I-54330J59580D01*
G01*
X1752500D01*
G75*
G02*
X1474600Y1245240I-127260J80600D01*
G01*
G75*
G02*
X1752500Y1325840I150640J0D01*
G01*
X1840980D01*
G75*
G02*
X1895240Y1346840I54250J-59560D01*
G01*
X1984640D01*
Y1374340D01*
X2335240D01*
Y1412140D01*
X1984640D01*
Y1586940D01*
X1927410D01*
G75*
G02*
X1887520Y1602520I-2180J53270D01*
G01*
X1719800Y1770240D01*
X1358940D01*
G75*
G02*
X1307580Y1720240I-98700J50010D01*
G01*
G75*
G02*
X1370880Y1620240I-47340J-100000D01*
G01*
G75*
G02*
X1260240Y1509600I-110640J0D01*
G01*
G75*
G02*
X1149600Y1620240I0J110640D01*
G01*
G75*
G02*
X1212900Y1720240I110640J0D01*
G01*
G75*
G02*
X1161540Y1770240I47340J100010D01*
G01*
X1109280D01*
X995840Y1656800D01*
Y1587730D01*
G75*
G02*
X995880Y1585250I-76910J-2480D01*
G01*
G75*
G02*
Y1585240I-81850J0D01*
G01*
G75*
G02*
X972260Y1528220I-80650J10D01*
G01*
X935970Y1491930D01*
G75*
G02*
X1120880Y1345240I34260J-146700D01*
G01*
G75*
G02*
X819600I-150640J0D01*
G01*
G75*
G02*
Y1345260I190990J10D01*
G01*
G75*
G02*
X823550Y1379510I150480J0D01*
G01*
X822260Y1378220D01*
G75*
G02*
X762750Y1354640I-57000J56980D01*
G01*
X714880D01*
G37*
X3670240Y1158140D02*
G36*
X3670240Y1158140D02*
Y1120340D01*
X3889840D01*
Y1025240D01*
X4259120D01*
Y1770240D01*
X3889840D01*
Y1666140D01*
X3670240D01*
Y1628340D01*
X3889840D01*
Y1412140D01*
X3670240D01*
Y1374340D01*
X3889840D01*
Y1158140D01*
X3670240D01*
G37*
X540840Y2024240D02*
G36*
X540840Y2024240D02*
Y1770240D01*
X583400D01*
G75*
G02*
X817080I116840J0D01*
G01*
X881200D01*
X974640Y1863680D01*
Y1902750D01*
G75*
G02*
X974600Y1905230I76910J2480D01*
G01*
G75*
G02*
Y1905240I81850J10D01*
G01*
G75*
G02*
X998220Y1962260I80650J-10D01*
G01*
X1060200Y2024240D01*
X817080D01*
G75*
G02*
X583400I-116840J0D01*
G01*
X540840D01*
G37*
X1112260Y1773220D02*
G36*
X1112260Y1773220D02*
X1109280Y1770240D01*
X1161540D01*
G75*
G02*
X1149600Y1820240I98700J50000D01*
G01*
G75*
G02*
X1212900Y1920240I110640J0D01*
G01*
G75*
G02*
X1194950Y1930910I47090J99660D01*
G01*
X1135840Y1871800D01*
Y1832730D01*
G75*
G02*
X1135880Y1830250I-76910J-2480D01*
G01*
G75*
G02*
Y1830240I-81850J0D01*
G01*
G75*
G02*
X1112260Y1773220I-80650J10D01*
G01*
G37*
X1370880Y2020240D02*
G36*
X1370880Y2020240D02*
G75*
G02*
X1307580Y1920240I-110640J0D01*
G01*
G75*
G02*
X1370880Y1820240I-47340J-100000D01*
G01*
G75*
G02*
X1358940Y1770240I-110640J0D01*
G01*
X1719800D01*
X1587520Y1902520D01*
G75*
G02*
X1571900Y1940240I37760J37730D01*
G01*
G75*
G02*
X1571940Y1942410I59450J-10D01*
G01*
Y2024240D01*
X1370810D01*
G75*
G02*
X1370880Y2020240I-110560J-3940D01*
G01*
G37*
X1818540Y2024240D02*
G36*
X1818540Y2024240D02*
Y1997380D01*
X1862380Y1953540D01*
X1984640D01*
Y2024240D01*
X1818540D01*
G37*
X3670240Y1920140D02*
G36*
X3670240Y1920140D02*
Y1882340D01*
X3889840D01*
Y1770240D01*
X4259120D01*
Y2024240D01*
X3889840D01*
Y1920140D01*
X3670240D01*
G37*
X540840Y2278240D02*
G36*
X540840Y2278240D02*
Y2024240D01*
X583400D01*
G75*
G02*
X817080I116840J0D01*
G01*
X1060200D01*
X1113220Y2077260D01*
G75*
G02*
X1172730Y2100840I57020J-57020D01*
G01*
X1184450D01*
G75*
G02*
X1195060Y2109640I75100J-79760D01*
G01*
X1148640D01*
Y2278240D01*
X817080D01*
G75*
G02*
X583400I-116840J0D01*
G01*
X540840D01*
G37*
X1325420Y2109640D02*
G36*
X1325420Y2109640D02*
G75*
G02*
X1370810Y2024240I-65180J-89410D01*
G01*
X1571940D01*
Y2278240D01*
X1371840D01*
Y2109640D01*
X1325420D01*
G37*
X1818540Y2278240D02*
G36*
X1818540Y2278240D02*
Y2024240D01*
X1984640D01*
Y2106940D01*
X1977410D01*
G75*
G02*
X1937520Y2122520I-2180J53270D01*
G01*
X1887520Y2172520D01*
G75*
G02*
X1871900Y2210240I37760J37730D01*
G01*
G75*
G02*
X1871940Y2212410I59450J-10D01*
G01*
Y2278240D01*
X1818540D01*
G37*
X1978540D02*
G36*
X1978540Y2278240D02*
Y2232380D01*
X1984640Y2226280D01*
Y2278240D01*
X1978540D01*
G37*
X3887260Y2233220D02*
G36*
X3887260Y2233220D02*
X3790380Y2136340D01*
X3889840D01*
Y2024240D01*
X4259120D01*
Y2278240D01*
X3909980D01*
G75*
G02*
X3887260Y2233220I-79750J12000D01*
G01*
G37*
X540840Y2532240D02*
G36*
X540840Y2532240D02*
Y2278240D01*
X583400D01*
G75*
G02*
X817080I116840J0D01*
G01*
X1148640D01*
Y2330840D01*
X1371840D01*
Y2278240D01*
X1571940D01*
Y2280940D01*
G75*
G02*
X1533800Y2355240I53300J74300D01*
G01*
G75*
G02*
X1674090Y2432540I91440J0D01*
G01*
G75*
G02*
X1856680Y2425240I91150J-7300D01*
G01*
G75*
G02*
Y2425230I-114590J0D01*
G01*
G75*
G02*
X1818540Y2350940I-91420J0D01*
G01*
Y2278240D01*
X1871940D01*
Y2448100D01*
X1787800Y2532240D01*
X817080D01*
G75*
G02*
X583400I-116840J0D01*
G01*
X540840D01*
G37*
X1938680D02*
G36*
X1938680Y2532240D02*
X1962960Y2507960D01*
G75*
G02*
X1978580Y2470240I-37760J-37730D01*
G01*
G75*
G02*
Y2470230I-63660J0D01*
G01*
G75*
G02*
X1978540Y2468070I-58360J0D01*
G01*
Y2278240D01*
X1984640D01*
Y2390340D01*
X2335240D01*
Y2428140D01*
X1984640D01*
Y2532240D01*
X1938680D01*
G37*
X3910840D02*
G36*
X3910840Y2532240D02*
Y2292730D01*
G75*
G02*
X3910880Y2290250I-76910J-2480D01*
G01*
G75*
G02*
Y2290240I-81850J0D01*
G01*
G75*
G02*
X3909980Y2278240I-80650J10D01*
G01*
X4259120D01*
Y2532240D01*
X3910840D01*
G37*
X540840Y2786240D02*
G36*
X540840Y2786240D02*
Y2532240D01*
X583400D01*
G75*
G02*
X817080I116840J0D01*
G01*
X1787800D01*
X1765650Y2554390D01*
G75*
G02*
X1663800Y2645240I-10410J90850D01*
G01*
G75*
G02*
X1846680I91440J0D01*
G01*
G75*
G02*
Y2645220I-88150J-10D01*
G01*
G75*
G02*
X1844680Y2626240I-91060J0D01*
G01*
X1938680Y2532240D01*
X1984640D01*
Y2644340D01*
X2335240D01*
Y2682140D01*
X1984640D01*
Y2786240D01*
X1341670D01*
G75*
G02*
X1341680Y2785250I-91480J-1420D01*
G01*
G75*
G02*
Y2785240I-114590J0D01*
G01*
G75*
G02*
X1158800I-91440J0D01*
G01*
G75*
G02*
Y2785250I114590J10D01*
G01*
G75*
G02*
X1158810Y2786240I91490J-430D01*
G01*
X817080D01*
G75*
G02*
X583400I-116840J0D01*
G01*
X540840D01*
G37*
X3910840D02*
G36*
X3910840Y2786240D02*
Y2532240D01*
X4259120D01*
Y2786240D01*
X3910840D01*
G37*
X540840Y3040240D02*
G36*
X540840Y3040240D02*
Y2786240D01*
X583400D01*
G75*
G02*
X817080I116840J0D01*
G01*
X1158810D01*
G75*
G02*
X1196940Y2859540I91420J-990D01*
G01*
Y3040240D01*
X817080D01*
G75*
G02*
X583400I-116840J0D01*
G01*
X540840D01*
G37*
X1303540D02*
G36*
X1303540Y3040240D02*
Y2859540D01*
G75*
G02*
X1341670Y2786240I-53290J-74290D01*
G01*
X1984640D01*
Y2898340D01*
X2365840D01*
Y2835240D01*
X2515760D01*
G75*
G02*
X2508790Y2870240I84440J35010D01*
G01*
G75*
G02*
X2530720Y2929640I91420J0D01*
G01*
X1963680D01*
X1957260Y2923220D01*
G75*
G02*
X1897750Y2899640I-57000J56980D01*
G01*
X1787500D01*
G75*
G02*
X1509600Y2980240I-127260J80600D01*
G01*
G75*
G02*
X1522060Y3040240I150650J10D01*
G01*
X1303540D01*
G37*
X3864280D02*
G36*
X3864280Y3040240D02*
X3887260Y3017260D01*
G75*
G02*
X3910880Y2960240I-57030J-57030D01*
G01*
G75*
G02*
X3910840Y2957750I-78190J10D01*
G01*
Y2786240D01*
X4259120D01*
Y3040240D01*
X3864280D01*
G37*
X540840Y3294240D02*
G36*
X540840Y3294240D02*
Y3040240D01*
X583400D01*
G75*
G02*
X817080I116840J0D01*
G01*
X1196940D01*
Y3294240D01*
X817080D01*
G75*
G02*
X583400I-116840J0D01*
G01*
X540840D01*
G37*
X1303540D02*
G36*
X1303540Y3294240D02*
Y3040240D01*
X1522060D01*
G75*
G02*
X1650990Y3130600I138180J-60000D01*
G01*
G75*
G02*
X1618800Y3200240I59260J69650D01*
G01*
G75*
G02*
X1784540Y3253540I91440J0D01*
G01*
X2373070D01*
G75*
G02*
X2412960Y3237960I2180J-53270D01*
G01*
X2487380Y3163540D01*
X2532750D01*
G75*
G02*
X2508800Y3225240I67490J61700D01*
G01*
G75*
G02*
X2540230Y3294240I91440J10D01*
G01*
X2535090D01*
G75*
G02*
X2365390I-84850J71000D01*
G01*
X2360840D01*
Y3253640D01*
X2139640D01*
Y3294240D01*
X1303540D01*
G37*
X2903540Y3268280D02*
G36*
X2903540Y3268280D02*
Y3229540D01*
G75*
G02*
X2941680Y3155240I-53300J-74300D01*
G01*
G75*
G02*
X2915150Y3090840I-91440J0D01*
G01*
X2981800D01*
X3033220Y3142260D01*
G75*
G02*
X3092730Y3165840I57020J-57020D01*
G01*
X3702750D01*
G75*
G02*
X3762260Y3142260I2490J-80600D01*
G01*
X3864280Y3040240D01*
X4259120D01*
Y3294240D01*
X4052650D01*
G75*
G02*
X3860650Y3259640I-107410J46000D01*
G01*
X3757730D01*
G75*
G02*
X3698220Y3283220I-2490J80600D01*
G01*
X3687200Y3294240D01*
X2935090D01*
G75*
G02*
X2903540Y3268280I-84880J71010D01*
G01*
G37*
X540840Y3548240D02*
G36*
X540840Y3548240D02*
Y3294240D01*
X583400D01*
G75*
G02*
X817080I116840J0D01*
G01*
X1196940D01*
Y3413070D01*
G75*
G02*
X1196900Y3415230I58320J2160D01*
G01*
G75*
G02*
Y3415240I63660J10D01*
G01*
G75*
G02*
X1212520Y3452960I53380J-10D01*
G01*
X1307800Y3548240D01*
X817080D01*
G75*
G02*
X583400I-116840J0D01*
G01*
X540840D01*
G37*
X1303540Y3393100D02*
G36*
X1303540Y3393100D02*
Y3294240D01*
X2139640D01*
Y3476840D01*
X2360840D01*
Y3430420D01*
G75*
G02*
X2369640Y3441030I88560J-64490D01*
G01*
Y3492750D01*
G75*
G02*
X2369600Y3495230I76910J2480D01*
G01*
G75*
G02*
Y3495240I81850J10D01*
G01*
G75*
G02*
Y3495250I81850J10D01*
G01*
G75*
G02*
X2369640Y3497730I76950J0D01*
G01*
Y3548240D01*
X2088990D01*
G75*
G02*
X1930240Y3511410I-88750J22000D01*
G01*
G75*
G02*
X1771490Y3548240I-70000J58830D01*
G01*
X1453830D01*
G75*
G02*
X1442960Y3532520I-48630J22010D01*
G01*
X1303540Y3393100D01*
G37*
X2360840Y3300060D02*
G36*
X2360840Y3300060D02*
Y3294240D01*
X2365390D01*
G75*
G02*
X2360840Y3300060I84870J71040D01*
G01*
G37*
X2530840Y3461800D02*
G36*
X2530840Y3461800D02*
Y3441030D01*
G75*
G02*
X2550240Y3412580I-80590J-75790D01*
G01*
G75*
G02*
X2750240I100000J-47340D01*
G01*
G75*
G02*
X2960880Y3365240I100000J-47340D01*
G01*
G75*
G02*
X2935090Y3294240I-110670J20D01*
G01*
X3687200D01*
X3486800Y3494640D01*
X2563680D01*
X2530840Y3461800D01*
G37*
X2535090Y3294240D02*
G36*
X2535090Y3294240D02*
X2540230D01*
G75*
G02*
X2556940Y3305780I60000J-69020D01*
G01*
G75*
G02*
X2550240Y3317900I92150J58850D01*
G01*
G75*
G02*
X2535090Y3294240I-100010J47360D01*
G01*
G37*
X3661280Y3548240D02*
G36*
X3661280Y3548240D02*
X3788680Y3420840D01*
X3860650D01*
G75*
G02*
X4062080Y3340240I84590J-80600D01*
G01*
G75*
G02*
X4052650Y3294240I-116850J-10D01*
G01*
X4259120D01*
Y3548240D01*
X4052640D01*
G75*
G02*
X3837840I-107400J46000D01*
G01*
X3661280D01*
G37*
X540840Y3802240D02*
G36*
X540840Y3802240D02*
Y3548240D01*
X583400D01*
G75*
G02*
X817080I116840J0D01*
G01*
X1307800D01*
X1351940Y3592380D01*
Y3802240D01*
X1238540D01*
Y3759540D01*
G75*
G02*
X1276680Y3685250I-53280J-74290D01*
G01*
G75*
G02*
Y3685240I-114590J0D01*
G01*
G75*
G02*
X1093800I-91440J0D01*
G01*
G75*
G02*
Y3685250I114590J10D01*
G01*
G75*
G02*
X1131940Y3759540I91420J0D01*
G01*
Y3802240D01*
X817080D01*
G75*
G02*
X583400I-116840J0D01*
G01*
X540840D01*
G37*
X1458540D02*
G36*
X1458540Y3802240D02*
Y3572410D01*
G75*
G02*
X1458580Y3570250I-58320J-2160D01*
G01*
G75*
G02*
Y3570240I-63660J0D01*
G01*
G75*
G02*
X1453830Y3548240I-53380J10D01*
G01*
X1771490D01*
G75*
G02*
X1768800Y3570240I88760J22020D01*
G01*
G75*
G02*
Y3570250I114590J10D01*
G01*
G75*
G02*
X1806940Y3644540I91420J0D01*
G01*
Y3802240D01*
X1458540D01*
G37*
X2053540D02*
G36*
X2053540Y3802240D02*
Y3644540D01*
G75*
G02*
X2091680Y3570250I-53280J-74290D01*
G01*
G75*
G02*
Y3570240I-114590J0D01*
G01*
G75*
G02*
X2088990Y3548240I-91450J20D01*
G01*
X2369640D01*
Y3802240D01*
X2053540D01*
G37*
X2530840D02*
G36*
X2530840Y3802240D02*
Y3655880D01*
G75*
G02*
X2532730Y3655840I-10J-45170D01*
G01*
X3517750D01*
G75*
G02*
X3577260Y3632260I2490J-80600D01*
G01*
X3661280Y3548240D01*
X3837840D01*
G75*
G02*
X3828400Y3594240I107410J46010D01*
G01*
G75*
G02*
X3864640Y3678830I116840J0D01*
G01*
Y3790650D01*
G75*
G02*
X3860650Y3794640I77620J81610D01*
G01*
X3689830D01*
G75*
G02*
X3520650I-84590J80600D01*
G01*
X3440240D01*
G75*
G02*
X3406080Y3802240I10J80610D01*
G01*
X2530840D01*
G37*
X4025840Y3790650D02*
G36*
X4025840Y3790650D02*
Y3678830D01*
G75*
G02*
X4062080Y3594240I-80600J-84590D01*
G01*
G75*
G02*
X4052640Y3548240I-116850J10D01*
G01*
X4259120D01*
Y3802240D01*
X4134400D01*
G75*
G02*
X4100240Y3794640I-34170J73010D01*
G01*
X4029830D01*
G75*
G02*
X4025840Y3790650I-81610J77620D01*
G01*
G37*
X540840Y3975640D02*
G36*
X540840Y3975640D02*
Y3802240D01*
X583400D01*
G75*
G02*
X817080I116840J0D01*
G01*
X1131940D01*
Y4129240D01*
X791470D01*
G75*
G02*
X817080Y4056240I-91230J-73000D01*
G01*
G75*
G02*
X615650Y3975640I-116840J0D01*
G01*
X540840D01*
G37*
X1238540Y4129240D02*
G36*
X1238540Y4129240D02*
Y3802240D01*
X1351940D01*
Y4129240D01*
X1238540D01*
G37*
X1458540D02*
G36*
X1458540Y4129240D02*
Y3802240D01*
X1806940D01*
Y4128070D01*
G75*
G02*
X1806910Y4129240I58330J2080D01*
G01*
X1458540D01*
G37*
X2053540D02*
G36*
X2053540Y4129240D02*
Y3802240D01*
X2369640D01*
Y4054450D01*
G75*
G02*
X2360840Y4065060I79760J75100D01*
G01*
Y4018640D01*
X2139640D01*
Y4129240D01*
X2053540D01*
G37*
X2530840Y4054450D02*
G36*
X2530840Y4054450D02*
Y3802240D01*
X3406080D01*
G75*
G02*
X3362850Y3852730I34170J73010D01*
G01*
X3325410Y3890170D01*
G75*
G02*
X3284830Y3954640I39820J70070D01*
G01*
X3284640D01*
Y4020840D01*
X3284830D01*
G75*
G02*
X3445650I80410J-5610D01*
G01*
X3445840D01*
Y3969540D01*
X3459540Y3955840D01*
X3520650D01*
G75*
G02*
X3689830I84590J-80600D01*
G01*
X3860650D01*
G75*
G02*
X4029830I84590J-80600D01*
G01*
X4080940D01*
X4094640Y3969540D01*
Y4005940D01*
X4051940Y4048640D01*
X4029830D01*
G75*
G02*
X3828400Y4129240I-84590J80600D01*
G01*
X3722080D01*
G75*
G02*
X3488400I-116840J0D01*
G01*
X3340270D01*
G75*
G02*
X3160210I-90030J16000D01*
G01*
X2960880D01*
G75*
G02*
X2750240Y4082900I-110640J1000D01*
G01*
G75*
G02*
X2550240I-100000J47340D01*
G01*
G75*
G02*
X2530840Y4054450I-100370J47600D01*
G01*
G37*
X4177630Y3852730D02*
G36*
X4177630Y3852730D02*
G75*
G02*
X4134400Y3802240I-77400J22520D01*
G01*
X4259120D01*
Y4129240D01*
X4171140D01*
X4215070Y4085310D01*
G75*
G02*
X4255650Y4020840I-39820J-70070D01*
G01*
X4255840D01*
Y3954640D01*
X4255650D01*
G75*
G02*
X4215070Y3890170I-80400J5600D01*
G01*
X4177630Y3852730D01*
G37*
X540840Y4310240D02*
G36*
X540840Y4310240D02*
Y4143680D01*
X547680Y4136840D01*
X615650D01*
G75*
G02*
X791470Y4129240I84590J-80600D01*
G01*
X1131940D01*
Y4310240D01*
X817080D01*
G75*
G02*
X583400I-116840J0D01*
G01*
X540840D01*
G37*
X1238540D02*
G36*
X1238540Y4310240D02*
Y4129240D01*
X1351940D01*
Y4310240D01*
X1238540D01*
G37*
X1458540D02*
G36*
X1458540Y4310240D02*
Y4129240D01*
X1806910D01*
G75*
G02*
X1806900Y4130230I58350J1080D01*
G01*
G75*
G02*
Y4130240I63660J10D01*
G01*
G75*
G02*
X1822520Y4167960I53380J-10D01*
G01*
X1841940Y4187380D01*
Y4310240D01*
X1458540D01*
G37*
X2053540D02*
G36*
X2053540Y4310240D02*
Y4129240D01*
X2139640D01*
Y4241840D01*
X2360840D01*
Y4195420D01*
G75*
G02*
X2369640Y4206030I88560J-64490D01*
G01*
Y4310240D01*
X2053540D01*
G37*
X2530840D02*
G36*
X2530840Y4310240D02*
Y4206030D01*
G75*
G02*
X2550240Y4177580I-80590J-75790D01*
G01*
G75*
G02*
X2750240I100000J-47340D01*
G01*
G75*
G02*
X2960880Y4130240I100000J-47340D01*
G01*
G75*
G02*
Y4129240I-111040J-500D01*
G01*
X3160210D01*
G75*
G02*
X3158800Y4145240I90030J16000D01*
G01*
G75*
G02*
Y4145250I114590J10D01*
G01*
G75*
G02*
X3196940Y4219540I91420J0D01*
G01*
Y4310240D01*
X2530840D01*
G37*
X3341680Y4145240D02*
G36*
X3341680Y4145240D02*
G75*
G02*
X3340270Y4129240I-91440J0D01*
G01*
X3488400D01*
G75*
G02*
X3722080I116840J0D01*
G01*
X3828400D01*
G75*
G02*
X3864640Y4213830I116840J0D01*
G01*
Y4310240D01*
X3454840D01*
G75*
G02*
X3466680Y4265240I-79610J-45000D01*
G01*
G75*
G02*
X3332990Y4184150I-91440J0D01*
G01*
G75*
G02*
X3341680Y4145240I-82760J-38910D01*
G01*
G37*
X4025840Y4310240D02*
G36*
X4025840Y4310240D02*
Y4213830D01*
G75*
G02*
X4029830Y4209840I-77620J-81610D01*
G01*
X4071240D01*
G75*
G02*
X4148630Y4151750I-10J-80610D01*
G01*
X4171140Y4129240D01*
X4259120D01*
Y4310240D01*
X4025840D01*
G37*
X540840Y4649240D02*
G36*
X540840Y4649240D02*
Y4310240D01*
X583400D01*
G75*
G02*
X817080I116840J0D01*
G01*
X1131940D01*
Y4483100D01*
X1104100Y4510940D01*
X804210D01*
G75*
G02*
X583400Y4564230I-103970J53290D01*
G01*
G75*
G02*
Y4564240I286480J10D01*
G01*
G75*
G02*
Y4564250I286480J10D01*
G01*
G75*
G02*
X620070Y4649240I116830J0D01*
G01*
X540840D01*
G37*
X780400D02*
G36*
X780400Y4649240D02*
G75*
G02*
X804210Y4617540I-80170J-85010D01*
G01*
X1124070D01*
G75*
G02*
X1163960Y4601960I2180J-53270D01*
G01*
X1222960Y4542960D01*
G75*
G02*
X1238580Y4505240I-37760J-37730D01*
G01*
G75*
G02*
Y4505230I-63660J0D01*
G01*
G75*
G02*
X1238540Y4503070I-58360J0D01*
G01*
Y4310240D01*
X1351940D01*
Y4649240D01*
X780400D01*
G37*
X1458540D02*
G36*
X1458540Y4649240D02*
Y4310240D01*
X1841940D01*
Y4649240D01*
X1838480D01*
G75*
G02*
X1841680Y4625250I-88210J-23980D01*
G01*
G75*
G02*
Y4625240I-143240J0D01*
G01*
G75*
G02*
X1658800I-91440J0D01*
G01*
G75*
G02*
X1660000Y4640040I91850J0D01*
G01*
X1650800Y4649240D01*
X1458540D01*
G37*
X2053540D02*
G36*
X2053540Y4649240D02*
Y4310240D01*
X2369640D01*
Y4649240D01*
X2053540D01*
G37*
X2530840D02*
G36*
X2530840Y4649240D02*
Y4310240D01*
X3196940D01*
Y4493100D01*
X3123100Y4566940D01*
X2702410D01*
G75*
G02*
X2662520Y4582520I-2180J53270D01*
G01*
X2612520Y4632520D01*
G75*
G02*
X2601210Y4649240I37760J37730D01*
G01*
X2530840D01*
G37*
X3428540D02*
G36*
X3428540Y4649240D02*
Y4339540D01*
G75*
G02*
X3454840Y4310240I-53300J-74300D01*
G01*
X3864640D01*
Y4310650D01*
G75*
G02*
X3828400Y4395240I80600J84590D01*
G01*
G75*
G02*
X4029830Y4475840I116840J0D01*
G01*
X4086800D01*
X4089640Y4478680D01*
Y4649240D01*
X4062080D01*
G75*
G02*
X3828400I-116840J0D01*
G01*
X3428540D01*
G37*
X4025840Y4310650D02*
G36*
X4025840Y4310650D02*
Y4310240D01*
X4259120D01*
Y4649240D01*
X4250840D01*
Y4447730D01*
G75*
G02*
X4250880Y4445250I-76910J-2480D01*
G01*
G75*
G02*
Y4445240I-81850J0D01*
G01*
G75*
G02*
X4227260Y4388220I-80650J10D01*
G01*
X4177260Y4338220D01*
G75*
G02*
X4117750Y4314640I-57000J56980D01*
G01*
X4029830D01*
G75*
G02*
X4025840Y4310650I-81610J77620D01*
G01*
G37*
X540840Y6088240D02*
G36*
X540840Y6088240D02*
Y4649240D01*
X620070D01*
G75*
G02*
X780400I80170J-84990D01*
G01*
X1351940D01*
Y4770940D01*
G75*
G02*
X1313800Y4845240I53300J74300D01*
G01*
G75*
G02*
X1406070Y4936680I91450J0D01*
G01*
X1318220Y5021940D01*
X982380D01*
X812180Y4851740D01*
G75*
G02*
X817080Y4818260I-111920J-33480D01*
G01*
G75*
G02*
Y4818240I-104170J-10D01*
G01*
G75*
G02*
X583400I-116840J0D01*
G01*
G75*
G02*
X738280Y4928720I116850J-10D01*
G01*
X828500Y5018940D01*
X804210D01*
G75*
G02*
X583400Y5072230I-103970J53290D01*
G01*
G75*
G02*
Y5072240I286480J10D01*
G01*
G75*
G02*
Y5072250I286480J10D01*
G01*
G75*
G02*
X804210Y5125540I116840J0D01*
G01*
X830100D01*
X896500Y5191940D01*
X777410D01*
G75*
G02*
X737520Y5207520I-2180J53270D01*
G01*
X731410Y5213630D01*
G75*
G02*
X583400Y5326240I-31160J112620D01*
G01*
G75*
G02*
X817080I116840J0D01*
G01*
G75*
G02*
X813750Y5298540I-117500J70D01*
G01*
X906500D01*
X736030Y5469010D01*
G75*
G02*
X583400Y5580240I-35780J111230D01*
G01*
G75*
G02*
X817080I116840J0D01*
G01*
G75*
G02*
Y5580230I-286480J0D01*
G01*
G75*
G02*
X811470Y5544450I-116920J0D01*
G01*
X972380Y5383540D01*
X1773070D01*
G75*
G02*
X1812960Y5367960I2180J-53270D01*
G01*
X2037960Y5142960D01*
G75*
G02*
X2053580Y5105240I-37760J-37730D01*
G01*
G75*
G02*
Y5105230I-63660J0D01*
G01*
G75*
G02*
X2053540Y5103070I-58360J0D01*
G01*
Y4649240D01*
X2369640D01*
Y4819450D01*
G75*
G02*
X2360840Y4830060I79760J75100D01*
G01*
Y4783640D01*
X2139640D01*
Y5006840D01*
X2360840D01*
Y4960420D01*
G75*
G02*
X2550240Y4942580I89400J-65180D01*
G01*
G75*
G02*
X2750240I100000J-47340D01*
G01*
G75*
G02*
X2947200Y4948540I100000J-47340D01*
G01*
X3318070D01*
G75*
G02*
X3357960Y4932960I2180J-53270D01*
G01*
X3412960Y4877960D01*
G75*
G02*
X3428580Y4840240I-37760J-37730D01*
G01*
G75*
G02*
Y4840230I-63660J0D01*
G01*
G75*
G02*
X3428540Y4838070I-58360J0D01*
G01*
Y4649240D01*
X3828400D01*
G75*
G02*
X4062080I116840J0D01*
G01*
X4089640D01*
Y5306800D01*
X3548220Y5848220D01*
G75*
G02*
X3524600Y5905240I57030J57030D01*
G01*
G75*
G02*
Y5905250I81850J10D01*
G01*
G75*
G02*
X3524640Y5907730I76950J0D01*
G01*
Y5990650D01*
G75*
G02*
X3520650Y5994640I77620J81610D01*
G01*
X3410240D01*
G75*
G02*
X3332850Y6052730I10J80610D01*
G01*
X3297340Y6088240D01*
X817080D01*
G75*
G02*
X583400I-116840J0D01*
G01*
X540840D01*
G37*
X1458540Y4770940D02*
G36*
X1458540Y4770940D02*
Y4649240D01*
X1650800D01*
X1489740Y4810300D01*
G75*
G02*
X1458540Y4770940I-84480J34920D01*
G01*
G37*
X1804960Y4698500D02*
G36*
X1804960Y4698500D02*
G75*
G02*
X1838480Y4649240I-54700J-73260D01*
G01*
X1841940D01*
Y4746180D01*
G75*
G02*
X1804960Y4698500I-86640J29020D01*
G01*
G37*
X2530840Y4819450D02*
G36*
X2530840Y4819450D02*
Y4649240D01*
X2601210D01*
G75*
G02*
X2596900Y4670240I49070J21010D01*
G01*
G75*
G02*
X2596940Y4672410I59450J-10D01*
G01*
Y4798280D01*
G75*
G02*
X2550240Y4847900I53310J96950D01*
G01*
G75*
G02*
X2530840Y4819450I-100370J47600D01*
G01*
G37*
X3685840Y5990650D02*
G36*
X3685840Y5990650D02*
Y5938680D01*
X4227260Y5397260D01*
G75*
G02*
X4250880Y5340240I-57030J-57030D01*
G01*
G75*
G02*
X4250840Y5337750I-78190J10D01*
G01*
Y4649240D01*
X4259120D01*
Y6088240D01*
X4225040D01*
G75*
G02*
X4220070Y6085170I-44790J66950D01*
G01*
X4183630Y6048730D01*
G75*
G02*
X4106240Y5990640I-77400J22520D01*
G01*
X4004830D01*
G75*
G02*
X3803400Y6071240I-84590J80600D01*
G01*
G75*
G02*
X3804640Y6088240I116870J20D01*
G01*
X3721350D01*
G75*
G02*
X3722080Y6075240I-116110J-13040D01*
G01*
G75*
G02*
X3685840Y5990650I-116840J0D01*
G01*
G37*
X401360Y6850240D02*
G36*
X401360Y6850240D02*
Y6411340D01*
G75*
G02*
X403220Y6413260I58610J-54920D01*
G01*
X583430Y6593470D01*
G75*
G02*
X583400Y6596240I189830J3440D01*
G01*
G75*
G02*
X817080I116840J0D01*
G01*
G75*
G02*
X697470Y6479430I-116850J10D01*
G01*
X674180Y6456140D01*
G75*
G02*
X817080Y6342240I26050J-113910D01*
G01*
G75*
G02*
X583400I-116840J0D01*
G01*
G75*
G02*
X586340Y6368300I117440J-50D01*
G01*
X540840Y6322800D01*
Y6088240D01*
X583400D01*
G75*
G02*
X817080I116840J0D01*
G01*
X3297340D01*
X3275410Y6110170D01*
G75*
G02*
X3234830Y6174640I39820J70070D01*
G01*
X3234640D01*
Y6240840D01*
X3234830D01*
G75*
G02*
X3275410Y6305310I80400J-5600D01*
G01*
X3321850Y6351750D01*
G75*
G02*
X3399240Y6409840I77400J-22520D01*
G01*
X3520650D01*
G75*
G02*
X3689830I84590J-80600D01*
G01*
X3839640D01*
Y6850240D01*
X3726950D01*
G75*
G02*
X3780880Y6755240I-56710J-95000D01*
G01*
G75*
G02*
X3670240Y6644600I-110640J0D01*
G01*
G75*
G02*
X3559600Y6755240I0J110640D01*
G01*
G75*
G02*
X3613530Y6850240I110640J0D01*
G01*
X817080D01*
G75*
G02*
X583400I-116840J0D01*
G01*
X401360D01*
G37*
X3395840Y6225940D02*
G36*
X3395840Y6225940D02*
Y6189540D01*
X3429540Y6155840D01*
X3520650D01*
G75*
G02*
X3721350Y6088240I84590J-80600D01*
G01*
X3804640D01*
G75*
G02*
X4004830Y6151840I115600J-17000D01*
G01*
X4086940D01*
X4099640Y6164540D01*
Y6199640D01*
X3967730D01*
G75*
G02*
X3928100Y6208660I-2510J80550D01*
G01*
G75*
G02*
X3832010Y6248640I-7860J116580D01*
G01*
X3689830D01*
G75*
G02*
X3520650I-84590J80600D01*
G01*
X3418540D01*
X3395840Y6225940D01*
G37*
X4000840Y6850240D02*
G36*
X4000840Y6850240D02*
Y6409830D01*
G75*
G02*
X4031520Y6360840I-80580J-84560D01*
G01*
X4120240D01*
G75*
G02*
X4197630Y6302750I-10J-80610D01*
G01*
X4220070Y6280310D01*
G75*
G02*
X4259120Y6226830I-39810J-70070D01*
G01*
Y6850240D01*
X4000840D01*
G37*
X4225040Y6088240D02*
G36*
X4225040Y6088240D02*
X4259120D01*
Y6138650D01*
G75*
G02*
X4225040Y6088240I-78860J16590D01*
G01*
G37*
X401360Y7104240D02*
G36*
X401360Y7104240D02*
Y6850240D01*
X583400D01*
G75*
G02*
X817080I116840J0D01*
G01*
X3613530D01*
G75*
G02*
X3622900Y6855240I56710J-95000D01*
G01*
G75*
G02*
X3559600Y6955240I47340J100000D01*
G01*
G75*
G02*
X3622900Y7055240I110640J0D01*
G01*
G75*
G02*
X3572060Y7104240I47340J100000D01*
G01*
X817080D01*
G75*
G02*
X583400I-116840J0D01*
G01*
X401360D01*
G37*
X3717580Y6855240D02*
G36*
X3717580Y6855240D02*
G75*
G02*
X3726950Y6850240I-47340J-100000D01*
G01*
X3839640D01*
Y7066800D01*
X3831800Y7074640D01*
X3746030D01*
G75*
G02*
X3717580Y7055240I-75790J80590D01*
G01*
G75*
G02*
X3780880Y6955240I-47340J-100000D01*
G01*
G75*
G02*
X3717580Y6855240I-110640J0D01*
G01*
G37*
X4000840Y7097750D02*
G36*
X4000840Y7097750D02*
Y6850240D01*
X4259120D01*
Y7104240D01*
X4000780D01*
G75*
G02*
X4000880Y7100240I-80570J-4020D01*
G01*
G75*
G02*
X4000840Y7097750I-78190J10D01*
G01*
G37*
X401360Y7358240D02*
G36*
X401360Y7358240D02*
Y7104240D01*
X583400D01*
G75*
G02*
X817080I116840J0D01*
G01*
X3572060D01*
G75*
G02*
X3559600Y7155240I98190J51010D01*
G01*
G75*
G02*
X3605060Y7244640I110640J0D01*
G01*
X3558640D01*
Y7358240D01*
X817080D01*
G75*
G02*
X583400I-116840J0D01*
G01*
X401360D01*
G37*
X3735420Y7244640D02*
G36*
X3735420Y7244640D02*
G75*
G02*
X3746030Y7235840I-64490J-88560D01*
G01*
X3862750D01*
G75*
G02*
X3922260Y7212260I2490J-80600D01*
G01*
X3977260Y7157260D01*
G75*
G02*
X4000780Y7104240I-57030J-57020D01*
G01*
X4259120D01*
Y7358240D01*
X3781840D01*
Y7244640D01*
X3735420D01*
G37*
X401360Y7564120D02*
G36*
X401360Y7564120D02*
Y7358240D01*
X583400D01*
G75*
G02*
X817080I116840J0D01*
G01*
X3558640D01*
Y7465840D01*
X3781840D01*
Y7358240D01*
X4259120D01*
Y7564120D01*
X401360D01*
G37*
X1930240Y1586940D02*
Y1346840D01*
X1984640D01*
Y1374340D01*
X2365840D01*
Y1158140D01*
X1984640D01*
Y1185640D01*
X1930240D01*
Y391120D01*
X4040240D01*
Y2265240D01*
X3906910D01*
G75*
G02*
X3887260Y2233220I-76670J25010D01*
G01*
X3790380Y2136340D01*
X3889840D01*
Y1920140D01*
X3508640D01*
Y2133200D01*
X3508540Y2133100D01*
Y1846380D01*
X3508640Y1846280D01*
Y1882340D01*
X3889840D01*
Y1666140D01*
X3508640D01*
Y1720940D01*
X3507410D01*
G75*
G02*
X3467520Y1736520I-2170J53300D01*
G01*
X3428540Y1775500D01*
Y1622380D01*
X3477380Y1573540D01*
X3508640D01*
Y1628340D01*
X3889840D01*
Y1412140D01*
X3508640D01*
Y1466940D01*
X3457410D01*
G75*
G02*
X3417520Y1482520I-2170J53300D01*
G01*
X3337520Y1562520D01*
G75*
G02*
X3321900Y1600240I37720J37720D01*
G01*
G75*
G02*
X3321940Y1602410I53350J100D01*
G01*
Y2073100D01*
X3288100Y2106940D01*
X3284540D01*
G75*
G02*
X3118800Y2160240I-74300J53300D01*
G01*
G75*
G02*
X3284540Y2213540I91440J0D01*
G01*
X3308070D01*
G75*
G02*
X3321940Y2212290I2190J-53300D01*
G01*
Y2265240D01*
X2893540D01*
Y2079540D01*
G75*
G02*
X2875890Y1921030I-53300J-74300D01*
G01*
X3477380Y1319540D01*
X3508640D01*
Y1374340D01*
X3889840D01*
Y1158140D01*
X3508640D01*
Y1212940D01*
X3457410D01*
G75*
G02*
X3417520Y1228520I-2170J53300D01*
G01*
X2799100Y1846940D01*
X2365840D01*
Y1693540D01*
X2908070D01*
G75*
G02*
X2947960Y1677960I2170J-53300D01*
G01*
X3392960Y1232960D01*
G75*
G02*
X3408580Y1195240I-37720J-37720D01*
G01*
G75*
G02*
X3408540Y1193070I-53370J-100D01*
G01*
Y1117380D01*
X3460380Y1065540D01*
X3508640D01*
Y1120340D01*
X3889840D01*
Y904140D01*
X3508640D01*
Y958940D01*
X3440410D01*
G75*
G02*
X3400520Y974520I-2170J53300D01*
G01*
X3317520Y1057520D01*
G75*
G02*
X3301900Y1095240I37720J37720D01*
G01*
G75*
G02*
X3301940Y1097410I53350J100D01*
G01*
Y1173100D01*
X2888100Y1586940D01*
X2365840D01*
Y1412140D01*
X1984640D01*
Y1586940D01*
X1930240D01*
X3508640Y866340D02*
X3889840D01*
Y650140D01*
X3508640D01*
Y866340D01*
X2513800Y1385240D02*
G75*
G02*
X2692690Y1411940I91440J0D01*
G01*
G75*
G02*
X2846680Y1345240I62550J-66700D01*
G01*
G75*
G02*
X2808540Y1270940I-91440J0D01*
G01*
Y1025410D01*
G75*
G02*
X2808580Y1023240I-53330J-2070D01*
G01*
G75*
G02*
X2792960Y985520I-53340J0D01*
G01*
X2527960Y720520D01*
G75*
G02*
X2488070Y704940I-37720J37720D01*
G01*
X2365840D01*
Y650140D01*
X1984640D01*
Y866340D01*
X2365840D01*
Y811540D01*
X2468100D01*
X2701940Y1045380D01*
Y1270940D01*
G75*
G02*
X2667790Y1318540I53310J74300D01*
G01*
G75*
G02*
X2658540Y1310940I-62580J66740D01*
G01*
Y1214410D01*
G75*
G02*
X2658580Y1212240I-53330J-2070D01*
G01*
G75*
G02*
X2642960Y1174520I-53340J0D01*
G01*
X2442960Y974520D01*
G75*
G02*
X2403070Y958940I-37720J37720D01*
G01*
X2365840D01*
Y904140D01*
X1984640D01*
Y1120340D01*
X2365840D01*
Y1065540D01*
X2383100D01*
X2551940Y1234380D01*
Y1310940D01*
G75*
G02*
X2513800Y1385240I53300J74300D01*
G01*
X1945480Y758240D02*
G36*
X1945480Y758240D02*
Y406360D01*
X4025000D01*
Y758240D01*
X3889840D01*
Y650140D01*
X3508640D01*
Y758240D01*
X2565680D01*
X2527960Y720520D01*
G75*
G02*
X2488070Y704940I-37710J37690D01*
G01*
X2365840D01*
Y650140D01*
X1984640D01*
Y758240D01*
X1945480D01*
G37*
Y1185640D02*
G36*
X1945480Y1185640D02*
Y758240D01*
X1984640D01*
Y866340D01*
X2365840D01*
Y811540D01*
X2468100D01*
X2701940Y1045380D01*
Y1270940D01*
G75*
G02*
X2667790Y1318540I53300J74290D01*
G01*
G75*
G02*
X2658540Y1310940I-62810J67020D01*
G01*
Y1214410D01*
G75*
G02*
X2658580Y1212250I-58320J-2160D01*
G01*
G75*
G02*
Y1212240I-63660J0D01*
G01*
G75*
G02*
X2642960Y1174520I-53380J10D01*
G01*
X2442960Y974520D01*
G75*
G02*
X2403070Y958940I-37710J37690D01*
G01*
X2365840D01*
Y904140D01*
X1984640D01*
Y1120340D01*
X2365840D01*
Y1065540D01*
X2383100D01*
X2551940Y1234380D01*
Y1310940D01*
G75*
G02*
X2513800Y1385230I53280J74290D01*
G01*
G75*
G02*
Y1385240I114590J10D01*
G01*
G75*
G02*
X2692690Y1411940I91440J-10D01*
G01*
G75*
G02*
X2846680Y1345240I62550J-66700D01*
G01*
G75*
G02*
Y1345230I-114590J0D01*
G01*
G75*
G02*
X2808540Y1270940I-91420J0D01*
G01*
Y1025410D01*
G75*
G02*
X2808580Y1023250I-58320J-2160D01*
G01*
G75*
G02*
Y1023240I-63660J0D01*
G01*
G75*
G02*
X2792960Y985520I-53380J10D01*
G01*
X2565680Y758240D01*
X3508640D01*
Y866340D01*
X3889840D01*
Y758240D01*
X4025000D01*
Y2250000D01*
X3900130D01*
G75*
G02*
X3887260Y2233220I-69770J40190D01*
G01*
X3790380Y2136340D01*
X3889840D01*
Y1920140D01*
X3508640D01*
Y2133200D01*
X3508540Y2133100D01*
Y1846380D01*
X3508640Y1846280D01*
Y1882340D01*
X3889840D01*
Y1666140D01*
X3508640D01*
Y1720940D01*
X3507410D01*
G75*
G02*
X3467520Y1736520I-2180J53270D01*
G01*
X3428540Y1775500D01*
Y1622380D01*
X3477380Y1573540D01*
X3508640D01*
Y1628340D01*
X3889840D01*
Y1412140D01*
X3508640D01*
Y1466940D01*
X3457410D01*
G75*
G02*
X3417520Y1482520I-2180J53270D01*
G01*
X3337520Y1562520D01*
G75*
G02*
X3321900Y1600240I37760J37730D01*
G01*
G75*
G02*
X3321940Y1602410I59450J-10D01*
G01*
Y2073100D01*
X3288100Y2106940D01*
X3284540D01*
G75*
G02*
X3118800Y2160240I-74300J53300D01*
G01*
G75*
G02*
X3192800Y2250000I91440J0D01*
G01*
X2893540D01*
Y2079540D01*
G75*
G02*
X2931680Y2005240I-53300J-74300D01*
G01*
G75*
G02*
X2875890Y1921030I-91450J0D01*
G01*
X3477380Y1319540D01*
X3508640D01*
Y1374340D01*
X3889840D01*
Y1158140D01*
X3508640D01*
Y1212940D01*
X3457410D01*
G75*
G02*
X3417520Y1228520I-2180J53270D01*
G01*
X2799100Y1846940D01*
X2365840D01*
Y1693540D01*
X2908070D01*
G75*
G02*
X2947960Y1677960I2180J-53270D01*
G01*
X3392960Y1232960D01*
G75*
G02*
X3408580Y1195240I-37760J-37730D01*
G01*
G75*
G02*
Y1195230I-63660J0D01*
G01*
G75*
G02*
X3408540Y1193070I-58360J0D01*
G01*
Y1117380D01*
X3460380Y1065540D01*
X3508640D01*
Y1120340D01*
X3889840D01*
Y904140D01*
X3508640D01*
Y958940D01*
X3440410D01*
G75*
G02*
X3400520Y974520I-2180J53270D01*
G01*
X3317520Y1057520D01*
G75*
G02*
X3301900Y1095240I37760J37730D01*
G01*
G75*
G02*
X3301940Y1097410I59450J-10D01*
G01*
Y1173100D01*
X2888100Y1586940D01*
X2365840D01*
Y1412140D01*
X1984640D01*
Y1586940D01*
X1945480D01*
Y1346840D01*
X1984640D01*
Y1374340D01*
X2365840D01*
Y1158140D01*
X1984640D01*
Y1185640D01*
X1945480D01*
G37*
X3227690Y2250000D02*
G36*
X3227690Y2250000D02*
G75*
G02*
X3284540Y2213540I-17450J-89760D01*
G01*
X3308070D01*
G75*
G02*
X3321940Y2212290I2200J-53210D01*
G01*
Y2250000D01*
X3227690D01*
G37*
D02*
D12*
X636740Y1770240D02*
X583400D01*
X636740Y3294240D02*
X583400D01*
X636740Y4310240D02*
X583400D01*
X636740Y6088240D02*
X583400D01*
X636740Y6342240D02*
X583400D01*
X700240Y1706740D02*
Y1653400D01*
Y1833740D02*
Y1887080D01*
Y3230740D02*
Y3177400D01*
Y3357740D02*
Y3411080D01*
Y4246740D02*
Y4193400D01*
Y4373740D02*
Y4427080D01*
Y4564240D02*
X1126240D01*
X1185240Y4505240D01*
Y3685240D01*
X700240Y4818240D02*
X703240D01*
X960240Y5075240D01*
X1340240D01*
X1510240Y4910240D01*
Y4865240D01*
X1750240Y4625240D01*
X700240Y5072240D02*
X852240D01*
X950240Y5170240D01*
X1370240D01*
X1440240Y5100240D01*
Y5090240D01*
X1755240Y4775240D01*
X700240Y5580240D02*
X950240Y5330240D01*
X1775240D01*
X2000240Y5105240D01*
Y3570240D01*
X700240Y6024740D02*
Y5971400D01*
Y6151740D02*
Y6205080D01*
Y6278740D02*
Y6225400D01*
Y6405740D02*
Y6459080D01*
X763740Y1770240D02*
X817080D01*
X763740Y3294240D02*
X817080D01*
X763740Y4310240D02*
X817080D01*
X763740Y6088240D02*
X817080D01*
X763740Y6342240D02*
X817080D01*
X872940Y1345240D02*
X819600D01*
X970240Y1247940D02*
Y1194600D01*
Y1442540D02*
Y1495880D01*
X1067540Y1345240D02*
X1120880D01*
X1167940Y1025240D02*
X1114600D01*
X1201940Y2220240D02*
X1148640D01*
X1245240Y947940D02*
Y894600D01*
Y1102540D02*
Y1155880D01*
X1260240Y2277540D02*
Y2330840D01*
X1318540Y2220240D02*
X1371840D01*
X1322540Y1025240D02*
X1375880D01*
X1405240Y4845240D02*
Y3570240D01*
X1250240Y3415240D01*
Y2785240D01*
X1710240Y3200240D02*
X2375240D01*
X2465240Y3110240D01*
X2805240D01*
X2850240Y3155240D01*
X1755240Y2645240D02*
Y2640240D01*
X1925240Y2470240D01*
Y2210240D01*
X1975240Y2160240D01*
X2455240D01*
X1765240Y2425240D02*
Y1975240D01*
X1840240Y1900240D01*
X2821240D01*
X3455240Y1266240D01*
X3699240D01*
X1860240Y3570240D02*
Y4130240D01*
X1895240Y4165240D01*
Y4785240D01*
X1435240Y5245240D01*
X775240D01*
X700240Y5320240D01*
Y5326240D01*
X2037940Y1520240D02*
X1984640D01*
X2037940D02*
X1984640D01*
X2175240Y1465440D02*
Y1412140D01*
Y1465440D02*
Y1412140D01*
X2192940Y3365240D02*
X2139640D01*
X2192940Y4130240D02*
X2139640D01*
X2192940Y4895240D02*
X2139640D01*
X2250240Y3306940D02*
Y3253640D01*
Y3423540D02*
Y3476840D01*
Y4071940D02*
Y4018640D01*
Y4188540D02*
Y4241840D01*
Y4836940D02*
Y4783640D01*
Y4953540D02*
Y5006840D01*
X2312540Y1520240D02*
X2365840D01*
X2555240Y2375240D02*
Y2070240D01*
X2513240Y2028240D01*
X2175240D01*
X2600240Y2870240D02*
X2590240D01*
Y2580240D01*
X2695240Y2475240D01*
Y2015240D01*
X2605240Y1385240D02*
Y1212240D01*
X2405240Y1012240D01*
X2175240D01*
X2650240Y3365240D02*
Y3315240D01*
X2600240Y3225240D01*
X2755240Y1345240D02*
Y1023240D01*
X2490240Y758240D01*
X2175240D01*
X2850240Y2870240D02*
Y2380240D01*
X2840240D01*
Y2005240D01*
X2850240Y3365240D02*
Y3155240D01*
Y4895240D02*
X3320240D01*
X3375240Y4840240D01*
Y4265240D01*
X3210240Y2160240D02*
X3310240D01*
X3375240Y2095240D01*
X3250240Y2935240D02*
X3505240D01*
X3555240Y2885240D01*
Y2255240D01*
X3455240Y2155240D01*
Y1824240D01*
X3505240Y1774240D01*
X3699240D01*
X3250240Y4145240D02*
Y4515240D01*
X3145240Y4620240D01*
X2910240D01*
X2700240D01*
X2650240Y4670240D01*
Y4895240D01*
X3339210Y4025240D02*
X3285260D01*
X3365240Y4042540D02*
Y4095840D01*
X3375240Y2095240D02*
Y1600240D01*
X3455240Y1520240D01*
X3699240D01*
X3375240Y2825240D02*
Y2095240D01*
X3391270Y4025240D02*
X3445220D01*
X3541740Y4129240D02*
X3488400D01*
X3561940Y758240D02*
X3508640D01*
X3605240Y4065740D02*
Y4012400D01*
Y4192740D02*
Y4246080D01*
X3611940Y7355240D02*
X3558640D01*
X3668740Y4129240D02*
X3722080D01*
X3670240Y7412540D02*
Y7465840D01*
X3699240Y703440D02*
Y650140D01*
Y703440D02*
Y650140D01*
Y813040D02*
Y866340D01*
Y813040D02*
Y866340D01*
Y1012240D02*
X3438240D01*
X3355240Y1095240D01*
Y1195240D01*
X2910240Y1640240D01*
X1925240D01*
X1625240Y1940240D01*
Y2355240D01*
X3728540Y7355240D02*
X3781840D01*
X3836540Y758240D02*
X3889840D01*
X3836540D02*
X3889840D01*
X3881740Y4649240D02*
X3828400D01*
X3945240Y4585740D02*
Y4532400D01*
Y4712740D02*
Y4766080D01*
X4008740Y4649240D02*
X4062080D01*
D02*
D13*
X460240Y4110240D02*
Y6356240D01*
X700240Y6596240D01*
X495240Y1460240D02*
X670240Y1285240D01*
Y1240240D01*
X885240Y1025240D01*
X495240Y1460240D02*
X460240Y1495240D01*
Y4110240D01*
X700240Y4056240D02*
X514240D01*
X460240Y4110240D01*
X700240Y4310240D02*
X765240D01*
X920240Y4155240D01*
Y3514240D01*
X700240Y3294240D01*
Y6088240D02*
X1270240D01*
Y6090240D01*
X1519240Y6339240D01*
X1840240D01*
X700240Y6342240D02*
Y6088240D01*
X970240Y1345240D02*
Y1300240D01*
X1245240Y1025240D01*
X1260240Y2020240D02*
X1170240D01*
X1055240Y1905240D01*
Y1830240D01*
X915240Y1690240D01*
Y1585240D01*
X765240Y1435240D01*
X520240D01*
X495240Y1460240D01*
X1260240Y2220240D02*
Y2205240D01*
X1070240D01*
X905240Y2040240D01*
Y1975240D01*
X700240Y1770240D01*
X1840240Y6339240D02*
X1846240D01*
X2250240Y5935240D01*
Y5230240D01*
X2175240Y1266240D02*
X1895240D01*
Y1265240D01*
X1875240Y1245240D01*
X1625240D01*
X2175240Y1520240D02*
X2800240D01*
X2955240Y1365240D01*
Y1088240D01*
X3285240Y758240D01*
X3699240D01*
X2175240Y1520240D02*
X1440240D01*
X1265240Y1345240D01*
X970240D01*
X2250240Y3365240D02*
X1640240D01*
X1425240Y3150240D01*
Y2595240D01*
Y2385240D01*
X1260240Y2220240D01*
X2250240Y4130240D02*
Y3365240D01*
Y4895240D02*
Y4130240D01*
Y5230240D02*
Y4895240D01*
Y5230240D02*
X2330240Y5310240D01*
X3810240D01*
X3945240Y5175240D01*
Y4649240D01*
X2450240Y3495240D02*
Y3365240D01*
Y4130240D02*
Y3590240D01*
Y3495240D01*
Y4895240D02*
Y4130240D01*
X3605240Y3875240D02*
X3440240D01*
X3605240D02*
X3945240D01*
X3605240Y4129240D02*
X3469240D01*
X3605240Y6075240D02*
Y5905240D01*
X4170240Y5340240D01*
Y4445240D01*
X4120240Y4395240D01*
X3945240D01*
X3605240Y6075240D02*
X3410240D01*
X3605240Y6329240D02*
X3399240D01*
X3605240D02*
X3916240D01*
X3920240Y6325240D01*
X3670240Y7155240D02*
X3865240D01*
X3920240Y7100240D01*
Y6325240D01*
X3670240Y7355240D02*
X1955240D01*
X1840240Y7240240D01*
Y6339240D01*
X3699240Y2028240D02*
Y2159240D01*
X3830240Y2290240D01*
Y2960240D01*
X3705240Y3085240D01*
X3090240D01*
X3015240Y3010240D01*
X1930240D01*
X1900240Y2980240D01*
X1660240D01*
X3920240Y6071240D02*
X4106240D01*
X3945240Y3340240D02*
X3755240D01*
X3520240Y3575240D01*
X2530240D01*
X2450240Y3495240D01*
X3945240Y3875240D02*
Y3594240D01*
Y3875240D02*
X4100240D01*
X3945240Y4129240D02*
X4071240D01*
X3945240Y4395240D02*
Y4129240D01*
Y4649240D02*
X3724240D01*
X3605240Y4530240D01*
Y4129240D01*
X4120240Y6280240D02*
X3965240D01*
X3920240Y6325240D01*
D02*
D14*
X970240Y1345240D03*
X1625240Y1245240D03*
X1660240Y2980240D03*
D02*
D15*
X3399240Y6329240D02*
X3315240Y6245240D01*
X3410240Y6075240D02*
X3315240Y6170240D01*
X3440240Y3875240D02*
X3365240Y3950240D01*
X3469240Y4129240D02*
X3365240Y4025240D01*
X4071240Y4129240D02*
X4175240Y4025240D01*
X4100240Y3875240D02*
X4175240Y3950240D01*
X4106240Y6071240D02*
X4180240Y6145240D01*
Y6220240D02*
X4120240Y6280240D01*
D02*
D16*
X1185240Y3685240D03*
X1250240Y2785240D03*
X1405240Y4845240D03*
X1625240Y2355240D03*
X1710240Y3200240D03*
X1750240Y4625240D03*
X1755240Y2645240D03*
Y4775240D03*
X1765240Y2425240D03*
X1860240Y3570240D03*
X2000240D03*
X2455240Y2160240D03*
X2555240Y2375240D03*
X2600240Y2870240D03*
Y3225240D03*
X2605240Y1385240D03*
X2695240Y2015240D03*
X2755240Y1345240D03*
X2840240Y2005240D03*
X2850240Y2870240D03*
Y3155240D03*
X3210240Y2160240D03*
X3250240Y2935240D03*
Y4145240D03*
X3375240Y2825240D03*
Y4265240D03*
D02*
D17*
X2250240Y3365240D03*
Y4130240D03*
Y4895240D03*
D02*
D18*
X1260240Y1620240D03*
Y1820240D03*
Y2020240D03*
X2450240Y3365240D03*
Y4130240D03*
Y4895240D03*
X2650240Y3365240D03*
Y4130240D03*
Y4895240D03*
X2850240Y3365240D03*
Y4130240D03*
Y4895240D03*
X3670240Y6755240D03*
Y6955240D03*
Y7155240D03*
D02*
D19*
X2175240Y758240D03*
Y1012240D03*
Y1266240D03*
Y1520240D03*
Y1774240D03*
Y2028240D03*
Y2282240D03*
Y2536240D03*
Y2790240D03*
X3699240Y758240D03*
Y1012240D03*
Y1266240D03*
Y1520240D03*
Y1774240D03*
Y2028240D03*
D02*
D70*
X700240Y1770240D03*
Y2024240D03*
Y2278240D03*
Y2532240D03*
Y2786240D03*
Y3040240D03*
Y3294240D03*
Y3548240D03*
Y3802240D03*
Y4056240D03*
Y4310240D03*
Y4564240D03*
Y4818240D03*
Y5072240D03*
Y5326240D03*
Y5580240D03*
Y6088240D03*
Y6342240D03*
Y6596240D03*
Y6850240D03*
Y7104240D03*
Y7358240D03*
X3605240Y3875240D03*
Y4129240D03*
Y6075240D03*
Y6329240D03*
X3920240Y6071240D03*
Y6325240D03*
X3945240Y3340240D03*
Y3594240D03*
Y3875240D03*
Y4129240D03*
Y4395240D03*
Y4649240D03*
D02*
D71*
X3315240Y6170240D03*
X3365240Y3950240D03*
X4175240D03*
X4180240Y6145240D03*
D02*
D20*
X3315240Y6245240D03*
X3365240Y4025240D03*
X4175240D03*
X4180240Y6220240D03*
D02*
D21*
X1260240Y2220240D03*
X3670240Y7355240D03*
D02*
D22*
X885240Y1025240D03*
X1245240D03*
D02*
D23*
X633240Y645240D03*
X1497240D03*
X0Y0D02*
M02*
